<svg width="193" height="45" viewBox="0 0 193 45" fill="none" xmlns="http://www.w3.org/2000/svg">
<rect x="1" y="1" width="191" height="43" rx="4" fill="#FDFDFD"/>
<rect x="0.5" y="0.5" width="192" height="44" rx="4.5" stroke="black" stroke-opacity="0.0578"/>
<g clip-path="url(#clip0_1049_9090)">
<g clip-path="url(#clip1_1049_9090)">
<path d="M10.3438 15.1667C10.3438 14.6604 10.7542 14.25 11.2604 14.25H30.7396C31.2458 14.25 31.6562 14.6604 31.6562 15.1667V29.0313C31.6562 31.1196 29.9633 32.8125 27.875 32.8125H14.125C12.0367 32.8125 10.3438 31.1196 10.3438 29.0313V15.1667Z" fill="url(#paint0_linear_1049_9090)"/>
<mask id="mask0_1049_9090" style="mask-type:alpha" maskUnits="userSpaceOnUse" x="10" y="14" width="22" height="19">
<path d="M10.3438 15.1667C10.3438 14.6604 10.7542 14.25 11.2604 14.25H30.7396C31.2458 14.25 31.6562 14.6604 31.6562 15.1667V29.0313C31.6562 31.1196 29.9633 32.8125 27.875 32.8125H14.125C12.0367 32.8125 10.3438 31.1196 10.3438 29.0313V15.1667Z" fill="url(#paint1_linear_1049_9090)"/>
</mask>
<g mask="url(#mask0_1049_9090)">
<g filter="url(#filter0_dd_1049_9090)">
<path d="M15.8438 14.9375V12.1875H26.1562V14.9375" stroke="url(#paint2_linear_1049_9090)" stroke-width="1.375" stroke-linecap="round"/>
</g>
</g>
<g filter="url(#filter1_dd_1049_9090)">
<path d="M20.6565 19.0625H16.5315V23.1875H20.6565V19.0625Z" fill="#F25022"/>
<path d="M25.4688 19.0625H21.3438V23.1875H25.4688V19.0625Z" fill="#7FBA00"/>
<path d="M25.4688 23.875H21.3438V28H25.4688V23.875Z" fill="#FFB900"/>
<path d="M20.6562 23.875H16.5312V28H20.6562V23.875Z" fill="#00A4EF"/>
</g>
<path d="M15.8438 14.9375V12.875C15.8438 12.4953 16.1516 12.1875 16.5313 12.1875H25.4688C25.8484 12.1875 26.1562 12.4953 26.1562 12.875V14.9375" stroke="url(#paint3_linear_1049_9090)" stroke-width="1.375" stroke-linecap="round"/>
<rect x="16.5312" y="11.5" width="8.9375" height="1.375" fill="url(#paint4_linear_1049_9090)"/>
<mask id="mask1_1049_9090" style="mask-type:alpha" maskUnits="userSpaceOnUse" x="16" y="11" width="10" height="2">
<rect x="16.5312" y="11.5" width="8.9375" height="1.375" fill="url(#paint5_linear_1049_9090)"/>
</mask>
<g mask="url(#mask1_1049_9090)">
<g filter="url(#filter2_dd_1049_9090)">
<rect x="14.5454" y="12.1878" width="1.98611" height="3.4375" fill="#C4C4C4"/>
</g>
</g>
</g>
</g>
<path d="M39.43 12.06C39.23 12.06 39.09 12.0067 39.01 11.9C38.93 11.7867 38.89 11.6267 38.89 11.42V10.36C38.89 10.18 38.8533 10.0467 38.78 9.96C38.7067 9.86667 38.5967 9.82 38.45 9.82V9.4L39.58 9.32C39.6533 9.38667 39.7133 9.47667 39.76 9.59C39.8067 9.70333 39.83 9.87667 39.83 10.11V10.93C39.83 11.05 39.8467 11.1533 39.88 11.24C39.9133 11.32 39.97 11.3833 40.05 11.43C40.1367 11.47 40.2533 11.49 40.4 11.49V11.91C40.2267 11.95 40.0567 11.9867 39.89 12.02C39.7233 12.0467 39.57 12.06 39.43 12.06ZM39.73 17.05C39.6367 16.95 39.57 16.8133 39.53 16.64C39.49 16.4667 39.47 16.2767 39.47 16.07V13.76C39.47 13.12 39.5833 12.5867 39.81 12.16C40.0433 11.7333 40.3567 11.4133 40.75 11.2C41.15 10.98 41.6033 10.87 42.11 10.87C42.57 10.87 42.9367 10.9567 43.21 11.13C43.4833 11.2967 43.6767 11.55 43.79 11.89C43.91 12.2233 43.97 12.64 43.97 13.14C43.97 13.3 43.9667 13.4933 43.96 13.72C43.96 13.94 43.9567 14.1767 43.95 14.43C43.95 14.6767 43.9467 14.92 43.94 15.16C43.94 15.4 43.94 15.6167 43.94 15.81C43.94 16.1033 43.9867 16.3 44.08 16.4C44.1733 16.4933 44.3233 16.54 44.53 16.54V16.96L43.2 17.05C43.1067 16.95 43.04 16.8233 43 16.67C42.96 16.51 42.94 16.31 42.94 16.07C42.94 15.8367 42.94 15.5967 42.94 15.35C42.9467 15.0967 42.95 14.8433 42.95 14.59C42.95 14.33 42.95 14.0733 42.95 13.82C42.9567 13.56 42.96 13.31 42.96 13.07C42.96 12.4967 42.8867 12.0667 42.74 11.78C42.5933 11.4933 42.3333 11.35 41.96 11.35C41.6467 11.35 41.3767 11.44 41.15 11.62C40.93 11.7933 40.76 12.0767 40.64 12.47C40.5267 12.8567 40.47 13.37 40.47 14.01V15.81C40.47 16.1033 40.5167 16.3 40.61 16.4C40.7033 16.4933 40.8533 16.54 41.06 16.54V16.96L39.73 17.05Z" fill="black" fill-opacity="0.8956"/>
<path d="M51.4219 35H49.5781V27.8516C49.5781 27.5286 49.5859 27.1771 49.6016 26.7969C49.6224 26.4115 49.6484 26.0026 49.6797 25.5703H49.6328C49.5703 25.8672 49.5104 26.1224 49.4531 26.3359C49.401 26.5443 49.349 26.7109 49.2969 26.8359L46.0078 35H44.7266L41.4219 26.9062C41.3802 26.7917 41.3281 26.6224 41.2656 26.3984C41.2083 26.1745 41.1458 25.8984 41.0781 25.5703H41.0312C41.0625 25.9453 41.0833 26.3438 41.0938 26.7656C41.1042 27.1823 41.1094 27.6224 41.1094 28.0859V35H39.3906V23.7969H42.0156L44.9297 31.0781C45.0443 31.3542 45.138 31.6094 45.2109 31.8438C45.2891 32.0729 45.349 32.2865 45.3906 32.4844H45.4375C45.5312 32.1875 45.6198 31.9193 45.7031 31.6797C45.7865 31.4401 45.8646 31.2318 45.9375 31.0547L48.8906 23.7969H51.4219V35ZM54.8984 25.4531C54.5651 25.4531 54.2891 25.3464 54.0703 25.1328C53.8516 24.9193 53.7422 24.6562 53.7422 24.3438C53.7422 24.0208 53.8516 23.7552 54.0703 23.5469C54.2891 23.3385 54.5651 23.2344 54.8984 23.2344C55.237 23.2344 55.5156 23.3385 55.7344 23.5469C55.9531 23.7552 56.0625 24.0208 56.0625 24.3438C56.0625 24.6615 55.9531 24.9271 55.7344 25.1406C55.5156 25.349 55.237 25.4531 54.8984 25.4531ZM55.7969 35H53.9766V27H55.7969V35ZM64.1562 34.5078C63.7604 34.7474 63.3672 34.9193 62.9766 35.0234C62.5859 35.1328 62.1615 35.1875 61.7031 35.1875C60.474 35.1875 59.4896 34.8281 58.75 34.1094C58.0156 33.3906 57.6484 32.4141 57.6484 31.1797C57.6484 29.8516 58.0286 28.7917 58.7891 28C59.5547 27.2083 60.5859 26.8125 61.8828 26.8125C62.3359 26.8125 62.7474 26.862 63.1172 26.9609C63.4922 27.0547 63.8724 27.2109 64.2578 27.4297L63.5469 28.6953C63.276 28.5443 63.0104 28.4349 62.75 28.3672C62.4896 28.2943 62.2057 28.2578 61.8984 28.2578C61.1328 28.2578 60.5417 28.5104 60.125 29.0156C59.7083 29.5208 59.5 30.1901 59.5 31.0234C59.5 31.8984 59.724 32.5703 60.1719 33.0391C60.625 33.5078 61.1927 33.7422 61.875 33.7422C62.0833 33.7422 62.3229 33.7057 62.5938 33.6328C62.8646 33.5547 63.138 33.4323 63.4141 33.2656L64.1562 34.5078ZM70.1484 28.5234C70.0495 28.4974 69.9531 28.4792 69.8594 28.4688C69.7708 28.4531 69.6667 28.4453 69.5469 28.4453C68.8958 28.4453 68.3958 28.6849 68.0469 29.1641C67.6979 29.6432 67.5234 30.2682 67.5234 31.0391V35H65.7031V27H67.5234V28.5391H67.5547C67.7422 27.987 68.0182 27.5703 68.3828 27.2891C68.7474 27.0026 69.1771 26.8594 69.6719 26.8594C69.8125 26.8594 69.9375 26.8672 70.0469 26.8828C70.1615 26.8984 70.2708 26.9219 70.375 26.9531L70.1484 28.5234ZM75.1719 35.1875C73.9219 35.1875 72.9297 34.8151 72.1953 34.0703C71.4661 33.3203 71.1016 32.3177 71.1016 31.0625C71.1068 29.7344 71.487 28.6953 72.2422 27.9453C72.9974 27.1901 74.026 26.8125 75.3281 26.8125C76.5833 26.8073 77.5625 27.1771 78.2656 27.9219C78.974 28.6615 79.3281 29.6641 79.3281 30.9297C79.3281 32.2318 78.9531 33.2682 78.2031 34.0391C77.4583 34.8047 76.4479 35.1875 75.1719 35.1875ZM75.2578 33.7422C75.9818 33.7422 76.5312 33.5052 76.9062 33.0312C77.2865 32.5573 77.4766 31.8724 77.4766 30.9766C77.4766 30.0911 77.2865 29.4167 76.9062 28.9531C76.526 28.4896 75.974 28.2578 75.25 28.2578C74.5365 28.2578 73.974 28.5026 73.5625 28.9922C73.1562 29.4818 72.9531 30.1589 72.9531 31.0234C72.9531 31.8932 73.1562 32.5651 73.5625 33.0391C73.9688 33.5078 74.5339 33.7422 75.2578 33.7422ZM80.4062 34.3594L81.1953 33.0781C81.5078 33.2969 81.8385 33.474 82.1875 33.6094C82.5417 33.7396 82.9245 33.8047 83.3359 33.8047C83.7839 33.8047 84.1302 33.724 84.375 33.5625C84.625 33.3958 84.75 33.1484 84.75 32.8203C84.75 32.5599 84.6458 32.3438 84.4375 32.1719C84.2344 31.9948 83.8854 31.849 83.3906 31.7344C82.3906 31.5 81.6875 31.1901 81.2812 30.8047C80.8802 30.4193 80.6797 29.9115 80.6797 29.2812C80.6797 28.5573 80.9609 27.9661 81.5234 27.5078C82.0859 27.0443 82.8229 26.8125 83.7344 26.8125C84.1875 26.8125 84.6198 26.8724 85.0312 26.9922C85.4427 27.1068 85.8438 27.2917 86.2344 27.5469L85.5 28.7969C85.1562 28.5781 84.8411 28.4219 84.5547 28.3281C84.2682 28.2344 83.974 28.1875 83.6719 28.1875C83.2448 28.1875 82.9115 28.2682 82.6719 28.4297C82.4375 28.5859 82.3203 28.8047 82.3203 29.0859C82.3203 29.3828 82.4401 29.6042 82.6797 29.75C82.9245 29.8906 83.3333 30.0286 83.9062 30.1641C84.7708 30.3724 85.4036 30.6745 85.8047 31.0703C86.2057 31.4609 86.4062 31.9844 86.4062 32.6406C86.4062 33.4167 86.1224 34.0365 85.5547 34.5C84.9922 34.9583 84.2292 35.1875 83.2656 35.1875C82.7448 35.1875 82.2448 35.1198 81.7656 34.9844C81.2917 34.8438 80.8385 34.6354 80.4062 34.3594ZM91.6406 35.1875C90.3906 35.1875 89.3984 34.8151 88.6641 34.0703C87.9349 33.3203 87.5703 32.3177 87.5703 31.0625C87.5755 29.7344 87.9557 28.6953 88.7109 27.9453C89.4661 27.1901 90.4948 26.8125 91.7969 26.8125C93.0521 26.8073 94.0312 27.1771 94.7344 27.9219C95.4427 28.6615 95.7969 29.6641 95.7969 30.9297C95.7969 32.2318 95.4219 33.2682 94.6719 34.0391C93.9271 34.8047 92.9167 35.1875 91.6406 35.1875ZM91.7266 33.7422C92.4505 33.7422 93 33.5052 93.375 33.0312C93.7552 32.5573 93.9453 31.8724 93.9453 30.9766C93.9453 30.0911 93.7552 29.4167 93.375 28.9531C92.9948 28.4896 92.4427 28.2578 91.7188 28.2578C91.0052 28.2578 90.4427 28.5026 90.0312 28.9922C89.625 29.4818 89.4219 30.1589 89.4219 31.0234C89.4219 31.8932 89.625 32.5651 90.0312 33.0391C90.4375 33.5078 91.0026 33.7422 91.7266 33.7422ZM101.977 24.5859C101.831 24.5286 101.698 24.4896 101.578 24.4688C101.458 24.4427 101.328 24.4297 101.188 24.4297C100.802 24.4297 100.51 24.5417 100.312 24.7656C100.12 24.9844 100.023 25.3021 100.023 25.7188V27H101.875V28.4219H100.023V35H98.2109V28.4219H96.8516V27H98.2109V25.625C98.2109 24.8125 98.4714 24.1693 98.9922 23.6953C99.5182 23.2161 100.214 22.9766 101.078 22.9766C101.349 22.9766 101.583 22.9948 101.781 23.0312C101.979 23.0677 102.185 23.1198 102.398 23.1875L101.977 24.5859ZM107.523 34.8906C107.289 34.9896 107.044 35.0625 106.789 35.1094C106.534 35.1562 106.26 35.1797 105.969 35.1797C105.229 35.1797 104.659 34.9844 104.258 34.5938C103.862 34.1979 103.664 33.6094 103.664 32.8281V28.4219H102.32V27H103.664V25.0547L105.477 24.5078V27H107.391V28.4219H105.477V32.6797C105.477 33.0703 105.547 33.3516 105.688 33.5234C105.833 33.6953 106.057 33.7812 106.359 33.7812C106.505 33.7812 106.643 33.7656 106.773 33.7344C106.909 33.6979 107.029 33.6536 107.133 33.6016L107.523 34.8906ZM112.609 34.1953L113.438 32.7656C113.943 33.0781 114.414 33.2995 114.852 33.4297C115.289 33.5547 115.779 33.6172 116.32 33.6172C116.966 33.6172 117.474 33.4792 117.844 33.2031C118.219 32.9219 118.406 32.5208 118.406 32C118.406 31.526 118.25 31.1536 117.938 30.8828C117.63 30.6068 117.107 30.3542 116.367 30.125C115.227 29.7865 114.388 29.3672 113.852 28.8672C113.315 28.3672 113.047 27.6901 113.047 26.8359C113.047 25.9089 113.393 25.1406 114.086 24.5312C114.779 23.9167 115.719 23.6094 116.906 23.6094C117.427 23.6094 117.94 23.6667 118.445 23.7812C118.951 23.8958 119.451 24.0729 119.945 24.3125L119.25 25.7969C118.818 25.5729 118.404 25.4141 118.008 25.3203C117.617 25.2266 117.219 25.1797 116.812 25.1797C116.219 25.1797 115.75 25.3099 115.406 25.5703C115.068 25.8307 114.898 26.1979 114.898 26.6719C114.898 27.0938 115.055 27.4271 115.367 27.6719C115.68 27.9115 116.216 28.1484 116.977 28.3828C118.143 28.7318 118.982 29.1667 119.492 29.6875C120.008 30.2083 120.266 30.9245 120.266 31.8359C120.266 32.8151 119.917 33.6198 119.219 34.25C118.521 34.875 117.526 35.1875 116.234 35.1875C115.589 35.1875 114.958 35.1068 114.344 34.9453C113.729 34.7786 113.151 34.5286 112.609 34.1953ZM125.914 34.8906C125.68 34.9896 125.435 35.0625 125.18 35.1094C124.924 35.1562 124.651 35.1797 124.359 35.1797C123.62 35.1797 123.049 34.9844 122.648 34.5938C122.253 34.1979 122.055 33.6094 122.055 32.8281V28.4219H120.711V27H122.055V25.0547L123.867 24.5078V27H125.781V28.4219H123.867V32.6797C123.867 33.0703 123.938 33.3516 124.078 33.5234C124.224 33.6953 124.448 33.7812 124.75 33.7812C124.896 33.7812 125.034 33.7656 125.164 33.7344C125.299 33.6979 125.419 33.6536 125.523 33.6016L125.914 34.8906ZM130.891 35.1875C129.641 35.1875 128.648 34.8151 127.914 34.0703C127.185 33.3203 126.82 32.3177 126.82 31.0625C126.826 29.7344 127.206 28.6953 127.961 27.9453C128.716 27.1901 129.745 26.8125 131.047 26.8125C132.302 26.8073 133.281 27.1771 133.984 27.9219C134.693 28.6615 135.047 29.6641 135.047 30.9297C135.047 32.2318 134.672 33.2682 133.922 34.0391C133.177 34.8047 132.167 35.1875 130.891 35.1875ZM130.977 33.7422C131.701 33.7422 132.25 33.5052 132.625 33.0312C133.005 32.5573 133.195 31.8724 133.195 30.9766C133.195 30.0911 133.005 29.4167 132.625 28.9531C132.245 28.4896 131.693 28.2578 130.969 28.2578C130.255 28.2578 129.693 28.5026 129.281 28.9922C128.875 29.4818 128.672 30.1589 128.672 31.0234C128.672 31.8932 128.875 32.5651 129.281 33.0391C129.688 33.5078 130.253 33.7422 130.977 33.7422ZM141.352 28.5234C141.253 28.4974 141.156 28.4792 141.062 28.4688C140.974 28.4531 140.87 28.4453 140.75 28.4453C140.099 28.4453 139.599 28.6849 139.25 29.1641C138.901 29.6432 138.727 30.2682 138.727 31.0391V35H136.906V27H138.727V28.5391H138.758C138.945 27.987 139.221 27.5703 139.586 27.2891C139.951 27.0026 140.38 26.8594 140.875 26.8594C141.016 26.8594 141.141 26.8672 141.25 26.8828C141.365 26.8984 141.474 26.9219 141.578 26.9531L141.352 28.5234ZM149.594 31.4766H144.133C144.164 32.2318 144.383 32.8073 144.789 33.2031C145.195 33.5938 145.763 33.7891 146.492 33.7891C146.789 33.7891 147.128 33.7292 147.508 33.6094C147.888 33.4896 148.263 33.2969 148.633 33.0312L149.453 34.1641C148.958 34.5234 148.456 34.7839 147.945 34.9453C147.435 35.1068 146.872 35.1875 146.258 35.1875C145.013 35.1875 144.044 34.8307 143.352 34.1172C142.659 33.3984 142.31 32.3958 142.305 31.1094C142.305 29.8281 142.661 28.7917 143.375 28C144.094 27.2083 145.013 26.8125 146.133 26.8125C147.206 26.8125 148.049 27.151 148.664 27.8281C149.284 28.5 149.594 29.4531 149.594 30.6875V31.4766ZM147.836 30.2188C147.836 29.5312 147.685 29.0156 147.383 28.6719C147.086 28.3229 146.664 28.1484 146.117 28.1484C145.602 28.1484 145.161 28.3359 144.797 28.7109C144.438 29.0807 144.216 29.5833 144.133 30.2188H147.836ZM154.429 35V33.6C154.429 33.4067 154.412 33.2033 154.379 32.99C154.346 32.7767 154.286 32.5533 154.199 32.32C154.112 32.08 153.989 31.83 153.829 31.57C153.702 31.3633 153.572 31.1567 153.439 30.95C153.312 30.7433 153.202 30.5233 153.109 30.29C153.022 30.05 152.979 29.7867 152.979 29.5C152.979 28.94 153.156 28.51 153.509 28.21C153.869 27.91 154.339 27.76 154.919 27.76C155.546 27.76 156.009 27.92 156.309 28.24C156.616 28.5533 156.769 28.95 156.769 29.43C156.769 29.9833 156.586 30.42 156.219 30.74C155.852 31.06 155.372 31.29 154.779 31.43C154.999 31.7833 155.156 32.1333 155.249 32.48C155.342 32.82 155.389 33.1333 155.389 33.42V35H154.429ZM154.569 31.01C154.976 30.91 155.296 30.7367 155.529 30.49C155.762 30.2367 155.879 29.89 155.879 29.45C155.879 29.0633 155.792 28.7667 155.619 28.56C155.452 28.3533 155.209 28.25 154.889 28.25C154.576 28.25 154.329 28.3533 154.149 28.56C153.969 28.7667 153.879 29.06 153.879 29.44C153.879 29.7333 153.939 30.0067 154.059 30.26C154.179 30.5067 154.349 30.7567 154.569 31.01ZM152.669 35.67C152.549 35.67 152.439 35.6533 152.339 35.62C152.239 35.5867 152.162 35.55 152.109 35.51C152.196 35.4367 152.269 35.34 152.329 35.22C152.389 35.1 152.419 34.95 152.419 34.77C152.419 34.5967 152.392 34.45 152.339 34.33C152.292 34.21 152.216 34.0967 152.109 33.99C152.162 33.9567 152.239 33.9267 152.339 33.9C152.439 33.8667 152.549 33.85 152.669 33.85C152.936 33.85 153.136 33.9167 153.269 34.05C153.409 34.1767 153.492 34.3267 153.519 34.5H155.019V35H153.519C153.486 35.18 153.402 35.3367 153.269 35.47C153.136 35.6033 152.936 35.67 152.669 35.67ZM165.935 31.32C165.669 31.32 165.469 31.2533 165.335 31.12C165.202 30.9867 165.119 30.83 165.085 30.65H163.585V30.15H165.085C165.119 29.9767 165.202 29.8267 165.335 29.7C165.469 29.5667 165.669 29.5 165.935 29.5C166.055 29.5 166.165 29.5167 166.265 29.55C166.372 29.5767 166.449 29.6067 166.495 29.64C166.389 29.7467 166.309 29.86 166.255 29.98C166.209 30.1 166.185 30.2467 166.185 30.42C166.185 30.6 166.215 30.75 166.275 30.87C166.335 30.99 166.409 31.0867 166.495 31.16C166.449 31.2 166.372 31.2367 166.265 31.27C166.165 31.3033 166.055 31.32 165.935 31.32ZM159.645 33.56C158.992 33.56 158.489 33.35 158.135 32.93C157.782 32.51 157.605 31.9033 157.605 31.11C157.605 30.63 157.669 30.1933 157.795 29.8C157.922 29.4 158.102 29.0567 158.335 28.77C158.575 28.4767 158.862 28.2533 159.195 28.1C159.535 27.94 159.919 27.86 160.345 27.86H161.805C162.485 27.86 163.029 28.0667 163.435 28.48C163.842 28.8867 164.045 29.4967 164.045 30.31C164.045 30.7767 163.955 31.2133 163.775 31.62C163.595 32.0267 163.339 32.3533 163.005 32.6C162.672 32.8467 162.272 32.97 161.805 32.97H161.105C161.025 33.05 160.915 33.1367 160.775 33.23C160.635 33.3233 160.472 33.4033 160.285 33.47C160.099 33.53 159.885 33.56 159.645 33.56ZM159.785 33.04C159.939 33.04 160.075 33.0167 160.195 32.97C160.315 32.9233 160.412 32.8667 160.485 32.8V28.35H160.335C160.089 28.35 159.859 28.4067 159.645 28.52C159.439 28.6267 159.259 28.7933 159.105 29.02C158.952 29.24 158.832 29.5167 158.745 29.85C158.659 30.1767 158.615 30.56 158.615 31C158.615 31.72 158.725 32.24 158.945 32.56C159.172 32.88 159.452 33.04 159.785 33.04ZM161.395 32.47H161.685C161.965 32.47 162.192 32.41 162.365 32.29C162.545 32.17 162.682 32.01 162.775 31.81C162.875 31.61 162.942 31.39 162.975 31.15C163.015 30.9033 163.035 30.66 163.035 30.42C163.035 30 162.999 29.6367 162.925 29.33C162.852 29.0167 162.725 28.7767 162.545 28.61C162.365 28.4367 162.112 28.35 161.785 28.35H161.395V32.47ZM171.919 35.64C171.673 35.64 171.479 35.57 171.339 35.43C171.206 35.29 171.126 35.1467 171.099 35H170.429C170.029 35 169.659 34.9767 169.319 34.93C168.979 34.8767 168.683 34.7733 168.429 34.62C168.183 34.46 167.989 34.2233 167.849 33.91C167.709 33.5967 167.639 33.1733 167.639 32.64V31.36C167.639 30.6 167.766 29.96 168.019 29.44C168.279 28.92 168.643 28.5267 169.109 28.26C169.576 27.9933 170.116 27.86 170.729 27.86H172.209C172.203 27.92 172.193 27.9867 172.179 28.06C172.173 28.1333 172.169 28.2167 172.169 28.31C172.169 28.4767 172.189 28.6367 172.229 28.79C172.269 28.9433 172.323 29.07 172.389 29.17C172.336 29.1967 172.269 29.2233 172.189 29.25C172.109 29.27 172.013 29.28 171.899 29.28C171.646 29.28 171.449 29.2 171.309 29.04C171.169 28.88 171.099 28.7 171.099 28.5C171.099 28.4733 171.099 28.45 171.099 28.43C171.099 28.41 171.103 28.38 171.109 28.34H170.799C170.333 28.34 169.933 28.4533 169.599 28.68C169.266 28.9 169.013 29.2367 168.839 29.69C168.666 30.1433 168.579 30.7167 168.579 31.41V32.59C168.579 33.0567 168.629 33.42 168.729 33.68C168.829 33.94 168.969 34.13 169.149 34.25C169.329 34.37 169.533 34.4467 169.759 34.48C169.993 34.5067 170.239 34.52 170.499 34.52H171.099C171.126 34.3533 171.206 34.2033 171.339 34.07C171.479 33.93 171.673 33.86 171.919 33.86C172.033 33.86 172.126 33.8733 172.199 33.9C172.273 33.92 172.336 33.9433 172.389 33.97C172.323 34.07 172.266 34.1867 172.219 34.32C172.173 34.4467 172.149 34.59 172.149 34.75C172.149 34.91 172.169 35.0533 172.209 35.18C172.256 35.3133 172.316 35.43 172.389 35.53C172.336 35.5567 172.273 35.58 172.199 35.6C172.126 35.6267 172.033 35.64 171.919 35.64ZM181.39 34.64C181.103 34.64 180.887 34.56 180.74 34.4C180.593 34.24 180.52 34.0467 180.52 33.82C180.52 33.7733 180.52 33.7333 180.52 33.7C180.527 33.66 180.533 33.6233 180.54 33.59H179.11V33.09H181.71C181.697 33.1367 181.68 33.2133 181.66 33.32C181.64 33.42 181.63 33.53 181.63 33.65C181.63 33.83 181.66 33.9933 181.72 34.14C181.78 34.28 181.863 34.3933 181.97 34.48C181.903 34.5267 181.817 34.5667 181.71 34.6C181.61 34.6267 181.503 34.64 181.39 34.64ZM173.8 33.69C173.693 33.69 173.587 33.6767 173.48 33.65C173.38 33.6167 173.293 33.5767 173.22 33.53C173.327 33.4433 173.41 33.33 173.47 33.19C173.53 33.0433 173.56 32.88 173.56 32.7C173.56 32.58 173.55 32.47 173.53 32.37C173.51 32.2633 173.493 32.1867 173.48 32.14H176.08V32.64H174.65C174.657 32.6733 174.66 32.71 174.66 32.75C174.667 32.7833 174.67 32.8233 174.67 32.87C174.67 33.0967 174.597 33.29 174.45 33.45C174.31 33.61 174.093 33.69 173.8 33.69ZM178.73 35.05C178.663 34.9433 178.613 34.8133 178.58 34.66C178.553 34.5067 178.54 34.31 178.54 34.07V33.18C178.54 32.9867 178.497 32.85 178.41 32.77C178.323 32.6833 178.18 32.64 177.98 32.64H174.9V32.14H178.54C178.88 32.14 179.12 32.2133 179.26 32.36C179.407 32.5067 179.48 32.7133 179.48 32.98V34.02C179.48 34.24 179.523 34.39 179.61 34.47C179.697 34.5433 179.83 34.58 180.01 34.58V34.96L178.73 35.05ZM176.14 32.42C175.893 32.1867 175.667 31.94 175.46 31.68C175.253 31.42 175.09 31.14 174.97 30.84C174.85 30.5333 174.79 30.1967 174.79 29.83C174.79 29.37 174.87 28.9867 175.03 28.68C175.197 28.3667 175.443 28.1333 175.77 27.98C176.103 27.82 176.513 27.74 177 27.74C177.527 27.74 177.937 27.8567 178.23 28.09C178.523 28.3167 178.67 28.63 178.67 29.03C178.67 29.31 178.603 29.5533 178.47 29.76C178.337 29.96 178.15 30.13 177.91 30.27C177.67 30.41 177.387 30.5233 177.06 30.61C176.733 30.69 176.373 30.75 175.98 30.79C176.113 31.0567 176.307 31.3333 176.56 31.62C176.82 31.9 177.093 32.1667 177.38 32.42H176.14ZM175.81 30.33C176.197 30.3033 176.533 30.2467 176.82 30.16C177.107 30.0667 177.33 29.9267 177.49 29.74C177.657 29.5467 177.74 29.2967 177.74 28.99C177.74 28.73 177.657 28.5333 177.49 28.4C177.33 28.26 177.123 28.19 176.87 28.19C176.477 28.19 176.183 28.3167 175.99 28.57C175.803 28.8233 175.71 29.16 175.71 29.58C175.71 29.72 175.717 29.8533 175.73 29.98C175.75 30.1 175.777 30.2167 175.81 30.33Z" fill="black" fill-opacity="0.8956"/>
<defs>
<filter id="filter0_dd_1049_9090" x="13.7812" y="10.5833" width="14.4375" height="6.875" filterUnits="userSpaceOnUse" color-interpolation-filters="sRGB">
<feFlood flood-opacity="0" result="BackgroundImageFix"/>
<feColorMatrix in="SourceAlpha" type="matrix" values="0 0 0 0 0 0 0 0 0 0 0 0 0 0 0 0 0 0 127 0" result="hardAlpha"/>
<feOffset dy="0.229167"/>
<feGaussianBlur stdDeviation="0.229167"/>
<feColorMatrix type="matrix" values="0 0 0 0 0 0 0 0 0 0 0 0 0 0 0 0 0 0 0.1 0"/>
<feBlend mode="normal" in2="BackgroundImageFix" result="effect1_dropShadow_1049_9090"/>
<feColorMatrix in="SourceAlpha" type="matrix" values="0 0 0 0 0 0 0 0 0 0 0 0 0 0 0 0 0 0 127 0" result="hardAlpha"/>
<feOffset dy="0.458333"/>
<feGaussianBlur stdDeviation="0.6875"/>
<feColorMatrix type="matrix" values="0 0 0 0 0 0 0 0 0 0 0 0 0 0 0 0 0 0 0.2 0"/>
<feBlend mode="normal" in2="effect1_dropShadow_1049_9090" result="effect2_dropShadow_1049_9090"/>
<feBlend mode="normal" in="SourceGraphic" in2="effect2_dropShadow_1049_9090" result="shape"/>
</filter>
<filter id="filter1_dd_1049_9090" x="15.1562" y="18.1458" width="11.6875" height="11.6875" filterUnits="userSpaceOnUse" color-interpolation-filters="sRGB">
<feFlood flood-opacity="0" result="BackgroundImageFix"/>
<feColorMatrix in="SourceAlpha" type="matrix" values="0 0 0 0 0 0 0 0 0 0 0 0 0 0 0 0 0 0 127 0" result="hardAlpha"/>
<feOffset dy="0.229167"/>
<feGaussianBlur stdDeviation="0.229167"/>
<feColorMatrix type="matrix" values="0 0 0 0 0 0 0 0 0 0 0 0 0 0 0 0 0 0 0.1 0"/>
<feBlend mode="normal" in2="BackgroundImageFix" result="effect1_dropShadow_1049_9090"/>
<feColorMatrix in="SourceAlpha" type="matrix" values="0 0 0 0 0 0 0 0 0 0 0 0 0 0 0 0 0 0 127 0" result="hardAlpha"/>
<feOffset dy="0.458333"/>
<feGaussianBlur stdDeviation="0.6875"/>
<feColorMatrix type="matrix" values="0 0 0 0 0 0 0 0 0 0 0 0 0 0 0 0 0 0 0.2 0"/>
<feBlend mode="normal" in2="effect1_dropShadow_1049_9090" result="effect2_dropShadow_1049_9090"/>
<feBlend mode="normal" in="SourceGraphic" in2="effect2_dropShadow_1049_9090" result="shape"/>
</filter>
<filter id="filter2_dd_1049_9090" x="13.1704" y="9.89583" width="15.6594" height="6.18777" filterUnits="userSpaceOnUse" color-interpolation-filters="sRGB">
<feFlood flood-opacity="0" result="BackgroundImageFix"/>
<feColorMatrix in="SourceAlpha" type="matrix" values="0 0 0 0 0 0 0 0 0 0 0 0 0 0 0 0 0 0 127 0" result="hardAlpha"/>
<feOffset dy="-0.916667"/>
<feGaussianBlur stdDeviation="0.229167"/>
<feColorMatrix type="matrix" values="0 0 0 0 0 0 0 0 0 0 0 0 0 0 0 0 0 0 0.1 0"/>
<feBlend mode="normal" in2="BackgroundImageFix" result="effect1_dropShadow_1049_9090"/>
<feColorMatrix in="SourceAlpha" type="matrix" values="0 0 0 0 0 0 0 0 0 0 0 0 0 0 0 0 0 0 127 0" result="hardAlpha"/>
<feOffset dy="-0.916667"/>
<feGaussianBlur stdDeviation="0.6875"/>
<feColorMatrix type="matrix" values="0 0 0 0 0 0 0 0 0 0 0 0 0 0 0 0 0 0 0.2 0"/>
<feBlend mode="normal" in2="effect1_dropShadow_1049_9090" result="effect2_dropShadow_1049_9090"/>
<feBlend mode="normal" in="SourceGraphic" in2="effect2_dropShadow_1049_9090" result="shape"/>
</filter>
<linearGradient id="paint0_linear_1049_9090" x1="21" y1="14.25" x2="25.0962" y2="33.4541" gradientUnits="userSpaceOnUse">
<stop stop-color="#0669BC"/>
<stop offset="1" stop-color="#243A5F"/>
</linearGradient>
<linearGradient id="paint1_linear_1049_9090" x1="21" y1="14.25" x2="25.0962" y2="33.4541" gradientUnits="userSpaceOnUse">
<stop stop-color="#0078D4"/>
<stop offset="1" stop-color="#114A8B"/>
</linearGradient>
<linearGradient id="paint2_linear_1049_9090" x1="21" y1="12.1875" x2="21.1934" y2="15.1494" gradientUnits="userSpaceOnUse">
<stop stop-color="#28AFEA"/>
<stop offset="1" stop-color="#0078D4"/>
</linearGradient>
<linearGradient id="paint3_linear_1049_9090" x1="21" y1="12.1875" x2="21.1934" y2="15.1494" gradientUnits="userSpaceOnUse">
<stop stop-color="#30DAFF"/>
<stop offset="1" stop-color="#0094D4"/>
</linearGradient>
<linearGradient id="paint4_linear_1049_9090" x1="20.5035" y1="11.5" x2="20.5035" y2="12.875" gradientUnits="userSpaceOnUse">
<stop stop-color="#22BCFF"/>
<stop offset="1" stop-color="#0088F0"/>
</linearGradient>
<linearGradient id="paint5_linear_1049_9090" x1="20.5035" y1="11.5" x2="20.5035" y2="12.875" gradientUnits="userSpaceOnUse">
<stop stop-color="#28AFEA"/>
<stop offset="1" stop-color="#3CCBF4"/>
</linearGradient>
<clipPath id="clip0_1049_9090">
<rect width="22" height="22" fill="white" transform="translate(10 11.5)"/>
</clipPath>
<clipPath id="clip1_1049_9090">
<rect width="22" height="22" fill="white" transform="translate(10 11.5)"/>
</clipPath>
</defs>
</svg>
