<svg width="161" height="44" viewBox="0 0 161 44" fill="none" xmlns="http://www.w3.org/2000/svg">
<rect x="1" y="1" width="159" height="42" rx="4" fill="#202020"/>
<rect x="0.5" y="0.5" width="160" height="43" rx="4.5" stroke="white" stroke-opacity="0.1"/>
<g clip-path="url(#clip0_1049_9348)">
<g clip-path="url(#clip1_1049_9348)">
<path d="M10.3438 14.1667C10.3438 13.6604 10.7542 13.25 11.2604 13.25H30.7396C31.2458 13.25 31.6562 13.6604 31.6562 14.1667V28.0313C31.6562 30.1196 29.9633 31.8125 27.875 31.8125H14.125C12.0367 31.8125 10.3438 30.1196 10.3438 28.0313V14.1667Z" fill="url(#paint0_linear_1049_9348)"/>
<mask id="mask0_1049_9348" style="mask-type:alpha" maskUnits="userSpaceOnUse" x="10" y="13" width="22" height="19">
<path d="M10.3438 14.1667C10.3438 13.6604 10.7542 13.25 11.2604 13.25H30.7396C31.2458 13.25 31.6562 13.6604 31.6562 14.1667V28.0313C31.6562 30.1196 29.9633 31.8125 27.875 31.8125H14.125C12.0367 31.8125 10.3438 30.1196 10.3438 28.0313V14.1667Z" fill="url(#paint1_linear_1049_9348)"/>
</mask>
<g mask="url(#mask0_1049_9348)">
<g filter="url(#filter0_dd_1049_9348)">
<path d="M15.8438 13.9375V11.1875H26.1562V13.9375" stroke="url(#paint2_linear_1049_9348)" stroke-width="1.375" stroke-linecap="round"/>
</g>
</g>
<g filter="url(#filter1_dd_1049_9348)">
<path d="M20.6565 18.0625H16.5315V22.1875H20.6565V18.0625Z" fill="#F25022"/>
<path d="M25.4688 18.0625H21.3438V22.1875H25.4688V18.0625Z" fill="#7FBA00"/>
<path d="M25.4688 22.875H21.3438V27H25.4688V22.875Z" fill="#FFB900"/>
<path d="M20.6562 22.875H16.5312V27H20.6562V22.875Z" fill="#00A4EF"/>
</g>
<path d="M15.8438 13.9375V11.875C15.8438 11.4953 16.1516 11.1875 16.5313 11.1875H25.4688C25.8484 11.1875 26.1562 11.4953 26.1562 11.875V13.9375" stroke="url(#paint3_linear_1049_9348)" stroke-width="1.375" stroke-linecap="round"/>
<rect x="16.5312" y="10.5" width="8.9375" height="1.375" fill="url(#paint4_linear_1049_9348)"/>
<mask id="mask1_1049_9348" style="mask-type:alpha" maskUnits="userSpaceOnUse" x="16" y="10" width="10" height="2">
<rect x="16.5312" y="10.5" width="8.9375" height="1.375" fill="url(#paint5_linear_1049_9348)"/>
</mask>
<g mask="url(#mask1_1049_9348)">
<g filter="url(#filter2_dd_1049_9348)">
<rect x="14.5454" y="11.1878" width="1.98611" height="3.4375" fill="#C4C4C4"/>
</g>
</g>
</g>
</g>
<path d="M51.4219 21H49.5781V13.8516C49.5781 13.5286 49.5859 13.1771 49.6016 12.7969C49.6224 12.4115 49.6484 12.0026 49.6797 11.5703H49.6328C49.5703 11.8672 49.5104 12.1224 49.4531 12.3359C49.401 12.5443 49.349 12.7109 49.2969 12.8359L46.0078 21H44.7266L41.4219 12.9062C41.3802 12.7917 41.3281 12.6224 41.2656 12.3984C41.2083 12.1745 41.1458 11.8984 41.0781 11.5703H41.0312C41.0625 11.9453 41.0833 12.3438 41.0938 12.7656C41.1042 13.1823 41.1094 13.6224 41.1094 14.0859V21H39.3906V9.79688H42.0156L44.9297 17.0781C45.0443 17.3542 45.138 17.6094 45.2109 17.8438C45.2891 18.0729 45.349 18.2865 45.3906 18.4844H45.4375C45.5312 18.1875 45.6198 17.9193 45.7031 17.6797C45.7865 17.4401 45.8646 17.2318 45.9375 17.0547L48.8906 9.79688H51.4219V21ZM54.8984 11.4531C54.5651 11.4531 54.2891 11.3464 54.0703 11.1328C53.8516 10.9193 53.7422 10.6562 53.7422 10.3438C53.7422 10.0208 53.8516 9.75521 54.0703 9.54688C54.2891 9.33854 54.5651 9.23438 54.8984 9.23438C55.237 9.23438 55.5156 9.33854 55.7344 9.54688C55.9531 9.75521 56.0625 10.0208 56.0625 10.3438C56.0625 10.6615 55.9531 10.9271 55.7344 11.1406C55.5156 11.349 55.237 11.4531 54.8984 11.4531ZM55.7969 21H53.9766V13H55.7969V21ZM64.1562 20.5078C63.7604 20.7474 63.3672 20.9193 62.9766 21.0234C62.5859 21.1328 62.1615 21.1875 61.7031 21.1875C60.474 21.1875 59.4896 20.8281 58.75 20.1094C58.0156 19.3906 57.6484 18.4141 57.6484 17.1797C57.6484 15.8516 58.0286 14.7917 58.7891 14C59.5547 13.2083 60.5859 12.8125 61.8828 12.8125C62.3359 12.8125 62.7474 12.862 63.1172 12.9609C63.4922 13.0547 63.8724 13.2109 64.2578 13.4297L63.5469 14.6953C63.276 14.5443 63.0104 14.4349 62.75 14.3672C62.4896 14.2943 62.2057 14.2578 61.8984 14.2578C61.1328 14.2578 60.5417 14.5104 60.125 15.0156C59.7083 15.5208 59.5 16.1901 59.5 17.0234C59.5 17.8984 59.724 18.5703 60.1719 19.0391C60.625 19.5078 61.1927 19.7422 61.875 19.7422C62.0833 19.7422 62.3229 19.7057 62.5938 19.6328C62.8646 19.5547 63.138 19.4323 63.4141 19.2656L64.1562 20.5078ZM70.1484 14.5234C70.0495 14.4974 69.9531 14.4792 69.8594 14.4688C69.7708 14.4531 69.6667 14.4453 69.5469 14.4453C68.8958 14.4453 68.3958 14.6849 68.0469 15.1641C67.6979 15.6432 67.5234 16.2682 67.5234 17.0391V21H65.7031V13H67.5234V14.5391H67.5547C67.7422 13.987 68.0182 13.5703 68.3828 13.2891C68.7474 13.0026 69.1771 12.8594 69.6719 12.8594C69.8125 12.8594 69.9375 12.8672 70.0469 12.8828C70.1615 12.8984 70.2708 12.9219 70.375 12.9531L70.1484 14.5234ZM75.1719 21.1875C73.9219 21.1875 72.9297 20.8151 72.1953 20.0703C71.4661 19.3203 71.1016 18.3177 71.1016 17.0625C71.1068 15.7344 71.487 14.6953 72.2422 13.9453C72.9974 13.1901 74.026 12.8125 75.3281 12.8125C76.5833 12.8073 77.5625 13.1771 78.2656 13.9219C78.974 14.6615 79.3281 15.6641 79.3281 16.9297C79.3281 18.2318 78.9531 19.2682 78.2031 20.0391C77.4583 20.8047 76.4479 21.1875 75.1719 21.1875ZM75.2578 19.7422C75.9818 19.7422 76.5312 19.5052 76.9062 19.0312C77.2865 18.5573 77.4766 17.8724 77.4766 16.9766C77.4766 16.0911 77.2865 15.4167 76.9062 14.9531C76.526 14.4896 75.974 14.2578 75.25 14.2578C74.5365 14.2578 73.974 14.5026 73.5625 14.9922C73.1562 15.4818 72.9531 16.1589 72.9531 17.0234C72.9531 17.8932 73.1562 18.5651 73.5625 19.0391C73.9688 19.5078 74.5339 19.7422 75.2578 19.7422ZM80.4062 20.3594L81.1953 19.0781C81.5078 19.2969 81.8385 19.474 82.1875 19.6094C82.5417 19.7396 82.9245 19.8047 83.3359 19.8047C83.7839 19.8047 84.1302 19.724 84.375 19.5625C84.625 19.3958 84.75 19.1484 84.75 18.8203C84.75 18.5599 84.6458 18.3438 84.4375 18.1719C84.2344 17.9948 83.8854 17.849 83.3906 17.7344C82.3906 17.5 81.6875 17.1901 81.2812 16.8047C80.8802 16.4193 80.6797 15.9115 80.6797 15.2812C80.6797 14.5573 80.9609 13.9661 81.5234 13.5078C82.0859 13.0443 82.8229 12.8125 83.7344 12.8125C84.1875 12.8125 84.6198 12.8724 85.0312 12.9922C85.4427 13.1068 85.8438 13.2917 86.2344 13.5469L85.5 14.7969C85.1562 14.5781 84.8411 14.4219 84.5547 14.3281C84.2682 14.2344 83.974 14.1875 83.6719 14.1875C83.2448 14.1875 82.9115 14.2682 82.6719 14.4297C82.4375 14.5859 82.3203 14.8047 82.3203 15.0859C82.3203 15.3828 82.4401 15.6042 82.6797 15.75C82.9245 15.8906 83.3333 16.0286 83.9062 16.1641C84.7708 16.3724 85.4036 16.6745 85.8047 17.0703C86.2057 17.4609 86.4062 17.9844 86.4062 18.6406C86.4062 19.4167 86.1224 20.0365 85.5547 20.5C84.9922 20.9583 84.2292 21.1875 83.2656 21.1875C82.7448 21.1875 82.2448 21.1198 81.7656 20.9844C81.2917 20.8438 80.8385 20.6354 80.4062 20.3594ZM91.6406 21.1875C90.3906 21.1875 89.3984 20.8151 88.6641 20.0703C87.9349 19.3203 87.5703 18.3177 87.5703 17.0625C87.5755 15.7344 87.9557 14.6953 88.7109 13.9453C89.4661 13.1901 90.4948 12.8125 91.7969 12.8125C93.0521 12.8073 94.0312 13.1771 94.7344 13.9219C95.4427 14.6615 95.7969 15.6641 95.7969 16.9297C95.7969 18.2318 95.4219 19.2682 94.6719 20.0391C93.9271 20.8047 92.9167 21.1875 91.6406 21.1875ZM91.7266 19.7422C92.4505 19.7422 93 19.5052 93.375 19.0312C93.7552 18.5573 93.9453 17.8724 93.9453 16.9766C93.9453 16.0911 93.7552 15.4167 93.375 14.9531C92.9948 14.4896 92.4427 14.2578 91.7188 14.2578C91.0052 14.2578 90.4427 14.5026 90.0312 14.9922C89.625 15.4818 89.4219 16.1589 89.4219 17.0234C89.4219 17.8932 89.625 18.5651 90.0312 19.0391C90.4375 19.5078 91.0026 19.7422 91.7266 19.7422ZM101.977 10.5859C101.831 10.5286 101.698 10.4896 101.578 10.4688C101.458 10.4427 101.328 10.4297 101.188 10.4297C100.802 10.4297 100.51 10.5417 100.312 10.7656C100.12 10.9844 100.023 11.3021 100.023 11.7188V13H101.875V14.4219H100.023V21H98.2109V14.4219H96.8516V13H98.2109V11.625C98.2109 10.8125 98.4714 10.1693 98.9922 9.69531C99.5182 9.21615 100.214 8.97656 101.078 8.97656C101.349 8.97656 101.583 8.99479 101.781 9.03125C101.979 9.06771 102.185 9.11979 102.398 9.1875L101.977 10.5859ZM107.523 20.8906C107.289 20.9896 107.044 21.0625 106.789 21.1094C106.534 21.1562 106.26 21.1797 105.969 21.1797C105.229 21.1797 104.659 20.9844 104.258 20.5938C103.862 20.1979 103.664 19.6094 103.664 18.8281V14.4219H102.32V13H103.664V11.0547L105.477 10.5078V13H107.391V14.4219H105.477V18.6797C105.477 19.0703 105.547 19.3516 105.688 19.5234C105.833 19.6953 106.057 19.7812 106.359 19.7812C106.505 19.7812 106.643 19.7656 106.773 19.7344C106.909 19.6979 107.029 19.6536 107.133 19.6016L107.523 20.8906ZM112.609 20.1953L113.438 18.7656C113.943 19.0781 114.414 19.2995 114.852 19.4297C115.289 19.5547 115.779 19.6172 116.32 19.6172C116.966 19.6172 117.474 19.4792 117.844 19.2031C118.219 18.9219 118.406 18.5208 118.406 18C118.406 17.526 118.25 17.1536 117.938 16.8828C117.63 16.6068 117.107 16.3542 116.367 16.125C115.227 15.7865 114.388 15.3672 113.852 14.8672C113.315 14.3672 113.047 13.6901 113.047 12.8359C113.047 11.9089 113.393 11.1406 114.086 10.5312C114.779 9.91667 115.719 9.60938 116.906 9.60938C117.427 9.60938 117.94 9.66667 118.445 9.78125C118.951 9.89583 119.451 10.0729 119.945 10.3125L119.25 11.7969C118.818 11.5729 118.404 11.4141 118.008 11.3203C117.617 11.2266 117.219 11.1797 116.812 11.1797C116.219 11.1797 115.75 11.3099 115.406 11.5703C115.068 11.8307 114.898 12.1979 114.898 12.6719C114.898 13.0938 115.055 13.4271 115.367 13.6719C115.68 13.9115 116.216 14.1484 116.977 14.3828C118.143 14.7318 118.982 15.1667 119.492 15.6875C120.008 16.2083 120.266 16.9245 120.266 17.8359C120.266 18.8151 119.917 19.6198 119.219 20.25C118.521 20.875 117.526 21.1875 116.234 21.1875C115.589 21.1875 114.958 21.1068 114.344 20.9453C113.729 20.7786 113.151 20.5286 112.609 20.1953ZM125.914 20.8906C125.68 20.9896 125.435 21.0625 125.18 21.1094C124.924 21.1562 124.651 21.1797 124.359 21.1797C123.62 21.1797 123.049 20.9844 122.648 20.5938C122.253 20.1979 122.055 19.6094 122.055 18.8281V14.4219H120.711V13H122.055V11.0547L123.867 10.5078V13H125.781V14.4219H123.867V18.6797C123.867 19.0703 123.938 19.3516 124.078 19.5234C124.224 19.6953 124.448 19.7812 124.75 19.7812C124.896 19.7812 125.034 19.7656 125.164 19.7344C125.299 19.6979 125.419 19.6536 125.523 19.6016L125.914 20.8906ZM130.891 21.1875C129.641 21.1875 128.648 20.8151 127.914 20.0703C127.185 19.3203 126.82 18.3177 126.82 17.0625C126.826 15.7344 127.206 14.6953 127.961 13.9453C128.716 13.1901 129.745 12.8125 131.047 12.8125C132.302 12.8073 133.281 13.1771 133.984 13.9219C134.693 14.6615 135.047 15.6641 135.047 16.9297C135.047 18.2318 134.672 19.2682 133.922 20.0391C133.177 20.8047 132.167 21.1875 130.891 21.1875ZM130.977 19.7422C131.701 19.7422 132.25 19.5052 132.625 19.0312C133.005 18.5573 133.195 17.8724 133.195 16.9766C133.195 16.0911 133.005 15.4167 132.625 14.9531C132.245 14.4896 131.693 14.2578 130.969 14.2578C130.255 14.2578 129.693 14.5026 129.281 14.9922C128.875 15.4818 128.672 16.1589 128.672 17.0234C128.672 17.8932 128.875 18.5651 129.281 19.0391C129.688 19.5078 130.253 19.7422 130.977 19.7422ZM141.352 14.5234C141.253 14.4974 141.156 14.4792 141.062 14.4688C140.974 14.4531 140.87 14.4453 140.75 14.4453C140.099 14.4453 139.599 14.6849 139.25 15.1641C138.901 15.6432 138.727 16.2682 138.727 17.0391V21H136.906V13H138.727V14.5391H138.758C138.945 13.987 139.221 13.5703 139.586 13.2891C139.951 13.0026 140.38 12.8594 140.875 12.8594C141.016 12.8594 141.141 12.8672 141.25 12.8828C141.365 12.8984 141.474 12.9219 141.578 12.9531L141.352 14.5234ZM149.594 17.4766H144.133C144.164 18.2318 144.383 18.8073 144.789 19.2031C145.195 19.5938 145.763 19.7891 146.492 19.7891C146.789 19.7891 147.128 19.7292 147.508 19.6094C147.888 19.4896 148.263 19.2969 148.633 19.0312L149.453 20.1641C148.958 20.5234 148.456 20.7839 147.945 20.9453C147.435 21.1068 146.872 21.1875 146.258 21.1875C145.013 21.1875 144.044 20.8307 143.352 20.1172C142.659 19.3984 142.31 18.3958 142.305 17.1094C142.305 15.8281 142.661 14.7917 143.375 14C144.094 13.2083 145.013 12.8125 146.133 12.8125C147.206 12.8125 148.049 13.151 148.664 13.8281C149.284 14.5 149.594 15.4531 149.594 16.6875V17.4766ZM147.836 16.2188C147.836 15.5312 147.685 15.0156 147.383 14.6719C147.086 14.3229 146.664 14.1484 146.117 14.1484C145.602 14.1484 145.161 14.3359 144.797 14.7109C144.438 15.0807 144.216 15.5833 144.133 16.2188H147.836Z" fill="white"/>
<path d="M44.06 27.78V28.49H43.01V34H42.24C42.0333 33.6 41.7533 33.2333 41.4 32.9C41.0533 32.56 40.6533 32.2733 40.2 32.04C39.7533 31.8067 39.2733 31.65 38.76 31.57L38.37 30.61C39.01 30.2233 39.67 29.8733 40.35 29.56C41.0367 29.2467 41.7433 28.98 42.47 28.76L42.24 29.18V28.49H37.9V27.78H44.06ZM42.24 29.27L42.45 29.54C42.11 29.64 41.7567 29.7667 41.39 29.92C41.0233 30.0667 40.66 30.23 40.3 30.41C39.94 30.5833 39.6 30.7667 39.28 30.96C39.5533 31.02 39.84 31.1133 40.14 31.24C40.44 31.3667 40.7333 31.52 41.02 31.7C41.3133 31.88 41.5767 32.09 41.81 32.33C42.05 32.5633 42.24 32.8267 42.38 33.12L42.3 33.14C42.2733 32.9667 42.2567 32.7933 42.25 32.62C42.2433 32.4467 42.24 32.2733 42.24 32.1V29.27ZM42.92 32.75C42.7 32.3367 42.4167 31.9667 42.07 31.64C41.73 31.3067 41.3367 31.0333 40.89 30.82C40.45 30.6 39.9633 30.45 39.43 30.37L39.94 29.94C40.3133 30.0133 40.68 30.1233 41.04 30.27C41.4 30.41 41.7367 30.6033 42.05 30.85C42.37 31.09 42.65 31.4 42.89 31.78L42.92 32.75ZM53.9612 27.78V28.49H52.9112V34H52.1412V30.04L52.3612 30.68C52.0878 30.28 51.8378 29.94 51.6112 29.66C51.3845 29.3733 51.1678 29.14 50.9612 28.96C50.7612 28.78 50.5578 28.65 50.3512 28.57C50.1445 28.4833 49.9212 28.44 49.6812 28.44C49.4145 28.44 49.1712 28.49 48.9512 28.59C48.7378 28.69 48.5412 28.8233 48.3612 28.99C48.1812 29.1567 48.0145 29.3367 47.8612 29.53L47.7812 29.55C47.8878 29.4833 47.9912 29.4333 48.0912 29.4C48.1978 29.3667 48.3145 29.35 48.4412 29.35C48.8278 29.35 49.1112 29.4567 49.2912 29.67C49.4712 29.8767 49.5612 30.1333 49.5612 30.44C49.5612 30.5133 49.5578 30.5833 49.5512 30.65C49.5445 30.7167 49.5345 30.7667 49.5212 30.8L49.3512 30.74C49.4312 30.6533 49.5078 30.57 49.5812 30.49C49.6545 30.41 49.7312 30.33 49.8112 30.25C49.8978 30.17 49.9845 30.0867 50.0712 30L51.3112 28.84L51.8012 29.37L48.9612 32.05L48.3712 31.5L49.1912 30.72L48.8312 31.15L48.5312 31.38C48.6312 31.2667 48.7145 31.1467 48.7812 31.02C48.8545 30.8867 48.8912 30.7367 48.8912 30.57C48.8912 30.4033 48.8412 30.27 48.7412 30.17C48.6412 30.07 48.4945 30.02 48.3012 30.02C48.1945 30.02 48.0912 30.0333 47.9912 30.06C47.8912 30.0867 47.7878 30.1333 47.6812 30.2L46.9212 29.48C47.1878 29.1267 47.4612 28.82 47.7412 28.56C48.0212 28.2933 48.3145 28.0867 48.6212 27.94C48.9278 27.7867 49.2578 27.71 49.6112 27.71C49.9845 27.71 50.3212 27.78 50.6212 27.92C50.9212 28.06 51.2112 28.27 51.4912 28.55C51.7712 28.8233 52.0645 29.17 52.3712 29.59L52.1912 29.54C52.1712 29.38 52.1578 29.2067 52.1512 29.02C52.1445 28.8333 52.1412 28.6333 52.1412 28.42V27.12H52.6712L52.9012 27.78H53.9612ZM59.9194 27.78V28.49H58.8694V34H58.0994C57.8927 33.6 57.6127 33.2333 57.2594 32.9C56.9127 32.56 56.5127 32.2733 56.0594 32.04C55.6127 31.8067 55.1327 31.65 54.6194 31.57L54.2294 30.61C54.8694 30.2233 55.5294 29.8733 56.2094 29.56C56.896 29.2467 57.6027 28.98 58.3294 28.76L58.0994 29.18V28.49H53.7594V27.78H59.9194ZM58.0994 29.27L58.3094 29.54C57.9694 29.64 57.616 29.7667 57.2494 29.92C56.8827 30.0667 56.5194 30.23 56.1594 30.41C55.7994 30.5833 55.4594 30.7667 55.1394 30.96C55.4127 31.02 55.6994 31.1133 55.9994 31.24C56.2994 31.3667 56.5927 31.52 56.8794 31.7C57.1727 31.88 57.436 32.09 57.6694 32.33C57.9094 32.5633 58.0994 32.8267 58.2394 33.12L58.1594 33.14C58.1327 32.9667 58.116 32.7933 58.1094 32.62C58.1027 32.4467 58.0994 32.2733 58.0994 32.1V29.27ZM58.7794 32.75C58.5594 32.3367 58.276 31.9667 57.9294 31.64C57.5894 31.3067 57.196 31.0333 56.7494 30.82C56.3094 30.6 55.8227 30.45 55.2894 30.37L55.7994 29.94C56.1727 30.0133 56.5394 30.1233 56.8994 30.27C57.2594 30.41 57.596 30.6033 57.9094 30.85C58.2294 31.09 58.5094 31.4 58.7494 31.78L58.7794 32.75ZM62.5764 27.78V28.49H61.5264V34H60.7564V29.31C60.6764 29.0833 60.5564 28.89 60.3964 28.73C60.2431 28.57 60.0431 28.49 59.7964 28.49H59.7164V27.78H59.8664C60.0264 27.78 60.1931 27.8333 60.3664 27.94C60.5397 28.04 60.6797 28.1967 60.7864 28.41C60.7797 28.3767 60.7731 28.3 60.7664 28.18C60.7597 28.06 60.7564 27.9567 60.7564 27.87V27.12H61.2964L61.5164 27.78H62.5764ZM72.4368 27.78V28.49H68.7768V30.28C68.7768 30.4733 68.8068 30.6167 68.8668 30.71C68.9268 30.7967 69.0201 30.84 69.1468 30.84C69.2735 30.84 69.4035 30.8 69.5368 30.72C69.6768 30.64 69.8268 30.5133 69.9868 30.34C70.1468 30.1667 70.3201 29.9433 70.5068 29.67L71.1068 29.58C71.3201 29.8933 71.4835 30.2167 71.5968 30.55C71.7168 30.8833 71.7768 31.2167 71.7768 31.55C71.7768 31.97 71.6835 32.3467 71.4968 32.68C71.3168 33.0133 71.0468 33.2767 70.6868 33.47C70.3335 33.6633 69.9001 33.76 69.3868 33.76C68.9468 33.76 68.5368 33.6833 68.1568 33.53C67.7768 33.3767 67.4268 33.13 67.1068 32.79C66.7868 32.4433 66.4935 31.99 66.2268 31.43C65.9601 30.8633 65.7201 30.17 65.5068 29.35L66.2668 29.15C66.5068 30.0767 66.7701 30.8233 67.0568 31.39C67.3501 31.95 67.6835 32.36 68.0568 32.62C68.4301 32.8733 68.8601 33 69.3468 33C69.8801 33 70.2901 32.8667 70.5768 32.6C70.8701 32.3333 71.0168 31.99 71.0168 31.57C71.0168 31.27 70.9735 31.0133 70.8868 30.8C70.8068 30.5867 70.7001 30.41 70.5668 30.27L71.0268 30.08C70.8268 30.42 70.6201 30.7 70.4068 30.92C70.2001 31.14 69.9901 31.3067 69.7768 31.42C69.5701 31.5267 69.3635 31.58 69.1568 31.58C69.0035 31.58 68.8601 31.56 68.7268 31.52C68.5935 31.4733 68.4801 31.4067 68.3868 31.32C68.2801 31.2267 68.1901 31.0967 68.1168 30.93C68.0435 30.7567 68.0068 30.47 68.0068 30.07V28.49H65.1168V27.78H72.4368ZM75.0959 27.78V28.49H74.0459V34H73.2759V29.31C73.1959 29.0833 73.0759 28.89 72.9159 28.73C72.7626 28.57 72.5626 28.49 72.3159 28.49H72.2359V27.78H72.3859C72.5459 27.78 72.7126 27.8333 72.8859 27.94C73.0593 28.04 73.1993 28.1967 73.3059 28.41C73.2993 28.3767 73.2926 28.3 73.2859 28.18C73.2793 28.06 73.2759 27.9567 73.2759 27.87V27.12H73.8159L74.0359 27.78H75.0959ZM80.0722 27.78C80.0655 27.5067 79.9989 27.31 79.8722 27.19C79.7522 27.07 79.5522 27.01 79.2722 27.01H77.8722C77.4389 27.01 77.1022 26.98 76.8622 26.92C76.6289 26.86 76.4289 26.7667 76.2622 26.64C76.0822 26.5067 75.9455 26.3367 75.8522 26.13C75.7655 25.9167 75.7222 25.6767 75.7222 25.41C75.7222 25.3233 75.7255 25.2367 75.7322 25.15C75.7455 25.0633 75.7589 24.9733 75.7722 24.88L76.5122 24.93C76.4989 25.01 76.4889 25.08 76.4822 25.14C76.4755 25.2 76.4722 25.2567 76.4722 25.31C76.4722 25.4567 76.4855 25.5867 76.5122 25.7C76.5455 25.8133 76.5955 25.9067 76.6622 25.98C76.7555 26.0867 76.8889 26.1667 77.0622 26.22C77.2355 26.2667 77.4889 26.29 77.8222 26.29H79.0622C79.4155 26.29 79.6955 26.3167 79.9022 26.37C80.1089 26.4233 80.2855 26.52 80.4322 26.66C80.5455 26.7667 80.6322 26.9133 80.6922 27.1C80.7522 27.28 80.7855 27.5067 80.7922 27.78H80.0722ZM82.2122 27.78V28.49H78.5522V30.28C78.5522 30.4733 78.5822 30.6167 78.6422 30.71C78.7022 30.7967 78.7955 30.84 78.9222 30.84C79.0489 30.84 79.1789 30.8 79.3122 30.72C79.4522 30.64 79.6022 30.5133 79.7622 30.34C79.9222 30.1667 80.0955 29.9433 80.2822 29.67L80.8822 29.58C81.0955 29.8933 81.2589 30.2167 81.3722 30.55C81.4922 30.8833 81.5522 31.2167 81.5522 31.55C81.5522 31.97 81.4589 32.3467 81.2722 32.68C81.0922 33.0133 80.8222 33.2767 80.4622 33.47C80.1089 33.6633 79.6755 33.76 79.1622 33.76C78.7222 33.76 78.3122 33.6833 77.9322 33.53C77.5522 33.3767 77.2022 33.13 76.8822 32.79C76.5622 32.4433 76.2689 31.99 76.0022 31.43C75.7355 30.8633 75.4955 30.17 75.2822 29.35L76.0422 29.15C76.2822 30.0767 76.5455 30.8233 76.8322 31.39C77.1255 31.95 77.4589 32.36 77.8322 32.62C78.2055 32.8733 78.6355 33 79.1222 33C79.6555 33 80.0655 32.8667 80.3522 32.6C80.6455 32.3333 80.7922 31.99 80.7922 31.57C80.7922 31.27 80.7489 31.0133 80.6622 30.8C80.5822 30.5867 80.4755 30.41 80.3422 30.27L80.8022 30.08C80.6022 30.42 80.3955 30.7 80.1822 30.92C79.9755 31.14 79.7655 31.3067 79.5522 31.42C79.3455 31.5267 79.1389 31.58 78.9322 31.58C78.7789 31.58 78.6355 31.56 78.5022 31.52C78.3689 31.4733 78.2555 31.4067 78.1622 31.32C78.0555 31.2267 77.9655 31.0967 77.8922 30.93C77.8189 30.7567 77.7822 30.47 77.7822 30.07V28.49H74.8922V27.78H82.2122ZM88.2513 27.78V28.49H87.2013V34H86.4313V31.57L86.5913 32.13C86.3713 31.8233 86.1313 31.5467 85.8713 31.3C85.6113 31.0533 85.3447 30.8567 85.0713 30.71C84.798 30.5633 84.5313 30.49 84.2713 30.49C84.0247 30.49 83.8147 30.5567 83.6413 30.69C83.4747 30.8167 83.3913 31.0067 83.3913 31.26C83.3913 31.46 83.4613 31.6333 83.6013 31.78C83.7413 31.92 83.958 32.0467 84.2513 32.16L83.8713 32.87C83.4647 32.7033 83.1447 32.48 82.9113 32.2C82.6847 31.9133 82.5713 31.59 82.5713 31.23C82.5713 30.9033 82.648 30.6333 82.8013 30.42C82.9613 30.2 83.1613 30.0367 83.4013 29.93C83.648 29.8233 83.898 29.77 84.1513 29.77C84.498 29.77 84.8147 29.83 85.1013 29.95C85.388 30.07 85.6547 30.2333 85.9013 30.44C86.1547 30.6467 86.3947 30.8867 86.6213 31.16L86.4813 31.2C86.4613 31.0467 86.448 30.8967 86.4413 30.75C86.4347 30.5967 86.4313 30.4433 86.4313 30.29V28.49H82.0113V27.78H88.2513ZM91.7065 27.78V28.49H91.5065C91.2998 28.5367 91.0765 28.64 90.8365 28.8C90.5965 28.9533 90.3698 29.1567 90.1565 29.41C89.9432 29.6567 89.7665 29.9467 89.6265 30.28C89.4932 30.6133 89.4265 30.98 89.4265 31.38C89.4265 31.86 89.4965 32.2433 89.6365 32.53C89.7832 32.81 89.9632 33.01 90.1765 33.13C90.3898 33.25 90.6032 33.31 90.8165 33.31C90.9832 33.31 91.1232 33.2933 91.2365 33.26C91.3498 33.2267 91.4798 33.1667 91.6265 33.08L91.9765 33.69C91.8032 33.8233 91.6132 33.9167 91.4065 33.97C91.1998 34.0233 90.9932 34.05 90.7865 34.05C90.3665 34.05 89.9932 33.94 89.6665 33.72C89.3465 33.5 89.0932 33.1933 88.9065 32.8C88.7265 32.4 88.6365 31.9333 88.6365 31.4C88.6365 30.8533 88.7398 30.36 88.9465 29.92C89.1532 29.4733 89.4298 29.0967 89.7765 28.79C90.1298 28.4833 90.5198 28.26 90.9465 28.12L90.3065 28.45C90.1865 28.4633 90.0565 28.4733 89.9165 28.48C89.7765 28.4867 89.6198 28.49 89.4465 28.49H88.0465V27.78H91.7065ZM99.0135 27.78V28.49H97.9635V34H97.1935V30.65L97.2535 30.91C97.1068 30.6967 96.9502 30.5267 96.7835 30.4C96.6235 30.2733 96.4468 30.21 96.2535 30.21C96.1535 30.21 96.0502 30.23 95.9435 30.27C95.8435 30.3033 95.7568 30.37 95.6835 30.47C95.6168 30.57 95.5835 30.7233 95.5835 30.93C95.5835 31.0033 95.5835 31.07 95.5835 31.13C95.5902 31.1833 95.5968 31.2367 95.6035 31.29L94.9535 31.34C94.9268 31.0667 94.8535 30.8367 94.7335 30.65C94.6135 30.4567 94.4668 30.31 94.2935 30.21C94.1202 30.11 93.9335 30.06 93.7335 30.06C93.5535 30.06 93.4002 30.0967 93.2735 30.17C93.1468 30.2367 93.0502 30.33 92.9835 30.45C92.9168 30.5633 92.8835 30.6933 92.8835 30.84C92.8835 31.1067 92.9802 31.3333 93.1735 31.52C93.3735 31.7067 93.6535 31.8633 94.0135 31.99L93.7435 32.73C93.4235 32.63 93.1368 32.4933 92.8835 32.32C92.6302 32.1467 92.4302 31.9333 92.2835 31.68C92.1368 31.4267 92.0635 31.1333 92.0635 30.8C92.0635 30.5 92.1368 30.2433 92.2835 30.03C92.4302 29.81 92.6268 29.64 92.8735 29.52C93.1202 29.4 93.3902 29.34 93.6835 29.34C94.0368 29.34 94.3402 29.4067 94.5935 29.54C94.8468 29.6667 95.0802 29.8733 95.2935 30.16L95.1435 30.17C95.2102 29.95 95.3368 29.7833 95.5235 29.67C95.7168 29.55 95.9168 29.49 96.1235 29.49C96.3635 29.49 96.5702 29.5367 96.7435 29.63C96.9168 29.7233 97.1068 29.8567 97.3135 30.03L97.2235 30.18C97.2168 30.04 97.2102 29.9 97.2035 29.76C97.1968 29.62 97.1935 29.4767 97.1935 29.33V28.49H91.5035V27.78H99.0135ZM101.678 27.78V28.49H100.628V34H99.858V29.31C99.778 29.0833 99.658 28.89 99.498 28.73C99.3446 28.57 99.1446 28.49 98.898 28.49H98.818V27.78H98.968C99.128 27.78 99.2946 27.8333 99.468 27.94C99.6413 28.04 99.7813 28.1967 99.888 28.41C99.8813 28.3767 99.8746 28.3 99.868 28.18C99.8613 28.06 99.858 27.9567 99.858 27.87V27.12H100.398L100.618 27.78H101.678ZM108.794 27.78V28.49H105.134V30.28C105.134 30.4733 105.164 30.6167 105.224 30.71C105.284 30.7967 105.378 30.84 105.504 30.84C105.631 30.84 105.761 30.8 105.894 30.72C106.034 30.64 106.184 30.5133 106.344 30.34C106.504 30.1667 106.678 29.9433 106.864 29.67L107.464 29.58C107.678 29.8933 107.841 30.2167 107.954 30.55C108.074 30.8833 108.134 31.2167 108.134 31.55C108.134 31.97 108.041 32.3467 107.854 32.68C107.674 33.0133 107.404 33.2767 107.044 33.47C106.691 33.6633 106.258 33.76 105.744 33.76C105.304 33.76 104.894 33.6833 104.514 33.53C104.134 33.3767 103.784 33.13 103.464 32.79C103.144 32.4433 102.851 31.99 102.584 31.43C102.318 30.8633 102.078 30.17 101.864 29.35L102.624 29.15C102.864 30.0767 103.128 30.8233 103.414 31.39C103.708 31.95 104.041 32.36 104.414 32.62C104.788 32.8733 105.218 33 105.704 33C106.238 33 106.648 32.8667 106.934 32.6C107.228 32.3333 107.374 31.99 107.374 31.57C107.374 31.27 107.331 31.0133 107.244 30.8C107.164 30.5867 107.058 30.41 106.924 30.27L107.384 30.08C107.184 30.42 106.978 30.7 106.764 30.92C106.558 31.14 106.348 31.3067 106.134 31.42C105.928 31.5267 105.721 31.58 105.514 31.58C105.361 31.58 105.218 31.56 105.084 31.52C104.951 31.4733 104.838 31.4067 104.744 31.32C104.638 31.2267 104.548 31.0967 104.474 30.93C104.401 30.7567 104.364 30.47 104.364 30.07V28.49H101.474V27.78H108.794ZM119.608 27.78V28.49H116.358V29.11V29.27V34H115.588C115.394 33.6067 115.124 33.2367 114.778 32.89C114.431 32.5433 114.034 32.2533 113.588 32.02C113.148 31.78 112.684 31.63 112.198 31.57L111.808 30.61C112.454 30.2367 113.101 29.9033 113.748 29.61C114.394 29.3167 115.081 29.0567 115.808 28.83L115.588 29.25V28.49H111.337V27.78H119.608ZM115.588 29.33L115.798 29.62C115.458 29.7133 115.104 29.8367 114.738 29.99C114.378 30.1433 114.024 30.3033 113.678 30.47C113.338 30.6367 113.024 30.8 112.738 30.96C113.111 31.0333 113.494 31.1733 113.888 31.38C114.288 31.5867 114.651 31.84 114.978 32.14C115.311 32.4333 115.558 32.7533 115.718 33.1L115.638 33.12C115.624 32.9667 115.611 32.8133 115.598 32.66C115.591 32.5067 115.588 32.3233 115.588 32.11V29.33ZM119.048 31.12C119.048 31.34 119.004 31.55 118.918 31.75C118.831 31.9433 118.688 32.1033 118.488 32.23C118.288 32.3567 118.021 32.42 117.688 32.42C117.581 32.42 117.478 32.4167 117.378 32.41C117.284 32.4033 117.191 32.39 117.098 32.37L117.158 31.65C117.198 31.6567 117.244 31.6633 117.298 31.67C117.358 31.67 117.424 31.67 117.498 31.67C117.818 31.67 118.024 31.61 118.118 31.49C118.218 31.3633 118.268 31.2133 118.268 31.04C118.268 30.6867 118.094 30.3867 117.748 30.14C117.408 29.8867 116.901 29.7133 116.228 29.62L116.258 28.87C116.771 28.9233 117.238 29.0533 117.658 29.26C118.078 29.46 118.414 29.72 118.668 30.04C118.921 30.3533 119.048 30.7133 119.048 31.12ZM125.564 27.78V28.49H124.514V34H123.744C123.537 33.6 123.257 33.2333 122.904 32.9C122.557 32.56 122.157 32.2733 121.704 32.04C121.257 31.8067 120.777 31.65 120.264 31.57L119.874 30.61C120.514 30.2233 121.174 29.8733 121.854 29.56C122.541 29.2467 123.247 28.98 123.974 28.76L123.744 29.18V28.49H119.404V27.78H125.564ZM123.744 29.27L123.954 29.54C123.614 29.64 123.261 29.7667 122.894 29.92C122.527 30.0667 122.164 30.23 121.804 30.41C121.444 30.5833 121.104 30.7667 120.784 30.96C121.057 31.02 121.344 31.1133 121.644 31.24C121.944 31.3667 122.237 31.52 122.524 31.7C122.817 31.88 123.081 32.09 123.314 32.33C123.554 32.5633 123.744 32.8267 123.884 33.12L123.804 33.14C123.777 32.9667 123.761 32.7933 123.754 32.62C123.747 32.4467 123.744 32.2733 123.744 32.1V29.27ZM124.424 32.75C124.204 32.3367 123.921 31.9667 123.574 31.64C123.234 31.3067 122.841 31.0333 122.394 30.82C121.954 30.6 121.467 30.45 120.934 30.37L121.444 29.94C121.817 30.0133 122.184 30.1233 122.544 30.27C122.904 30.41 123.241 30.6033 123.554 30.85C123.874 31.09 124.154 31.4 124.394 31.78L124.424 32.75ZM133.631 27.78V28.49H130.381V29.11V29.27V34H129.611C129.418 33.6067 129.148 33.2367 128.801 32.89C128.454 32.5433 128.058 32.2533 127.611 32.02C127.171 31.78 126.708 31.63 126.221 31.57L125.831 30.61C126.478 30.2367 127.124 29.9033 127.771 29.61C128.418 29.3167 129.104 29.0567 129.831 28.83L129.611 29.25V28.49H125.361V27.78H133.631ZM129.611 29.33L129.821 29.62C129.481 29.7133 129.128 29.8367 128.761 29.99C128.401 30.1433 128.048 30.3033 127.701 30.47C127.361 30.6367 127.048 30.8 126.761 30.96C127.134 31.0333 127.518 31.1733 127.911 31.38C128.311 31.5867 128.674 31.84 129.001 32.14C129.334 32.4333 129.581 32.7533 129.741 33.1L129.661 33.12C129.648 32.9667 129.634 32.8133 129.621 32.66C129.614 32.5067 129.611 32.3233 129.611 32.11V29.33ZM133.071 31.12C133.071 31.34 133.028 31.55 132.941 31.75C132.854 31.9433 132.711 32.1033 132.511 32.23C132.311 32.3567 132.044 32.42 131.711 32.42C131.604 32.42 131.501 32.4167 131.401 32.41C131.308 32.4033 131.214 32.39 131.121 32.37L131.181 31.65C131.221 31.6567 131.268 31.6633 131.321 31.67C131.381 31.67 131.448 31.67 131.521 31.67C131.841 31.67 132.048 31.61 132.141 31.49C132.241 31.3633 132.291 31.2133 132.291 31.04C132.291 30.6867 132.118 30.3867 131.771 30.14C131.431 29.8867 130.924 29.7133 130.251 29.62L130.281 28.87C130.794 28.9233 131.261 29.0533 131.681 29.26C132.101 29.46 132.438 29.72 132.691 30.04C132.944 30.3533 133.071 30.7133 133.071 31.12Z" fill="white"/>
<defs>
<filter id="filter0_dd_1049_9348" x="13.7812" y="9.58333" width="14.4375" height="6.875" filterUnits="userSpaceOnUse" color-interpolation-filters="sRGB">
<feFlood flood-opacity="0" result="BackgroundImageFix"/>
<feColorMatrix in="SourceAlpha" type="matrix" values="0 0 0 0 0 0 0 0 0 0 0 0 0 0 0 0 0 0 127 0" result="hardAlpha"/>
<feOffset dy="0.229167"/>
<feGaussianBlur stdDeviation="0.229167"/>
<feColorMatrix type="matrix" values="0 0 0 0 0 0 0 0 0 0 0 0 0 0 0 0 0 0 0.1 0"/>
<feBlend mode="normal" in2="BackgroundImageFix" result="effect1_dropShadow_1049_9348"/>
<feColorMatrix in="SourceAlpha" type="matrix" values="0 0 0 0 0 0 0 0 0 0 0 0 0 0 0 0 0 0 127 0" result="hardAlpha"/>
<feOffset dy="0.458333"/>
<feGaussianBlur stdDeviation="0.6875"/>
<feColorMatrix type="matrix" values="0 0 0 0 0 0 0 0 0 0 0 0 0 0 0 0 0 0 0.2 0"/>
<feBlend mode="normal" in2="effect1_dropShadow_1049_9348" result="effect2_dropShadow_1049_9348"/>
<feBlend mode="normal" in="SourceGraphic" in2="effect2_dropShadow_1049_9348" result="shape"/>
</filter>
<filter id="filter1_dd_1049_9348" x="15.1562" y="17.1458" width="11.6875" height="11.6875" filterUnits="userSpaceOnUse" color-interpolation-filters="sRGB">
<feFlood flood-opacity="0" result="BackgroundImageFix"/>
<feColorMatrix in="SourceAlpha" type="matrix" values="0 0 0 0 0 0 0 0 0 0 0 0 0 0 0 0 0 0 127 0" result="hardAlpha"/>
<feOffset dy="0.229167"/>
<feGaussianBlur stdDeviation="0.229167"/>
<feColorMatrix type="matrix" values="0 0 0 0 1 0 0 0 0 1 0 0 0 0 1 0 0 0 0.6 0"/>
<feBlend mode="normal" in2="BackgroundImageFix" result="effect1_dropShadow_1049_9348"/>
<feColorMatrix in="SourceAlpha" type="matrix" values="0 0 0 0 0 0 0 0 0 0 0 0 0 0 0 0 0 0 127 0" result="hardAlpha"/>
<feOffset dy="0.458333"/>
<feGaussianBlur stdDeviation="0.6875"/>
<feColorMatrix type="matrix" values="0 0 0 0 1 0 0 0 0 1 0 0 0 0 1 0 0 0 0.6 0"/>
<feBlend mode="normal" in2="effect1_dropShadow_1049_9348" result="effect2_dropShadow_1049_9348"/>
<feBlend mode="normal" in="SourceGraphic" in2="effect2_dropShadow_1049_9348" result="shape"/>
</filter>
<filter id="filter2_dd_1049_9348" x="13.1704" y="8.89583" width="15.6594" height="6.18777" filterUnits="userSpaceOnUse" color-interpolation-filters="sRGB">
<feFlood flood-opacity="0" result="BackgroundImageFix"/>
<feColorMatrix in="SourceAlpha" type="matrix" values="0 0 0 0 0 0 0 0 0 0 0 0 0 0 0 0 0 0 127 0" result="hardAlpha"/>
<feOffset dy="-0.916667"/>
<feGaussianBlur stdDeviation="0.229167"/>
<feColorMatrix type="matrix" values="0 0 0 0 0 0 0 0 0 0 0 0 0 0 0 0 0 0 0.1 0"/>
<feBlend mode="normal" in2="BackgroundImageFix" result="effect1_dropShadow_1049_9348"/>
<feColorMatrix in="SourceAlpha" type="matrix" values="0 0 0 0 0 0 0 0 0 0 0 0 0 0 0 0 0 0 127 0" result="hardAlpha"/>
<feOffset dy="-0.916667"/>
<feGaussianBlur stdDeviation="0.6875"/>
<feColorMatrix type="matrix" values="0 0 0 0 0 0 0 0 0 0 0 0 0 0 0 0 0 0 0.2 0"/>
<feBlend mode="normal" in2="effect1_dropShadow_1049_9348" result="effect2_dropShadow_1049_9348"/>
<feBlend mode="normal" in="SourceGraphic" in2="effect2_dropShadow_1049_9348" result="shape"/>
</filter>
<linearGradient id="paint0_linear_1049_9348" x1="15.1875" y1="10.5078" x2="19.6603" y2="31.0495" gradientUnits="userSpaceOnUse">
<stop offset="0.270833" stop-color="white"/>
<stop offset="1" stop-color="#DFDFDF"/>
</linearGradient>
<linearGradient id="paint1_linear_1049_9348" x1="21" y1="13.25" x2="25.0962" y2="32.4541" gradientUnits="userSpaceOnUse">
<stop stop-color="#0078D4"/>
<stop offset="1" stop-color="#114A8B"/>
</linearGradient>
<linearGradient id="paint2_linear_1049_9348" x1="21" y1="11.1875" x2="21.1934" y2="14.1494" gradientUnits="userSpaceOnUse">
<stop stop-color="#28AFEA"/>
<stop offset="1" stop-color="#0078D4"/>
</linearGradient>
<linearGradient id="paint3_linear_1049_9348" x1="21" y1="11.1875" x2="21.1934" y2="14.1494" gradientUnits="userSpaceOnUse">
<stop stop-color="#30DAFF"/>
<stop offset="1" stop-color="#0094D4"/>
</linearGradient>
<linearGradient id="paint4_linear_1049_9348" x1="20.5035" y1="10.5" x2="20.5035" y2="11.875" gradientUnits="userSpaceOnUse">
<stop stop-color="#22BCFF"/>
<stop offset="1" stop-color="#0088F0"/>
</linearGradient>
<linearGradient id="paint5_linear_1049_9348" x1="20.5035" y1="10.5" x2="20.5035" y2="11.875" gradientUnits="userSpaceOnUse">
<stop stop-color="#28AFEA"/>
<stop offset="1" stop-color="#3CCBF4"/>
</linearGradient>
<clipPath id="clip0_1049_9348">
<rect width="22" height="22" fill="white" transform="translate(10 10.5)"/>
</clipPath>
<clipPath id="clip1_1049_9348">
<rect width="22" height="22" fill="white" transform="translate(10 10.5)"/>
</clipPath>
</defs>
</svg>
