<svg width="161" height="44" viewBox="0 0 161 44" fill="none" xmlns="http://www.w3.org/2000/svg">
<rect x="1" y="1" width="159" height="42" rx="4" fill="#202020"/>
<rect x="0.5" y="0.5" width="160" height="43" rx="4.5" stroke="white" stroke-opacity="0.1"/>
<g clip-path="url(#clip0_1049_9540)">
<g clip-path="url(#clip1_1049_9540)">
<path d="M10.3438 14.6667C10.3438 14.1604 10.7542 13.75 11.2604 13.75H30.7396C31.2458 13.75 31.6562 14.1604 31.6562 14.6667V28.5313C31.6562 30.6196 29.9633 32.3125 27.875 32.3125H14.125C12.0367 32.3125 10.3438 30.6196 10.3438 28.5313V14.6667Z" fill="url(#paint0_linear_1049_9540)"/>
<mask id="mask0_1049_9540" style="mask-type:alpha" maskUnits="userSpaceOnUse" x="10" y="13" width="22" height="20">
<path d="M10.3438 14.6667C10.3438 14.1604 10.7542 13.75 11.2604 13.75H30.7396C31.2458 13.75 31.6562 14.1604 31.6562 14.6667V28.5313C31.6562 30.6196 29.9633 32.3125 27.875 32.3125H14.125C12.0367 32.3125 10.3438 30.6196 10.3438 28.5313V14.6667Z" fill="url(#paint1_linear_1049_9540)"/>
</mask>
<g mask="url(#mask0_1049_9540)">
<g filter="url(#filter0_dd_1049_9540)">
<path d="M15.8438 14.4375V11.6875H26.1562V14.4375" stroke="url(#paint2_linear_1049_9540)" stroke-width="1.375" stroke-linecap="round"/>
</g>
</g>
<g filter="url(#filter1_dd_1049_9540)">
<path d="M20.6565 18.5625H16.5315V22.6875H20.6565V18.5625Z" fill="#F25022"/>
<path d="M25.4688 18.5625H21.3438V22.6875H25.4688V18.5625Z" fill="#7FBA00"/>
<path d="M25.4688 23.375H21.3438V27.5H25.4688V23.375Z" fill="#FFB900"/>
<path d="M20.6562 23.375H16.5312V27.5H20.6562V23.375Z" fill="#00A4EF"/>
</g>
<path d="M15.8438 14.4375V12.375C15.8438 11.9953 16.1516 11.6875 16.5313 11.6875H25.4688C25.8484 11.6875 26.1562 11.9953 26.1562 12.375V14.4375" stroke="url(#paint3_linear_1049_9540)" stroke-width="1.375" stroke-linecap="round"/>
<rect x="16.5312" y="11" width="8.9375" height="1.375" fill="url(#paint4_linear_1049_9540)"/>
<mask id="mask1_1049_9540" style="mask-type:alpha" maskUnits="userSpaceOnUse" x="16" y="11" width="10" height="2">
<rect x="16.5312" y="11" width="8.9375" height="1.375" fill="url(#paint5_linear_1049_9540)"/>
</mask>
<g mask="url(#mask1_1049_9540)">
<g filter="url(#filter2_dd_1049_9540)">
<rect x="14.5454" y="11.6877" width="1.98611" height="3.4375" fill="#C4C4C4"/>
</g>
</g>
</g>
</g>
<path d="M42.5508 17H38.918V9.99805H39.7383V16.2578H42.5508V17ZM47.0576 17H46.2568V16.2188H46.2373C46.0648 16.5182 45.8516 16.7428 45.5977 16.8926C45.347 17.0423 45.054 17.1172 44.7188 17.1172C44.25 17.1172 43.8708 16.9805 43.5811 16.707C43.2913 16.4336 43.1465 16.0706 43.1465 15.6182C43.1465 15.1917 43.293 14.8385 43.5859 14.5586C43.8789 14.2786 44.2939 14.0996 44.8311 14.0215L46.2568 13.8311V13.7188C46.2568 13.2988 46.1592 13.001 45.9639 12.8252C45.7686 12.6462 45.5081 12.5566 45.1826 12.5566C44.9222 12.5566 44.6715 12.6055 44.4307 12.7031C44.1898 12.8008 43.9635 12.9505 43.752 13.1523L43.2832 12.6689C43.5632 12.3988 43.861 12.2002 44.1768 12.0732C44.4925 11.9463 44.8441 11.8828 45.2314 11.8828C45.8369 11.8828 46.2926 12.0391 46.5986 12.3516C46.9046 12.6608 47.0576 13.1263 47.0576 13.748V17ZM46.2568 14.9688V14.4707L45.0508 14.6367C44.6829 14.6888 44.4062 14.7816 44.2207 14.915C44.0352 15.0485 43.9424 15.2585 43.9424 15.5449C43.9424 15.8444 44.0286 16.0739 44.2012 16.2334C44.377 16.3896 44.5902 16.4678 44.8408 16.4678C45.2738 16.4678 45.6172 16.3262 45.8711 16.043C46.1283 15.7598 46.2568 15.4017 46.2568 14.9688ZM54.9043 12L53.4053 17H52.5752L51.54 13.4111C51.514 13.32 51.4961 13.2435 51.4863 13.1816C51.4798 13.1165 51.4733 13.0417 51.4668 12.957H51.4473C51.4408 13.0417 51.4294 13.1149 51.4131 13.1768C51.3968 13.2386 51.374 13.3167 51.3447 13.4111L50.2266 17H49.4258L47.9121 12H48.752L49.7871 15.7598C49.8034 15.8151 49.8164 15.8802 49.8262 15.9551C49.8392 16.0299 49.849 16.1146 49.8555 16.209H49.8945C49.901 16.1374 49.9108 16.0641 49.9238 15.9893C49.9368 15.9111 49.9564 15.8314 49.9824 15.75L51.1348 12H51.8672L52.9023 15.7695C52.9186 15.8314 52.9316 15.8997 52.9414 15.9746C52.9544 16.0462 52.9658 16.1276 52.9756 16.2188H53.0146C53.0179 16.1536 53.026 16.0837 53.0391 16.0088C53.0553 15.9339 53.0749 15.8542 53.0977 15.7695L54.1133 12H54.9043ZM58.2979 12.6836C58.236 12.6641 58.1807 12.651 58.1318 12.6445C58.083 12.6348 58.0212 12.6299 57.9463 12.6299C57.5394 12.6299 57.2188 12.804 56.9844 13.1523C56.75 13.4974 56.6328 13.9303 56.6328 14.4512V17H55.832V12H56.6328V12.9912H56.6523C56.7663 12.6396 56.9404 12.3727 57.1748 12.1904C57.4092 12.0049 57.6794 11.9121 57.9854 11.9121C58.0863 11.9121 58.1709 11.917 58.2393 11.9268C58.3109 11.9365 58.3743 11.9512 58.4297 11.9707L58.2979 12.6836ZM59.3086 17V9.59766H60.1094V17H59.3086ZM68.0293 12L66.5303 17H65.7002L64.665 13.4111C64.639 13.32 64.6211 13.2435 64.6113 13.1816C64.6048 13.1165 64.5983 13.0417 64.5918 12.957H64.5723C64.5658 13.0417 64.5544 13.1149 64.5381 13.1768C64.5218 13.2386 64.499 13.3167 64.4697 13.4111L63.3516 17H62.5508L61.0371 12H61.877L62.9121 15.7598C62.9284 15.8151 62.9414 15.8802 62.9512 15.9551C62.9642 16.0299 62.974 16.1146 62.9805 16.209H63.0195C63.026 16.1374 63.0358 16.0641 63.0488 15.9893C63.0618 15.9111 63.0814 15.8314 63.1074 15.75L64.2598 12H64.9922L66.0273 15.7695C66.0436 15.8314 66.0566 15.8997 66.0664 15.9746C66.0794 16.0462 66.0908 16.1276 66.1006 16.2188H66.1396C66.1429 16.1536 66.151 16.0837 66.1641 16.0088C66.1803 15.9339 66.1999 15.8542 66.2227 15.7695L67.2383 12H68.0293ZM72.9365 12L70.5781 17.9521C70.3926 18.4209 70.1598 18.7708 69.8799 19.002C69.5999 19.2363 69.2712 19.3535 68.8936 19.3535C68.7959 19.3535 68.7064 19.347 68.625 19.334C68.5436 19.3242 68.4655 19.3096 68.3906 19.29L68.5469 18.6064C68.6055 18.626 68.6592 18.639 68.708 18.6455C68.7601 18.6553 68.8105 18.6602 68.8594 18.6602C69.0742 18.6602 69.2516 18.6048 69.3916 18.4941C69.5348 18.3835 69.6488 18.2272 69.7334 18.0254L70.168 16.9902L68.2148 12H69.1035L70.4561 15.8477C70.4626 15.8704 70.474 15.9144 70.4902 15.9795C70.5098 16.0446 70.5326 16.1276 70.5586 16.2285H70.5879C70.5977 16.1895 70.609 16.139 70.6221 16.0771C70.6383 16.0153 70.6595 15.9421 70.6855 15.8574L72.1064 12H72.9365ZM76.1836 16.9414C76.0469 16.9967 75.9118 17.0374 75.7783 17.0635C75.6481 17.0928 75.5 17.1074 75.334 17.1074C74.9368 17.1074 74.6243 16.9919 74.3965 16.7607C74.1719 16.5264 74.0596 16.1813 74.0596 15.7256V12.6836H73.2002V12H74.0596V10.7793L74.8604 10.5205V12H76.1201V12.6836H74.8604V15.6328C74.8604 15.9193 74.9108 16.126 75.0117 16.2529C75.1159 16.3799 75.2705 16.4434 75.4756 16.4434C75.5732 16.4434 75.6676 16.432 75.7588 16.4092C75.8499 16.3864 75.9264 16.3604 75.9883 16.3311L76.1836 16.9414ZM81.3398 17H80.5391V14.1191C80.5391 13.5983 80.4414 13.2077 80.2461 12.9473C80.054 12.6868 79.7643 12.5566 79.377 12.5566C78.9863 12.5566 78.6576 12.708 78.3906 13.0107C78.1237 13.3102 77.9902 13.696 77.9902 14.168V17H77.1895V9.59766H77.9902V12.8301H78.0098C78.2018 12.5143 78.4346 12.2783 78.708 12.1221C78.9814 11.9626 79.2956 11.8828 79.6504 11.8828C80.2135 11.8828 80.6351 12.0521 80.915 12.3906C81.1982 12.7292 81.3398 13.2386 81.3398 13.9189V17ZM84.9434 17.1172C84.2044 17.1172 83.6136 16.8844 83.1709 16.4189C82.7314 15.9502 82.5117 15.3301 82.5117 14.5586C82.5117 13.722 82.7396 13.0677 83.1953 12.5957C83.651 12.1237 84.2728 11.8861 85.0605 11.8828C85.806 11.8796 86.387 12.109 86.8037 12.5713C87.2236 13.0335 87.4336 13.6699 87.4336 14.4805C87.4336 15.2812 87.2074 15.9209 86.7549 16.3994C86.3057 16.8779 85.7018 17.1172 84.9434 17.1172ZM85.002 16.4434C85.5195 16.4434 85.9167 16.2757 86.1934 15.9404C86.4733 15.6019 86.6133 15.125 86.6133 14.5098C86.6133 13.8815 86.4733 13.3997 86.1934 13.0645C85.9134 12.7259 85.5163 12.5566 85.002 12.5566C84.4876 12.5566 84.0807 12.7324 83.7812 13.084C83.4818 13.4355 83.332 13.9173 83.332 14.5293C83.332 15.1217 83.4834 15.5889 83.7861 15.9307C84.0889 16.2725 84.4941 16.4434 85.002 16.4434ZM93.5469 17.1172C92.8079 17.1172 92.2171 16.8844 91.7744 16.4189C91.335 15.9502 91.1152 15.3301 91.1152 14.5586C91.1152 13.722 91.3431 13.0677 91.7988 12.5957C92.2546 12.1237 92.8763 11.8861 93.6641 11.8828C94.4095 11.8796 94.9906 12.109 95.4072 12.5713C95.8271 13.0335 96.0371 13.6699 96.0371 14.4805C96.0371 15.2812 95.8109 15.9209 95.3584 16.3994C94.9092 16.8779 94.3053 17.1172 93.5469 17.1172ZM93.6055 16.4434C94.123 16.4434 94.5202 16.2757 94.7969 15.9404C95.0768 15.6019 95.2168 15.125 95.2168 14.5098C95.2168 13.8815 95.0768 13.3997 94.7969 13.0645C94.5169 12.7259 94.1198 12.5566 93.6055 12.5566C93.0911 12.5566 92.6842 12.7324 92.3848 13.084C92.0853 13.4355 91.9355 13.9173 91.9355 14.5293C91.9355 15.1217 92.0869 15.5889 92.3896 15.9307C92.6924 16.2725 93.0977 16.4434 93.6055 16.4434Z" fill="white"/>
<path d="M51.4219 34H49.5781V26.8516C49.5781 26.5286 49.5859 26.1771 49.6016 25.7969C49.6224 25.4115 49.6484 25.0026 49.6797 24.5703H49.6328C49.5703 24.8672 49.5104 25.1224 49.4531 25.3359C49.401 25.5443 49.349 25.7109 49.2969 25.8359L46.0078 34H44.7266L41.4219 25.9062C41.3802 25.7917 41.3281 25.6224 41.2656 25.3984C41.2083 25.1745 41.1458 24.8984 41.0781 24.5703H41.0312C41.0625 24.9453 41.0833 25.3438 41.0938 25.7656C41.1042 26.1823 41.1094 26.6224 41.1094 27.0859V34H39.3906V22.7969H42.0156L44.9297 30.0781C45.0443 30.3542 45.138 30.6094 45.2109 30.8438C45.2891 31.0729 45.349 31.2865 45.3906 31.4844H45.4375C45.5312 31.1875 45.6198 30.9193 45.7031 30.6797C45.7865 30.4401 45.8646 30.2318 45.9375 30.0547L48.8906 22.7969H51.4219V34ZM54.8984 24.4531C54.5651 24.4531 54.2891 24.3464 54.0703 24.1328C53.8516 23.9193 53.7422 23.6562 53.7422 23.3438C53.7422 23.0208 53.8516 22.7552 54.0703 22.5469C54.2891 22.3385 54.5651 22.2344 54.8984 22.2344C55.237 22.2344 55.5156 22.3385 55.7344 22.5469C55.9531 22.7552 56.0625 23.0208 56.0625 23.3438C56.0625 23.6615 55.9531 23.9271 55.7344 24.1406C55.5156 24.349 55.237 24.4531 54.8984 24.4531ZM55.7969 34H53.9766V26H55.7969V34ZM64.1562 33.5078C63.7604 33.7474 63.3672 33.9193 62.9766 34.0234C62.5859 34.1328 62.1615 34.1875 61.7031 34.1875C60.474 34.1875 59.4896 33.8281 58.75 33.1094C58.0156 32.3906 57.6484 31.4141 57.6484 30.1797C57.6484 28.8516 58.0286 27.7917 58.7891 27C59.5547 26.2083 60.5859 25.8125 61.8828 25.8125C62.3359 25.8125 62.7474 25.862 63.1172 25.9609C63.4922 26.0547 63.8724 26.2109 64.2578 26.4297L63.5469 27.6953C63.276 27.5443 63.0104 27.4349 62.75 27.3672C62.4896 27.2943 62.2057 27.2578 61.8984 27.2578C61.1328 27.2578 60.5417 27.5104 60.125 28.0156C59.7083 28.5208 59.5 29.1901 59.5 30.0234C59.5 30.8984 59.724 31.5703 60.1719 32.0391C60.625 32.5078 61.1927 32.7422 61.875 32.7422C62.0833 32.7422 62.3229 32.7057 62.5938 32.6328C62.8646 32.5547 63.138 32.4323 63.4141 32.2656L64.1562 33.5078ZM70.1484 27.5234C70.0495 27.4974 69.9531 27.4792 69.8594 27.4688C69.7708 27.4531 69.6667 27.4453 69.5469 27.4453C68.8958 27.4453 68.3958 27.6849 68.0469 28.1641C67.6979 28.6432 67.5234 29.2682 67.5234 30.0391V34H65.7031V26H67.5234V27.5391H67.5547C67.7422 26.987 68.0182 26.5703 68.3828 26.2891C68.7474 26.0026 69.1771 25.8594 69.6719 25.8594C69.8125 25.8594 69.9375 25.8672 70.0469 25.8828C70.1615 25.8984 70.2708 25.9219 70.375 25.9531L70.1484 27.5234ZM75.1719 34.1875C73.9219 34.1875 72.9297 33.8151 72.1953 33.0703C71.4661 32.3203 71.1016 31.3177 71.1016 30.0625C71.1068 28.7344 71.487 27.6953 72.2422 26.9453C72.9974 26.1901 74.026 25.8125 75.3281 25.8125C76.5833 25.8073 77.5625 26.1771 78.2656 26.9219C78.974 27.6615 79.3281 28.6641 79.3281 29.9297C79.3281 31.2318 78.9531 32.2682 78.2031 33.0391C77.4583 33.8047 76.4479 34.1875 75.1719 34.1875ZM75.2578 32.7422C75.9818 32.7422 76.5312 32.5052 76.9062 32.0312C77.2865 31.5573 77.4766 30.8724 77.4766 29.9766C77.4766 29.0911 77.2865 28.4167 76.9062 27.9531C76.526 27.4896 75.974 27.2578 75.25 27.2578C74.5365 27.2578 73.974 27.5026 73.5625 27.9922C73.1562 28.4818 72.9531 29.1589 72.9531 30.0234C72.9531 30.8932 73.1562 31.5651 73.5625 32.0391C73.9688 32.5078 74.5339 32.7422 75.2578 32.7422ZM80.4062 33.3594L81.1953 32.0781C81.5078 32.2969 81.8385 32.474 82.1875 32.6094C82.5417 32.7396 82.9245 32.8047 83.3359 32.8047C83.7839 32.8047 84.1302 32.724 84.375 32.5625C84.625 32.3958 84.75 32.1484 84.75 31.8203C84.75 31.5599 84.6458 31.3438 84.4375 31.1719C84.2344 30.9948 83.8854 30.849 83.3906 30.7344C82.3906 30.5 81.6875 30.1901 81.2812 29.8047C80.8802 29.4193 80.6797 28.9115 80.6797 28.2812C80.6797 27.5573 80.9609 26.9661 81.5234 26.5078C82.0859 26.0443 82.8229 25.8125 83.7344 25.8125C84.1875 25.8125 84.6198 25.8724 85.0312 25.9922C85.4427 26.1068 85.8438 26.2917 86.2344 26.5469L85.5 27.7969C85.1562 27.5781 84.8411 27.4219 84.5547 27.3281C84.2682 27.2344 83.974 27.1875 83.6719 27.1875C83.2448 27.1875 82.9115 27.2682 82.6719 27.4297C82.4375 27.5859 82.3203 27.8047 82.3203 28.0859C82.3203 28.3828 82.4401 28.6042 82.6797 28.75C82.9245 28.8906 83.3333 29.0286 83.9062 29.1641C84.7708 29.3724 85.4036 29.6745 85.8047 30.0703C86.2057 30.4609 86.4062 30.9844 86.4062 31.6406C86.4062 32.4167 86.1224 33.0365 85.5547 33.5C84.9922 33.9583 84.2292 34.1875 83.2656 34.1875C82.7448 34.1875 82.2448 34.1198 81.7656 33.9844C81.2917 33.8438 80.8385 33.6354 80.4062 33.3594ZM91.6406 34.1875C90.3906 34.1875 89.3984 33.8151 88.6641 33.0703C87.9349 32.3203 87.5703 31.3177 87.5703 30.0625C87.5755 28.7344 87.9557 27.6953 88.7109 26.9453C89.4661 26.1901 90.4948 25.8125 91.7969 25.8125C93.0521 25.8073 94.0312 26.1771 94.7344 26.9219C95.4427 27.6615 95.7969 28.6641 95.7969 29.9297C95.7969 31.2318 95.4219 32.2682 94.6719 33.0391C93.9271 33.8047 92.9167 34.1875 91.6406 34.1875ZM91.7266 32.7422C92.4505 32.7422 93 32.5052 93.375 32.0312C93.7552 31.5573 93.9453 30.8724 93.9453 29.9766C93.9453 29.0911 93.7552 28.4167 93.375 27.9531C92.9948 27.4896 92.4427 27.2578 91.7188 27.2578C91.0052 27.2578 90.4427 27.5026 90.0312 27.9922C89.625 28.4818 89.4219 29.1589 89.4219 30.0234C89.4219 30.8932 89.625 31.5651 90.0312 32.0391C90.4375 32.5078 91.0026 32.7422 91.7266 32.7422ZM101.977 23.5859C101.831 23.5286 101.698 23.4896 101.578 23.4688C101.458 23.4427 101.328 23.4297 101.188 23.4297C100.802 23.4297 100.51 23.5417 100.312 23.7656C100.12 23.9844 100.023 24.3021 100.023 24.7188V26H101.875V27.4219H100.023V34H98.2109V27.4219H96.8516V26H98.2109V24.625C98.2109 23.8125 98.4714 23.1693 98.9922 22.6953C99.5182 22.2161 100.214 21.9766 101.078 21.9766C101.349 21.9766 101.583 21.9948 101.781 22.0312C101.979 22.0677 102.185 22.1198 102.398 22.1875L101.977 23.5859ZM107.523 33.8906C107.289 33.9896 107.044 34.0625 106.789 34.1094C106.534 34.1562 106.26 34.1797 105.969 34.1797C105.229 34.1797 104.659 33.9844 104.258 33.5938C103.862 33.1979 103.664 32.6094 103.664 31.8281V27.4219H102.32V26H103.664V24.0547L105.477 23.5078V26H107.391V27.4219H105.477V31.6797C105.477 32.0703 105.547 32.3516 105.688 32.5234C105.833 32.6953 106.057 32.7812 106.359 32.7812C106.505 32.7812 106.643 32.7656 106.773 32.7344C106.909 32.6979 107.029 32.6536 107.133 32.6016L107.523 33.8906ZM112.609 33.1953L113.438 31.7656C113.943 32.0781 114.414 32.2995 114.852 32.4297C115.289 32.5547 115.779 32.6172 116.32 32.6172C116.966 32.6172 117.474 32.4792 117.844 32.2031C118.219 31.9219 118.406 31.5208 118.406 31C118.406 30.526 118.25 30.1536 117.938 29.8828C117.63 29.6068 117.107 29.3542 116.367 29.125C115.227 28.7865 114.388 28.3672 113.852 27.8672C113.315 27.3672 113.047 26.6901 113.047 25.8359C113.047 24.9089 113.393 24.1406 114.086 23.5312C114.779 22.9167 115.719 22.6094 116.906 22.6094C117.427 22.6094 117.94 22.6667 118.445 22.7812C118.951 22.8958 119.451 23.0729 119.945 23.3125L119.25 24.7969C118.818 24.5729 118.404 24.4141 118.008 24.3203C117.617 24.2266 117.219 24.1797 116.812 24.1797C116.219 24.1797 115.75 24.3099 115.406 24.5703C115.068 24.8307 114.898 25.1979 114.898 25.6719C114.898 26.0938 115.055 26.4271 115.367 26.6719C115.68 26.9115 116.216 27.1484 116.977 27.3828C118.143 27.7318 118.982 28.1667 119.492 28.6875C120.008 29.2083 120.266 29.9245 120.266 30.8359C120.266 31.8151 119.917 32.6198 119.219 33.25C118.521 33.875 117.526 34.1875 116.234 34.1875C115.589 34.1875 114.958 34.1068 114.344 33.9453C113.729 33.7786 113.151 33.5286 112.609 33.1953ZM125.914 33.8906C125.68 33.9896 125.435 34.0625 125.18 34.1094C124.924 34.1562 124.651 34.1797 124.359 34.1797C123.62 34.1797 123.049 33.9844 122.648 33.5938C122.253 33.1979 122.055 32.6094 122.055 31.8281V27.4219H120.711V26H122.055V24.0547L123.867 23.5078V26H125.781V27.4219H123.867V31.6797C123.867 32.0703 123.938 32.3516 124.078 32.5234C124.224 32.6953 124.448 32.7812 124.75 32.7812C124.896 32.7812 125.034 32.7656 125.164 32.7344C125.299 32.6979 125.419 32.6536 125.523 32.6016L125.914 33.8906ZM130.891 34.1875C129.641 34.1875 128.648 33.8151 127.914 33.0703C127.185 32.3203 126.82 31.3177 126.82 30.0625C126.826 28.7344 127.206 27.6953 127.961 26.9453C128.716 26.1901 129.745 25.8125 131.047 25.8125C132.302 25.8073 133.281 26.1771 133.984 26.9219C134.693 27.6615 135.047 28.6641 135.047 29.9297C135.047 31.2318 134.672 32.2682 133.922 33.0391C133.177 33.8047 132.167 34.1875 130.891 34.1875ZM130.977 32.7422C131.701 32.7422 132.25 32.5052 132.625 32.0312C133.005 31.5573 133.195 30.8724 133.195 29.9766C133.195 29.0911 133.005 28.4167 132.625 27.9531C132.245 27.4896 131.693 27.2578 130.969 27.2578C130.255 27.2578 129.693 27.5026 129.281 27.9922C128.875 28.4818 128.672 29.1589 128.672 30.0234C128.672 30.8932 128.875 31.5651 129.281 32.0391C129.688 32.5078 130.253 32.7422 130.977 32.7422ZM141.352 27.5234C141.253 27.4974 141.156 27.4792 141.062 27.4688C140.974 27.4531 140.87 27.4453 140.75 27.4453C140.099 27.4453 139.599 27.6849 139.25 28.1641C138.901 28.6432 138.727 29.2682 138.727 30.0391V34H136.906V26H138.727V27.5391H138.758C138.945 26.987 139.221 26.5703 139.586 26.2891C139.951 26.0026 140.38 25.8594 140.875 25.8594C141.016 25.8594 141.141 25.8672 141.25 25.8828C141.365 25.8984 141.474 25.9219 141.578 25.9531L141.352 27.5234ZM149.594 30.4766H144.133C144.164 31.2318 144.383 31.8073 144.789 32.2031C145.195 32.5938 145.763 32.7891 146.492 32.7891C146.789 32.7891 147.128 32.7292 147.508 32.6094C147.888 32.4896 148.263 32.2969 148.633 32.0312L149.453 33.1641C148.958 33.5234 148.456 33.7839 147.945 33.9453C147.435 34.1068 146.872 34.1875 146.258 34.1875C145.013 34.1875 144.044 33.8307 143.352 33.1172C142.659 32.3984 142.31 31.3958 142.305 30.1094C142.305 28.8281 142.661 27.7917 143.375 27C144.094 26.2083 145.013 25.8125 146.133 25.8125C147.206 25.8125 148.049 26.151 148.664 26.8281C149.284 27.5 149.594 28.4531 149.594 29.6875V30.4766ZM147.836 29.2188C147.836 28.5312 147.685 28.0156 147.383 27.6719C147.086 27.3229 146.664 27.1484 146.117 27.1484C145.602 27.1484 145.161 27.3359 144.797 27.7109C144.438 28.0807 144.216 28.5833 144.133 29.2188H147.836Z" fill="white"/>
<defs>
<filter id="filter0_dd_1049_9540" x="13.7812" y="10.0833" width="14.4375" height="6.875" filterUnits="userSpaceOnUse" color-interpolation-filters="sRGB">
<feFlood flood-opacity="0" result="BackgroundImageFix"/>
<feColorMatrix in="SourceAlpha" type="matrix" values="0 0 0 0 0 0 0 0 0 0 0 0 0 0 0 0 0 0 127 0" result="hardAlpha"/>
<feOffset dy="0.229167"/>
<feGaussianBlur stdDeviation="0.229167"/>
<feColorMatrix type="matrix" values="0 0 0 0 0 0 0 0 0 0 0 0 0 0 0 0 0 0 0.1 0"/>
<feBlend mode="normal" in2="BackgroundImageFix" result="effect1_dropShadow_1049_9540"/>
<feColorMatrix in="SourceAlpha" type="matrix" values="0 0 0 0 0 0 0 0 0 0 0 0 0 0 0 0 0 0 127 0" result="hardAlpha"/>
<feOffset dy="0.458333"/>
<feGaussianBlur stdDeviation="0.6875"/>
<feColorMatrix type="matrix" values="0 0 0 0 0 0 0 0 0 0 0 0 0 0 0 0 0 0 0.2 0"/>
<feBlend mode="normal" in2="effect1_dropShadow_1049_9540" result="effect2_dropShadow_1049_9540"/>
<feBlend mode="normal" in="SourceGraphic" in2="effect2_dropShadow_1049_9540" result="shape"/>
</filter>
<filter id="filter1_dd_1049_9540" x="15.1562" y="17.6458" width="11.6875" height="11.6875" filterUnits="userSpaceOnUse" color-interpolation-filters="sRGB">
<feFlood flood-opacity="0" result="BackgroundImageFix"/>
<feColorMatrix in="SourceAlpha" type="matrix" values="0 0 0 0 0 0 0 0 0 0 0 0 0 0 0 0 0 0 127 0" result="hardAlpha"/>
<feOffset dy="0.229167"/>
<feGaussianBlur stdDeviation="0.229167"/>
<feColorMatrix type="matrix" values="0 0 0 0 1 0 0 0 0 1 0 0 0 0 1 0 0 0 0.6 0"/>
<feBlend mode="normal" in2="BackgroundImageFix" result="effect1_dropShadow_1049_9540"/>
<feColorMatrix in="SourceAlpha" type="matrix" values="0 0 0 0 0 0 0 0 0 0 0 0 0 0 0 0 0 0 127 0" result="hardAlpha"/>
<feOffset dy="0.458333"/>
<feGaussianBlur stdDeviation="0.6875"/>
<feColorMatrix type="matrix" values="0 0 0 0 1 0 0 0 0 1 0 0 0 0 1 0 0 0 0.6 0"/>
<feBlend mode="normal" in2="effect1_dropShadow_1049_9540" result="effect2_dropShadow_1049_9540"/>
<feBlend mode="normal" in="SourceGraphic" in2="effect2_dropShadow_1049_9540" result="shape"/>
</filter>
<filter id="filter2_dd_1049_9540" x="13.1704" y="9.39583" width="15.6594" height="6.18774" filterUnits="userSpaceOnUse" color-interpolation-filters="sRGB">
<feFlood flood-opacity="0" result="BackgroundImageFix"/>
<feColorMatrix in="SourceAlpha" type="matrix" values="0 0 0 0 0 0 0 0 0 0 0 0 0 0 0 0 0 0 127 0" result="hardAlpha"/>
<feOffset dy="-0.916667"/>
<feGaussianBlur stdDeviation="0.229167"/>
<feColorMatrix type="matrix" values="0 0 0 0 0 0 0 0 0 0 0 0 0 0 0 0 0 0 0.1 0"/>
<feBlend mode="normal" in2="BackgroundImageFix" result="effect1_dropShadow_1049_9540"/>
<feColorMatrix in="SourceAlpha" type="matrix" values="0 0 0 0 0 0 0 0 0 0 0 0 0 0 0 0 0 0 127 0" result="hardAlpha"/>
<feOffset dy="-0.916667"/>
<feGaussianBlur stdDeviation="0.6875"/>
<feColorMatrix type="matrix" values="0 0 0 0 0 0 0 0 0 0 0 0 0 0 0 0 0 0 0.2 0"/>
<feBlend mode="normal" in2="effect1_dropShadow_1049_9540" result="effect2_dropShadow_1049_9540"/>
<feBlend mode="normal" in="SourceGraphic" in2="effect2_dropShadow_1049_9540" result="shape"/>
</filter>
<linearGradient id="paint0_linear_1049_9540" x1="15.1875" y1="11.0078" x2="19.6603" y2="31.5495" gradientUnits="userSpaceOnUse">
<stop offset="0.270833" stop-color="white"/>
<stop offset="1" stop-color="#DFDFDF"/>
</linearGradient>
<linearGradient id="paint1_linear_1049_9540" x1="21" y1="13.75" x2="25.0962" y2="32.9541" gradientUnits="userSpaceOnUse">
<stop stop-color="#0078D4"/>
<stop offset="1" stop-color="#114A8B"/>
</linearGradient>
<linearGradient id="paint2_linear_1049_9540" x1="21" y1="11.6875" x2="21.1934" y2="14.6494" gradientUnits="userSpaceOnUse">
<stop stop-color="#28AFEA"/>
<stop offset="1" stop-color="#0078D4"/>
</linearGradient>
<linearGradient id="paint3_linear_1049_9540" x1="21" y1="11.6875" x2="21.1934" y2="14.6494" gradientUnits="userSpaceOnUse">
<stop stop-color="#30DAFF"/>
<stop offset="1" stop-color="#0094D4"/>
</linearGradient>
<linearGradient id="paint4_linear_1049_9540" x1="20.5035" y1="11" x2="20.5035" y2="12.375" gradientUnits="userSpaceOnUse">
<stop stop-color="#22BCFF"/>
<stop offset="1" stop-color="#0088F0"/>
</linearGradient>
<linearGradient id="paint5_linear_1049_9540" x1="20.5035" y1="11" x2="20.5035" y2="12.375" gradientUnits="userSpaceOnUse">
<stop stop-color="#28AFEA"/>
<stop offset="1" stop-color="#3CCBF4"/>
</linearGradient>
<clipPath id="clip0_1049_9540">
<rect width="22" height="22" fill="white" transform="translate(10 11)"/>
</clipPath>
<clipPath id="clip1_1049_9540">
<rect width="22" height="22" fill="white" transform="translate(10 11)"/>
</clipPath>
</defs>
</svg>
