<svg width="161" height="44" viewBox="0 0 161 44" fill="none" xmlns="http://www.w3.org/2000/svg">
<rect x="1" y="1" width="159" height="42" rx="4" fill="#202020"/>
<rect x="0.5" y="0.5" width="160" height="43" rx="4.5" stroke="white" stroke-opacity="0.1"/>
<g clip-path="url(#clip0_1049_9388)">
<g clip-path="url(#clip1_1049_9388)">
<path d="M10.3438 14.6667C10.3438 14.1604 10.7542 13.75 11.2604 13.75H30.7396C31.2458 13.75 31.6562 14.1604 31.6562 14.6667V28.5313C31.6562 30.6196 29.9633 32.3125 27.875 32.3125H14.125C12.0367 32.3125 10.3438 30.6196 10.3438 28.5313V14.6667Z" fill="url(#paint0_linear_1049_9388)"/>
<mask id="mask0_1049_9388" style="mask-type:alpha" maskUnits="userSpaceOnUse" x="10" y="13" width="22" height="20">
<path d="M10.3438 14.6667C10.3438 14.1604 10.7542 13.75 11.2604 13.75H30.7396C31.2458 13.75 31.6562 14.1604 31.6562 14.6667V28.5313C31.6562 30.6196 29.9633 32.3125 27.875 32.3125H14.125C12.0367 32.3125 10.3438 30.6196 10.3438 28.5313V14.6667Z" fill="url(#paint1_linear_1049_9388)"/>
</mask>
<g mask="url(#mask0_1049_9388)">
<g filter="url(#filter0_dd_1049_9388)">
<path d="M15.8438 14.4375V11.6875H26.1562V14.4375" stroke="url(#paint2_linear_1049_9388)" stroke-width="1.375" stroke-linecap="round"/>
</g>
</g>
<g filter="url(#filter1_dd_1049_9388)">
<path d="M20.6565 18.5625H16.5315V22.6875H20.6565V18.5625Z" fill="#F25022"/>
<path d="M25.4688 18.5625H21.3438V22.6875H25.4688V18.5625Z" fill="#7FBA00"/>
<path d="M25.4688 23.375H21.3438V27.5H25.4688V23.375Z" fill="#FFB900"/>
<path d="M20.6562 23.375H16.5312V27.5H20.6562V23.375Z" fill="#00A4EF"/>
</g>
<path d="M15.8438 14.4375V12.375C15.8438 11.9953 16.1516 11.6875 16.5313 11.6875H25.4688C25.8484 11.6875 26.1562 11.9953 26.1562 12.375V14.4375" stroke="url(#paint3_linear_1049_9388)" stroke-width="1.375" stroke-linecap="round"/>
<rect x="16.5312" y="11" width="8.9375" height="1.375" fill="url(#paint4_linear_1049_9388)"/>
<mask id="mask1_1049_9388" style="mask-type:alpha" maskUnits="userSpaceOnUse" x="16" y="11" width="10" height="2">
<rect x="16.5312" y="11" width="8.9375" height="1.375" fill="url(#paint5_linear_1049_9388)"/>
</mask>
<g mask="url(#mask1_1049_9388)">
<g filter="url(#filter2_dd_1049_9388)">
<rect x="14.5454" y="11.6877" width="1.98611" height="3.4375" fill="#C4C4C4"/>
</g>
</g>
</g>
</g>
<path d="M44.167 17H43.2539L41.2812 11.3848C41.2552 11.3066 41.2308 11.2204 41.208 11.126C41.1852 11.0283 41.1641 10.9225 41.1445 10.8086H41.125C41.1087 10.9095 41.0876 11.0088 41.0615 11.1064C41.0387 11.2008 41.0111 11.2952 40.9785 11.3896L38.9961 17H38.1172L40.6855 9.99805H41.6133L44.167 17ZM48.4492 19.2998V14.207C48.4492 13.6504 48.3564 13.237 48.1709 12.9668C47.9886 12.6934 47.6924 12.5566 47.2822 12.5566C46.8786 12.5566 46.5465 12.7096 46.2861 13.0156C46.029 13.3216 45.9004 13.6943 45.9004 14.1338V17H45.0996V13.6113C45.0996 13.2305 45.085 12.9066 45.0557 12.6396C45.0264 12.3695 44.9824 12.1562 44.9238 12H45.7441C45.7897 12.1204 45.8239 12.2507 45.8467 12.3906C45.8695 12.5306 45.8809 12.682 45.8809 12.8447H45.9004C46.112 12.516 46.348 12.2734 46.6084 12.1172C46.8721 11.9609 47.1895 11.8828 47.5605 11.8828C48.1107 11.8828 48.529 12.0586 48.8154 12.4102C49.1051 12.7617 49.25 13.2663 49.25 13.9238V19.2998H48.4492ZM47.0576 11.1895H46.5547L47.0479 9.41699H47.8633L47.0576 11.1895ZM53.4248 19.2998V17.1123C52.5524 17.1123 51.8932 16.8893 51.4473 16.4434C51.0046 15.9941 50.7832 15.3236 50.7832 14.4316V12H51.5938V14.4316C51.5938 15.1478 51.75 15.6572 52.0625 15.96C52.375 16.2594 52.8291 16.4092 53.4248 16.4092V10.501H54.1523V16.4092C54.7513 16.4092 55.2054 16.2594 55.5146 15.96C55.8271 15.6572 55.9834 15.1478 55.9834 14.4316V12H56.7939V14.4316C56.7939 15.3236 56.571 15.9941 56.125 16.4434C55.679 16.8893 55.0215 17.1123 54.1523 17.1123V19.2998H53.4248ZM61.7012 19.2998V14.207C61.7012 13.6504 61.6084 13.237 61.4229 12.9668C61.2406 12.6934 60.9443 12.5566 60.5342 12.5566C60.1305 12.5566 59.7985 12.7096 59.5381 13.0156C59.2809 13.3216 59.1523 13.6943 59.1523 14.1338V17H58.3516V13.6113C58.3516 13.2305 58.3369 12.9066 58.3076 12.6396C58.2783 12.3695 58.2344 12.1562 58.1758 12H58.9961C59.0417 12.1204 59.0758 12.2507 59.0986 12.3906C59.1214 12.5306 59.1328 12.682 59.1328 12.8447H59.1523C59.3639 12.516 59.5999 12.2734 59.8604 12.1172C60.124 11.9609 60.4414 11.8828 60.8125 11.8828C61.3626 11.8828 61.7809 12.0586 62.0674 12.4102C62.3571 12.7617 62.502 13.2663 62.502 13.9238V19.2998H61.7012ZM68.5273 17.1172C67.9219 17.1172 67.4287 16.8844 67.0479 16.4189C66.667 15.9502 66.4766 15.3594 66.4766 14.6465C66.4766 13.8327 66.6784 13.1686 67.082 12.6543C67.4857 12.14 68.0456 11.8828 68.7617 11.8828C69.1719 11.8828 69.5462 12.0049 69.8848 12.249C70.2233 12.4932 70.4756 12.8366 70.6416 13.2793H70.6611C70.7523 12.9961 70.8206 12.7829 70.8662 12.6396C70.915 12.4964 70.985 12.2832 71.0762 12H71.916C71.7077 12.5436 71.5498 12.9521 71.4424 13.2256C71.3382 13.499 71.182 13.9076 70.9736 14.4512C71.1169 15.3561 71.2373 15.8883 71.335 16.0479C71.4326 16.2074 71.5563 16.2871 71.7061 16.2871C71.7451 16.2871 71.7891 16.2855 71.8379 16.2822C71.8867 16.2757 71.9242 16.2692 71.9502 16.2627L72.082 16.9121C71.9421 16.974 71.8411 17.0098 71.7793 17.0195C71.7174 17.0326 71.6361 17.0391 71.5352 17.0391C71.2812 17.0391 71.0729 16.9398 70.9102 16.7412C70.7507 16.5394 70.6204 16.1618 70.5195 15.6084H70.5C70.2591 16.1097 69.9775 16.4873 69.6553 16.7412C69.3363 16.9919 68.9603 17.1172 68.5273 17.1172ZM68.5859 16.4141C68.931 16.4141 69.2435 16.2676 69.5234 15.9746C69.8066 15.6784 70.0426 15.2438 70.2314 14.6709L70.2998 14.4609C70.1761 13.8424 69.9792 13.3688 69.709 13.04C69.4388 12.7113 69.1247 12.5469 68.7666 12.5469C68.3044 12.5469 67.943 12.7438 67.6826 13.1377C67.4255 13.5316 67.2969 14.0182 67.2969 14.5977C67.2969 15.1706 67.4108 15.6165 67.6387 15.9355C67.8665 16.2546 68.1823 16.4141 68.5859 16.4141ZM73.4492 17V12.6836H72.3604V12H77.9854V12.6836H76.9502V15.6719C76.9502 15.8997 76.9909 16.0706 77.0723 16.1846C77.1569 16.2985 77.2806 16.3555 77.4434 16.3555C77.4889 16.3555 77.5394 16.3506 77.5947 16.3408C77.6533 16.3311 77.7184 16.3164 77.79 16.2969L77.9658 16.9023C77.8519 16.9577 77.738 16.9967 77.624 17.0195C77.5101 17.0456 77.3945 17.0586 77.2773 17.0586C76.8997 17.0586 76.6165 16.9463 76.4277 16.7217C76.2389 16.4938 76.1445 16.1553 76.1445 15.7061V12.6836H74.2451V17H73.4492ZM81.3496 17.1172C80.6107 17.1172 80.0199 16.8844 79.5771 16.4189C79.1377 15.9502 78.918 15.3301 78.918 14.5586C78.918 13.722 79.1458 13.0677 79.6016 12.5957C80.0573 12.1237 80.679 11.8861 81.4668 11.8828C82.2122 11.8796 82.7933 12.109 83.21 12.5713C83.6299 13.0335 83.8398 13.6699 83.8398 14.4805C83.8398 15.2812 83.6136 15.9209 83.1611 16.3994C82.7119 16.8779 82.1081 17.1172 81.3496 17.1172ZM81.4082 16.4434C81.9258 16.4434 82.3229 16.2757 82.5996 15.9404C82.8796 15.6019 83.0195 15.125 83.0195 14.5098C83.0195 13.8815 82.8796 13.3997 82.5996 13.0645C82.3197 12.7259 81.9225 12.5566 81.4082 12.5566C80.8939 12.5566 80.487 12.7324 80.1875 13.084C79.888 13.4355 79.7383 13.9173 79.7383 14.5293C79.7383 15.1217 79.8896 15.5889 80.1924 15.9307C80.4951 16.2725 80.9004 16.4434 81.4082 16.4434ZM81.6768 11.1895H81.1738L81.667 9.41699H82.4824L81.6768 11.1895ZM90.3242 17.1074C89.9206 17.1074 89.6081 16.9902 89.3867 16.7559C89.1686 16.5182 89.0596 16.165 89.0596 15.6963V12.6836H87.3994V12H91.7256V12.6836H89.8604V15.6572C89.8604 15.9209 89.9108 16.1178 90.0117 16.248C90.1126 16.3783 90.2673 16.4434 90.4756 16.4434C90.5537 16.4434 90.6318 16.4352 90.71 16.4189C90.7913 16.4027 90.8841 16.3734 90.9883 16.3311L91.1836 16.9414C90.9948 17.0163 90.8369 17.0618 90.71 17.0781C90.583 17.0977 90.4544 17.1074 90.3242 17.1074ZM94.8262 17.1172C94.0872 17.1172 93.4964 16.8844 93.0537 16.4189C92.6143 15.9502 92.3945 15.3301 92.3945 14.5586C92.3945 13.722 92.6224 13.0677 93.0781 12.5957C93.5339 12.1237 94.1556 11.8861 94.9434 11.8828C95.6888 11.8796 96.2699 12.109 96.6865 12.5713C97.1064 13.0335 97.3164 13.6699 97.3164 14.4805C97.3164 15.2812 97.0902 15.9209 96.6377 16.3994C96.1885 16.8779 95.5846 17.1172 94.8262 17.1172ZM94.8848 16.4434C95.4023 16.4434 95.7995 16.2757 96.0762 15.9404C96.3561 15.6019 96.4961 15.125 96.4961 14.5098C96.4961 13.8815 96.3561 13.3997 96.0762 13.0645C95.7962 12.7259 95.3991 12.5566 94.8848 12.5566C94.3704 12.5566 93.9635 12.7324 93.6641 13.084C93.3646 13.4355 93.2148 13.9173 93.2148 14.5293C93.2148 15.1217 93.3662 15.5889 93.6689 15.9307C93.9717 16.2725 94.377 16.4434 94.8848 16.4434Z" fill="white"/>
<path d="M51.4219 34H49.5781V26.8516C49.5781 26.5286 49.5859 26.1771 49.6016 25.7969C49.6224 25.4115 49.6484 25.0026 49.6797 24.5703H49.6328C49.5703 24.8672 49.5104 25.1224 49.4531 25.3359C49.401 25.5443 49.349 25.7109 49.2969 25.8359L46.0078 34H44.7266L41.4219 25.9062C41.3802 25.7917 41.3281 25.6224 41.2656 25.3984C41.2083 25.1745 41.1458 24.8984 41.0781 24.5703H41.0312C41.0625 24.9453 41.0833 25.3438 41.0938 25.7656C41.1042 26.1823 41.1094 26.6224 41.1094 27.0859V34H39.3906V22.7969H42.0156L44.9297 30.0781C45.0443 30.3542 45.138 30.6094 45.2109 30.8438C45.2891 31.0729 45.349 31.2865 45.3906 31.4844H45.4375C45.5312 31.1875 45.6198 30.9193 45.7031 30.6797C45.7865 30.4401 45.8646 30.2318 45.9375 30.0547L48.8906 22.7969H51.4219V34ZM54.8984 24.4531C54.5651 24.4531 54.2891 24.3464 54.0703 24.1328C53.8516 23.9193 53.7422 23.6562 53.7422 23.3438C53.7422 23.0208 53.8516 22.7552 54.0703 22.5469C54.2891 22.3385 54.5651 22.2344 54.8984 22.2344C55.237 22.2344 55.5156 22.3385 55.7344 22.5469C55.9531 22.7552 56.0625 23.0208 56.0625 23.3438C56.0625 23.6615 55.9531 23.9271 55.7344 24.1406C55.5156 24.349 55.237 24.4531 54.8984 24.4531ZM55.7969 34H53.9766V26H55.7969V34ZM64.1562 33.5078C63.7604 33.7474 63.3672 33.9193 62.9766 34.0234C62.5859 34.1328 62.1615 34.1875 61.7031 34.1875C60.474 34.1875 59.4896 33.8281 58.75 33.1094C58.0156 32.3906 57.6484 31.4141 57.6484 30.1797C57.6484 28.8516 58.0286 27.7917 58.7891 27C59.5547 26.2083 60.5859 25.8125 61.8828 25.8125C62.3359 25.8125 62.7474 25.862 63.1172 25.9609C63.4922 26.0547 63.8724 26.2109 64.2578 26.4297L63.5469 27.6953C63.276 27.5443 63.0104 27.4349 62.75 27.3672C62.4896 27.2943 62.2057 27.2578 61.8984 27.2578C61.1328 27.2578 60.5417 27.5104 60.125 28.0156C59.7083 28.5208 59.5 29.1901 59.5 30.0234C59.5 30.8984 59.724 31.5703 60.1719 32.0391C60.625 32.5078 61.1927 32.7422 61.875 32.7422C62.0833 32.7422 62.3229 32.7057 62.5938 32.6328C62.8646 32.5547 63.138 32.4323 63.4141 32.2656L64.1562 33.5078ZM70.1484 27.5234C70.0495 27.4974 69.9531 27.4792 69.8594 27.4688C69.7708 27.4531 69.6667 27.4453 69.5469 27.4453C68.8958 27.4453 68.3958 27.6849 68.0469 28.1641C67.6979 28.6432 67.5234 29.2682 67.5234 30.0391V34H65.7031V26H67.5234V27.5391H67.5547C67.7422 26.987 68.0182 26.5703 68.3828 26.2891C68.7474 26.0026 69.1771 25.8594 69.6719 25.8594C69.8125 25.8594 69.9375 25.8672 70.0469 25.8828C70.1615 25.8984 70.2708 25.9219 70.375 25.9531L70.1484 27.5234ZM75.1719 34.1875C73.9219 34.1875 72.9297 33.8151 72.1953 33.0703C71.4661 32.3203 71.1016 31.3177 71.1016 30.0625C71.1068 28.7344 71.487 27.6953 72.2422 26.9453C72.9974 26.1901 74.026 25.8125 75.3281 25.8125C76.5833 25.8073 77.5625 26.1771 78.2656 26.9219C78.974 27.6615 79.3281 28.6641 79.3281 29.9297C79.3281 31.2318 78.9531 32.2682 78.2031 33.0391C77.4583 33.8047 76.4479 34.1875 75.1719 34.1875ZM75.2578 32.7422C75.9818 32.7422 76.5312 32.5052 76.9062 32.0312C77.2865 31.5573 77.4766 30.8724 77.4766 29.9766C77.4766 29.0911 77.2865 28.4167 76.9062 27.9531C76.526 27.4896 75.974 27.2578 75.25 27.2578C74.5365 27.2578 73.974 27.5026 73.5625 27.9922C73.1562 28.4818 72.9531 29.1589 72.9531 30.0234C72.9531 30.8932 73.1562 31.5651 73.5625 32.0391C73.9688 32.5078 74.5339 32.7422 75.2578 32.7422ZM80.4062 33.3594L81.1953 32.0781C81.5078 32.2969 81.8385 32.474 82.1875 32.6094C82.5417 32.7396 82.9245 32.8047 83.3359 32.8047C83.7839 32.8047 84.1302 32.724 84.375 32.5625C84.625 32.3958 84.75 32.1484 84.75 31.8203C84.75 31.5599 84.6458 31.3438 84.4375 31.1719C84.2344 30.9948 83.8854 30.849 83.3906 30.7344C82.3906 30.5 81.6875 30.1901 81.2812 29.8047C80.8802 29.4193 80.6797 28.9115 80.6797 28.2812C80.6797 27.5573 80.9609 26.9661 81.5234 26.5078C82.0859 26.0443 82.8229 25.8125 83.7344 25.8125C84.1875 25.8125 84.6198 25.8724 85.0312 25.9922C85.4427 26.1068 85.8438 26.2917 86.2344 26.5469L85.5 27.7969C85.1562 27.5781 84.8411 27.4219 84.5547 27.3281C84.2682 27.2344 83.974 27.1875 83.6719 27.1875C83.2448 27.1875 82.9115 27.2682 82.6719 27.4297C82.4375 27.5859 82.3203 27.8047 82.3203 28.0859C82.3203 28.3828 82.4401 28.6042 82.6797 28.75C82.9245 28.8906 83.3333 29.0286 83.9062 29.1641C84.7708 29.3724 85.4036 29.6745 85.8047 30.0703C86.2057 30.4609 86.4062 30.9844 86.4062 31.6406C86.4062 32.4167 86.1224 33.0365 85.5547 33.5C84.9922 33.9583 84.2292 34.1875 83.2656 34.1875C82.7448 34.1875 82.2448 34.1198 81.7656 33.9844C81.2917 33.8438 80.8385 33.6354 80.4062 33.3594ZM91.6406 34.1875C90.3906 34.1875 89.3984 33.8151 88.6641 33.0703C87.9349 32.3203 87.5703 31.3177 87.5703 30.0625C87.5755 28.7344 87.9557 27.6953 88.7109 26.9453C89.4661 26.1901 90.4948 25.8125 91.7969 25.8125C93.0521 25.8073 94.0312 26.1771 94.7344 26.9219C95.4427 27.6615 95.7969 28.6641 95.7969 29.9297C95.7969 31.2318 95.4219 32.2682 94.6719 33.0391C93.9271 33.8047 92.9167 34.1875 91.6406 34.1875ZM91.7266 32.7422C92.4505 32.7422 93 32.5052 93.375 32.0312C93.7552 31.5573 93.9453 30.8724 93.9453 29.9766C93.9453 29.0911 93.7552 28.4167 93.375 27.9531C92.9948 27.4896 92.4427 27.2578 91.7188 27.2578C91.0052 27.2578 90.4427 27.5026 90.0312 27.9922C89.625 28.4818 89.4219 29.1589 89.4219 30.0234C89.4219 30.8932 89.625 31.5651 90.0312 32.0391C90.4375 32.5078 91.0026 32.7422 91.7266 32.7422ZM101.977 23.5859C101.831 23.5286 101.698 23.4896 101.578 23.4688C101.458 23.4427 101.328 23.4297 101.188 23.4297C100.802 23.4297 100.51 23.5417 100.312 23.7656C100.12 23.9844 100.023 24.3021 100.023 24.7188V26H101.875V27.4219H100.023V34H98.2109V27.4219H96.8516V26H98.2109V24.625C98.2109 23.8125 98.4714 23.1693 98.9922 22.6953C99.5182 22.2161 100.214 21.9766 101.078 21.9766C101.349 21.9766 101.583 21.9948 101.781 22.0312C101.979 22.0677 102.185 22.1198 102.398 22.1875L101.977 23.5859ZM107.523 33.8906C107.289 33.9896 107.044 34.0625 106.789 34.1094C106.534 34.1562 106.26 34.1797 105.969 34.1797C105.229 34.1797 104.659 33.9844 104.258 33.5938C103.862 33.1979 103.664 32.6094 103.664 31.8281V27.4219H102.32V26H103.664V24.0547L105.477 23.5078V26H107.391V27.4219H105.477V31.6797C105.477 32.0703 105.547 32.3516 105.688 32.5234C105.833 32.6953 106.057 32.7812 106.359 32.7812C106.505 32.7812 106.643 32.7656 106.773 32.7344C106.909 32.6979 107.029 32.6536 107.133 32.6016L107.523 33.8906ZM112.609 33.1953L113.438 31.7656C113.943 32.0781 114.414 32.2995 114.852 32.4297C115.289 32.5547 115.779 32.6172 116.32 32.6172C116.966 32.6172 117.474 32.4792 117.844 32.2031C118.219 31.9219 118.406 31.5208 118.406 31C118.406 30.526 118.25 30.1536 117.938 29.8828C117.63 29.6068 117.107 29.3542 116.367 29.125C115.227 28.7865 114.388 28.3672 113.852 27.8672C113.315 27.3672 113.047 26.6901 113.047 25.8359C113.047 24.9089 113.393 24.1406 114.086 23.5312C114.779 22.9167 115.719 22.6094 116.906 22.6094C117.427 22.6094 117.94 22.6667 118.445 22.7812C118.951 22.8958 119.451 23.0729 119.945 23.3125L119.25 24.7969C118.818 24.5729 118.404 24.4141 118.008 24.3203C117.617 24.2266 117.219 24.1797 116.812 24.1797C116.219 24.1797 115.75 24.3099 115.406 24.5703C115.068 24.8307 114.898 25.1979 114.898 25.6719C114.898 26.0938 115.055 26.4271 115.367 26.6719C115.68 26.9115 116.216 27.1484 116.977 27.3828C118.143 27.7318 118.982 28.1667 119.492 28.6875C120.008 29.2083 120.266 29.9245 120.266 30.8359C120.266 31.8151 119.917 32.6198 119.219 33.25C118.521 33.875 117.526 34.1875 116.234 34.1875C115.589 34.1875 114.958 34.1068 114.344 33.9453C113.729 33.7786 113.151 33.5286 112.609 33.1953ZM125.914 33.8906C125.68 33.9896 125.435 34.0625 125.18 34.1094C124.924 34.1562 124.651 34.1797 124.359 34.1797C123.62 34.1797 123.049 33.9844 122.648 33.5938C122.253 33.1979 122.055 32.6094 122.055 31.8281V27.4219H120.711V26H122.055V24.0547L123.867 23.5078V26H125.781V27.4219H123.867V31.6797C123.867 32.0703 123.938 32.3516 124.078 32.5234C124.224 32.6953 124.448 32.7812 124.75 32.7812C124.896 32.7812 125.034 32.7656 125.164 32.7344C125.299 32.6979 125.419 32.6536 125.523 32.6016L125.914 33.8906ZM130.891 34.1875C129.641 34.1875 128.648 33.8151 127.914 33.0703C127.185 32.3203 126.82 31.3177 126.82 30.0625C126.826 28.7344 127.206 27.6953 127.961 26.9453C128.716 26.1901 129.745 25.8125 131.047 25.8125C132.302 25.8073 133.281 26.1771 133.984 26.9219C134.693 27.6615 135.047 28.6641 135.047 29.9297C135.047 31.2318 134.672 32.2682 133.922 33.0391C133.177 33.8047 132.167 34.1875 130.891 34.1875ZM130.977 32.7422C131.701 32.7422 132.25 32.5052 132.625 32.0312C133.005 31.5573 133.195 30.8724 133.195 29.9766C133.195 29.0911 133.005 28.4167 132.625 27.9531C132.245 27.4896 131.693 27.2578 130.969 27.2578C130.255 27.2578 129.693 27.5026 129.281 27.9922C128.875 28.4818 128.672 29.1589 128.672 30.0234C128.672 30.8932 128.875 31.5651 129.281 32.0391C129.688 32.5078 130.253 32.7422 130.977 32.7422ZM141.352 27.5234C141.253 27.4974 141.156 27.4792 141.062 27.4688C140.974 27.4531 140.87 27.4453 140.75 27.4453C140.099 27.4453 139.599 27.6849 139.25 28.1641C138.901 28.6432 138.727 29.2682 138.727 30.0391V34H136.906V26H138.727V27.5391H138.758C138.945 26.987 139.221 26.5703 139.586 26.2891C139.951 26.0026 140.38 25.8594 140.875 25.8594C141.016 25.8594 141.141 25.8672 141.25 25.8828C141.365 25.8984 141.474 25.9219 141.578 25.9531L141.352 27.5234ZM149.594 30.4766H144.133C144.164 31.2318 144.383 31.8073 144.789 32.2031C145.195 32.5938 145.763 32.7891 146.492 32.7891C146.789 32.7891 147.128 32.7292 147.508 32.6094C147.888 32.4896 148.263 32.2969 148.633 32.0312L149.453 33.1641C148.958 33.5234 148.456 33.7839 147.945 33.9453C147.435 34.1068 146.872 34.1875 146.258 34.1875C145.013 34.1875 144.044 33.8307 143.352 33.1172C142.659 32.3984 142.31 31.3958 142.305 30.1094C142.305 28.8281 142.661 27.7917 143.375 27C144.094 26.2083 145.013 25.8125 146.133 25.8125C147.206 25.8125 148.049 26.151 148.664 26.8281C149.284 27.5 149.594 28.4531 149.594 29.6875V30.4766ZM147.836 29.2188C147.836 28.5312 147.685 28.0156 147.383 27.6719C147.086 27.3229 146.664 27.1484 146.117 27.1484C145.602 27.1484 145.161 27.3359 144.797 27.7109C144.438 28.0807 144.216 28.5833 144.133 29.2188H147.836Z" fill="white"/>
<defs>
<filter id="filter0_dd_1049_9388" x="13.7812" y="10.0833" width="14.4375" height="6.875" filterUnits="userSpaceOnUse" color-interpolation-filters="sRGB">
<feFlood flood-opacity="0" result="BackgroundImageFix"/>
<feColorMatrix in="SourceAlpha" type="matrix" values="0 0 0 0 0 0 0 0 0 0 0 0 0 0 0 0 0 0 127 0" result="hardAlpha"/>
<feOffset dy="0.229167"/>
<feGaussianBlur stdDeviation="0.229167"/>
<feColorMatrix type="matrix" values="0 0 0 0 0 0 0 0 0 0 0 0 0 0 0 0 0 0 0.1 0"/>
<feBlend mode="normal" in2="BackgroundImageFix" result="effect1_dropShadow_1049_9388"/>
<feColorMatrix in="SourceAlpha" type="matrix" values="0 0 0 0 0 0 0 0 0 0 0 0 0 0 0 0 0 0 127 0" result="hardAlpha"/>
<feOffset dy="0.458333"/>
<feGaussianBlur stdDeviation="0.6875"/>
<feColorMatrix type="matrix" values="0 0 0 0 0 0 0 0 0 0 0 0 0 0 0 0 0 0 0.2 0"/>
<feBlend mode="normal" in2="effect1_dropShadow_1049_9388" result="effect2_dropShadow_1049_9388"/>
<feBlend mode="normal" in="SourceGraphic" in2="effect2_dropShadow_1049_9388" result="shape"/>
</filter>
<filter id="filter1_dd_1049_9388" x="15.1562" y="17.6458" width="11.6875" height="11.6875" filterUnits="userSpaceOnUse" color-interpolation-filters="sRGB">
<feFlood flood-opacity="0" result="BackgroundImageFix"/>
<feColorMatrix in="SourceAlpha" type="matrix" values="0 0 0 0 0 0 0 0 0 0 0 0 0 0 0 0 0 0 127 0" result="hardAlpha"/>
<feOffset dy="0.229167"/>
<feGaussianBlur stdDeviation="0.229167"/>
<feColorMatrix type="matrix" values="0 0 0 0 1 0 0 0 0 1 0 0 0 0 1 0 0 0 0.6 0"/>
<feBlend mode="normal" in2="BackgroundImageFix" result="effect1_dropShadow_1049_9388"/>
<feColorMatrix in="SourceAlpha" type="matrix" values="0 0 0 0 0 0 0 0 0 0 0 0 0 0 0 0 0 0 127 0" result="hardAlpha"/>
<feOffset dy="0.458333"/>
<feGaussianBlur stdDeviation="0.6875"/>
<feColorMatrix type="matrix" values="0 0 0 0 1 0 0 0 0 1 0 0 0 0 1 0 0 0 0.6 0"/>
<feBlend mode="normal" in2="effect1_dropShadow_1049_9388" result="effect2_dropShadow_1049_9388"/>
<feBlend mode="normal" in="SourceGraphic" in2="effect2_dropShadow_1049_9388" result="shape"/>
</filter>
<filter id="filter2_dd_1049_9388" x="13.1704" y="9.39583" width="15.6594" height="6.18774" filterUnits="userSpaceOnUse" color-interpolation-filters="sRGB">
<feFlood flood-opacity="0" result="BackgroundImageFix"/>
<feColorMatrix in="SourceAlpha" type="matrix" values="0 0 0 0 0 0 0 0 0 0 0 0 0 0 0 0 0 0 127 0" result="hardAlpha"/>
<feOffset dy="-0.916667"/>
<feGaussianBlur stdDeviation="0.229167"/>
<feColorMatrix type="matrix" values="0 0 0 0 0 0 0 0 0 0 0 0 0 0 0 0 0 0 0.1 0"/>
<feBlend mode="normal" in2="BackgroundImageFix" result="effect1_dropShadow_1049_9388"/>
<feColorMatrix in="SourceAlpha" type="matrix" values="0 0 0 0 0 0 0 0 0 0 0 0 0 0 0 0 0 0 127 0" result="hardAlpha"/>
<feOffset dy="-0.916667"/>
<feGaussianBlur stdDeviation="0.6875"/>
<feColorMatrix type="matrix" values="0 0 0 0 0 0 0 0 0 0 0 0 0 0 0 0 0 0 0.2 0"/>
<feBlend mode="normal" in2="effect1_dropShadow_1049_9388" result="effect2_dropShadow_1049_9388"/>
<feBlend mode="normal" in="SourceGraphic" in2="effect2_dropShadow_1049_9388" result="shape"/>
</filter>
<linearGradient id="paint0_linear_1049_9388" x1="15.1875" y1="11.0078" x2="19.6603" y2="31.5495" gradientUnits="userSpaceOnUse">
<stop offset="0.270833" stop-color="white"/>
<stop offset="1" stop-color="#DFDFDF"/>
</linearGradient>
<linearGradient id="paint1_linear_1049_9388" x1="21" y1="13.75" x2="25.0962" y2="32.9541" gradientUnits="userSpaceOnUse">
<stop stop-color="#0078D4"/>
<stop offset="1" stop-color="#114A8B"/>
</linearGradient>
<linearGradient id="paint2_linear_1049_9388" x1="21" y1="11.6875" x2="21.1934" y2="14.6494" gradientUnits="userSpaceOnUse">
<stop stop-color="#28AFEA"/>
<stop offset="1" stop-color="#0078D4"/>
</linearGradient>
<linearGradient id="paint3_linear_1049_9388" x1="21" y1="11.6875" x2="21.1934" y2="14.6494" gradientUnits="userSpaceOnUse">
<stop stop-color="#30DAFF"/>
<stop offset="1" stop-color="#0094D4"/>
</linearGradient>
<linearGradient id="paint4_linear_1049_9388" x1="20.5035" y1="11" x2="20.5035" y2="12.375" gradientUnits="userSpaceOnUse">
<stop stop-color="#22BCFF"/>
<stop offset="1" stop-color="#0088F0"/>
</linearGradient>
<linearGradient id="paint5_linear_1049_9388" x1="20.5035" y1="11" x2="20.5035" y2="12.375" gradientUnits="userSpaceOnUse">
<stop stop-color="#28AFEA"/>
<stop offset="1" stop-color="#3CCBF4"/>
</linearGradient>
<clipPath id="clip0_1049_9388">
<rect width="22" height="22" fill="white" transform="translate(10 11)"/>
</clipPath>
<clipPath id="clip1_1049_9388">
<rect width="22" height="22" fill="white" transform="translate(10 11)"/>
</clipPath>
</defs>
</svg>
