<svg width="173" height="44" viewBox="0 0 173 44" fill="none" xmlns="http://www.w3.org/2000/svg">
<rect x="1" y="1" width="171" height="42" rx="4" fill="#202020"/>
<rect x="0.5" y="0.5" width="172" height="43" rx="4.5" stroke="white" stroke-opacity="0.1"/>
<g clip-path="url(#clip0_1049_9374)">
<g clip-path="url(#clip1_1049_9374)">
<path d="M10.3438 14.6667C10.3438 14.1604 10.7542 13.75 11.2604 13.75H30.7396C31.2458 13.75 31.6562 14.1604 31.6562 14.6667V28.5313C31.6562 30.6196 29.9633 32.3125 27.875 32.3125H14.125C12.0367 32.3125 10.3438 30.6196 10.3438 28.5313V14.6667Z" fill="url(#paint0_linear_1049_9374)"/>
<mask id="mask0_1049_9374" style="mask-type:alpha" maskUnits="userSpaceOnUse" x="10" y="13" width="22" height="20">
<path d="M10.3438 14.6667C10.3438 14.1604 10.7542 13.75 11.2604 13.75H30.7396C31.2458 13.75 31.6562 14.1604 31.6562 14.6667V28.5313C31.6562 30.6196 29.9633 32.3125 27.875 32.3125H14.125C12.0367 32.3125 10.3438 30.6196 10.3438 28.5313V14.6667Z" fill="url(#paint1_linear_1049_9374)"/>
</mask>
<g mask="url(#mask0_1049_9374)">
<g filter="url(#filter0_dd_1049_9374)">
<path d="M15.8438 14.4375V11.6875H26.1562V14.4375" stroke="url(#paint2_linear_1049_9374)" stroke-width="1.375" stroke-linecap="round"/>
</g>
</g>
<g filter="url(#filter1_dd_1049_9374)">
<path d="M20.6565 18.5625H16.5315V22.6875H20.6565V18.5625Z" fill="#F25022"/>
<path d="M25.4688 18.5625H21.3438V22.6875H25.4688V18.5625Z" fill="#7FBA00"/>
<path d="M25.4688 23.375H21.3438V27.5H25.4688V23.375Z" fill="#FFB900"/>
<path d="M20.6562 23.375H16.5312V27.5H20.6562V23.375Z" fill="#00A4EF"/>
</g>
<path d="M15.8438 14.4375V12.375C15.8438 11.9953 16.1516 11.6875 16.5313 11.6875H25.4688C25.8484 11.6875 26.1562 11.9953 26.1562 12.375V14.4375" stroke="url(#paint3_linear_1049_9374)" stroke-width="1.375" stroke-linecap="round"/>
<rect x="16.5312" y="11" width="8.9375" height="1.375" fill="url(#paint4_linear_1049_9374)"/>
<mask id="mask1_1049_9374" style="mask-type:alpha" maskUnits="userSpaceOnUse" x="16" y="11" width="10" height="2">
<rect x="16.5312" y="11" width="8.9375" height="1.375" fill="url(#paint5_linear_1049_9374)"/>
</mask>
<g mask="url(#mask1_1049_9374)">
<g filter="url(#filter2_dd_1049_9374)">
<rect x="14.5454" y="11.6877" width="1.98611" height="3.4375" fill="#C4C4C4"/>
</g>
</g>
</g>
</g>
<path d="M42.5508 17H38.918V9.99805H39.7383V16.2578H42.5508V17ZM47.0576 17H46.2568V16.2188H46.2373C46.0648 16.5182 45.8516 16.7428 45.5977 16.8926C45.347 17.0423 45.054 17.1172 44.7188 17.1172C44.25 17.1172 43.8708 16.9805 43.5811 16.707C43.2913 16.4336 43.1465 16.0706 43.1465 15.6182C43.1465 15.1917 43.293 14.8385 43.5859 14.5586C43.8789 14.2786 44.2939 14.0996 44.8311 14.0215L46.2568 13.8311V13.7188C46.2568 13.2988 46.1592 13.001 45.9639 12.8252C45.7686 12.6462 45.5081 12.5566 45.1826 12.5566C44.9222 12.5566 44.6715 12.6055 44.4307 12.7031C44.1898 12.8008 43.9635 12.9505 43.752 13.1523L43.2832 12.6689C43.5632 12.3988 43.861 12.2002 44.1768 12.0732C44.4925 11.9463 44.8441 11.8828 45.2314 11.8828C45.8369 11.8828 46.2926 12.0391 46.5986 12.3516C46.9046 12.6608 47.0576 13.1263 47.0576 13.748V17ZM46.2568 14.9688V14.4707L45.0508 14.6367C44.6829 14.6888 44.4062 14.7816 44.2207 14.915C44.0352 15.0485 43.9424 15.2585 43.9424 15.5449C43.9424 15.8444 44.0286 16.0739 44.2012 16.2334C44.377 16.3896 44.5902 16.4678 44.8408 16.4678C45.2738 16.4678 45.6172 16.3262 45.8711 16.043C46.1283 15.7598 46.2568 15.4017 46.2568 14.9688ZM52.1455 17H51.3447V16.2188H51.3252C51.1527 16.5182 50.9395 16.7428 50.6855 16.8926C50.4349 17.0423 50.1419 17.1172 49.8066 17.1172C49.3379 17.1172 48.9587 16.9805 48.6689 16.707C48.3792 16.4336 48.2344 16.0706 48.2344 15.6182C48.2344 15.1917 48.3809 14.8385 48.6738 14.5586C48.9668 14.2786 49.3818 14.0996 49.9189 14.0215L51.3447 13.8311V13.7188C51.3447 13.2988 51.2471 13.001 51.0518 12.8252C50.8564 12.6462 50.596 12.5566 50.2705 12.5566C50.0101 12.5566 49.7594 12.6055 49.5186 12.7031C49.2777 12.8008 49.0514 12.9505 48.8398 13.1523L48.3711 12.6689C48.651 12.3988 48.9489 12.2002 49.2646 12.0732C49.5804 11.9463 49.932 11.8828 50.3193 11.8828C50.9248 11.8828 51.3805 12.0391 51.6865 12.3516C51.9925 12.6608 52.1455 13.1263 52.1455 13.748V17ZM51.3447 14.9688V14.4707L50.1387 14.6367C49.7708 14.6888 49.4941 14.7816 49.3086 14.915C49.123 15.0485 49.0303 15.2585 49.0303 15.5449C49.0303 15.8444 49.1165 16.0739 49.2891 16.2334C49.4648 16.3896 49.6781 16.4678 49.9287 16.4678C50.3617 16.4678 50.7051 16.3262 50.959 16.043C51.2161 15.7598 51.3447 15.4017 51.3447 14.9688ZM57.1406 16.1504C56.9551 16.4727 56.7191 16.7152 56.4326 16.8779C56.1494 17.0374 55.8125 17.1172 55.4219 17.1172C54.7936 17.1172 54.2907 16.8942 53.9131 16.4482C53.5387 15.999 53.3516 15.3887 53.3516 14.6172C53.3516 13.7904 53.5599 13.1279 53.9766 12.6299C54.3932 12.1318 54.9482 11.8828 55.6416 11.8828C55.9867 11.8828 56.2829 11.9512 56.5303 12.0879C56.7809 12.2214 56.9844 12.4232 57.1406 12.6934H57.1602V9.59766H57.9609V17H57.1602V16.1504H57.1406ZM54.1719 14.5781C54.1719 15.1543 54.3053 15.61 54.5723 15.9453C54.8424 16.2773 55.2038 16.4434 55.6562 16.4434C56.1055 16.4434 56.4684 16.2822 56.7451 15.96C57.0218 15.6377 57.1602 15.2308 57.1602 14.7393V14.002C57.1602 13.5983 57.0251 13.2565 56.7549 12.9766C56.488 12.6966 56.151 12.5566 55.7441 12.5566C55.2559 12.5566 54.8717 12.7357 54.5918 13.0938C54.3118 13.4518 54.1719 13.9466 54.1719 14.5781ZM59.9922 10.8037C59.8294 10.8037 59.6927 10.75 59.582 10.6426C59.4714 10.5319 59.416 10.3968 59.416 10.2373C59.416 10.0778 59.4714 9.94434 59.582 9.83691C59.6927 9.72624 59.8294 9.6709 59.9922 9.6709C60.1549 9.6709 60.2917 9.72624 60.4023 9.83691C60.513 9.94434 60.5684 10.0778 60.5684 10.2373C60.5684 10.3968 60.513 10.5319 60.4023 10.6426C60.2917 10.75 60.1549 10.8037 59.9922 10.8037ZM60.3828 17H59.582V12H60.3828V17ZM68.2881 17H67.4873V16.2188H67.4678C67.2952 16.5182 67.082 16.7428 66.8281 16.8926C66.5775 17.0423 66.2845 17.1172 65.9492 17.1172C65.4805 17.1172 65.1012 16.9805 64.8115 16.707C64.5218 16.4336 64.377 16.0706 64.377 15.6182C64.377 15.1917 64.5234 14.8385 64.8164 14.5586C65.1094 14.2786 65.5244 14.0996 66.0615 14.0215L67.4873 13.8311V13.7188C67.4873 13.2988 67.3896 13.001 67.1943 12.8252C66.999 12.6462 66.7386 12.5566 66.4131 12.5566C66.1527 12.5566 65.902 12.6055 65.6611 12.7031C65.4202 12.8008 65.194 12.9505 64.9824 13.1523L64.5137 12.6689C64.7936 12.3988 65.0915 12.2002 65.4072 12.0732C65.723 11.9463 66.0745 11.8828 66.4619 11.8828C67.0674 11.8828 67.5231 12.0391 67.8291 12.3516C68.1351 12.6608 68.2881 13.1263 68.2881 13.748V17ZM67.4873 14.9688V14.4707L66.2812 14.6367C65.9134 14.6888 65.6367 14.7816 65.4512 14.915C65.2656 15.0485 65.1729 15.2585 65.1729 15.5449C65.1729 15.8444 65.2591 16.0739 65.4316 16.2334C65.6074 16.3896 65.8206 16.4678 66.0713 16.4678C66.5042 16.4678 66.8477 16.3262 67.1016 16.043C67.3587 15.7598 67.4873 15.4017 67.4873 14.9688ZM69.8359 17V9.59766H70.6367V17H69.8359ZM72.2578 17V9.59766H73.0586V17H72.2578ZM78.2197 17H77.4189V16.2188H77.3994C77.2269 16.5182 77.0137 16.7428 76.7598 16.8926C76.5091 17.0423 76.2161 17.1172 75.8809 17.1172C75.4121 17.1172 75.0329 16.9805 74.7432 16.707C74.4535 16.4336 74.3086 16.0706 74.3086 15.6182C74.3086 15.1917 74.4551 14.8385 74.748 14.5586C75.041 14.2786 75.4561 14.0996 75.9932 14.0215L77.4189 13.8311V13.7188C77.4189 13.2988 77.3213 13.001 77.126 12.8252C76.9307 12.6462 76.6702 12.5566 76.3447 12.5566C76.0843 12.5566 75.8337 12.6055 75.5928 12.7031C75.3519 12.8008 75.1257 12.9505 74.9141 13.1523L74.4453 12.6689C74.7253 12.3988 75.0231 12.2002 75.3389 12.0732C75.6546 11.9463 76.0062 11.8828 76.3936 11.8828C76.999 11.8828 77.4548 12.0391 77.7607 12.3516C78.0667 12.6608 78.2197 13.1263 78.2197 13.748V17ZM77.4189 14.9688V14.4707L76.2129 14.6367C75.8451 14.6888 75.5684 14.7816 75.3828 14.915C75.1973 15.0485 75.1045 15.2585 75.1045 15.5449C75.1045 15.8444 75.1908 16.0739 75.3633 16.2334C75.5391 16.3896 75.7523 16.4678 76.0029 16.4678C76.4359 16.4678 76.7793 16.3262 77.0332 16.043C77.2904 15.7598 77.4189 15.4017 77.4189 14.9688Z" fill="white"/>
<path d="M51.4219 34H49.5781V26.8516C49.5781 26.5286 49.5859 26.1771 49.6016 25.7969C49.6224 25.4115 49.6484 25.0026 49.6797 24.5703H49.6328C49.5703 24.8672 49.5104 25.1224 49.4531 25.3359C49.401 25.5443 49.349 25.7109 49.2969 25.8359L46.0078 34H44.7266L41.4219 25.9062C41.3802 25.7917 41.3281 25.6224 41.2656 25.3984C41.2083 25.1745 41.1458 24.8984 41.0781 24.5703H41.0312C41.0625 24.9453 41.0833 25.3438 41.0938 25.7656C41.1042 26.1823 41.1094 26.6224 41.1094 27.0859V34H39.3906V22.7969H42.0156L44.9297 30.0781C45.0443 30.3542 45.138 30.6094 45.2109 30.8438C45.2891 31.0729 45.349 31.2865 45.3906 31.4844H45.4375C45.5312 31.1875 45.6198 30.9193 45.7031 30.6797C45.7865 30.4401 45.8646 30.2318 45.9375 30.0547L48.8906 22.7969H51.4219V34ZM54.8984 24.4531C54.5651 24.4531 54.2891 24.3464 54.0703 24.1328C53.8516 23.9193 53.7422 23.6562 53.7422 23.3438C53.7422 23.0208 53.8516 22.7552 54.0703 22.5469C54.2891 22.3385 54.5651 22.2344 54.8984 22.2344C55.237 22.2344 55.5156 22.3385 55.7344 22.5469C55.9531 22.7552 56.0625 23.0208 56.0625 23.3438C56.0625 23.6615 55.9531 23.9271 55.7344 24.1406C55.5156 24.349 55.237 24.4531 54.8984 24.4531ZM55.7969 34H53.9766V26H55.7969V34ZM64.1562 33.5078C63.7604 33.7474 63.3672 33.9193 62.9766 34.0234C62.5859 34.1328 62.1615 34.1875 61.7031 34.1875C60.474 34.1875 59.4896 33.8281 58.75 33.1094C58.0156 32.3906 57.6484 31.4141 57.6484 30.1797C57.6484 28.8516 58.0286 27.7917 58.7891 27C59.5547 26.2083 60.5859 25.8125 61.8828 25.8125C62.3359 25.8125 62.7474 25.862 63.1172 25.9609C63.4922 26.0547 63.8724 26.2109 64.2578 26.4297L63.5469 27.6953C63.276 27.5443 63.0104 27.4349 62.75 27.3672C62.4896 27.2943 62.2057 27.2578 61.8984 27.2578C61.1328 27.2578 60.5417 27.5104 60.125 28.0156C59.7083 28.5208 59.5 29.1901 59.5 30.0234C59.5 30.8984 59.724 31.5703 60.1719 32.0391C60.625 32.5078 61.1927 32.7422 61.875 32.7422C62.0833 32.7422 62.3229 32.7057 62.5938 32.6328C62.8646 32.5547 63.138 32.4323 63.4141 32.2656L64.1562 33.5078ZM70.1484 27.5234C70.0495 27.4974 69.9531 27.4792 69.8594 27.4688C69.7708 27.4531 69.6667 27.4453 69.5469 27.4453C68.8958 27.4453 68.3958 27.6849 68.0469 28.1641C67.6979 28.6432 67.5234 29.2682 67.5234 30.0391V34H65.7031V26H67.5234V27.5391H67.5547C67.7422 26.987 68.0182 26.5703 68.3828 26.2891C68.7474 26.0026 69.1771 25.8594 69.6719 25.8594C69.8125 25.8594 69.9375 25.8672 70.0469 25.8828C70.1615 25.8984 70.2708 25.9219 70.375 25.9531L70.1484 27.5234ZM75.1719 34.1875C73.9219 34.1875 72.9297 33.8151 72.1953 33.0703C71.4661 32.3203 71.1016 31.3177 71.1016 30.0625C71.1068 28.7344 71.487 27.6953 72.2422 26.9453C72.9974 26.1901 74.026 25.8125 75.3281 25.8125C76.5833 25.8073 77.5625 26.1771 78.2656 26.9219C78.974 27.6615 79.3281 28.6641 79.3281 29.9297C79.3281 31.2318 78.9531 32.2682 78.2031 33.0391C77.4583 33.8047 76.4479 34.1875 75.1719 34.1875ZM75.2578 32.7422C75.9818 32.7422 76.5312 32.5052 76.9062 32.0312C77.2865 31.5573 77.4766 30.8724 77.4766 29.9766C77.4766 29.0911 77.2865 28.4167 76.9062 27.9531C76.526 27.4896 75.974 27.2578 75.25 27.2578C74.5365 27.2578 73.974 27.5026 73.5625 27.9922C73.1562 28.4818 72.9531 29.1589 72.9531 30.0234C72.9531 30.8932 73.1562 31.5651 73.5625 32.0391C73.9688 32.5078 74.5339 32.7422 75.2578 32.7422ZM80.4062 33.3594L81.1953 32.0781C81.5078 32.2969 81.8385 32.474 82.1875 32.6094C82.5417 32.7396 82.9245 32.8047 83.3359 32.8047C83.7839 32.8047 84.1302 32.724 84.375 32.5625C84.625 32.3958 84.75 32.1484 84.75 31.8203C84.75 31.5599 84.6458 31.3438 84.4375 31.1719C84.2344 30.9948 83.8854 30.849 83.3906 30.7344C82.3906 30.5 81.6875 30.1901 81.2812 29.8047C80.8802 29.4193 80.6797 28.9115 80.6797 28.2812C80.6797 27.5573 80.9609 26.9661 81.5234 26.5078C82.0859 26.0443 82.8229 25.8125 83.7344 25.8125C84.1875 25.8125 84.6198 25.8724 85.0312 25.9922C85.4427 26.1068 85.8438 26.2917 86.2344 26.5469L85.5 27.7969C85.1562 27.5781 84.8411 27.4219 84.5547 27.3281C84.2682 27.2344 83.974 27.1875 83.6719 27.1875C83.2448 27.1875 82.9115 27.2682 82.6719 27.4297C82.4375 27.5859 82.3203 27.8047 82.3203 28.0859C82.3203 28.3828 82.4401 28.6042 82.6797 28.75C82.9245 28.8906 83.3333 29.0286 83.9062 29.1641C84.7708 29.3724 85.4036 29.6745 85.8047 30.0703C86.2057 30.4609 86.4062 30.9844 86.4062 31.6406C86.4062 32.4167 86.1224 33.0365 85.5547 33.5C84.9922 33.9583 84.2292 34.1875 83.2656 34.1875C82.7448 34.1875 82.2448 34.1198 81.7656 33.9844C81.2917 33.8438 80.8385 33.6354 80.4062 33.3594ZM91.6406 34.1875C90.3906 34.1875 89.3984 33.8151 88.6641 33.0703C87.9349 32.3203 87.5703 31.3177 87.5703 30.0625C87.5755 28.7344 87.9557 27.6953 88.7109 26.9453C89.4661 26.1901 90.4948 25.8125 91.7969 25.8125C93.0521 25.8073 94.0312 26.1771 94.7344 26.9219C95.4427 27.6615 95.7969 28.6641 95.7969 29.9297C95.7969 31.2318 95.4219 32.2682 94.6719 33.0391C93.9271 33.8047 92.9167 34.1875 91.6406 34.1875ZM91.7266 32.7422C92.4505 32.7422 93 32.5052 93.375 32.0312C93.7552 31.5573 93.9453 30.8724 93.9453 29.9766C93.9453 29.0911 93.7552 28.4167 93.375 27.9531C92.9948 27.4896 92.4427 27.2578 91.7188 27.2578C91.0052 27.2578 90.4427 27.5026 90.0312 27.9922C89.625 28.4818 89.4219 29.1589 89.4219 30.0234C89.4219 30.8932 89.625 31.5651 90.0312 32.0391C90.4375 32.5078 91.0026 32.7422 91.7266 32.7422ZM101.977 23.5859C101.831 23.5286 101.698 23.4896 101.578 23.4688C101.458 23.4427 101.328 23.4297 101.188 23.4297C100.802 23.4297 100.51 23.5417 100.312 23.7656C100.12 23.9844 100.023 24.3021 100.023 24.7188V26H101.875V27.4219H100.023V34H98.2109V27.4219H96.8516V26H98.2109V24.625C98.2109 23.8125 98.4714 23.1693 98.9922 22.6953C99.5182 22.2161 100.214 21.9766 101.078 21.9766C101.349 21.9766 101.583 21.9948 101.781 22.0312C101.979 22.0677 102.185 22.1198 102.398 22.1875L101.977 23.5859ZM107.523 33.8906C107.289 33.9896 107.044 34.0625 106.789 34.1094C106.534 34.1562 106.26 34.1797 105.969 34.1797C105.229 34.1797 104.659 33.9844 104.258 33.5938C103.862 33.1979 103.664 32.6094 103.664 31.8281V27.4219H102.32V26H103.664V24.0547L105.477 23.5078V26H107.391V27.4219H105.477V31.6797C105.477 32.0703 105.547 32.3516 105.688 32.5234C105.833 32.6953 106.057 32.7812 106.359 32.7812C106.505 32.7812 106.643 32.7656 106.773 32.7344C106.909 32.6979 107.029 32.6536 107.133 32.6016L107.523 33.8906ZM112.609 33.1953L113.438 31.7656C113.943 32.0781 114.414 32.2995 114.852 32.4297C115.289 32.5547 115.779 32.6172 116.32 32.6172C116.966 32.6172 117.474 32.4792 117.844 32.2031C118.219 31.9219 118.406 31.5208 118.406 31C118.406 30.526 118.25 30.1536 117.938 29.8828C117.63 29.6068 117.107 29.3542 116.367 29.125C115.227 28.7865 114.388 28.3672 113.852 27.8672C113.315 27.3672 113.047 26.6901 113.047 25.8359C113.047 24.9089 113.393 24.1406 114.086 23.5312C114.779 22.9167 115.719 22.6094 116.906 22.6094C117.427 22.6094 117.94 22.6667 118.445 22.7812C118.951 22.8958 119.451 23.0729 119.945 23.3125L119.25 24.7969C118.818 24.5729 118.404 24.4141 118.008 24.3203C117.617 24.2266 117.219 24.1797 116.812 24.1797C116.219 24.1797 115.75 24.3099 115.406 24.5703C115.068 24.8307 114.898 25.1979 114.898 25.6719C114.898 26.0938 115.055 26.4271 115.367 26.6719C115.68 26.9115 116.216 27.1484 116.977 27.3828C118.143 27.7318 118.982 28.1667 119.492 28.6875C120.008 29.2083 120.266 29.9245 120.266 30.8359C120.266 31.8151 119.917 32.6198 119.219 33.25C118.521 33.875 117.526 34.1875 116.234 34.1875C115.589 34.1875 114.958 34.1068 114.344 33.9453C113.729 33.7786 113.151 33.5286 112.609 33.1953ZM125.914 33.8906C125.68 33.9896 125.435 34.0625 125.18 34.1094C124.924 34.1562 124.651 34.1797 124.359 34.1797C123.62 34.1797 123.049 33.9844 122.648 33.5938C122.253 33.1979 122.055 32.6094 122.055 31.8281V27.4219H120.711V26H122.055V24.0547L123.867 23.5078V26H125.781V27.4219H123.867V31.6797C123.867 32.0703 123.938 32.3516 124.078 32.5234C124.224 32.6953 124.448 32.7812 124.75 32.7812C124.896 32.7812 125.034 32.7656 125.164 32.7344C125.299 32.6979 125.419 32.6536 125.523 32.6016L125.914 33.8906ZM130.891 34.1875C129.641 34.1875 128.648 33.8151 127.914 33.0703C127.185 32.3203 126.82 31.3177 126.82 30.0625C126.826 28.7344 127.206 27.6953 127.961 26.9453C128.716 26.1901 129.745 25.8125 131.047 25.8125C132.302 25.8073 133.281 26.1771 133.984 26.9219C134.693 27.6615 135.047 28.6641 135.047 29.9297C135.047 31.2318 134.672 32.2682 133.922 33.0391C133.177 33.8047 132.167 34.1875 130.891 34.1875ZM130.977 32.7422C131.701 32.7422 132.25 32.5052 132.625 32.0312C133.005 31.5573 133.195 30.8724 133.195 29.9766C133.195 29.0911 133.005 28.4167 132.625 27.9531C132.245 27.4896 131.693 27.2578 130.969 27.2578C130.255 27.2578 129.693 27.5026 129.281 27.9922C128.875 28.4818 128.672 29.1589 128.672 30.0234C128.672 30.8932 128.875 31.5651 129.281 32.0391C129.688 32.5078 130.253 32.7422 130.977 32.7422ZM141.352 27.5234C141.253 27.4974 141.156 27.4792 141.062 27.4688C140.974 27.4531 140.87 27.4453 140.75 27.4453C140.099 27.4453 139.599 27.6849 139.25 28.1641C138.901 28.6432 138.727 29.2682 138.727 30.0391V34H136.906V26H138.727V27.5391H138.758C138.945 26.987 139.221 26.5703 139.586 26.2891C139.951 26.0026 140.38 25.8594 140.875 25.8594C141.016 25.8594 141.141 25.8672 141.25 25.8828C141.365 25.8984 141.474 25.9219 141.578 25.9531L141.352 27.5234ZM149.594 30.4766H144.133C144.164 31.2318 144.383 31.8073 144.789 32.2031C145.195 32.5938 145.763 32.7891 146.492 32.7891C146.789 32.7891 147.128 32.7292 147.508 32.6094C147.888 32.4896 148.263 32.2969 148.633 32.0312L149.453 33.1641C148.958 33.5234 148.456 33.7839 147.945 33.9453C147.435 34.1068 146.872 34.1875 146.258 34.1875C145.013 34.1875 144.044 33.8307 143.352 33.1172C142.659 32.3984 142.31 31.3958 142.305 30.1094C142.305 28.8281 142.661 27.7917 143.375 27C144.094 26.2083 145.013 25.8125 146.133 25.8125C147.206 25.8125 148.049 26.151 148.664 26.8281C149.284 27.5 149.594 28.4531 149.594 29.6875V30.4766ZM147.836 29.2188C147.836 28.5312 147.685 28.0156 147.383 27.6719C147.086 27.3229 146.664 27.1484 146.117 27.1484C145.602 27.1484 145.161 27.3359 144.797 27.7109C144.438 28.0807 144.216 28.5833 144.133 29.2188H147.836ZM151.938 26.8809L151.254 29.0586H150.678L151.22 26.8809H151.938ZM153.656 27.8037C153.493 27.8037 153.357 27.75 153.246 27.6426C153.135 27.5319 153.08 27.3968 153.08 27.2373C153.08 27.0778 153.135 26.9443 153.246 26.8369C153.357 26.7262 153.493 26.6709 153.656 26.6709C153.819 26.6709 153.956 26.7262 154.066 26.8369C154.177 26.9443 154.232 27.0778 154.232 27.2373C154.232 27.3968 154.177 27.5319 154.066 27.6426C153.956 27.75 153.819 27.8037 153.656 27.8037ZM154.047 34H153.246V29H154.047V34ZM155.199 33.624L155.58 33.0088C155.798 33.152 156.011 33.2611 156.22 33.3359C156.428 33.4076 156.653 33.4434 156.894 33.4434C157.235 33.4434 157.494 33.3799 157.67 33.2529C157.849 33.126 157.938 32.9355 157.938 32.6816C157.938 32.4766 157.859 32.304 157.699 32.1641C157.543 32.0208 157.297 31.9069 156.962 31.8223C156.337 31.6628 155.909 31.4626 155.678 31.2217C155.447 30.9775 155.331 30.6781 155.331 30.3232C155.331 29.9131 155.486 29.5713 155.795 29.2979C156.104 29.0212 156.535 28.8828 157.089 28.8828C157.356 28.8828 157.61 28.917 157.851 28.9854C158.091 29.0537 158.337 29.1709 158.588 29.3369L158.231 29.9424C158.004 29.7992 157.799 29.6999 157.616 29.6445C157.437 29.5859 157.255 29.5566 157.069 29.5566C156.747 29.5566 156.501 29.6169 156.332 29.7373C156.163 29.8545 156.078 30.0254 156.078 30.25C156.078 30.4746 156.164 30.6439 156.337 30.7578C156.513 30.8717 156.794 30.9792 157.182 31.0801C157.689 31.2168 158.069 31.4089 158.319 31.6562C158.573 31.9004 158.7 32.221 158.7 32.6182C158.7 33.0804 158.536 33.4466 158.207 33.7168C157.882 33.9837 157.434 34.1172 156.864 34.1172C156.558 34.1172 156.264 34.0749 155.98 33.9902C155.701 33.9056 155.44 33.7835 155.199 33.624ZM162.299 33.9414C162.162 33.9967 162.027 34.0374 161.894 34.0635C161.763 34.0928 161.615 34.1074 161.449 34.1074C161.052 34.1074 160.74 33.9919 160.512 33.7607C160.287 33.5264 160.175 33.1813 160.175 32.7256V29.6836H159.315V29H160.175V27.7793L160.976 27.5205V29H162.235V29.6836H160.976V32.6328C160.976 32.9193 161.026 33.126 161.127 33.2529C161.231 33.3799 161.386 33.4434 161.591 33.4434C161.688 33.4434 161.783 33.432 161.874 33.4092C161.965 33.3864 162.042 33.3604 162.104 33.3311L162.299 33.9414Z" fill="white"/>
<defs>
<filter id="filter0_dd_1049_9374" x="13.7812" y="10.0833" width="14.4375" height="6.875" filterUnits="userSpaceOnUse" color-interpolation-filters="sRGB">
<feFlood flood-opacity="0" result="BackgroundImageFix"/>
<feColorMatrix in="SourceAlpha" type="matrix" values="0 0 0 0 0 0 0 0 0 0 0 0 0 0 0 0 0 0 127 0" result="hardAlpha"/>
<feOffset dy="0.229167"/>
<feGaussianBlur stdDeviation="0.229167"/>
<feColorMatrix type="matrix" values="0 0 0 0 0 0 0 0 0 0 0 0 0 0 0 0 0 0 0.1 0"/>
<feBlend mode="normal" in2="BackgroundImageFix" result="effect1_dropShadow_1049_9374"/>
<feColorMatrix in="SourceAlpha" type="matrix" values="0 0 0 0 0 0 0 0 0 0 0 0 0 0 0 0 0 0 127 0" result="hardAlpha"/>
<feOffset dy="0.458333"/>
<feGaussianBlur stdDeviation="0.6875"/>
<feColorMatrix type="matrix" values="0 0 0 0 0 0 0 0 0 0 0 0 0 0 0 0 0 0 0.2 0"/>
<feBlend mode="normal" in2="effect1_dropShadow_1049_9374" result="effect2_dropShadow_1049_9374"/>
<feBlend mode="normal" in="SourceGraphic" in2="effect2_dropShadow_1049_9374" result="shape"/>
</filter>
<filter id="filter1_dd_1049_9374" x="15.1562" y="17.6458" width="11.6875" height="11.6875" filterUnits="userSpaceOnUse" color-interpolation-filters="sRGB">
<feFlood flood-opacity="0" result="BackgroundImageFix"/>
<feColorMatrix in="SourceAlpha" type="matrix" values="0 0 0 0 0 0 0 0 0 0 0 0 0 0 0 0 0 0 127 0" result="hardAlpha"/>
<feOffset dy="0.229167"/>
<feGaussianBlur stdDeviation="0.229167"/>
<feColorMatrix type="matrix" values="0 0 0 0 1 0 0 0 0 1 0 0 0 0 1 0 0 0 0.6 0"/>
<feBlend mode="normal" in2="BackgroundImageFix" result="effect1_dropShadow_1049_9374"/>
<feColorMatrix in="SourceAlpha" type="matrix" values="0 0 0 0 0 0 0 0 0 0 0 0 0 0 0 0 0 0 127 0" result="hardAlpha"/>
<feOffset dy="0.458333"/>
<feGaussianBlur stdDeviation="0.6875"/>
<feColorMatrix type="matrix" values="0 0 0 0 1 0 0 0 0 1 0 0 0 0 1 0 0 0 0.6 0"/>
<feBlend mode="normal" in2="effect1_dropShadow_1049_9374" result="effect2_dropShadow_1049_9374"/>
<feBlend mode="normal" in="SourceGraphic" in2="effect2_dropShadow_1049_9374" result="shape"/>
</filter>
<filter id="filter2_dd_1049_9374" x="13.1704" y="9.39583" width="15.6594" height="6.18774" filterUnits="userSpaceOnUse" color-interpolation-filters="sRGB">
<feFlood flood-opacity="0" result="BackgroundImageFix"/>
<feColorMatrix in="SourceAlpha" type="matrix" values="0 0 0 0 0 0 0 0 0 0 0 0 0 0 0 0 0 0 127 0" result="hardAlpha"/>
<feOffset dy="-0.916667"/>
<feGaussianBlur stdDeviation="0.229167"/>
<feColorMatrix type="matrix" values="0 0 0 0 0 0 0 0 0 0 0 0 0 0 0 0 0 0 0.1 0"/>
<feBlend mode="normal" in2="BackgroundImageFix" result="effect1_dropShadow_1049_9374"/>
<feColorMatrix in="SourceAlpha" type="matrix" values="0 0 0 0 0 0 0 0 0 0 0 0 0 0 0 0 0 0 127 0" result="hardAlpha"/>
<feOffset dy="-0.916667"/>
<feGaussianBlur stdDeviation="0.6875"/>
<feColorMatrix type="matrix" values="0 0 0 0 0 0 0 0 0 0 0 0 0 0 0 0 0 0 0.2 0"/>
<feBlend mode="normal" in2="effect1_dropShadow_1049_9374" result="effect2_dropShadow_1049_9374"/>
<feBlend mode="normal" in="SourceGraphic" in2="effect2_dropShadow_1049_9374" result="shape"/>
</filter>
<linearGradient id="paint0_linear_1049_9374" x1="15.1875" y1="11.0078" x2="19.6603" y2="31.5495" gradientUnits="userSpaceOnUse">
<stop offset="0.270833" stop-color="white"/>
<stop offset="1" stop-color="#DFDFDF"/>
</linearGradient>
<linearGradient id="paint1_linear_1049_9374" x1="21" y1="13.75" x2="25.0962" y2="32.9541" gradientUnits="userSpaceOnUse">
<stop stop-color="#0078D4"/>
<stop offset="1" stop-color="#114A8B"/>
</linearGradient>
<linearGradient id="paint2_linear_1049_9374" x1="21" y1="11.6875" x2="21.1934" y2="14.6494" gradientUnits="userSpaceOnUse">
<stop stop-color="#28AFEA"/>
<stop offset="1" stop-color="#0078D4"/>
</linearGradient>
<linearGradient id="paint3_linear_1049_9374" x1="21" y1="11.6875" x2="21.1934" y2="14.6494" gradientUnits="userSpaceOnUse">
<stop stop-color="#30DAFF"/>
<stop offset="1" stop-color="#0094D4"/>
</linearGradient>
<linearGradient id="paint4_linear_1049_9374" x1="20.5035" y1="11" x2="20.5035" y2="12.375" gradientUnits="userSpaceOnUse">
<stop stop-color="#22BCFF"/>
<stop offset="1" stop-color="#0088F0"/>
</linearGradient>
<linearGradient id="paint5_linear_1049_9374" x1="20.5035" y1="11" x2="20.5035" y2="12.375" gradientUnits="userSpaceOnUse">
<stop stop-color="#28AFEA"/>
<stop offset="1" stop-color="#3CCBF4"/>
</linearGradient>
<clipPath id="clip0_1049_9374">
<rect width="22" height="22" fill="white" transform="translate(10 11)"/>
</clipPath>
<clipPath id="clip1_1049_9374">
<rect width="22" height="22" fill="white" transform="translate(10 11)"/>
</clipPath>
</defs>
</svg>
