<svg width="161" height="44" viewBox="0 0 161 44" fill="none" xmlns="http://www.w3.org/2000/svg">
<rect width="161" height="44" fill="#E5E5E5"/>
<rect x="1" y="1" width="159" height="42" rx="4" fill="#FDFDFD"/>
<rect x="0.5" y="0.5" width="160" height="43" rx="4.5" stroke="black" stroke-opacity="0.0578"/>
<path d="M91.9267 19.3L91.6367 18.54C92.3101 18.3267 92.8267 18.07 93.1867 17.77C93.5534 17.4767 93.8034 17.17 93.9367 16.85C94.0767 16.53 94.1467 16.2233 94.1467 15.93C94.1467 15.7433 94.1267 15.5633 94.0867 15.39C94.0467 15.2167 93.9767 15.02 93.8767 14.8C93.7767 14.58 93.6367 14.3067 93.4567 13.98L94.1867 13.61C94.4401 14.0433 94.6201 14.4533 94.7267 14.84C94.8401 15.2267 94.8967 15.5667 94.8967 15.86C94.8967 16.28 94.8267 16.66 94.6867 17C94.5534 17.34 94.3734 17.64 94.1467 17.9C93.9267 18.1667 93.6834 18.3933 93.4167 18.58C93.1567 18.7667 92.8934 18.92 92.6267 19.04C92.3667 19.16 92.1334 19.2467 91.9267 19.3ZM93.6567 12.46C93.5167 12.46 93.3967 12.4133 93.2967 12.32C93.2034 12.22 93.1567 12.1033 93.1567 11.97C93.1567 11.8367 93.2034 11.72 93.2967 11.62C93.3967 11.52 93.5167 11.47 93.6567 11.47C93.7901 11.47 93.9034 11.52 93.9967 11.62C94.0967 11.72 94.1467 11.8367 94.1467 11.97C94.1467 12.1033 94.0967 12.22 93.9967 12.32C93.9034 12.4133 93.7901 12.46 93.6567 12.46ZM96.4786 17L96.2786 9.86H97.0886L97.2886 17H96.4786ZM101.036 16.55L101.436 15.86C101.569 15.9467 101.756 16.03 101.996 16.11C102.236 16.19 102.516 16.23 102.836 16.23C103.169 16.23 103.432 16.1967 103.626 16.13C103.826 16.0633 103.969 15.9667 104.056 15.84C104.149 15.7067 104.196 15.5533 104.196 15.38C104.196 15.2467 104.166 15.0833 104.106 14.89C104.052 14.69 103.932 14.4233 103.746 14.09C103.559 13.75 103.272 13.3067 102.886 12.76L103.576 12.31C103.929 12.7967 104.209 13.2367 104.416 13.63C104.629 14.0233 104.779 14.37 104.866 14.67C104.959 14.9633 105.006 15.2167 105.006 15.43C105.006 15.6967 104.939 15.9567 104.806 16.21C104.672 16.4567 104.449 16.66 104.136 16.82C103.822 16.98 103.389 17.06 102.836 17.06C102.596 17.06 102.362 17.04 102.136 17C101.916 16.96 101.712 16.9033 101.526 16.83C101.339 16.75 101.176 16.6567 101.036 16.55ZM106.031 19.3L105.851 18.48C106.251 18.4267 106.618 18.35 106.951 18.25C107.291 18.1567 107.581 18.02 107.821 17.84C108.068 17.66 108.258 17.4233 108.391 17.13C108.525 16.8367 108.591 16.47 108.591 16.03C108.591 15.5767 108.508 15.2 108.341 14.9C108.175 14.6 107.958 14.45 107.691 14.45C107.551 14.45 107.421 14.5033 107.301 14.61C107.181 14.7167 107.081 14.86 107.001 15.04C106.928 15.22 106.891 15.4167 106.891 15.63C106.891 15.75 106.918 15.85 106.971 15.93C107.025 16.0033 107.101 16.0633 107.201 16.11C107.308 16.15 107.441 16.18 107.601 16.2C107.761 16.22 107.948 16.23 108.161 16.23H110.271C110.411 16.23 110.511 16.27 110.571 16.35C110.638 16.4233 110.671 16.5133 110.671 16.62C110.671 16.7267 110.625 16.8267 110.531 16.92C110.438 17.0067 110.318 17.05 110.171 17.05H107.781C107.481 17.05 107.201 17.0067 106.941 16.92C106.688 16.8333 106.481 16.7 106.321 16.52C106.168 16.3333 106.091 16.09 106.091 15.79C106.091 15.51 106.135 15.2433 106.221 14.99C106.308 14.73 106.425 14.5 106.571 14.3C106.725 14.0933 106.901 13.93 107.101 13.81C107.308 13.69 107.531 13.63 107.771 13.63C108.078 13.63 108.351 13.72 108.591 13.9C108.831 14.08 109.021 14.3533 109.161 14.72C109.301 15.08 109.371 15.5367 109.371 16.09C109.371 16.71 109.245 17.2433 108.991 17.69C108.745 18.1433 108.371 18.5033 107.871 18.77C107.378 19.0367 106.765 19.2133 106.031 19.3ZM110.168 17.05L110.258 16.23C110.638 16.23 110.905 16.1933 111.058 16.12C111.211 16.0467 111.298 15.9167 111.318 15.73C111.345 15.5433 111.351 15.2833 111.338 14.95L111.168 9.86H111.998L112.158 14.93C112.171 15.27 112.225 15.5367 112.318 15.73C112.418 15.9167 112.551 16.0467 112.718 16.12C112.885 16.1933 113.068 16.23 113.268 16.23C113.408 16.23 113.508 16.27 113.568 16.35C113.635 16.4233 113.668 16.5133 113.668 16.62C113.668 16.7267 113.621 16.8267 113.528 16.92C113.435 17.0067 113.315 17.05 113.168 17.05C112.888 17.05 112.655 17.0067 112.468 16.92C112.288 16.8267 112.145 16.71 112.038 16.57C111.938 16.4233 111.871 16.27 111.838 16.11L112.048 16.13C111.981 16.33 111.871 16.5 111.718 16.64C111.571 16.7733 111.371 16.8767 111.118 16.95C110.865 17.0167 110.548 17.05 110.168 17.05ZM113.166 17.05L113.266 16.23C113.593 16.23 113.853 16.21 114.046 16.17C114.239 16.13 114.379 16.05 114.466 15.93C114.553 15.8033 114.596 15.6167 114.596 15.37C114.596 15.2033 114.569 15.0067 114.516 14.78C114.463 14.5467 114.393 14.3 114.306 14.04C114.219 13.78 114.126 13.5233 114.026 13.27L114.836 12.97C114.923 13.1833 115.003 13.4267 115.076 13.7C115.156 13.9733 115.223 14.2433 115.276 14.51C115.329 14.7767 115.356 15.01 115.356 15.21C115.356 15.4767 115.326 15.7133 115.266 15.92C115.213 16.12 115.129 16.2933 115.016 16.44C114.903 16.58 114.756 16.6967 114.576 16.79C114.403 16.8767 114.199 16.9433 113.966 16.99C113.733 17.03 113.466 17.05 113.166 17.05ZM114.446 11.93C114.306 11.93 114.186 11.8833 114.086 11.79C113.993 11.69 113.946 11.5733 113.946 11.44C113.946 11.3067 113.993 11.19 114.086 11.09C114.186 10.99 114.306 10.94 114.446 10.94C114.579 10.94 114.693 10.99 114.786 11.09C114.886 11.19 114.936 11.3067 114.936 11.44C114.936 11.5733 114.886 11.69 114.786 11.79C114.693 11.8833 114.579 11.93 114.446 11.93ZM116.772 17L116.572 9.86H117.382L117.582 17H116.772ZM118.584 16.55L118.984 15.86C119.118 15.9467 119.304 16.03 119.544 16.11C119.784 16.19 120.064 16.23 120.384 16.23C120.718 16.23 120.981 16.1967 121.174 16.13C121.374 16.0633 121.518 15.9667 121.604 15.84C121.698 15.7067 121.744 15.5533 121.744 15.38C121.744 15.2467 121.714 15.0833 121.654 14.89C121.601 14.69 121.481 14.4233 121.294 14.09C121.108 13.75 120.821 13.3067 120.434 12.76L121.124 12.31C121.478 12.7967 121.758 13.2367 121.964 13.63C122.178 14.0233 122.328 14.37 122.414 14.67C122.508 14.9633 122.554 15.2167 122.554 15.43C122.554 15.6967 122.488 15.9567 122.354 16.21C122.221 16.4567 121.998 16.66 121.684 16.82C121.371 16.98 120.938 17.06 120.384 17.06C120.144 17.06 119.911 17.04 119.684 17C119.464 16.96 119.261 16.9033 119.074 16.83C118.888 16.75 118.724 16.6567 118.584 16.55Z" fill="black" fill-opacity="0.8956"/>
<path d="M24.2812 34H22.4375V26.8516C22.4375 26.5286 22.4453 26.1771 22.4609 25.7969C22.4818 25.4115 22.5078 25.0026 22.5391 24.5703H22.4922C22.4297 24.8672 22.3698 25.1224 22.3125 25.3359C22.2604 25.5443 22.2083 25.7109 22.1562 25.8359L18.8672 34H17.5859L14.2812 25.9062C14.2396 25.7917 14.1875 25.6224 14.125 25.3984C14.0677 25.1745 14.0052 24.8984 13.9375 24.5703H13.8906C13.9219 24.9453 13.9427 25.3438 13.9531 25.7656C13.9635 26.1823 13.9688 26.6224 13.9688 27.0859V34H12.25V22.7969H14.875L17.7891 30.0781C17.9036 30.3542 17.9974 30.6094 18.0703 30.8438C18.1484 31.0729 18.2083 31.2865 18.25 31.4844H18.2969C18.3906 31.1875 18.4792 30.9193 18.5625 30.6797C18.6458 30.4401 18.724 30.2318 18.7969 30.0547L21.75 22.7969H24.2812V34ZM27.7578 24.4531C27.4245 24.4531 27.1484 24.3464 26.9297 24.1328C26.7109 23.9193 26.6016 23.6562 26.6016 23.3438C26.6016 23.0208 26.7109 22.7552 26.9297 22.5469C27.1484 22.3385 27.4245 22.2344 27.7578 22.2344C28.0964 22.2344 28.375 22.3385 28.5938 22.5469C28.8125 22.7552 28.9219 23.0208 28.9219 23.3438C28.9219 23.6615 28.8125 23.9271 28.5938 24.1406C28.375 24.349 28.0964 24.4531 27.7578 24.4531ZM28.6562 34H26.8359V26H28.6562V34ZM37.0156 33.5078C36.6198 33.7474 36.2266 33.9193 35.8359 34.0234C35.4453 34.1328 35.0208 34.1875 34.5625 34.1875C33.3333 34.1875 32.349 33.8281 31.6094 33.1094C30.875 32.3906 30.5078 31.4141 30.5078 30.1797C30.5078 28.8516 30.888 27.7917 31.6484 27C32.4141 26.2083 33.4453 25.8125 34.7422 25.8125C35.1953 25.8125 35.6068 25.862 35.9766 25.9609C36.3516 26.0547 36.7318 26.2109 37.1172 26.4297L36.4062 27.6953C36.1354 27.5443 35.8698 27.4349 35.6094 27.3672C35.349 27.2943 35.0651 27.2578 34.7578 27.2578C33.9922 27.2578 33.401 27.5104 32.9844 28.0156C32.5677 28.5208 32.3594 29.1901 32.3594 30.0234C32.3594 30.8984 32.5833 31.5703 33.0312 32.0391C33.4844 32.5078 34.0521 32.7422 34.7344 32.7422C34.9427 32.7422 35.1823 32.7057 35.4531 32.6328C35.724 32.5547 35.9974 32.4323 36.2734 32.2656L37.0156 33.5078ZM43.0078 27.5234C42.9089 27.4974 42.8125 27.4792 42.7188 27.4688C42.6302 27.4531 42.526 27.4453 42.4062 27.4453C41.7552 27.4453 41.2552 27.6849 40.9062 28.1641C40.5573 28.6432 40.3828 29.2682 40.3828 30.0391V34H38.5625V26H40.3828V27.5391H40.4141C40.6016 26.987 40.8776 26.5703 41.2422 26.2891C41.6068 26.0026 42.0365 25.8594 42.5312 25.8594C42.6719 25.8594 42.7969 25.8672 42.9062 25.8828C43.0208 25.8984 43.1302 25.9219 43.2344 25.9531L43.0078 27.5234ZM48.0312 34.1875C46.7812 34.1875 45.7891 33.8151 45.0547 33.0703C44.3255 32.3203 43.9609 31.3177 43.9609 30.0625C43.9661 28.7344 44.3464 27.6953 45.1016 26.9453C45.8568 26.1901 46.8854 25.8125 48.1875 25.8125C49.4427 25.8073 50.4219 26.1771 51.125 26.9219C51.8333 27.6615 52.1875 28.6641 52.1875 29.9297C52.1875 31.2318 51.8125 32.2682 51.0625 33.0391C50.3177 33.8047 49.3073 34.1875 48.0312 34.1875ZM48.1172 32.7422C48.8411 32.7422 49.3906 32.5052 49.7656 32.0312C50.1458 31.5573 50.3359 30.8724 50.3359 29.9766C50.3359 29.0911 50.1458 28.4167 49.7656 27.9531C49.3854 27.4896 48.8333 27.2578 48.1094 27.2578C47.3958 27.2578 46.8333 27.5026 46.4219 27.9922C46.0156 28.4818 45.8125 29.1589 45.8125 30.0234C45.8125 30.8932 46.0156 31.5651 46.4219 32.0391C46.8281 32.5078 47.3932 32.7422 48.1172 32.7422ZM53.2656 33.3594L54.0547 32.0781C54.3672 32.2969 54.6979 32.474 55.0469 32.6094C55.401 32.7396 55.7839 32.8047 56.1953 32.8047C56.6432 32.8047 56.9896 32.724 57.2344 32.5625C57.4844 32.3958 57.6094 32.1484 57.6094 31.8203C57.6094 31.5599 57.5052 31.3438 57.2969 31.1719C57.0938 30.9948 56.7448 30.849 56.25 30.7344C55.25 30.5 54.5469 30.1901 54.1406 29.8047C53.7396 29.4193 53.5391 28.9115 53.5391 28.2812C53.5391 27.5573 53.8203 26.9661 54.3828 26.5078C54.9453 26.0443 55.6823 25.8125 56.5938 25.8125C57.0469 25.8125 57.4792 25.8724 57.8906 25.9922C58.3021 26.1068 58.7031 26.2917 59.0938 26.5469L58.3594 27.7969C58.0156 27.5781 57.7005 27.4219 57.4141 27.3281C57.1276 27.2344 56.8333 27.1875 56.5312 27.1875C56.1042 27.1875 55.7708 27.2682 55.5312 27.4297C55.2969 27.5859 55.1797 27.8047 55.1797 28.0859C55.1797 28.3828 55.2995 28.6042 55.5391 28.75C55.7839 28.8906 56.1927 29.0286 56.7656 29.1641C57.6302 29.3724 58.263 29.6745 58.6641 30.0703C59.0651 30.4609 59.2656 30.9844 59.2656 31.6406C59.2656 32.4167 58.9818 33.0365 58.4141 33.5C57.8516 33.9583 57.0885 34.1875 56.125 34.1875C55.6042 34.1875 55.1042 34.1198 54.625 33.9844C54.151 33.8438 53.6979 33.6354 53.2656 33.3594ZM64.5 34.1875C63.25 34.1875 62.2578 33.8151 61.5234 33.0703C60.7943 32.3203 60.4297 31.3177 60.4297 30.0625C60.4349 28.7344 60.8151 27.6953 61.5703 26.9453C62.3255 26.1901 63.3542 25.8125 64.6562 25.8125C65.9115 25.8073 66.8906 26.1771 67.5938 26.9219C68.3021 27.6615 68.6562 28.6641 68.6562 29.9297C68.6562 31.2318 68.2812 32.2682 67.5312 33.0391C66.7865 33.8047 65.776 34.1875 64.5 34.1875ZM64.5859 32.7422C65.3099 32.7422 65.8594 32.5052 66.2344 32.0312C66.6146 31.5573 66.8047 30.8724 66.8047 29.9766C66.8047 29.0911 66.6146 28.4167 66.2344 27.9531C65.8542 27.4896 65.3021 27.2578 64.5781 27.2578C63.8646 27.2578 63.3021 27.5026 62.8906 27.9922C62.4844 28.4818 62.2812 29.1589 62.2812 30.0234C62.2812 30.8932 62.4844 31.5651 62.8906 32.0391C63.2969 32.5078 63.862 32.7422 64.5859 32.7422ZM74.8359 23.5859C74.6901 23.5286 74.5573 23.4896 74.4375 23.4688C74.3177 23.4427 74.1875 23.4297 74.0469 23.4297C73.6615 23.4297 73.3698 23.5417 73.1719 23.7656C72.9792 23.9844 72.8828 24.3021 72.8828 24.7188V26H74.7344V27.4219H72.8828V34H71.0703V27.4219H69.7109V26H71.0703V24.625C71.0703 23.8125 71.3307 23.1693 71.8516 22.6953C72.3776 22.2161 73.0729 21.9766 73.9375 21.9766C74.2083 21.9766 74.4427 21.9948 74.6406 22.0312C74.8385 22.0677 75.0443 22.1198 75.2578 22.1875L74.8359 23.5859ZM80.3828 33.8906C80.1484 33.9896 79.9036 34.0625 79.6484 34.1094C79.3932 34.1562 79.1198 34.1797 78.8281 34.1797C78.0885 34.1797 77.5182 33.9844 77.1172 33.5938C76.7214 33.1979 76.5234 32.6094 76.5234 31.8281V27.4219H75.1797V26H76.5234V24.0547L78.3359 23.5078V26H80.25V27.4219H78.3359V31.6797C78.3359 32.0703 78.4062 32.3516 78.5469 32.5234C78.6927 32.6953 78.9167 32.7812 79.2188 32.7812C79.3646 32.7812 79.5026 32.7656 79.6328 32.7344C79.7682 32.6979 79.888 32.6536 79.9922 32.6016L80.3828 33.8906ZM85.4688 33.1953L86.2969 31.7656C86.8021 32.0781 87.2734 32.2995 87.7109 32.4297C88.1484 32.5547 88.638 32.6172 89.1797 32.6172C89.8255 32.6172 90.3333 32.4792 90.7031 32.2031C91.0781 31.9219 91.2656 31.5208 91.2656 31C91.2656 30.526 91.1094 30.1536 90.7969 29.8828C90.4896 29.6068 89.9661 29.3542 89.2266 29.125C88.0859 28.7865 87.2474 28.3672 86.7109 27.8672C86.1745 27.3672 85.9062 26.6901 85.9062 25.8359C85.9062 24.9089 86.2526 24.1406 86.9453 23.5312C87.638 22.9167 88.5781 22.6094 89.7656 22.6094C90.2865 22.6094 90.7995 22.6667 91.3047 22.7812C91.8099 22.8958 92.3099 23.0729 92.8047 23.3125L92.1094 24.7969C91.6771 24.5729 91.263 24.4141 90.8672 24.3203C90.4766 24.2266 90.0781 24.1797 89.6719 24.1797C89.0781 24.1797 88.6094 24.3099 88.2656 24.5703C87.9271 24.8307 87.7578 25.1979 87.7578 25.6719C87.7578 26.0938 87.9141 26.4271 88.2266 26.6719C88.5391 26.9115 89.0755 27.1484 89.8359 27.3828C91.0026 27.7318 91.8411 28.1667 92.3516 28.6875C92.8672 29.2083 93.125 29.9245 93.125 30.8359C93.125 31.8151 92.776 32.6198 92.0781 33.25C91.3802 33.875 90.3854 34.1875 89.0938 34.1875C88.4479 34.1875 87.8177 34.1068 87.2031 33.9453C86.5885 33.7786 86.0104 33.5286 85.4688 33.1953ZM98.7734 33.8906C98.5391 33.9896 98.2943 34.0625 98.0391 34.1094C97.7839 34.1562 97.5104 34.1797 97.2188 34.1797C96.4792 34.1797 95.9089 33.9844 95.5078 33.5938C95.112 33.1979 94.9141 32.6094 94.9141 31.8281V27.4219H93.5703V26H94.9141V24.0547L96.7266 23.5078V26H98.6406V27.4219H96.7266V31.6797C96.7266 32.0703 96.7969 32.3516 96.9375 32.5234C97.0833 32.6953 97.3073 32.7812 97.6094 32.7812C97.7552 32.7812 97.8932 32.7656 98.0234 32.7344C98.1589 32.6979 98.2786 32.6536 98.3828 32.6016L98.7734 33.8906ZM103.75 34.1875C102.5 34.1875 101.508 33.8151 100.773 33.0703C100.044 32.3203 99.6797 31.3177 99.6797 30.0625C99.6849 28.7344 100.065 27.6953 100.82 26.9453C101.576 26.1901 102.604 25.8125 103.906 25.8125C105.161 25.8073 106.141 26.1771 106.844 26.9219C107.552 27.6615 107.906 28.6641 107.906 29.9297C107.906 31.2318 107.531 32.2682 106.781 33.0391C106.036 33.8047 105.026 34.1875 103.75 34.1875ZM103.836 32.7422C104.56 32.7422 105.109 32.5052 105.484 32.0312C105.865 31.5573 106.055 30.8724 106.055 29.9766C106.055 29.0911 105.865 28.4167 105.484 27.9531C105.104 27.4896 104.552 27.2578 103.828 27.2578C103.115 27.2578 102.552 27.5026 102.141 27.9922C101.734 28.4818 101.531 29.1589 101.531 30.0234C101.531 30.8932 101.734 31.5651 102.141 32.0391C102.547 32.5078 103.112 32.7422 103.836 32.7422ZM114.211 27.5234C114.112 27.4974 114.016 27.4792 113.922 27.4688C113.833 27.4531 113.729 27.4453 113.609 27.4453C112.958 27.4453 112.458 27.6849 112.109 28.1641C111.76 28.6432 111.586 29.2682 111.586 30.0391V34H109.766V26H111.586V27.5391H111.617C111.805 26.987 112.081 26.5703 112.445 26.2891C112.81 26.0026 113.24 25.8594 113.734 25.8594C113.875 25.8594 114 25.8672 114.109 25.8828C114.224 25.8984 114.333 25.9219 114.438 25.9531L114.211 27.5234ZM122.453 30.4766H116.992C117.023 31.2318 117.242 31.8073 117.648 32.2031C118.055 32.5938 118.622 32.7891 119.352 32.7891C119.648 32.7891 119.987 32.7292 120.367 32.6094C120.747 32.4896 121.122 32.2969 121.492 32.0312L122.312 33.1641C121.818 33.5234 121.315 33.7839 120.805 33.9453C120.294 34.1068 119.732 34.1875 119.117 34.1875C117.872 34.1875 116.904 33.8307 116.211 33.1172C115.518 32.3984 115.169 31.3958 115.164 30.1094C115.164 28.8281 115.521 27.7917 116.234 27C116.953 26.2083 117.872 25.8125 118.992 25.8125C120.065 25.8125 120.909 26.151 121.523 26.8281C122.143 27.5 122.453 28.4531 122.453 29.6875V30.4766ZM120.695 29.2188C120.695 28.5312 120.544 28.0156 120.242 27.6719C119.945 27.3229 119.523 27.1484 118.977 27.1484C118.461 27.1484 118.021 27.3359 117.656 27.7109C117.297 28.0807 117.076 28.5833 116.992 29.2188H120.695Z" fill="black" fill-opacity="0.8956"/>
<g clip-path="url(#clip0_1049_13937)">
<g clip-path="url(#clip1_1049_13937)">
<path d="M129.344 14.6667C129.344 14.1604 129.754 13.75 130.26 13.75H149.74C150.246 13.75 150.656 14.1604 150.656 14.6667V28.5313C150.656 30.6196 148.963 32.3125 146.875 32.3125H133.125C131.037 32.3125 129.344 30.6196 129.344 28.5313V14.6667Z" fill="url(#paint0_linear_1049_13937)"/>
<mask id="mask0_1049_13937" style="mask-type:alpha" maskUnits="userSpaceOnUse" x="129" y="13" width="22" height="20">
<path d="M129.344 14.6667C129.344 14.1604 129.754 13.75 130.26 13.75H149.74C150.246 13.75 150.656 14.1604 150.656 14.6667V28.5313C150.656 30.6196 148.963 32.3125 146.875 32.3125H133.125C131.037 32.3125 129.344 30.6196 129.344 28.5313V14.6667Z" fill="url(#paint1_linear_1049_13937)"/>
</mask>
<g mask="url(#mask0_1049_13937)">
<g filter="url(#filter0_dd_1049_13937)">
<path d="M134.844 14.4375V11.6875H145.156V14.4375" stroke="url(#paint2_linear_1049_13937)" stroke-width="1.375" stroke-linecap="round"/>
</g>
</g>
<g filter="url(#filter1_dd_1049_13937)">
<path d="M139.656 18.5625H135.531V22.6875H139.656V18.5625Z" fill="#F25022"/>
<path d="M144.469 18.5625H140.344V22.6875H144.469V18.5625Z" fill="#7FBA00"/>
<path d="M144.469 23.375H140.344V27.5H144.469V23.375Z" fill="#FFB900"/>
<path d="M139.656 23.375H135.531V27.5H139.656V23.375Z" fill="#00A4EF"/>
</g>
<path d="M134.844 14.4375V12.375C134.844 11.9953 135.152 11.6875 135.531 11.6875H144.469C144.848 11.6875 145.156 11.9953 145.156 12.375V14.4375" stroke="url(#paint3_linear_1049_13937)" stroke-width="1.375" stroke-linecap="round"/>
<rect x="135.531" y="11" width="8.9375" height="1.375" fill="url(#paint4_linear_1049_13937)"/>
<mask id="mask1_1049_13937" style="mask-type:alpha" maskUnits="userSpaceOnUse" x="135" y="11" width="10" height="2">
<rect x="135.531" y="11" width="8.9375" height="1.375" fill="url(#paint5_linear_1049_13937)"/>
</mask>
<g mask="url(#mask1_1049_13937)">
<g filter="url(#filter2_dd_1049_13937)">
<rect x="133.545" y="11.6877" width="1.98611" height="3.4375" fill="#C4C4C4"/>
</g>
</g>
</g>
</g>
<defs>
<filter id="filter0_dd_1049_13937" x="132.781" y="10.0833" width="14.4375" height="6.875" filterUnits="userSpaceOnUse" color-interpolation-filters="sRGB">
<feFlood flood-opacity="0" result="BackgroundImageFix"/>
<feColorMatrix in="SourceAlpha" type="matrix" values="0 0 0 0 0 0 0 0 0 0 0 0 0 0 0 0 0 0 127 0" result="hardAlpha"/>
<feOffset dy="0.229167"/>
<feGaussianBlur stdDeviation="0.229167"/>
<feColorMatrix type="matrix" values="0 0 0 0 0 0 0 0 0 0 0 0 0 0 0 0 0 0 0.1 0"/>
<feBlend mode="normal" in2="BackgroundImageFix" result="effect1_dropShadow_1049_13937"/>
<feColorMatrix in="SourceAlpha" type="matrix" values="0 0 0 0 0 0 0 0 0 0 0 0 0 0 0 0 0 0 127 0" result="hardAlpha"/>
<feOffset dy="0.458333"/>
<feGaussianBlur stdDeviation="0.6875"/>
<feColorMatrix type="matrix" values="0 0 0 0 0 0 0 0 0 0 0 0 0 0 0 0 0 0 0.2 0"/>
<feBlend mode="normal" in2="effect1_dropShadow_1049_13937" result="effect2_dropShadow_1049_13937"/>
<feBlend mode="normal" in="SourceGraphic" in2="effect2_dropShadow_1049_13937" result="shape"/>
</filter>
<filter id="filter1_dd_1049_13937" x="134.156" y="17.6458" width="11.6875" height="11.6875" filterUnits="userSpaceOnUse" color-interpolation-filters="sRGB">
<feFlood flood-opacity="0" result="BackgroundImageFix"/>
<feColorMatrix in="SourceAlpha" type="matrix" values="0 0 0 0 0 0 0 0 0 0 0 0 0 0 0 0 0 0 127 0" result="hardAlpha"/>
<feOffset dy="0.229167"/>
<feGaussianBlur stdDeviation="0.229167"/>
<feColorMatrix type="matrix" values="0 0 0 0 0 0 0 0 0 0 0 0 0 0 0 0 0 0 0.1 0"/>
<feBlend mode="normal" in2="BackgroundImageFix" result="effect1_dropShadow_1049_13937"/>
<feColorMatrix in="SourceAlpha" type="matrix" values="0 0 0 0 0 0 0 0 0 0 0 0 0 0 0 0 0 0 127 0" result="hardAlpha"/>
<feOffset dy="0.458333"/>
<feGaussianBlur stdDeviation="0.6875"/>
<feColorMatrix type="matrix" values="0 0 0 0 0 0 0 0 0 0 0 0 0 0 0 0 0 0 0.2 0"/>
<feBlend mode="normal" in2="effect1_dropShadow_1049_13937" result="effect2_dropShadow_1049_13937"/>
<feBlend mode="normal" in="SourceGraphic" in2="effect2_dropShadow_1049_13937" result="shape"/>
</filter>
<filter id="filter2_dd_1049_13937" x="132.17" y="9.39583" width="15.6594" height="6.18774" filterUnits="userSpaceOnUse" color-interpolation-filters="sRGB">
<feFlood flood-opacity="0" result="BackgroundImageFix"/>
<feColorMatrix in="SourceAlpha" type="matrix" values="0 0 0 0 0 0 0 0 0 0 0 0 0 0 0 0 0 0 127 0" result="hardAlpha"/>
<feOffset dy="-0.916667"/>
<feGaussianBlur stdDeviation="0.229167"/>
<feColorMatrix type="matrix" values="0 0 0 0 0 0 0 0 0 0 0 0 0 0 0 0 0 0 0.1 0"/>
<feBlend mode="normal" in2="BackgroundImageFix" result="effect1_dropShadow_1049_13937"/>
<feColorMatrix in="SourceAlpha" type="matrix" values="0 0 0 0 0 0 0 0 0 0 0 0 0 0 0 0 0 0 127 0" result="hardAlpha"/>
<feOffset dy="-0.916667"/>
<feGaussianBlur stdDeviation="0.6875"/>
<feColorMatrix type="matrix" values="0 0 0 0 0 0 0 0 0 0 0 0 0 0 0 0 0 0 0.2 0"/>
<feBlend mode="normal" in2="effect1_dropShadow_1049_13937" result="effect2_dropShadow_1049_13937"/>
<feBlend mode="normal" in="SourceGraphic" in2="effect2_dropShadow_1049_13937" result="shape"/>
</filter>
<linearGradient id="paint0_linear_1049_13937" x1="140" y1="13.75" x2="144.096" y2="32.9541" gradientUnits="userSpaceOnUse">
<stop stop-color="#0669BC"/>
<stop offset="1" stop-color="#243A5F"/>
</linearGradient>
<linearGradient id="paint1_linear_1049_13937" x1="140" y1="13.75" x2="144.096" y2="32.9541" gradientUnits="userSpaceOnUse">
<stop stop-color="#0078D4"/>
<stop offset="1" stop-color="#114A8B"/>
</linearGradient>
<linearGradient id="paint2_linear_1049_13937" x1="140" y1="11.6875" x2="140.193" y2="14.6494" gradientUnits="userSpaceOnUse">
<stop stop-color="#28AFEA"/>
<stop offset="1" stop-color="#0078D4"/>
</linearGradient>
<linearGradient id="paint3_linear_1049_13937" x1="140" y1="11.6875" x2="140.193" y2="14.6494" gradientUnits="userSpaceOnUse">
<stop stop-color="#30DAFF"/>
<stop offset="1" stop-color="#0094D4"/>
</linearGradient>
<linearGradient id="paint4_linear_1049_13937" x1="139.503" y1="11" x2="139.503" y2="12.375" gradientUnits="userSpaceOnUse">
<stop stop-color="#22BCFF"/>
<stop offset="1" stop-color="#0088F0"/>
</linearGradient>
<linearGradient id="paint5_linear_1049_13937" x1="139.503" y1="11" x2="139.503" y2="12.375" gradientUnits="userSpaceOnUse">
<stop stop-color="#28AFEA"/>
<stop offset="1" stop-color="#3CCBF4"/>
</linearGradient>
<clipPath id="clip0_1049_13937">
<rect width="22" height="22" fill="white" transform="translate(129 11)"/>
</clipPath>
<clipPath id="clip1_1049_13937">
<rect width="22" height="22" fill="white" transform="translate(129 11)"/>
</clipPath>
</defs>
</svg>
