<svg width="161" height="44" viewBox="0 0 161 44" fill="none" xmlns="http://www.w3.org/2000/svg">
<rect x="1" y="1" width="159" height="42" rx="4" fill="#202020"/>
<rect x="0.5" y="0.5" width="160" height="43" rx="4.5" stroke="white" stroke-opacity="0.1"/>
<g clip-path="url(#clip0_1049_9376)">
<g clip-path="url(#clip1_1049_9376)">
<path d="M10.3438 14.6667C10.3438 14.1604 10.7542 13.75 11.2604 13.75H30.7396C31.2458 13.75 31.6562 14.1604 31.6562 14.6667V28.5313C31.6562 30.6196 29.9633 32.3125 27.875 32.3125H14.125C12.0367 32.3125 10.3438 30.6196 10.3438 28.5313V14.6667Z" fill="url(#paint0_linear_1049_9376)"/>
<mask id="mask0_1049_9376" style="mask-type:alpha" maskUnits="userSpaceOnUse" x="10" y="13" width="22" height="20">
<path d="M10.3438 14.6667C10.3438 14.1604 10.7542 13.75 11.2604 13.75H30.7396C31.2458 13.75 31.6562 14.1604 31.6562 14.6667V28.5313C31.6562 30.6196 29.9633 32.3125 27.875 32.3125H14.125C12.0367 32.3125 10.3438 30.6196 10.3438 28.5313V14.6667Z" fill="url(#paint1_linear_1049_9376)"/>
</mask>
<g mask="url(#mask0_1049_9376)">
<g filter="url(#filter0_dd_1049_9376)">
<path d="M15.8438 14.4375V11.6875H26.1562V14.4375" stroke="url(#paint2_linear_1049_9376)" stroke-width="1.375" stroke-linecap="round"/>
</g>
</g>
<g filter="url(#filter1_dd_1049_9376)">
<path d="M20.6565 18.5625H16.5315V22.6875H20.6565V18.5625Z" fill="#F25022"/>
<path d="M25.4688 18.5625H21.3438V22.6875H25.4688V18.5625Z" fill="#7FBA00"/>
<path d="M25.4688 23.375H21.3438V27.5H25.4688V23.375Z" fill="#FFB900"/>
<path d="M20.6562 23.375H16.5312V27.5H20.6562V23.375Z" fill="#00A4EF"/>
</g>
<path d="M15.8438 14.4375V12.375C15.8438 11.9953 16.1516 11.6875 16.5313 11.6875H25.4688C25.8484 11.6875 26.1562 11.9953 26.1562 12.375V14.4375" stroke="url(#paint3_linear_1049_9376)" stroke-width="1.375" stroke-linecap="round"/>
<rect x="16.5312" y="11" width="8.9375" height="1.375" fill="url(#paint4_linear_1049_9376)"/>
<mask id="mask1_1049_9376" style="mask-type:alpha" maskUnits="userSpaceOnUse" x="16" y="11" width="10" height="2">
<rect x="16.5312" y="11" width="8.9375" height="1.375" fill="url(#paint5_linear_1049_9376)"/>
</mask>
<g mask="url(#mask1_1049_9376)">
<g filter="url(#filter2_dd_1049_9376)">
<rect x="14.5454" y="11.6877" width="1.98611" height="3.4375" fill="#C4C4C4"/>
</g>
</g>
</g>
</g>
<path d="M46.0566 17H45.2412V12.3027C45.2412 12.1172 45.2461 11.9105 45.2559 11.6826C45.2689 11.4548 45.2868 11.2074 45.3096 10.9404H45.29C45.251 11.0967 45.2135 11.2318 45.1777 11.3457C45.1452 11.4596 45.1126 11.5508 45.0801 11.6191L42.6875 17H42.2871L39.8994 11.6582C39.8669 11.5801 39.8327 11.4808 39.7969 11.3604C39.7611 11.2399 39.7253 11.0999 39.6895 10.9404H39.6699C39.6829 11.0804 39.6927 11.2643 39.6992 11.4922C39.7057 11.7201 39.709 11.9935 39.709 12.3125V17H38.918V9.99805H40.002L42.1504 14.8809C42.235 15.0664 42.3034 15.2292 42.3555 15.3691C42.4108 15.5091 42.4499 15.6263 42.4727 15.7207H42.502C42.5736 15.5286 42.637 15.361 42.6924 15.2178C42.7477 15.0745 42.7965 14.9557 42.8389 14.8613L45.0312 9.99805H46.0566V17ZM51.335 17H50.5342V16.2188H50.5146C50.3421 16.5182 50.1289 16.7428 49.875 16.8926C49.6243 17.0423 49.3314 17.1172 48.9961 17.1172C48.5273 17.1172 48.1481 16.9805 47.8584 16.707C47.5687 16.4336 47.4238 16.0706 47.4238 15.6182C47.4238 15.1917 47.5703 14.8385 47.8633 14.5586C48.1562 14.2786 48.5713 14.0996 49.1084 14.0215L50.5342 13.8311V13.7188C50.5342 13.2988 50.4365 13.001 50.2412 12.8252C50.0459 12.6462 49.7855 12.5566 49.46 12.5566C49.1995 12.5566 48.9489 12.6055 48.708 12.7031C48.4671 12.8008 48.2409 12.9505 48.0293 13.1523L47.5605 12.6689C47.8405 12.3988 48.1383 12.2002 48.4541 12.0732C48.7699 11.9463 49.1214 11.8828 49.5088 11.8828C50.1143 11.8828 50.57 12.0391 50.876 12.3516C51.182 12.6608 51.335 13.1263 51.335 13.748V17ZM50.5342 14.9688V14.4707L49.3281 14.6367C48.9603 14.6888 48.6836 14.7816 48.498 14.915C48.3125 15.0485 48.2197 15.2585 48.2197 15.5449C48.2197 15.8444 48.306 16.0739 48.4785 16.2334C48.6543 16.3896 48.8675 16.4678 49.1182 16.4678C49.5511 16.4678 49.8945 16.3262 50.1484 16.043C50.4056 15.7598 50.5342 15.4017 50.5342 14.9688ZM57.1504 16.7314C57.1504 17.6071 56.9258 18.263 56.4766 18.6992C56.0306 19.1354 55.4186 19.3535 54.6406 19.3535C54.2988 19.3535 53.9798 19.321 53.6836 19.2559C53.3906 19.1908 53.0879 19.085 52.7754 18.9385L53.0684 18.3232C53.3288 18.4437 53.5827 18.5316 53.8301 18.5869C54.0807 18.6423 54.3477 18.6699 54.6309 18.6699C55.1647 18.6699 55.5846 18.5186 55.8906 18.2158C56.1966 17.9131 56.3496 17.4541 56.3496 16.8389V16.1602H56.3301C56.1413 16.4792 55.9036 16.7184 55.6172 16.8779C55.3307 17.0374 54.9954 17.1172 54.6113 17.1172C53.9896 17.1172 53.4883 16.8958 53.1074 16.4531C52.7298 16.0072 52.541 15.4098 52.541 14.6611C52.541 13.8408 52.7493 13.1735 53.166 12.6592C53.5859 12.1416 54.141 11.8828 54.8311 11.8828C55.1696 11.8828 55.4626 11.9512 55.71 12.0879C55.9606 12.2214 56.1673 12.4232 56.3301 12.6934H56.3496V12H57.1504V16.7314ZM56.3496 14.7393V14.002C56.3496 13.6048 56.2145 13.2646 55.9443 12.9814C55.6774 12.6982 55.3438 12.5566 54.9434 12.5566C54.4518 12.5566 54.0645 12.7259 53.7812 13.0645C53.5013 13.403 53.3613 13.9173 53.3613 14.6074C53.3613 15.1999 53.4915 15.654 53.752 15.9697C54.0124 16.2855 54.3721 16.4434 54.8311 16.4434C55.2803 16.4434 55.6449 16.2839 55.9248 15.9648C56.208 15.6458 56.3496 15.2373 56.3496 14.7393ZM58.6641 14.5293V13.8994H61.3301V14.5293H58.6641ZM66.2227 16.1504C66.0371 16.4727 65.8011 16.7152 65.5146 16.8779C65.2314 17.0374 64.8945 17.1172 64.5039 17.1172C63.8757 17.1172 63.3727 16.8942 62.9951 16.4482C62.6208 15.999 62.4336 15.3887 62.4336 14.6172C62.4336 13.7904 62.6419 13.1279 63.0586 12.6299C63.4753 12.1318 64.0303 11.8828 64.7236 11.8828C65.0687 11.8828 65.3649 11.9512 65.6123 12.0879C65.863 12.2214 66.0664 12.4232 66.2227 12.6934H66.2422V9.59766H67.043V17H66.2422V16.1504H66.2227ZM63.2539 14.5781C63.2539 15.1543 63.3874 15.61 63.6543 15.9453C63.9245 16.2773 64.2858 16.4434 64.7383 16.4434C65.1875 16.4434 65.5505 16.2822 65.8271 15.96C66.1038 15.6377 66.2422 15.2308 66.2422 14.7393V14.002C66.2422 13.5983 66.1071 13.2565 65.8369 12.9766C65.57 12.6966 65.2331 12.5566 64.8262 12.5566C64.3379 12.5566 63.9538 12.7357 63.6738 13.0938C63.3939 13.4518 63.2539 13.9466 63.2539 14.5781ZM70.7539 17.1172C70.015 17.1172 69.4242 16.8844 68.9814 16.4189C68.542 15.9502 68.3223 15.3301 68.3223 14.5586C68.3223 13.722 68.5501 13.0677 69.0059 12.5957C69.4616 12.1237 70.0833 11.8861 70.8711 11.8828C71.6165 11.8796 72.1976 12.109 72.6143 12.5713C73.0342 13.0335 73.2441 13.6699 73.2441 14.4805C73.2441 15.2812 73.0179 15.9209 72.5654 16.3994C72.1162 16.8779 71.5124 17.1172 70.7539 17.1172ZM70.8125 16.4434C71.3301 16.4434 71.7272 16.2757 72.0039 15.9404C72.2839 15.6019 72.4238 15.125 72.4238 14.5098C72.4238 13.8815 72.2839 13.3997 72.0039 13.0645C71.724 12.7259 71.3268 12.5566 70.8125 12.5566C70.2982 12.5566 69.8913 12.7324 69.5918 13.084C69.2923 13.4355 69.1426 13.9173 69.1426 14.5293C69.1426 15.1217 69.2939 15.5889 69.5967 15.9307C69.8994 16.2725 70.3047 16.4434 70.8125 16.4434ZM80.8223 12L79.3232 17H78.4932L77.458 13.4111C77.432 13.32 77.4141 13.2435 77.4043 13.1816C77.3978 13.1165 77.3913 13.0417 77.3848 12.957H77.3652C77.3587 13.0417 77.3473 13.1149 77.3311 13.1768C77.3148 13.2386 77.292 13.3167 77.2627 13.4111L76.1445 17H75.3438L73.8301 12H74.6699L75.7051 15.7598C75.7214 15.8151 75.7344 15.8802 75.7441 15.9551C75.7572 16.0299 75.7669 16.1146 75.7734 16.209H75.8125C75.819 16.1374 75.8288 16.0641 75.8418 15.9893C75.8548 15.9111 75.8743 15.8314 75.9004 15.75L77.0527 12H77.7852L78.8203 15.7695C78.8366 15.8314 78.8496 15.8997 78.8594 15.9746C78.8724 16.0462 78.8838 16.1276 78.8936 16.2188H78.9326C78.9359 16.1536 78.944 16.0837 78.957 16.0088C78.9733 15.9339 78.9928 15.8542 79.0156 15.7695L80.0312 12H80.8223ZM85.9004 17H85.0996V14.1484C85.0996 13.6178 85.002 13.2207 84.8066 12.957C84.6146 12.6901 84.3249 12.5566 83.9375 12.5566C83.5371 12.5566 83.2051 12.708 82.9414 13.0107C82.681 13.3102 82.5508 13.6895 82.5508 14.1484V17H81.75V12H82.5508V12.8301H82.5703C82.7591 12.5143 82.9902 12.2783 83.2637 12.1221C83.5371 11.9626 83.8529 11.8828 84.2109 11.8828C84.7578 11.8828 85.1761 12.0602 85.4658 12.415C85.7555 12.7666 85.9004 13.276 85.9004 13.9434V17ZM87.4141 17V9.59766H88.2148V17H87.4141ZM91.9258 17.1172C91.1868 17.1172 90.596 16.8844 90.1533 16.4189C89.7139 15.9502 89.4941 15.3301 89.4941 14.5586C89.4941 13.722 89.722 13.0677 90.1777 12.5957C90.6335 12.1237 91.2552 11.8861 92.043 11.8828C92.7884 11.8796 93.3695 12.109 93.7861 12.5713C94.2061 13.0335 94.416 13.6699 94.416 14.4805C94.416 15.2812 94.1898 15.9209 93.7373 16.3994C93.2881 16.8779 92.6842 17.1172 91.9258 17.1172ZM91.9844 16.4434C92.502 16.4434 92.8991 16.2757 93.1758 15.9404C93.4557 15.6019 93.5957 15.125 93.5957 14.5098C93.5957 13.8815 93.4557 13.3997 93.1758 13.0645C92.8958 12.7259 92.4987 12.5566 91.9844 12.5566C91.4701 12.5566 91.0632 12.7324 90.7637 13.084C90.4642 13.4355 90.3145 13.9173 90.3145 14.5293C90.3145 15.1217 90.4658 15.5889 90.7686 15.9307C91.0713 16.2725 91.4766 16.4434 91.9844 16.4434ZM99.2354 17H98.4346V16.2188H98.415C98.2425 16.5182 98.0293 16.7428 97.7754 16.8926C97.5247 17.0423 97.2318 17.1172 96.8965 17.1172C96.4277 17.1172 96.0485 16.9805 95.7588 16.707C95.4691 16.4336 95.3242 16.0706 95.3242 15.6182C95.3242 15.1917 95.4707 14.8385 95.7637 14.5586C96.0566 14.2786 96.4717 14.0996 97.0088 14.0215L98.4346 13.8311V13.7188C98.4346 13.2988 98.3369 13.001 98.1416 12.8252C97.9463 12.6462 97.6859 12.5566 97.3604 12.5566C97.0999 12.5566 96.8493 12.6055 96.6084 12.7031C96.3675 12.8008 96.1413 12.9505 95.9297 13.1523L95.4609 12.6689C95.7409 12.3988 96.0387 12.2002 96.3545 12.0732C96.6702 11.9463 97.0218 11.8828 97.4092 11.8828C98.0146 11.8828 98.4704 12.0391 98.7764 12.3516C99.0824 12.6608 99.2354 13.1263 99.2354 13.748V17ZM98.4346 14.9688V14.4707L97.2285 14.6367C96.8607 14.6888 96.584 14.7816 96.3984 14.915C96.2129 15.0485 96.1201 15.2585 96.1201 15.5449C96.1201 15.8444 96.2064 16.0739 96.3789 16.2334C96.5547 16.3896 96.7679 16.4678 97.0186 16.4678C97.4515 16.4678 97.7949 16.3262 98.0488 16.043C98.306 15.7598 98.4346 15.4017 98.4346 14.9688ZM104.23 16.1504C104.045 16.4727 103.809 16.7152 103.522 16.8779C103.239 17.0374 102.902 17.1172 102.512 17.1172C101.883 17.1172 101.381 16.8942 101.003 16.4482C100.629 15.999 100.441 15.3887 100.441 14.6172C100.441 13.7904 100.65 13.1279 101.066 12.6299C101.483 12.1318 102.038 11.8828 102.731 11.8828C103.076 11.8828 103.373 11.9512 103.62 12.0879C103.871 12.2214 104.074 12.4232 104.23 12.6934H104.25V9.59766H105.051V17H104.25V16.1504H104.23ZM101.262 14.5781C101.262 15.1543 101.395 15.61 101.662 15.9453C101.932 16.2773 102.294 16.4434 102.746 16.4434C103.195 16.4434 103.558 16.2822 103.835 15.96C104.112 15.6377 104.25 15.2308 104.25 14.7393V14.002C104.25 13.5983 104.115 13.2565 103.845 12.9766C103.578 12.6966 103.241 12.5566 102.834 12.5566C102.346 12.5566 101.962 12.7357 101.682 13.0938C101.402 13.4518 101.262 13.9466 101.262 14.5781ZM116.516 17H115.715V14.1289C115.715 13.5755 115.629 13.1751 115.456 12.9277C115.287 12.6803 115 12.5566 114.597 12.5566C114.255 12.5566 113.964 12.7129 113.723 13.0254C113.485 13.3379 113.366 13.7122 113.366 14.1484V17H112.565V14.0312C112.565 13.5397 112.471 13.1719 112.282 12.9277C112.093 12.6803 111.809 12.5566 111.428 12.5566C111.076 12.5566 110.786 12.7048 110.559 13.001C110.331 13.2939 110.217 13.6764 110.217 14.1484V17H109.416V12H110.217V12.791H110.236C110.415 12.4883 110.633 12.262 110.891 12.1123C111.151 11.9593 111.451 11.8828 111.789 11.8828C112.131 11.8828 112.429 11.9788 112.683 12.1709C112.937 12.3597 113.111 12.6087 113.205 12.918C113.391 12.5729 113.622 12.3141 113.898 12.1416C114.175 11.9691 114.497 11.8828 114.865 11.8828C115.415 11.8828 115.827 12.0521 116.101 12.3906C116.377 12.7292 116.516 13.2386 116.516 13.9189V17ZM122.072 17H121.271V16.209H121.252C121.086 16.5117 120.874 16.7396 120.617 16.8926C120.36 17.0423 120.057 17.1172 119.709 17.1172C119.113 17.1172 118.666 16.9398 118.366 16.585C118.07 16.2301 117.922 15.6979 117.922 14.9883V12H118.718V14.8613C118.718 15.3887 118.819 15.7842 119.021 16.0479C119.222 16.3115 119.525 16.4434 119.929 16.4434C120.319 16.4434 120.64 16.3001 120.891 16.0137C121.145 15.724 121.271 15.3464 121.271 14.8809V12H122.072V17ZM123.693 17V9.59766H124.494V17H123.693ZM129.655 17H128.854V16.2188H128.835C128.662 16.5182 128.449 16.7428 128.195 16.8926C127.945 17.0423 127.652 17.1172 127.316 17.1172C126.848 17.1172 126.468 16.9805 126.179 16.707C125.889 16.4336 125.744 16.0706 125.744 15.6182C125.744 15.1917 125.891 14.8385 126.184 14.5586C126.477 14.2786 126.892 14.0996 127.429 14.0215L128.854 13.8311V13.7188C128.854 13.2988 128.757 13.001 128.562 12.8252C128.366 12.6462 128.106 12.5566 127.78 12.5566C127.52 12.5566 127.269 12.6055 127.028 12.7031C126.787 12.8008 126.561 12.9505 126.35 13.1523L125.881 12.6689C126.161 12.3988 126.459 12.2002 126.774 12.0732C127.09 11.9463 127.442 11.8828 127.829 11.8828C128.435 11.8828 128.89 12.0391 129.196 12.3516C129.502 12.6608 129.655 13.1263 129.655 13.748V17ZM128.854 14.9688V14.4707L127.648 14.6367C127.281 14.6888 127.004 14.7816 126.818 14.915C126.633 15.0485 126.54 15.2585 126.54 15.5449C126.54 15.8444 126.626 16.0739 126.799 16.2334C126.975 16.3896 127.188 16.4678 127.438 16.4678C127.871 16.4678 128.215 16.3262 128.469 16.043C128.726 15.7598 128.854 15.4017 128.854 14.9688ZM133.479 16.624L133.859 16.0088C134.077 16.152 134.291 16.2611 134.499 16.3359C134.707 16.4076 134.932 16.4434 135.173 16.4434C135.515 16.4434 135.773 16.3799 135.949 16.2529C136.128 16.126 136.218 15.9355 136.218 15.6816C136.218 15.4766 136.138 15.304 135.979 15.1641C135.822 15.0208 135.576 14.9069 135.241 14.8223C134.616 14.6628 134.188 14.4626 133.957 14.2217C133.726 13.9775 133.61 13.6781 133.61 13.3232C133.61 12.9131 133.765 12.5713 134.074 12.2979C134.383 12.0212 134.815 11.8828 135.368 11.8828C135.635 11.8828 135.889 11.917 136.13 11.9854C136.371 12.0537 136.617 12.1709 136.867 12.3369L136.511 12.9424C136.283 12.7992 136.078 12.6999 135.896 12.6445C135.716 12.5859 135.534 12.5566 135.349 12.5566C135.026 12.5566 134.781 12.6169 134.611 12.7373C134.442 12.8545 134.357 13.0254 134.357 13.25C134.357 13.4746 134.444 13.6439 134.616 13.7578C134.792 13.8717 135.074 13.9792 135.461 14.0801C135.969 14.2168 136.348 14.4089 136.599 14.6562C136.853 14.9004 136.979 15.221 136.979 15.6182C136.979 16.0804 136.815 16.4466 136.486 16.7168C136.161 16.9837 135.713 17.1172 135.144 17.1172C134.838 17.1172 134.543 17.0749 134.26 16.9902C133.98 16.9056 133.719 16.7835 133.479 16.624ZM141.735 17H140.935V16.2188H140.915C140.743 16.5182 140.529 16.7428 140.275 16.8926C140.025 17.0423 139.732 17.1172 139.396 17.1172C138.928 17.1172 138.549 16.9805 138.259 16.707C137.969 16.4336 137.824 16.0706 137.824 15.6182C137.824 15.1917 137.971 14.8385 138.264 14.5586C138.557 14.2786 138.972 14.0996 139.509 14.0215L140.935 13.8311V13.7188C140.935 13.2988 140.837 13.001 140.642 12.8252C140.446 12.6462 140.186 12.5566 139.86 12.5566C139.6 12.5566 139.349 12.6055 139.108 12.7031C138.868 12.8008 138.641 12.9505 138.43 13.1523L137.961 12.6689C138.241 12.3988 138.539 12.2002 138.854 12.0732C139.17 11.9463 139.522 11.8828 139.909 11.8828C140.515 11.8828 140.97 12.0391 141.276 12.3516C141.582 12.6608 141.735 13.1263 141.735 13.748V17ZM140.935 14.9688V14.4707L139.729 14.6367C139.361 14.6888 139.084 14.7816 138.898 14.915C138.713 15.0485 138.62 15.2585 138.62 15.5449C138.62 15.8444 138.706 16.0739 138.879 16.2334C139.055 16.3896 139.268 16.4678 139.519 16.4678C139.951 16.4678 140.295 16.3262 140.549 16.043C140.806 15.7598 140.935 15.4017 140.935 14.9688Z" fill="white"/>
<path d="M51.4219 34H49.5781V26.8516C49.5781 26.5286 49.5859 26.1771 49.6016 25.7969C49.6224 25.4115 49.6484 25.0026 49.6797 24.5703H49.6328C49.5703 24.8672 49.5104 25.1224 49.4531 25.3359C49.401 25.5443 49.349 25.7109 49.2969 25.8359L46.0078 34H44.7266L41.4219 25.9062C41.3802 25.7917 41.3281 25.6224 41.2656 25.3984C41.2083 25.1745 41.1458 24.8984 41.0781 24.5703H41.0312C41.0625 24.9453 41.0833 25.3438 41.0938 25.7656C41.1042 26.1823 41.1094 26.6224 41.1094 27.0859V34H39.3906V22.7969H42.0156L44.9297 30.0781C45.0443 30.3542 45.138 30.6094 45.2109 30.8438C45.2891 31.0729 45.349 31.2865 45.3906 31.4844H45.4375C45.5312 31.1875 45.6198 30.9193 45.7031 30.6797C45.7865 30.4401 45.8646 30.2318 45.9375 30.0547L48.8906 22.7969H51.4219V34ZM54.8984 24.4531C54.5651 24.4531 54.2891 24.3464 54.0703 24.1328C53.8516 23.9193 53.7422 23.6562 53.7422 23.3438C53.7422 23.0208 53.8516 22.7552 54.0703 22.5469C54.2891 22.3385 54.5651 22.2344 54.8984 22.2344C55.237 22.2344 55.5156 22.3385 55.7344 22.5469C55.9531 22.7552 56.0625 23.0208 56.0625 23.3438C56.0625 23.6615 55.9531 23.9271 55.7344 24.1406C55.5156 24.349 55.237 24.4531 54.8984 24.4531ZM55.7969 34H53.9766V26H55.7969V34ZM64.1562 33.5078C63.7604 33.7474 63.3672 33.9193 62.9766 34.0234C62.5859 34.1328 62.1615 34.1875 61.7031 34.1875C60.474 34.1875 59.4896 33.8281 58.75 33.1094C58.0156 32.3906 57.6484 31.4141 57.6484 30.1797C57.6484 28.8516 58.0286 27.7917 58.7891 27C59.5547 26.2083 60.5859 25.8125 61.8828 25.8125C62.3359 25.8125 62.7474 25.862 63.1172 25.9609C63.4922 26.0547 63.8724 26.2109 64.2578 26.4297L63.5469 27.6953C63.276 27.5443 63.0104 27.4349 62.75 27.3672C62.4896 27.2943 62.2057 27.2578 61.8984 27.2578C61.1328 27.2578 60.5417 27.5104 60.125 28.0156C59.7083 28.5208 59.5 29.1901 59.5 30.0234C59.5 30.8984 59.724 31.5703 60.1719 32.0391C60.625 32.5078 61.1927 32.7422 61.875 32.7422C62.0833 32.7422 62.3229 32.7057 62.5938 32.6328C62.8646 32.5547 63.138 32.4323 63.4141 32.2656L64.1562 33.5078ZM70.1484 27.5234C70.0495 27.4974 69.9531 27.4792 69.8594 27.4688C69.7708 27.4531 69.6667 27.4453 69.5469 27.4453C68.8958 27.4453 68.3958 27.6849 68.0469 28.1641C67.6979 28.6432 67.5234 29.2682 67.5234 30.0391V34H65.7031V26H67.5234V27.5391H67.5547C67.7422 26.987 68.0182 26.5703 68.3828 26.2891C68.7474 26.0026 69.1771 25.8594 69.6719 25.8594C69.8125 25.8594 69.9375 25.8672 70.0469 25.8828C70.1615 25.8984 70.2708 25.9219 70.375 25.9531L70.1484 27.5234ZM75.1719 34.1875C73.9219 34.1875 72.9297 33.8151 72.1953 33.0703C71.4661 32.3203 71.1016 31.3177 71.1016 30.0625C71.1068 28.7344 71.487 27.6953 72.2422 26.9453C72.9974 26.1901 74.026 25.8125 75.3281 25.8125C76.5833 25.8073 77.5625 26.1771 78.2656 26.9219C78.974 27.6615 79.3281 28.6641 79.3281 29.9297C79.3281 31.2318 78.9531 32.2682 78.2031 33.0391C77.4583 33.8047 76.4479 34.1875 75.1719 34.1875ZM75.2578 32.7422C75.9818 32.7422 76.5312 32.5052 76.9062 32.0312C77.2865 31.5573 77.4766 30.8724 77.4766 29.9766C77.4766 29.0911 77.2865 28.4167 76.9062 27.9531C76.526 27.4896 75.974 27.2578 75.25 27.2578C74.5365 27.2578 73.974 27.5026 73.5625 27.9922C73.1562 28.4818 72.9531 29.1589 72.9531 30.0234C72.9531 30.8932 73.1562 31.5651 73.5625 32.0391C73.9688 32.5078 74.5339 32.7422 75.2578 32.7422ZM80.4062 33.3594L81.1953 32.0781C81.5078 32.2969 81.8385 32.474 82.1875 32.6094C82.5417 32.7396 82.9245 32.8047 83.3359 32.8047C83.7839 32.8047 84.1302 32.724 84.375 32.5625C84.625 32.3958 84.75 32.1484 84.75 31.8203C84.75 31.5599 84.6458 31.3438 84.4375 31.1719C84.2344 30.9948 83.8854 30.849 83.3906 30.7344C82.3906 30.5 81.6875 30.1901 81.2812 29.8047C80.8802 29.4193 80.6797 28.9115 80.6797 28.2812C80.6797 27.5573 80.9609 26.9661 81.5234 26.5078C82.0859 26.0443 82.8229 25.8125 83.7344 25.8125C84.1875 25.8125 84.6198 25.8724 85.0312 25.9922C85.4427 26.1068 85.8438 26.2917 86.2344 26.5469L85.5 27.7969C85.1562 27.5781 84.8411 27.4219 84.5547 27.3281C84.2682 27.2344 83.974 27.1875 83.6719 27.1875C83.2448 27.1875 82.9115 27.2682 82.6719 27.4297C82.4375 27.5859 82.3203 27.8047 82.3203 28.0859C82.3203 28.3828 82.4401 28.6042 82.6797 28.75C82.9245 28.8906 83.3333 29.0286 83.9062 29.1641C84.7708 29.3724 85.4036 29.6745 85.8047 30.0703C86.2057 30.4609 86.4062 30.9844 86.4062 31.6406C86.4062 32.4167 86.1224 33.0365 85.5547 33.5C84.9922 33.9583 84.2292 34.1875 83.2656 34.1875C82.7448 34.1875 82.2448 34.1198 81.7656 33.9844C81.2917 33.8438 80.8385 33.6354 80.4062 33.3594ZM91.6406 34.1875C90.3906 34.1875 89.3984 33.8151 88.6641 33.0703C87.9349 32.3203 87.5703 31.3177 87.5703 30.0625C87.5755 28.7344 87.9557 27.6953 88.7109 26.9453C89.4661 26.1901 90.4948 25.8125 91.7969 25.8125C93.0521 25.8073 94.0312 26.1771 94.7344 26.9219C95.4427 27.6615 95.7969 28.6641 95.7969 29.9297C95.7969 31.2318 95.4219 32.2682 94.6719 33.0391C93.9271 33.8047 92.9167 34.1875 91.6406 34.1875ZM91.7266 32.7422C92.4505 32.7422 93 32.5052 93.375 32.0312C93.7552 31.5573 93.9453 30.8724 93.9453 29.9766C93.9453 29.0911 93.7552 28.4167 93.375 27.9531C92.9948 27.4896 92.4427 27.2578 91.7188 27.2578C91.0052 27.2578 90.4427 27.5026 90.0312 27.9922C89.625 28.4818 89.4219 29.1589 89.4219 30.0234C89.4219 30.8932 89.625 31.5651 90.0312 32.0391C90.4375 32.5078 91.0026 32.7422 91.7266 32.7422ZM101.977 23.5859C101.831 23.5286 101.698 23.4896 101.578 23.4688C101.458 23.4427 101.328 23.4297 101.188 23.4297C100.802 23.4297 100.51 23.5417 100.312 23.7656C100.12 23.9844 100.023 24.3021 100.023 24.7188V26H101.875V27.4219H100.023V34H98.2109V27.4219H96.8516V26H98.2109V24.625C98.2109 23.8125 98.4714 23.1693 98.9922 22.6953C99.5182 22.2161 100.214 21.9766 101.078 21.9766C101.349 21.9766 101.583 21.9948 101.781 22.0312C101.979 22.0677 102.185 22.1198 102.398 22.1875L101.977 23.5859ZM107.523 33.8906C107.289 33.9896 107.044 34.0625 106.789 34.1094C106.534 34.1562 106.26 34.1797 105.969 34.1797C105.229 34.1797 104.659 33.9844 104.258 33.5938C103.862 33.1979 103.664 32.6094 103.664 31.8281V27.4219H102.32V26H103.664V24.0547L105.477 23.5078V26H107.391V27.4219H105.477V31.6797C105.477 32.0703 105.547 32.3516 105.688 32.5234C105.833 32.6953 106.057 32.7812 106.359 32.7812C106.505 32.7812 106.643 32.7656 106.773 32.7344C106.909 32.6979 107.029 32.6536 107.133 32.6016L107.523 33.8906ZM112.609 33.1953L113.438 31.7656C113.943 32.0781 114.414 32.2995 114.852 32.4297C115.289 32.5547 115.779 32.6172 116.32 32.6172C116.966 32.6172 117.474 32.4792 117.844 32.2031C118.219 31.9219 118.406 31.5208 118.406 31C118.406 30.526 118.25 30.1536 117.938 29.8828C117.63 29.6068 117.107 29.3542 116.367 29.125C115.227 28.7865 114.388 28.3672 113.852 27.8672C113.315 27.3672 113.047 26.6901 113.047 25.8359C113.047 24.9089 113.393 24.1406 114.086 23.5312C114.779 22.9167 115.719 22.6094 116.906 22.6094C117.427 22.6094 117.94 22.6667 118.445 22.7812C118.951 22.8958 119.451 23.0729 119.945 23.3125L119.25 24.7969C118.818 24.5729 118.404 24.4141 118.008 24.3203C117.617 24.2266 117.219 24.1797 116.812 24.1797C116.219 24.1797 115.75 24.3099 115.406 24.5703C115.068 24.8307 114.898 25.1979 114.898 25.6719C114.898 26.0938 115.055 26.4271 115.367 26.6719C115.68 26.9115 116.216 27.1484 116.977 27.3828C118.143 27.7318 118.982 28.1667 119.492 28.6875C120.008 29.2083 120.266 29.9245 120.266 30.8359C120.266 31.8151 119.917 32.6198 119.219 33.25C118.521 33.875 117.526 34.1875 116.234 34.1875C115.589 34.1875 114.958 34.1068 114.344 33.9453C113.729 33.7786 113.151 33.5286 112.609 33.1953ZM125.914 33.8906C125.68 33.9896 125.435 34.0625 125.18 34.1094C124.924 34.1562 124.651 34.1797 124.359 34.1797C123.62 34.1797 123.049 33.9844 122.648 33.5938C122.253 33.1979 122.055 32.6094 122.055 31.8281V27.4219H120.711V26H122.055V24.0547L123.867 23.5078V26H125.781V27.4219H123.867V31.6797C123.867 32.0703 123.938 32.3516 124.078 32.5234C124.224 32.6953 124.448 32.7812 124.75 32.7812C124.896 32.7812 125.034 32.7656 125.164 32.7344C125.299 32.6979 125.419 32.6536 125.523 32.6016L125.914 33.8906ZM130.891 34.1875C129.641 34.1875 128.648 33.8151 127.914 33.0703C127.185 32.3203 126.82 31.3177 126.82 30.0625C126.826 28.7344 127.206 27.6953 127.961 26.9453C128.716 26.1901 129.745 25.8125 131.047 25.8125C132.302 25.8073 133.281 26.1771 133.984 26.9219C134.693 27.6615 135.047 28.6641 135.047 29.9297C135.047 31.2318 134.672 32.2682 133.922 33.0391C133.177 33.8047 132.167 34.1875 130.891 34.1875ZM130.977 32.7422C131.701 32.7422 132.25 32.5052 132.625 32.0312C133.005 31.5573 133.195 30.8724 133.195 29.9766C133.195 29.0911 133.005 28.4167 132.625 27.9531C132.245 27.4896 131.693 27.2578 130.969 27.2578C130.255 27.2578 129.693 27.5026 129.281 27.9922C128.875 28.4818 128.672 29.1589 128.672 30.0234C128.672 30.8932 128.875 31.5651 129.281 32.0391C129.688 32.5078 130.253 32.7422 130.977 32.7422ZM141.352 27.5234C141.253 27.4974 141.156 27.4792 141.062 27.4688C140.974 27.4531 140.87 27.4453 140.75 27.4453C140.099 27.4453 139.599 27.6849 139.25 28.1641C138.901 28.6432 138.727 29.2682 138.727 30.0391V34H136.906V26H138.727V27.5391H138.758C138.945 26.987 139.221 26.5703 139.586 26.2891C139.951 26.0026 140.38 25.8594 140.875 25.8594C141.016 25.8594 141.141 25.8672 141.25 25.8828C141.365 25.8984 141.474 25.9219 141.578 25.9531L141.352 27.5234ZM149.594 30.4766H144.133C144.164 31.2318 144.383 31.8073 144.789 32.2031C145.195 32.5938 145.763 32.7891 146.492 32.7891C146.789 32.7891 147.128 32.7292 147.508 32.6094C147.888 32.4896 148.263 32.2969 148.633 32.0312L149.453 33.1641C148.958 33.5234 148.456 33.7839 147.945 33.9453C147.435 34.1068 146.872 34.1875 146.258 34.1875C145.013 34.1875 144.044 33.8307 143.352 33.1172C142.659 32.3984 142.31 31.3958 142.305 30.1094C142.305 28.8281 142.661 27.7917 143.375 27C144.094 26.2083 145.013 25.8125 146.133 25.8125C147.206 25.8125 148.049 26.151 148.664 26.8281C149.284 27.5 149.594 28.4531 149.594 29.6875V30.4766ZM147.836 29.2188C147.836 28.5312 147.685 28.0156 147.383 27.6719C147.086 27.3229 146.664 27.1484 146.117 27.1484C145.602 27.1484 145.161 27.3359 144.797 27.7109C144.438 28.0807 144.216 28.5833 144.133 29.2188H147.836Z" fill="white"/>
<defs>
<filter id="filter0_dd_1049_9376" x="13.7812" y="10.0833" width="14.4375" height="6.875" filterUnits="userSpaceOnUse" color-interpolation-filters="sRGB">
<feFlood flood-opacity="0" result="BackgroundImageFix"/>
<feColorMatrix in="SourceAlpha" type="matrix" values="0 0 0 0 0 0 0 0 0 0 0 0 0 0 0 0 0 0 127 0" result="hardAlpha"/>
<feOffset dy="0.229167"/>
<feGaussianBlur stdDeviation="0.229167"/>
<feColorMatrix type="matrix" values="0 0 0 0 0 0 0 0 0 0 0 0 0 0 0 0 0 0 0.1 0"/>
<feBlend mode="normal" in2="BackgroundImageFix" result="effect1_dropShadow_1049_9376"/>
<feColorMatrix in="SourceAlpha" type="matrix" values="0 0 0 0 0 0 0 0 0 0 0 0 0 0 0 0 0 0 127 0" result="hardAlpha"/>
<feOffset dy="0.458333"/>
<feGaussianBlur stdDeviation="0.6875"/>
<feColorMatrix type="matrix" values="0 0 0 0 0 0 0 0 0 0 0 0 0 0 0 0 0 0 0.2 0"/>
<feBlend mode="normal" in2="effect1_dropShadow_1049_9376" result="effect2_dropShadow_1049_9376"/>
<feBlend mode="normal" in="SourceGraphic" in2="effect2_dropShadow_1049_9376" result="shape"/>
</filter>
<filter id="filter1_dd_1049_9376" x="15.1562" y="17.6458" width="11.6875" height="11.6875" filterUnits="userSpaceOnUse" color-interpolation-filters="sRGB">
<feFlood flood-opacity="0" result="BackgroundImageFix"/>
<feColorMatrix in="SourceAlpha" type="matrix" values="0 0 0 0 0 0 0 0 0 0 0 0 0 0 0 0 0 0 127 0" result="hardAlpha"/>
<feOffset dy="0.229167"/>
<feGaussianBlur stdDeviation="0.229167"/>
<feColorMatrix type="matrix" values="0 0 0 0 1 0 0 0 0 1 0 0 0 0 1 0 0 0 0.6 0"/>
<feBlend mode="normal" in2="BackgroundImageFix" result="effect1_dropShadow_1049_9376"/>
<feColorMatrix in="SourceAlpha" type="matrix" values="0 0 0 0 0 0 0 0 0 0 0 0 0 0 0 0 0 0 127 0" result="hardAlpha"/>
<feOffset dy="0.458333"/>
<feGaussianBlur stdDeviation="0.6875"/>
<feColorMatrix type="matrix" values="0 0 0 0 1 0 0 0 0 1 0 0 0 0 1 0 0 0 0.6 0"/>
<feBlend mode="normal" in2="effect1_dropShadow_1049_9376" result="effect2_dropShadow_1049_9376"/>
<feBlend mode="normal" in="SourceGraphic" in2="effect2_dropShadow_1049_9376" result="shape"/>
</filter>
<filter id="filter2_dd_1049_9376" x="13.1704" y="9.39583" width="15.6594" height="6.18774" filterUnits="userSpaceOnUse" color-interpolation-filters="sRGB">
<feFlood flood-opacity="0" result="BackgroundImageFix"/>
<feColorMatrix in="SourceAlpha" type="matrix" values="0 0 0 0 0 0 0 0 0 0 0 0 0 0 0 0 0 0 127 0" result="hardAlpha"/>
<feOffset dy="-0.916667"/>
<feGaussianBlur stdDeviation="0.229167"/>
<feColorMatrix type="matrix" values="0 0 0 0 0 0 0 0 0 0 0 0 0 0 0 0 0 0 0.1 0"/>
<feBlend mode="normal" in2="BackgroundImageFix" result="effect1_dropShadow_1049_9376"/>
<feColorMatrix in="SourceAlpha" type="matrix" values="0 0 0 0 0 0 0 0 0 0 0 0 0 0 0 0 0 0 127 0" result="hardAlpha"/>
<feOffset dy="-0.916667"/>
<feGaussianBlur stdDeviation="0.6875"/>
<feColorMatrix type="matrix" values="0 0 0 0 0 0 0 0 0 0 0 0 0 0 0 0 0 0 0.2 0"/>
<feBlend mode="normal" in2="effect1_dropShadow_1049_9376" result="effect2_dropShadow_1049_9376"/>
<feBlend mode="normal" in="SourceGraphic" in2="effect2_dropShadow_1049_9376" result="shape"/>
</filter>
<linearGradient id="paint0_linear_1049_9376" x1="15.1875" y1="11.0078" x2="19.6603" y2="31.5495" gradientUnits="userSpaceOnUse">
<stop offset="0.270833" stop-color="white"/>
<stop offset="1" stop-color="#DFDFDF"/>
</linearGradient>
<linearGradient id="paint1_linear_1049_9376" x1="21" y1="13.75" x2="25.0962" y2="32.9541" gradientUnits="userSpaceOnUse">
<stop stop-color="#0078D4"/>
<stop offset="1" stop-color="#114A8B"/>
</linearGradient>
<linearGradient id="paint2_linear_1049_9376" x1="21" y1="11.6875" x2="21.1934" y2="14.6494" gradientUnits="userSpaceOnUse">
<stop stop-color="#28AFEA"/>
<stop offset="1" stop-color="#0078D4"/>
</linearGradient>
<linearGradient id="paint3_linear_1049_9376" x1="21" y1="11.6875" x2="21.1934" y2="14.6494" gradientUnits="userSpaceOnUse">
<stop stop-color="#30DAFF"/>
<stop offset="1" stop-color="#0094D4"/>
</linearGradient>
<linearGradient id="paint4_linear_1049_9376" x1="20.5035" y1="11" x2="20.5035" y2="12.375" gradientUnits="userSpaceOnUse">
<stop stop-color="#22BCFF"/>
<stop offset="1" stop-color="#0088F0"/>
</linearGradient>
<linearGradient id="paint5_linear_1049_9376" x1="20.5035" y1="11" x2="20.5035" y2="12.375" gradientUnits="userSpaceOnUse">
<stop stop-color="#28AFEA"/>
<stop offset="1" stop-color="#3CCBF4"/>
</linearGradient>
<clipPath id="clip0_1049_9376">
<rect width="22" height="22" fill="white" transform="translate(10 11)"/>
</clipPath>
<clipPath id="clip1_1049_9376">
<rect width="22" height="22" fill="white" transform="translate(10 11)"/>
</clipPath>
</defs>
</svg>
