<svg width="161" height="44" viewBox="0 0 161 44" fill="none" xmlns="http://www.w3.org/2000/svg">
<rect width="161" height="44" fill="#E5E5E5"/>
<rect x="1" y="1" width="159" height="42" rx="4" fill="#202020"/>
<rect x="0.5" y="0.5" width="160" height="43" rx="4.5" stroke="white" stroke-opacity="0.1"/>
<path d="M23.4219 21H21.5781V13.8516C21.5781 13.5286 21.5859 13.1771 21.6016 12.7969C21.6224 12.4115 21.6484 12.0026 21.6797 11.5703H21.6328C21.5703 11.8672 21.5104 12.1224 21.4531 12.3359C21.401 12.5443 21.349 12.7109 21.2969 12.8359L18.0078 21H16.7266L13.4219 12.9062C13.3802 12.7917 13.3281 12.6224 13.2656 12.3984C13.2083 12.1745 13.1458 11.8984 13.0781 11.5703H13.0312C13.0625 11.9453 13.0833 12.3438 13.0938 12.7656C13.1042 13.1823 13.1094 13.6224 13.1094 14.0859V21H11.3906V9.79688H14.0156L16.9297 17.0781C17.0443 17.3542 17.138 17.6094 17.2109 17.8438C17.2891 18.0729 17.349 18.2865 17.3906 18.4844H17.4375C17.5312 18.1875 17.6198 17.9193 17.7031 17.6797C17.7865 17.4401 17.8646 17.2318 17.9375 17.0547L20.8906 9.79688H23.4219V21ZM26.8984 11.4531C26.5651 11.4531 26.2891 11.3464 26.0703 11.1328C25.8516 10.9193 25.7422 10.6562 25.7422 10.3438C25.7422 10.0208 25.8516 9.75521 26.0703 9.54688C26.2891 9.33854 26.5651 9.23438 26.8984 9.23438C27.237 9.23438 27.5156 9.33854 27.7344 9.54688C27.9531 9.75521 28.0625 10.0208 28.0625 10.3438C28.0625 10.6615 27.9531 10.9271 27.7344 11.1406C27.5156 11.349 27.237 11.4531 26.8984 11.4531ZM27.7969 21H25.9766V13H27.7969V21ZM36.1562 20.5078C35.7604 20.7474 35.3672 20.9193 34.9766 21.0234C34.5859 21.1328 34.1615 21.1875 33.7031 21.1875C32.474 21.1875 31.4896 20.8281 30.75 20.1094C30.0156 19.3906 29.6484 18.4141 29.6484 17.1797C29.6484 15.8516 30.0286 14.7917 30.7891 14C31.5547 13.2083 32.5859 12.8125 33.8828 12.8125C34.3359 12.8125 34.7474 12.862 35.1172 12.9609C35.4922 13.0547 35.8724 13.2109 36.2578 13.4297L35.5469 14.6953C35.276 14.5443 35.0104 14.4349 34.75 14.3672C34.4896 14.2943 34.2057 14.2578 33.8984 14.2578C33.1328 14.2578 32.5417 14.5104 32.125 15.0156C31.7083 15.5208 31.5 16.1901 31.5 17.0234C31.5 17.8984 31.724 18.5703 32.1719 19.0391C32.625 19.5078 33.1927 19.7422 33.875 19.7422C34.0833 19.7422 34.3229 19.7057 34.5938 19.6328C34.8646 19.5547 35.138 19.4323 35.4141 19.2656L36.1562 20.5078ZM42.1484 14.5234C42.0495 14.4974 41.9531 14.4792 41.8594 14.4688C41.7708 14.4531 41.6667 14.4453 41.5469 14.4453C40.8958 14.4453 40.3958 14.6849 40.0469 15.1641C39.6979 15.6432 39.5234 16.2682 39.5234 17.0391V21H37.7031V13H39.5234V14.5391H39.5547C39.7422 13.987 40.0182 13.5703 40.3828 13.2891C40.7474 13.0026 41.1771 12.8594 41.6719 12.8594C41.8125 12.8594 41.9375 12.8672 42.0469 12.8828C42.1615 12.8984 42.2708 12.9219 42.375 12.9531L42.1484 14.5234ZM47.1719 21.1875C45.9219 21.1875 44.9297 20.8151 44.1953 20.0703C43.4661 19.3203 43.1016 18.3177 43.1016 17.0625C43.1068 15.7344 43.487 14.6953 44.2422 13.9453C44.9974 13.1901 46.026 12.8125 47.3281 12.8125C48.5833 12.8073 49.5625 13.1771 50.2656 13.9219C50.974 14.6615 51.3281 15.6641 51.3281 16.9297C51.3281 18.2318 50.9531 19.2682 50.2031 20.0391C49.4583 20.8047 48.4479 21.1875 47.1719 21.1875ZM47.2578 19.7422C47.9818 19.7422 48.5312 19.5052 48.9062 19.0312C49.2865 18.5573 49.4766 17.8724 49.4766 16.9766C49.4766 16.0911 49.2865 15.4167 48.9062 14.9531C48.526 14.4896 47.974 14.2578 47.25 14.2578C46.5365 14.2578 45.974 14.5026 45.5625 14.9922C45.1562 15.4818 44.9531 16.1589 44.9531 17.0234C44.9531 17.8932 45.1562 18.5651 45.5625 19.0391C45.9688 19.5078 46.5339 19.7422 47.2578 19.7422ZM52.4062 20.3594L53.1953 19.0781C53.5078 19.2969 53.8385 19.474 54.1875 19.6094C54.5417 19.7396 54.9245 19.8047 55.3359 19.8047C55.7839 19.8047 56.1302 19.724 56.375 19.5625C56.625 19.3958 56.75 19.1484 56.75 18.8203C56.75 18.5599 56.6458 18.3438 56.4375 18.1719C56.2344 17.9948 55.8854 17.849 55.3906 17.7344C54.3906 17.5 53.6875 17.1901 53.2812 16.8047C52.8802 16.4193 52.6797 15.9115 52.6797 15.2812C52.6797 14.5573 52.9609 13.9661 53.5234 13.5078C54.0859 13.0443 54.8229 12.8125 55.7344 12.8125C56.1875 12.8125 56.6198 12.8724 57.0312 12.9922C57.4427 13.1068 57.8438 13.2917 58.2344 13.5469L57.5 14.7969C57.1562 14.5781 56.8411 14.4219 56.5547 14.3281C56.2682 14.2344 55.974 14.1875 55.6719 14.1875C55.2448 14.1875 54.9115 14.2682 54.6719 14.4297C54.4375 14.5859 54.3203 14.8047 54.3203 15.0859C54.3203 15.3828 54.4401 15.6042 54.6797 15.75C54.9245 15.8906 55.3333 16.0286 55.9062 16.1641C56.7708 16.3724 57.4036 16.6745 57.8047 17.0703C58.2057 17.4609 58.4062 17.9844 58.4062 18.6406C58.4062 19.4167 58.1224 20.0365 57.5547 20.5C56.9922 20.9583 56.2292 21.1875 55.2656 21.1875C54.7448 21.1875 54.2448 21.1198 53.7656 20.9844C53.2917 20.8438 52.8385 20.6354 52.4062 20.3594ZM63.6406 21.1875C62.3906 21.1875 61.3984 20.8151 60.6641 20.0703C59.9349 19.3203 59.5703 18.3177 59.5703 17.0625C59.5755 15.7344 59.9557 14.6953 60.7109 13.9453C61.4661 13.1901 62.4948 12.8125 63.7969 12.8125C65.0521 12.8073 66.0312 13.1771 66.7344 13.9219C67.4427 14.6615 67.7969 15.6641 67.7969 16.9297C67.7969 18.2318 67.4219 19.2682 66.6719 20.0391C65.9271 20.8047 64.9167 21.1875 63.6406 21.1875ZM63.7266 19.7422C64.4505 19.7422 65 19.5052 65.375 19.0312C65.7552 18.5573 65.9453 17.8724 65.9453 16.9766C65.9453 16.0911 65.7552 15.4167 65.375 14.9531C64.9948 14.4896 64.4427 14.2578 63.7188 14.2578C63.0052 14.2578 62.4427 14.5026 62.0312 14.9922C61.625 15.4818 61.4219 16.1589 61.4219 17.0234C61.4219 17.8932 61.625 18.5651 62.0312 19.0391C62.4375 19.5078 63.0026 19.7422 63.7266 19.7422ZM73.9766 10.5859C73.8307 10.5286 73.6979 10.4896 73.5781 10.4688C73.4583 10.4427 73.3281 10.4297 73.1875 10.4297C72.8021 10.4297 72.5104 10.5417 72.3125 10.7656C72.1198 10.9844 72.0234 11.3021 72.0234 11.7188V13H73.875V14.4219H72.0234V21H70.2109V14.4219H68.8516V13H70.2109V11.625C70.2109 10.8125 70.4714 10.1693 70.9922 9.69531C71.5182 9.21615 72.2135 8.97656 73.0781 8.97656C73.349 8.97656 73.5833 8.99479 73.7812 9.03125C73.9792 9.06771 74.1849 9.11979 74.3984 9.1875L73.9766 10.5859ZM79.5234 20.8906C79.2891 20.9896 79.0443 21.0625 78.7891 21.1094C78.5339 21.1562 78.2604 21.1797 77.9688 21.1797C77.2292 21.1797 76.6589 20.9844 76.2578 20.5938C75.862 20.1979 75.6641 19.6094 75.6641 18.8281V14.4219H74.3203V13H75.6641V11.0547L77.4766 10.5078V13H79.3906V14.4219H77.4766V18.6797C77.4766 19.0703 77.5469 19.3516 77.6875 19.5234C77.8333 19.6953 78.0573 19.7812 78.3594 19.7812C78.5052 19.7812 78.6432 19.7656 78.7734 19.7344C78.9089 19.6979 79.0286 19.6536 79.1328 19.6016L79.5234 20.8906ZM84.6094 20.1953L85.4375 18.7656C85.9427 19.0781 86.4141 19.2995 86.8516 19.4297C87.2891 19.5547 87.7786 19.6172 88.3203 19.6172C88.9661 19.6172 89.474 19.4792 89.8438 19.2031C90.2188 18.9219 90.4062 18.5208 90.4062 18C90.4062 17.526 90.25 17.1536 89.9375 16.8828C89.6302 16.6068 89.1068 16.3542 88.3672 16.125C87.2266 15.7865 86.388 15.3672 85.8516 14.8672C85.3151 14.3672 85.0469 13.6901 85.0469 12.8359C85.0469 11.9089 85.3932 11.1406 86.0859 10.5312C86.7786 9.91667 87.7188 9.60938 88.9062 9.60938C89.4271 9.60938 89.9401 9.66667 90.4453 9.78125C90.9505 9.89583 91.4505 10.0729 91.9453 10.3125L91.25 11.7969C90.8177 11.5729 90.4036 11.4141 90.0078 11.3203C89.6172 11.2266 89.2188 11.1797 88.8125 11.1797C88.2188 11.1797 87.75 11.3099 87.4062 11.5703C87.0677 11.8307 86.8984 12.1979 86.8984 12.6719C86.8984 13.0938 87.0547 13.4271 87.3672 13.6719C87.6797 13.9115 88.2161 14.1484 88.9766 14.3828C90.1432 14.7318 90.9818 15.1667 91.4922 15.6875C92.0078 16.2083 92.2656 16.9245 92.2656 17.8359C92.2656 18.8151 91.9167 19.6198 91.2188 20.25C90.5208 20.875 89.526 21.1875 88.2344 21.1875C87.5885 21.1875 86.9583 21.1068 86.3438 20.9453C85.7292 20.7786 85.151 20.5286 84.6094 20.1953ZM97.9141 20.8906C97.6797 20.9896 97.4349 21.0625 97.1797 21.1094C96.9245 21.1562 96.651 21.1797 96.3594 21.1797C95.6198 21.1797 95.0495 20.9844 94.6484 20.5938C94.2526 20.1979 94.0547 19.6094 94.0547 18.8281V14.4219H92.7109V13H94.0547V11.0547L95.8672 10.5078V13H97.7812V14.4219H95.8672V18.6797C95.8672 19.0703 95.9375 19.3516 96.0781 19.5234C96.224 19.6953 96.4479 19.7812 96.75 19.7812C96.8958 19.7812 97.0339 19.7656 97.1641 19.7344C97.2995 19.6979 97.4193 19.6536 97.5234 19.6016L97.9141 20.8906ZM102.891 21.1875C101.641 21.1875 100.648 20.8151 99.9141 20.0703C99.1849 19.3203 98.8203 18.3177 98.8203 17.0625C98.8255 15.7344 99.2057 14.6953 99.9609 13.9453C100.716 13.1901 101.745 12.8125 103.047 12.8125C104.302 12.8073 105.281 13.1771 105.984 13.9219C106.693 14.6615 107.047 15.6641 107.047 16.9297C107.047 18.2318 106.672 19.2682 105.922 20.0391C105.177 20.8047 104.167 21.1875 102.891 21.1875ZM102.977 19.7422C103.701 19.7422 104.25 19.5052 104.625 19.0312C105.005 18.5573 105.195 17.8724 105.195 16.9766C105.195 16.0911 105.005 15.4167 104.625 14.9531C104.245 14.4896 103.693 14.2578 102.969 14.2578C102.255 14.2578 101.693 14.5026 101.281 14.9922C100.875 15.4818 100.672 16.1589 100.672 17.0234C100.672 17.8932 100.875 18.5651 101.281 19.0391C101.688 19.5078 102.253 19.7422 102.977 19.7422ZM113.352 14.5234C113.253 14.4974 113.156 14.4792 113.062 14.4688C112.974 14.4531 112.87 14.4453 112.75 14.4453C112.099 14.4453 111.599 14.6849 111.25 15.1641C110.901 15.6432 110.727 16.2682 110.727 17.0391V21H108.906V13H110.727V14.5391H110.758C110.945 13.987 111.221 13.5703 111.586 13.2891C111.951 13.0026 112.38 12.8594 112.875 12.8594C113.016 12.8594 113.141 12.8672 113.25 12.8828C113.365 12.8984 113.474 12.9219 113.578 12.9531L113.352 14.5234ZM121.594 17.4766H116.133C116.164 18.2318 116.383 18.8073 116.789 19.2031C117.195 19.5938 117.763 19.7891 118.492 19.7891C118.789 19.7891 119.128 19.7292 119.508 19.6094C119.888 19.4896 120.263 19.2969 120.633 19.0312L121.453 20.1641C120.958 20.5234 120.456 20.7839 119.945 20.9453C119.435 21.1068 118.872 21.1875 118.258 21.1875C117.013 21.1875 116.044 20.8307 115.352 20.1172C114.659 19.3984 114.31 18.3958 114.305 17.1094C114.305 15.8281 114.661 14.7917 115.375 14C116.094 13.2083 117.013 12.8125 118.133 12.8125C119.206 12.8125 120.049 13.151 120.664 13.8281C121.284 14.5 121.594 15.4531 121.594 16.6875V17.4766ZM119.836 16.2188C119.836 15.5312 119.685 15.0156 119.383 14.6719C119.086 14.3229 118.664 14.1484 118.117 14.1484C117.602 14.1484 117.161 14.3359 116.797 14.7109C116.438 15.0807 116.216 15.5833 116.133 16.2188H119.836Z" fill="white"/>
<path d="M89.7031 31.5293V30.8994H92.3691V31.5293H89.7031ZM96.8027 27.9111C97.5905 27.9111 98.165 28.152 98.5264 28.6338C98.891 29.1123 99.0732 29.874 99.0732 30.9189V34H96.1338V33.1699H98.165V31.0312C98.165 30.2337 98.0625 29.6543 97.8574 29.293C97.6523 28.9316 97.304 28.751 96.8125 28.751C96.373 28.751 96.0117 28.9495 95.7285 29.3467C95.4421 29.7503 95.18 30.4518 94.9424 31.4512L94.332 34H93.3652L94.0342 31.3779C94.109 31.0719 94.1855 30.7952 94.2637 30.5479C94.3418 30.3005 94.4183 30.0807 94.4932 29.8887L93.2725 28.0088H94.332L94.9424 29C95.1963 28.6159 95.4681 28.3392 95.7578 28.1699C96.0475 27.9974 96.3958 27.9111 96.8027 27.9111ZM107.145 28.8389V34H106.241V28.8389H102.823V28.0088H107.892V28.8389H107.145ZM112.711 30.4893V34H111.808V30.4795C111.808 29.887 111.687 29.4655 111.446 29.2148C111.209 28.9642 110.79 28.8389 110.191 28.8389H108.36V28.0088H110.201C110.8 28.0088 111.284 28.0934 111.651 28.2627C112.019 28.4287 112.288 28.694 112.457 29.0586C112.626 29.4199 112.711 29.8968 112.711 30.4893ZM115.26 28.0088V34H114.361V28.0088H115.26ZM121.651 30.4893V34H120.748V30.4795C120.748 29.8805 120.626 29.4574 120.382 29.21C120.141 28.9626 119.723 28.8389 119.127 28.8389H116.852V28.0088H119.142C119.741 28.0088 120.224 28.0934 120.592 28.2627C120.96 28.4287 121.228 28.694 121.397 29.0586C121.567 29.4199 121.651 29.8968 121.651 30.4893ZM117.848 30.1084V34H116.949V30.1084H117.848Z" fill="white"/>
<g clip-path="url(#clip0_1049_13879)">
<g clip-path="url(#clip1_1049_13879)">
<path d="M129.344 14.1667C129.344 13.6604 129.754 13.25 130.26 13.25H149.74C150.246 13.25 150.656 13.6604 150.656 14.1667V28.0313C150.656 30.1196 148.963 31.8125 146.875 31.8125H133.125C131.037 31.8125 129.344 30.1196 129.344 28.0313V14.1667Z" fill="url(#paint0_linear_1049_13879)"/>
<mask id="mask0_1049_13879" style="mask-type:alpha" maskUnits="userSpaceOnUse" x="129" y="13" width="22" height="19">
<path d="M129.344 14.1667C129.344 13.6604 129.754 13.25 130.26 13.25H149.74C150.246 13.25 150.656 13.6604 150.656 14.1667V28.0313C150.656 30.1196 148.963 31.8125 146.875 31.8125H133.125C131.037 31.8125 129.344 30.1196 129.344 28.0313V14.1667Z" fill="url(#paint1_linear_1049_13879)"/>
</mask>
<g mask="url(#mask0_1049_13879)">
<g filter="url(#filter0_dd_1049_13879)">
<path d="M134.844 13.9375V11.1875H145.156V13.9375" stroke="url(#paint2_linear_1049_13879)" stroke-width="1.375" stroke-linecap="round"/>
</g>
</g>
<g filter="url(#filter1_dd_1049_13879)">
<path d="M139.656 18.0625H135.531V22.1875H139.656V18.0625Z" fill="#F25022"/>
<path d="M144.469 18.0625H140.344V22.1875H144.469V18.0625Z" fill="#7FBA00"/>
<path d="M144.469 22.875H140.344V27H144.469V22.875Z" fill="#FFB900"/>
<path d="M139.656 22.875H135.531V27H139.656V22.875Z" fill="#00A4EF"/>
</g>
<path d="M134.844 13.9375V11.875C134.844 11.4953 135.152 11.1875 135.531 11.1875H144.469C144.848 11.1875 145.156 11.4953 145.156 11.875V13.9375" stroke="url(#paint3_linear_1049_13879)" stroke-width="1.375" stroke-linecap="round"/>
<rect x="135.531" y="10.5" width="8.9375" height="1.375" fill="url(#paint4_linear_1049_13879)"/>
<mask id="mask1_1049_13879" style="mask-type:alpha" maskUnits="userSpaceOnUse" x="135" y="10" width="10" height="2">
<rect x="135.531" y="10.5" width="8.9375" height="1.375" fill="url(#paint5_linear_1049_13879)"/>
</mask>
<g mask="url(#mask1_1049_13879)">
<g filter="url(#filter2_dd_1049_13879)">
<rect x="133.545" y="11.1877" width="1.98611" height="3.4375" fill="#C4C4C4"/>
</g>
</g>
</g>
</g>
<defs>
<filter id="filter0_dd_1049_13879" x="132.781" y="9.58333" width="14.4375" height="6.875" filterUnits="userSpaceOnUse" color-interpolation-filters="sRGB">
<feFlood flood-opacity="0" result="BackgroundImageFix"/>
<feColorMatrix in="SourceAlpha" type="matrix" values="0 0 0 0 0 0 0 0 0 0 0 0 0 0 0 0 0 0 127 0" result="hardAlpha"/>
<feOffset dy="0.229167"/>
<feGaussianBlur stdDeviation="0.229167"/>
<feColorMatrix type="matrix" values="0 0 0 0 0 0 0 0 0 0 0 0 0 0 0 0 0 0 0.1 0"/>
<feBlend mode="normal" in2="BackgroundImageFix" result="effect1_dropShadow_1049_13879"/>
<feColorMatrix in="SourceAlpha" type="matrix" values="0 0 0 0 0 0 0 0 0 0 0 0 0 0 0 0 0 0 127 0" result="hardAlpha"/>
<feOffset dy="0.458333"/>
<feGaussianBlur stdDeviation="0.6875"/>
<feColorMatrix type="matrix" values="0 0 0 0 0 0 0 0 0 0 0 0 0 0 0 0 0 0 0.2 0"/>
<feBlend mode="normal" in2="effect1_dropShadow_1049_13879" result="effect2_dropShadow_1049_13879"/>
<feBlend mode="normal" in="SourceGraphic" in2="effect2_dropShadow_1049_13879" result="shape"/>
</filter>
<filter id="filter1_dd_1049_13879" x="134.156" y="17.1458" width="11.6875" height="11.6875" filterUnits="userSpaceOnUse" color-interpolation-filters="sRGB">
<feFlood flood-opacity="0" result="BackgroundImageFix"/>
<feColorMatrix in="SourceAlpha" type="matrix" values="0 0 0 0 0 0 0 0 0 0 0 0 0 0 0 0 0 0 127 0" result="hardAlpha"/>
<feOffset dy="0.229167"/>
<feGaussianBlur stdDeviation="0.229167"/>
<feColorMatrix type="matrix" values="0 0 0 0 1 0 0 0 0 1 0 0 0 0 1 0 0 0 0.6 0"/>
<feBlend mode="normal" in2="BackgroundImageFix" result="effect1_dropShadow_1049_13879"/>
<feColorMatrix in="SourceAlpha" type="matrix" values="0 0 0 0 0 0 0 0 0 0 0 0 0 0 0 0 0 0 127 0" result="hardAlpha"/>
<feOffset dy="0.458333"/>
<feGaussianBlur stdDeviation="0.6875"/>
<feColorMatrix type="matrix" values="0 0 0 0 1 0 0 0 0 1 0 0 0 0 1 0 0 0 0.6 0"/>
<feBlend mode="normal" in2="effect1_dropShadow_1049_13879" result="effect2_dropShadow_1049_13879"/>
<feBlend mode="normal" in="SourceGraphic" in2="effect2_dropShadow_1049_13879" result="shape"/>
</filter>
<filter id="filter2_dd_1049_13879" x="132.17" y="8.89583" width="15.6594" height="6.18774" filterUnits="userSpaceOnUse" color-interpolation-filters="sRGB">
<feFlood flood-opacity="0" result="BackgroundImageFix"/>
<feColorMatrix in="SourceAlpha" type="matrix" values="0 0 0 0 0 0 0 0 0 0 0 0 0 0 0 0 0 0 127 0" result="hardAlpha"/>
<feOffset dy="-0.916667"/>
<feGaussianBlur stdDeviation="0.229167"/>
<feColorMatrix type="matrix" values="0 0 0 0 0 0 0 0 0 0 0 0 0 0 0 0 0 0 0.1 0"/>
<feBlend mode="normal" in2="BackgroundImageFix" result="effect1_dropShadow_1049_13879"/>
<feColorMatrix in="SourceAlpha" type="matrix" values="0 0 0 0 0 0 0 0 0 0 0 0 0 0 0 0 0 0 127 0" result="hardAlpha"/>
<feOffset dy="-0.916667"/>
<feGaussianBlur stdDeviation="0.6875"/>
<feColorMatrix type="matrix" values="0 0 0 0 0 0 0 0 0 0 0 0 0 0 0 0 0 0 0.2 0"/>
<feBlend mode="normal" in2="effect1_dropShadow_1049_13879" result="effect2_dropShadow_1049_13879"/>
<feBlend mode="normal" in="SourceGraphic" in2="effect2_dropShadow_1049_13879" result="shape"/>
</filter>
<linearGradient id="paint0_linear_1049_13879" x1="134.187" y1="10.5078" x2="138.66" y2="31.0495" gradientUnits="userSpaceOnUse">
<stop offset="0.270833" stop-color="white"/>
<stop offset="1" stop-color="#DFDFDF"/>
</linearGradient>
<linearGradient id="paint1_linear_1049_13879" x1="140" y1="13.25" x2="144.096" y2="32.4541" gradientUnits="userSpaceOnUse">
<stop stop-color="#0078D4"/>
<stop offset="1" stop-color="#114A8B"/>
</linearGradient>
<linearGradient id="paint2_linear_1049_13879" x1="140" y1="11.1875" x2="140.193" y2="14.1494" gradientUnits="userSpaceOnUse">
<stop stop-color="#28AFEA"/>
<stop offset="1" stop-color="#0078D4"/>
</linearGradient>
<linearGradient id="paint3_linear_1049_13879" x1="140" y1="11.1875" x2="140.193" y2="14.1494" gradientUnits="userSpaceOnUse">
<stop stop-color="#30DAFF"/>
<stop offset="1" stop-color="#0094D4"/>
</linearGradient>
<linearGradient id="paint4_linear_1049_13879" x1="139.503" y1="10.5" x2="139.503" y2="11.875" gradientUnits="userSpaceOnUse">
<stop stop-color="#22BCFF"/>
<stop offset="1" stop-color="#0088F0"/>
</linearGradient>
<linearGradient id="paint5_linear_1049_13879" x1="139.503" y1="10.5" x2="139.503" y2="11.875" gradientUnits="userSpaceOnUse">
<stop stop-color="#28AFEA"/>
<stop offset="1" stop-color="#3CCBF4"/>
</linearGradient>
<clipPath id="clip0_1049_13879">
<rect width="22" height="22" fill="white" transform="translate(129 10.5)"/>
</clipPath>
<clipPath id="clip1_1049_13879">
<rect width="22" height="22" fill="white" transform="translate(129 10.5)"/>
</clipPath>
</defs>
</svg>
