<svg width="161" height="44" viewBox="0 0 161 44" fill="none" xmlns="http://www.w3.org/2000/svg">
<rect x="1" y="1" width="159" height="42" rx="4" fill="#202020"/>
<rect x="0.5" y="0.5" width="160" height="43" rx="4.5" stroke="white" stroke-opacity="0.1"/>
<g clip-path="url(#clip0_1049_9423)">
<g clip-path="url(#clip1_1049_9423)">
<path d="M10.3438 14.6667C10.3438 14.1604 10.7542 13.75 11.2604 13.75H30.7396C31.2458 13.75 31.6562 14.1604 31.6562 14.6667V28.5313C31.6562 30.6196 29.9633 32.3125 27.875 32.3125H14.125C12.0367 32.3125 10.3438 30.6196 10.3438 28.5313V14.6667Z" fill="url(#paint0_linear_1049_9423)"/>
<mask id="mask0_1049_9423" style="mask-type:alpha" maskUnits="userSpaceOnUse" x="10" y="13" width="22" height="20">
<path d="M10.3438 14.6667C10.3438 14.1604 10.7542 13.75 11.2604 13.75H30.7396C31.2458 13.75 31.6562 14.1604 31.6562 14.6667V28.5313C31.6562 30.6196 29.9633 32.3125 27.875 32.3125H14.125C12.0367 32.3125 10.3438 30.6196 10.3438 28.5313V14.6667Z" fill="url(#paint1_linear_1049_9423)"/>
</mask>
<g mask="url(#mask0_1049_9423)">
<g filter="url(#filter0_dd_1049_9423)">
<path d="M15.8438 14.4375V11.6875H26.1562V14.4375" stroke="url(#paint2_linear_1049_9423)" stroke-width="1.375" stroke-linecap="round"/>
</g>
</g>
<g filter="url(#filter1_dd_1049_9423)">
<path d="M20.6565 18.5625H16.5315V22.6875H20.6565V18.5625Z" fill="#F25022"/>
<path d="M25.4688 18.5625H21.3438V22.6875H25.4688V18.5625Z" fill="#7FBA00"/>
<path d="M25.4688 23.375H21.3438V27.5H25.4688V23.375Z" fill="#FFB900"/>
<path d="M20.6562 23.375H16.5312V27.5H20.6562V23.375Z" fill="#00A4EF"/>
</g>
<path d="M15.8438 14.4375V12.375C15.8438 11.9953 16.1516 11.6875 16.5313 11.6875H25.4688C25.8484 11.6875 26.1562 11.9953 26.1562 12.375V14.4375" stroke="url(#paint3_linear_1049_9423)" stroke-width="1.375" stroke-linecap="round"/>
<rect x="16.5312" y="11" width="8.9375" height="1.375" fill="url(#paint4_linear_1049_9423)"/>
<mask id="mask1_1049_9423" style="mask-type:alpha" maskUnits="userSpaceOnUse" x="16" y="11" width="10" height="2">
<rect x="16.5312" y="11" width="8.9375" height="1.375" fill="url(#paint5_linear_1049_9423)"/>
</mask>
<g mask="url(#mask1_1049_9423)">
<g filter="url(#filter2_dd_1049_9423)">
<rect x="14.5454" y="11.6877" width="1.98611" height="3.4375" fill="#C4C4C4"/>
</g>
</g>
</g>
</g>
<path d="M38.3125 16.4629L38.7129 15.8477C38.9993 16.0332 39.2858 16.1683 39.5723 16.2529C39.8587 16.3376 40.1924 16.3799 40.5732 16.3799C40.9997 16.3799 41.3496 16.2806 41.623 16.082C41.8997 15.8802 42.0381 15.5872 42.0381 15.2031C42.0381 14.8613 41.9209 14.5879 41.6865 14.3828C41.4554 14.1777 41.0745 13.9792 40.5439 13.7871C39.8864 13.5495 39.3981 13.2826 39.0791 12.9863C38.7633 12.6868 38.6055 12.293 38.6055 11.8047C38.6055 11.2318 38.8105 10.7679 39.2207 10.4131C39.6341 10.0583 40.1761 9.88086 40.8467 9.88086C41.1592 9.88086 41.4652 9.91504 41.7646 9.9834C42.0641 10.0485 42.3734 10.1559 42.6924 10.3057L42.3848 10.9648C42.1178 10.8411 41.8574 10.7516 41.6035 10.6963C41.3529 10.641 41.0811 10.6133 40.7881 10.6133C40.3682 10.6133 40.0361 10.7126 39.792 10.9111C39.5479 11.1064 39.4258 11.3783 39.4258 11.7266C39.4258 12.0326 39.5381 12.2767 39.7627 12.459C39.9873 12.6413 40.3617 12.8268 40.8857 13.0156C41.5889 13.2695 42.0934 13.5527 42.3994 13.8652C42.7054 14.1777 42.8584 14.5993 42.8584 15.1299C42.8584 15.6963 42.6533 16.1699 42.2432 16.5508C41.833 16.9284 41.2568 17.1172 40.5146 17.1172C40.098 17.1172 39.7139 17.0651 39.3623 16.9609C39.0107 16.8568 38.6608 16.6908 38.3125 16.4629ZM51.1152 16.5361C50.8288 16.738 50.5391 16.8861 50.2461 16.9805C49.9531 17.0716 49.6309 17.1172 49.2793 17.1172C48.7422 17.1172 48.3174 17.0244 48.0049 16.8389C47.6956 16.6501 47.4482 16.3701 47.2627 15.999H47.2432C47.0088 16.3701 46.7337 16.6501 46.418 16.8389C46.1022 17.0244 45.7474 17.1172 45.3535 17.1172C44.8555 17.1172 44.4632 16.987 44.1768 16.7266C43.8936 16.4629 43.752 16.1113 43.752 15.6719C43.752 15.1836 43.9082 14.8076 44.2207 14.5439C44.5332 14.2803 45.0003 14.1289 45.6221 14.0898L46.9014 14.0117C46.9014 13.5267 46.8135 13.1637 46.6377 12.9229C46.4652 12.6787 46.182 12.5566 45.7881 12.5566C45.5277 12.5566 45.2754 12.6022 45.0312 12.6934C44.7904 12.7845 44.5592 12.9261 44.3379 13.1182L43.8936 12.6104C44.18 12.3597 44.4795 12.1758 44.792 12.0586C45.1077 11.9414 45.4561 11.8828 45.8369 11.8828C46.2829 11.8828 46.6279 11.9642 46.8721 12.127C47.1162 12.2897 47.2936 12.5339 47.4043 12.8594H47.4238C47.6126 12.5339 47.8519 12.2897 48.1416 12.127C48.4313 11.9642 48.7715 11.8828 49.1621 11.8828C49.8197 11.8828 50.3291 12.096 50.6904 12.5225C51.0518 12.9456 51.2324 13.5348 51.2324 14.29V14.7002H47.6924C47.7021 15.2568 47.8503 15.6865 48.1367 15.9893C48.4232 16.292 48.8252 16.4417 49.3428 16.4385C49.5771 16.4385 49.8099 16.4027 50.041 16.3311C50.2721 16.2562 50.5 16.1406 50.7246 15.9844L51.1152 16.5361ZM47.7021 14.0215H50.4121C50.4056 13.5527 50.2933 13.1914 50.0752 12.9375C49.8604 12.6836 49.5592 12.5566 49.1719 12.5566C48.7943 12.5566 48.4704 12.6901 48.2002 12.957C47.93 13.224 47.764 13.5788 47.7021 14.0215ZM46.9014 14.6904L45.9102 14.749C45.4577 14.7751 45.1191 14.8548 44.8945 14.9883C44.6732 15.1217 44.5625 15.3431 44.5625 15.6523C44.5625 15.89 44.6488 16.082 44.8213 16.2285C44.9938 16.3717 45.2266 16.4434 45.5195 16.4434C45.9069 16.4434 46.234 16.3066 46.501 16.0332C46.7679 15.7565 46.9014 15.4115 46.9014 14.998V14.6904ZM56.5938 17H55.4707L53.2637 14.5977H53.2441V17H52.4434V9.59766H53.2441V14.29H53.2637L55.3633 12H56.4131L54.0938 14.4121L56.5938 17ZM57.8242 10.8037C57.6615 10.8037 57.5247 10.75 57.4141 10.6426C57.3034 10.5319 57.248 10.3968 57.248 10.2373C57.248 10.0778 57.3034 9.94434 57.4141 9.83691C57.5247 9.72624 57.6615 9.6709 57.8242 9.6709C57.987 9.6709 58.1237 9.72624 58.2344 9.83691C58.3451 9.94434 58.4004 10.0778 58.4004 10.2373C58.4004 10.3968 58.3451 10.5319 58.2344 10.6426C58.1237 10.75 57.987 10.8037 57.8242 10.8037ZM58.2051 17.1416C58.2051 17.9261 58.0635 18.4909 57.7803 18.8359C57.4971 19.181 57.0641 19.3535 56.4814 19.3535C56.3545 19.3535 56.2389 19.3454 56.1348 19.3291C56.0273 19.3128 55.9134 19.2868 55.793 19.251L55.9639 18.5723C56.0648 18.6081 56.1559 18.6325 56.2373 18.6455C56.3187 18.6618 56.4017 18.6699 56.4863 18.6699C56.8281 18.6699 57.0658 18.556 57.1992 18.3281C57.3359 18.1035 57.4043 17.7259 57.4043 17.1953V12H58.2051V17.1416ZM63.376 17H62.5752V16.2188H62.5557C62.3831 16.5182 62.1699 16.7428 61.916 16.8926C61.6654 17.0423 61.3724 17.1172 61.0371 17.1172C60.5684 17.1172 60.1891 16.9805 59.8994 16.707C59.6097 16.4336 59.4648 16.0706 59.4648 15.6182C59.4648 15.1917 59.6113 14.8385 59.9043 14.5586C60.1973 14.2786 60.6123 14.0996 61.1494 14.0215L62.5752 13.8311V13.7188C62.5752 13.2988 62.4775 13.001 62.2822 12.8252C62.0869 12.6462 61.8265 12.5566 61.501 12.5566C61.2406 12.5566 60.9899 12.6055 60.749 12.7031C60.5081 12.8008 60.2819 12.9505 60.0703 13.1523L59.6016 12.6689C59.8815 12.3988 60.1794 12.2002 60.4951 12.0732C60.8109 11.9463 61.1624 11.8828 61.5498 11.8828C62.1553 11.8828 62.611 12.0391 62.917 12.3516C63.223 12.6608 63.376 13.1263 63.376 13.748V17ZM62.5752 14.9688V14.4707L61.3691 14.6367C61.0013 14.6888 60.7246 14.7816 60.5391 14.915C60.3535 15.0485 60.2607 15.2585 60.2607 15.5449C60.2607 15.8444 60.347 16.0739 60.5195 16.2334C60.6953 16.3896 60.9085 16.4678 61.1592 16.4678C61.5921 16.4678 61.9355 16.3262 62.1895 16.043C62.4466 15.7598 62.5752 15.4017 62.5752 14.9688ZM71.7109 17H70.9102V16.209H70.8906C70.7246 16.5117 70.513 16.7396 70.2559 16.8926C69.9987 17.0423 69.696 17.1172 69.3477 17.1172C68.752 17.1172 68.3044 16.9398 68.0049 16.585C67.7087 16.2301 67.5605 15.6979 67.5605 14.9883V12H68.3564V14.8613C68.3564 15.3887 68.4574 15.7842 68.6592 16.0479C68.861 16.3115 69.1637 16.4434 69.5674 16.4434C69.958 16.4434 70.2786 16.3001 70.5293 16.0137C70.7832 15.724 70.9102 15.3464 70.9102 14.8809V12H71.7109V17ZM69.6943 11.0527H69.0742L70.1631 9.45117H70.9736L69.6943 11.0527ZM75.7979 12.6836C75.736 12.6641 75.6807 12.651 75.6318 12.6445C75.583 12.6348 75.5212 12.6299 75.4463 12.6299C75.0394 12.6299 74.7188 12.804 74.4844 13.1523C74.25 13.4974 74.1328 13.9303 74.1328 14.4512V17H73.332V12H74.1328V12.9912H74.1523C74.2663 12.6396 74.4404 12.3727 74.6748 12.1904C74.9092 12.0049 75.1794 11.9121 75.4854 11.9121C75.5863 11.9121 75.6709 11.917 75.7393 11.9268C75.8109 11.9365 75.8743 11.9512 75.9297 11.9707L75.7979 12.6836Z" fill="white"/>
<path d="M51.4219 34H49.5781V26.8516C49.5781 26.5286 49.5859 26.1771 49.6016 25.7969C49.6224 25.4115 49.6484 25.0026 49.6797 24.5703H49.6328C49.5703 24.8672 49.5104 25.1224 49.4531 25.3359C49.401 25.5443 49.349 25.7109 49.2969 25.8359L46.0078 34H44.7266L41.4219 25.9062C41.3802 25.7917 41.3281 25.6224 41.2656 25.3984C41.2083 25.1745 41.1458 24.8984 41.0781 24.5703H41.0312C41.0625 24.9453 41.0833 25.3438 41.0938 25.7656C41.1042 26.1823 41.1094 26.6224 41.1094 27.0859V34H39.3906V22.7969H42.0156L44.9297 30.0781C45.0443 30.3542 45.138 30.6094 45.2109 30.8438C45.2891 31.0729 45.349 31.2865 45.3906 31.4844H45.4375C45.5312 31.1875 45.6198 30.9193 45.7031 30.6797C45.7865 30.4401 45.8646 30.2318 45.9375 30.0547L48.8906 22.7969H51.4219V34ZM54.8984 24.4531C54.5651 24.4531 54.2891 24.3464 54.0703 24.1328C53.8516 23.9193 53.7422 23.6562 53.7422 23.3438C53.7422 23.0208 53.8516 22.7552 54.0703 22.5469C54.2891 22.3385 54.5651 22.2344 54.8984 22.2344C55.237 22.2344 55.5156 22.3385 55.7344 22.5469C55.9531 22.7552 56.0625 23.0208 56.0625 23.3438C56.0625 23.6615 55.9531 23.9271 55.7344 24.1406C55.5156 24.349 55.237 24.4531 54.8984 24.4531ZM55.7969 34H53.9766V26H55.7969V34ZM64.1562 33.5078C63.7604 33.7474 63.3672 33.9193 62.9766 34.0234C62.5859 34.1328 62.1615 34.1875 61.7031 34.1875C60.474 34.1875 59.4896 33.8281 58.75 33.1094C58.0156 32.3906 57.6484 31.4141 57.6484 30.1797C57.6484 28.8516 58.0286 27.7917 58.7891 27C59.5547 26.2083 60.5859 25.8125 61.8828 25.8125C62.3359 25.8125 62.7474 25.862 63.1172 25.9609C63.4922 26.0547 63.8724 26.2109 64.2578 26.4297L63.5469 27.6953C63.276 27.5443 63.0104 27.4349 62.75 27.3672C62.4896 27.2943 62.2057 27.2578 61.8984 27.2578C61.1328 27.2578 60.5417 27.5104 60.125 28.0156C59.7083 28.5208 59.5 29.1901 59.5 30.0234C59.5 30.8984 59.724 31.5703 60.1719 32.0391C60.625 32.5078 61.1927 32.7422 61.875 32.7422C62.0833 32.7422 62.3229 32.7057 62.5938 32.6328C62.8646 32.5547 63.138 32.4323 63.4141 32.2656L64.1562 33.5078ZM70.1484 27.5234C70.0495 27.4974 69.9531 27.4792 69.8594 27.4688C69.7708 27.4531 69.6667 27.4453 69.5469 27.4453C68.8958 27.4453 68.3958 27.6849 68.0469 28.1641C67.6979 28.6432 67.5234 29.2682 67.5234 30.0391V34H65.7031V26H67.5234V27.5391H67.5547C67.7422 26.987 68.0182 26.5703 68.3828 26.2891C68.7474 26.0026 69.1771 25.8594 69.6719 25.8594C69.8125 25.8594 69.9375 25.8672 70.0469 25.8828C70.1615 25.8984 70.2708 25.9219 70.375 25.9531L70.1484 27.5234ZM75.1719 34.1875C73.9219 34.1875 72.9297 33.8151 72.1953 33.0703C71.4661 32.3203 71.1016 31.3177 71.1016 30.0625C71.1068 28.7344 71.487 27.6953 72.2422 26.9453C72.9974 26.1901 74.026 25.8125 75.3281 25.8125C76.5833 25.8073 77.5625 26.1771 78.2656 26.9219C78.974 27.6615 79.3281 28.6641 79.3281 29.9297C79.3281 31.2318 78.9531 32.2682 78.2031 33.0391C77.4583 33.8047 76.4479 34.1875 75.1719 34.1875ZM75.2578 32.7422C75.9818 32.7422 76.5312 32.5052 76.9062 32.0312C77.2865 31.5573 77.4766 30.8724 77.4766 29.9766C77.4766 29.0911 77.2865 28.4167 76.9062 27.9531C76.526 27.4896 75.974 27.2578 75.25 27.2578C74.5365 27.2578 73.974 27.5026 73.5625 27.9922C73.1562 28.4818 72.9531 29.1589 72.9531 30.0234C72.9531 30.8932 73.1562 31.5651 73.5625 32.0391C73.9688 32.5078 74.5339 32.7422 75.2578 32.7422ZM80.4062 33.3594L81.1953 32.0781C81.5078 32.2969 81.8385 32.474 82.1875 32.6094C82.5417 32.7396 82.9245 32.8047 83.3359 32.8047C83.7839 32.8047 84.1302 32.724 84.375 32.5625C84.625 32.3958 84.75 32.1484 84.75 31.8203C84.75 31.5599 84.6458 31.3438 84.4375 31.1719C84.2344 30.9948 83.8854 30.849 83.3906 30.7344C82.3906 30.5 81.6875 30.1901 81.2812 29.8047C80.8802 29.4193 80.6797 28.9115 80.6797 28.2812C80.6797 27.5573 80.9609 26.9661 81.5234 26.5078C82.0859 26.0443 82.8229 25.8125 83.7344 25.8125C84.1875 25.8125 84.6198 25.8724 85.0312 25.9922C85.4427 26.1068 85.8438 26.2917 86.2344 26.5469L85.5 27.7969C85.1562 27.5781 84.8411 27.4219 84.5547 27.3281C84.2682 27.2344 83.974 27.1875 83.6719 27.1875C83.2448 27.1875 82.9115 27.2682 82.6719 27.4297C82.4375 27.5859 82.3203 27.8047 82.3203 28.0859C82.3203 28.3828 82.4401 28.6042 82.6797 28.75C82.9245 28.8906 83.3333 29.0286 83.9062 29.1641C84.7708 29.3724 85.4036 29.6745 85.8047 30.0703C86.2057 30.4609 86.4062 30.9844 86.4062 31.6406C86.4062 32.4167 86.1224 33.0365 85.5547 33.5C84.9922 33.9583 84.2292 34.1875 83.2656 34.1875C82.7448 34.1875 82.2448 34.1198 81.7656 33.9844C81.2917 33.8438 80.8385 33.6354 80.4062 33.3594ZM91.6406 34.1875C90.3906 34.1875 89.3984 33.8151 88.6641 33.0703C87.9349 32.3203 87.5703 31.3177 87.5703 30.0625C87.5755 28.7344 87.9557 27.6953 88.7109 26.9453C89.4661 26.1901 90.4948 25.8125 91.7969 25.8125C93.0521 25.8073 94.0312 26.1771 94.7344 26.9219C95.4427 27.6615 95.7969 28.6641 95.7969 29.9297C95.7969 31.2318 95.4219 32.2682 94.6719 33.0391C93.9271 33.8047 92.9167 34.1875 91.6406 34.1875ZM91.7266 32.7422C92.4505 32.7422 93 32.5052 93.375 32.0312C93.7552 31.5573 93.9453 30.8724 93.9453 29.9766C93.9453 29.0911 93.7552 28.4167 93.375 27.9531C92.9948 27.4896 92.4427 27.2578 91.7188 27.2578C91.0052 27.2578 90.4427 27.5026 90.0312 27.9922C89.625 28.4818 89.4219 29.1589 89.4219 30.0234C89.4219 30.8932 89.625 31.5651 90.0312 32.0391C90.4375 32.5078 91.0026 32.7422 91.7266 32.7422ZM101.977 23.5859C101.831 23.5286 101.698 23.4896 101.578 23.4688C101.458 23.4427 101.328 23.4297 101.188 23.4297C100.802 23.4297 100.51 23.5417 100.312 23.7656C100.12 23.9844 100.023 24.3021 100.023 24.7188V26H101.875V27.4219H100.023V34H98.2109V27.4219H96.8516V26H98.2109V24.625C98.2109 23.8125 98.4714 23.1693 98.9922 22.6953C99.5182 22.2161 100.214 21.9766 101.078 21.9766C101.349 21.9766 101.583 21.9948 101.781 22.0312C101.979 22.0677 102.185 22.1198 102.398 22.1875L101.977 23.5859ZM107.523 33.8906C107.289 33.9896 107.044 34.0625 106.789 34.1094C106.534 34.1562 106.26 34.1797 105.969 34.1797C105.229 34.1797 104.659 33.9844 104.258 33.5938C103.862 33.1979 103.664 32.6094 103.664 31.8281V27.4219H102.32V26H103.664V24.0547L105.477 23.5078V26H107.391V27.4219H105.477V31.6797C105.477 32.0703 105.547 32.3516 105.688 32.5234C105.833 32.6953 106.057 32.7812 106.359 32.7812C106.505 32.7812 106.643 32.7656 106.773 32.7344C106.909 32.6979 107.029 32.6536 107.133 32.6016L107.523 33.8906ZM112.609 33.1953L113.438 31.7656C113.943 32.0781 114.414 32.2995 114.852 32.4297C115.289 32.5547 115.779 32.6172 116.32 32.6172C116.966 32.6172 117.474 32.4792 117.844 32.2031C118.219 31.9219 118.406 31.5208 118.406 31C118.406 30.526 118.25 30.1536 117.938 29.8828C117.63 29.6068 117.107 29.3542 116.367 29.125C115.227 28.7865 114.388 28.3672 113.852 27.8672C113.315 27.3672 113.047 26.6901 113.047 25.8359C113.047 24.9089 113.393 24.1406 114.086 23.5312C114.779 22.9167 115.719 22.6094 116.906 22.6094C117.427 22.6094 117.94 22.6667 118.445 22.7812C118.951 22.8958 119.451 23.0729 119.945 23.3125L119.25 24.7969C118.818 24.5729 118.404 24.4141 118.008 24.3203C117.617 24.2266 117.219 24.1797 116.812 24.1797C116.219 24.1797 115.75 24.3099 115.406 24.5703C115.068 24.8307 114.898 25.1979 114.898 25.6719C114.898 26.0938 115.055 26.4271 115.367 26.6719C115.68 26.9115 116.216 27.1484 116.977 27.3828C118.143 27.7318 118.982 28.1667 119.492 28.6875C120.008 29.2083 120.266 29.9245 120.266 30.8359C120.266 31.8151 119.917 32.6198 119.219 33.25C118.521 33.875 117.526 34.1875 116.234 34.1875C115.589 34.1875 114.958 34.1068 114.344 33.9453C113.729 33.7786 113.151 33.5286 112.609 33.1953ZM125.914 33.8906C125.68 33.9896 125.435 34.0625 125.18 34.1094C124.924 34.1562 124.651 34.1797 124.359 34.1797C123.62 34.1797 123.049 33.9844 122.648 33.5938C122.253 33.1979 122.055 32.6094 122.055 31.8281V27.4219H120.711V26H122.055V24.0547L123.867 23.5078V26H125.781V27.4219H123.867V31.6797C123.867 32.0703 123.938 32.3516 124.078 32.5234C124.224 32.6953 124.448 32.7812 124.75 32.7812C124.896 32.7812 125.034 32.7656 125.164 32.7344C125.299 32.6979 125.419 32.6536 125.523 32.6016L125.914 33.8906ZM130.891 34.1875C129.641 34.1875 128.648 33.8151 127.914 33.0703C127.185 32.3203 126.82 31.3177 126.82 30.0625C126.826 28.7344 127.206 27.6953 127.961 26.9453C128.716 26.1901 129.745 25.8125 131.047 25.8125C132.302 25.8073 133.281 26.1771 133.984 26.9219C134.693 27.6615 135.047 28.6641 135.047 29.9297C135.047 31.2318 134.672 32.2682 133.922 33.0391C133.177 33.8047 132.167 34.1875 130.891 34.1875ZM130.977 32.7422C131.701 32.7422 132.25 32.5052 132.625 32.0312C133.005 31.5573 133.195 30.8724 133.195 29.9766C133.195 29.0911 133.005 28.4167 132.625 27.9531C132.245 27.4896 131.693 27.2578 130.969 27.2578C130.255 27.2578 129.693 27.5026 129.281 27.9922C128.875 28.4818 128.672 29.1589 128.672 30.0234C128.672 30.8932 128.875 31.5651 129.281 32.0391C129.688 32.5078 130.253 32.7422 130.977 32.7422ZM141.352 27.5234C141.253 27.4974 141.156 27.4792 141.062 27.4688C140.974 27.4531 140.87 27.4453 140.75 27.4453C140.099 27.4453 139.599 27.6849 139.25 28.1641C138.901 28.6432 138.727 29.2682 138.727 30.0391V34H136.906V26H138.727V27.5391H138.758C138.945 26.987 139.221 26.5703 139.586 26.2891C139.951 26.0026 140.38 25.8594 140.875 25.8594C141.016 25.8594 141.141 25.8672 141.25 25.8828C141.365 25.8984 141.474 25.9219 141.578 25.9531L141.352 27.5234ZM149.594 30.4766H144.133C144.164 31.2318 144.383 31.8073 144.789 32.2031C145.195 32.5938 145.763 32.7891 146.492 32.7891C146.789 32.7891 147.128 32.7292 147.508 32.6094C147.888 32.4896 148.263 32.2969 148.633 32.0312L149.453 33.1641C148.958 33.5234 148.456 33.7839 147.945 33.9453C147.435 34.1068 146.872 34.1875 146.258 34.1875C145.013 34.1875 144.044 33.8307 143.352 33.1172C142.659 32.3984 142.31 31.3958 142.305 30.1094C142.305 28.8281 142.661 27.7917 143.375 27C144.094 26.2083 145.013 25.8125 146.133 25.8125C147.206 25.8125 148.049 26.151 148.664 26.8281C149.284 27.5 149.594 28.4531 149.594 29.6875V30.4766ZM147.836 29.2188C147.836 28.5312 147.685 28.0156 147.383 27.6719C147.086 27.3229 146.664 27.1484 146.117 27.1484C145.602 27.1484 145.161 27.3359 144.797 27.7109C144.438 28.0807 144.216 28.5833 144.133 29.2188H147.836Z" fill="white"/>
<defs>
<filter id="filter0_dd_1049_9423" x="13.7812" y="10.0833" width="14.4375" height="6.875" filterUnits="userSpaceOnUse" color-interpolation-filters="sRGB">
<feFlood flood-opacity="0" result="BackgroundImageFix"/>
<feColorMatrix in="SourceAlpha" type="matrix" values="0 0 0 0 0 0 0 0 0 0 0 0 0 0 0 0 0 0 127 0" result="hardAlpha"/>
<feOffset dy="0.229167"/>
<feGaussianBlur stdDeviation="0.229167"/>
<feColorMatrix type="matrix" values="0 0 0 0 0 0 0 0 0 0 0 0 0 0 0 0 0 0 0.1 0"/>
<feBlend mode="normal" in2="BackgroundImageFix" result="effect1_dropShadow_1049_9423"/>
<feColorMatrix in="SourceAlpha" type="matrix" values="0 0 0 0 0 0 0 0 0 0 0 0 0 0 0 0 0 0 127 0" result="hardAlpha"/>
<feOffset dy="0.458333"/>
<feGaussianBlur stdDeviation="0.6875"/>
<feColorMatrix type="matrix" values="0 0 0 0 0 0 0 0 0 0 0 0 0 0 0 0 0 0 0.2 0"/>
<feBlend mode="normal" in2="effect1_dropShadow_1049_9423" result="effect2_dropShadow_1049_9423"/>
<feBlend mode="normal" in="SourceGraphic" in2="effect2_dropShadow_1049_9423" result="shape"/>
</filter>
<filter id="filter1_dd_1049_9423" x="15.1562" y="17.6458" width="11.6875" height="11.6875" filterUnits="userSpaceOnUse" color-interpolation-filters="sRGB">
<feFlood flood-opacity="0" result="BackgroundImageFix"/>
<feColorMatrix in="SourceAlpha" type="matrix" values="0 0 0 0 0 0 0 0 0 0 0 0 0 0 0 0 0 0 127 0" result="hardAlpha"/>
<feOffset dy="0.229167"/>
<feGaussianBlur stdDeviation="0.229167"/>
<feColorMatrix type="matrix" values="0 0 0 0 1 0 0 0 0 1 0 0 0 0 1 0 0 0 0.6 0"/>
<feBlend mode="normal" in2="BackgroundImageFix" result="effect1_dropShadow_1049_9423"/>
<feColorMatrix in="SourceAlpha" type="matrix" values="0 0 0 0 0 0 0 0 0 0 0 0 0 0 0 0 0 0 127 0" result="hardAlpha"/>
<feOffset dy="0.458333"/>
<feGaussianBlur stdDeviation="0.6875"/>
<feColorMatrix type="matrix" values="0 0 0 0 1 0 0 0 0 1 0 0 0 0 1 0 0 0 0.6 0"/>
<feBlend mode="normal" in2="effect1_dropShadow_1049_9423" result="effect2_dropShadow_1049_9423"/>
<feBlend mode="normal" in="SourceGraphic" in2="effect2_dropShadow_1049_9423" result="shape"/>
</filter>
<filter id="filter2_dd_1049_9423" x="13.1704" y="9.39583" width="15.6594" height="6.18774" filterUnits="userSpaceOnUse" color-interpolation-filters="sRGB">
<feFlood flood-opacity="0" result="BackgroundImageFix"/>
<feColorMatrix in="SourceAlpha" type="matrix" values="0 0 0 0 0 0 0 0 0 0 0 0 0 0 0 0 0 0 127 0" result="hardAlpha"/>
<feOffset dy="-0.916667"/>
<feGaussianBlur stdDeviation="0.229167"/>
<feColorMatrix type="matrix" values="0 0 0 0 0 0 0 0 0 0 0 0 0 0 0 0 0 0 0.1 0"/>
<feBlend mode="normal" in2="BackgroundImageFix" result="effect1_dropShadow_1049_9423"/>
<feColorMatrix in="SourceAlpha" type="matrix" values="0 0 0 0 0 0 0 0 0 0 0 0 0 0 0 0 0 0 127 0" result="hardAlpha"/>
<feOffset dy="-0.916667"/>
<feGaussianBlur stdDeviation="0.6875"/>
<feColorMatrix type="matrix" values="0 0 0 0 0 0 0 0 0 0 0 0 0 0 0 0 0 0 0.2 0"/>
<feBlend mode="normal" in2="effect1_dropShadow_1049_9423" result="effect2_dropShadow_1049_9423"/>
<feBlend mode="normal" in="SourceGraphic" in2="effect2_dropShadow_1049_9423" result="shape"/>
</filter>
<linearGradient id="paint0_linear_1049_9423" x1="15.1875" y1="11.0078" x2="19.6603" y2="31.5495" gradientUnits="userSpaceOnUse">
<stop offset="0.270833" stop-color="white"/>
<stop offset="1" stop-color="#DFDFDF"/>
</linearGradient>
<linearGradient id="paint1_linear_1049_9423" x1="21" y1="13.75" x2="25.0962" y2="32.9541" gradientUnits="userSpaceOnUse">
<stop stop-color="#0078D4"/>
<stop offset="1" stop-color="#114A8B"/>
</linearGradient>
<linearGradient id="paint2_linear_1049_9423" x1="21" y1="11.6875" x2="21.1934" y2="14.6494" gradientUnits="userSpaceOnUse">
<stop stop-color="#28AFEA"/>
<stop offset="1" stop-color="#0078D4"/>
</linearGradient>
<linearGradient id="paint3_linear_1049_9423" x1="21" y1="11.6875" x2="21.1934" y2="14.6494" gradientUnits="userSpaceOnUse">
<stop stop-color="#30DAFF"/>
<stop offset="1" stop-color="#0094D4"/>
</linearGradient>
<linearGradient id="paint4_linear_1049_9423" x1="20.5035" y1="11" x2="20.5035" y2="12.375" gradientUnits="userSpaceOnUse">
<stop stop-color="#22BCFF"/>
<stop offset="1" stop-color="#0088F0"/>
</linearGradient>
<linearGradient id="paint5_linear_1049_9423" x1="20.5035" y1="11" x2="20.5035" y2="12.375" gradientUnits="userSpaceOnUse">
<stop stop-color="#28AFEA"/>
<stop offset="1" stop-color="#3CCBF4"/>
</linearGradient>
<clipPath id="clip0_1049_9423">
<rect width="22" height="22" fill="white" transform="translate(10 11)"/>
</clipPath>
<clipPath id="clip1_1049_9423">
<rect width="22" height="22" fill="white" transform="translate(10 11)"/>
</clipPath>
</defs>
</svg>
