<svg width="161" height="48" viewBox="0 0 161 48" fill="none" xmlns="http://www.w3.org/2000/svg">
<rect x="1" y="1" width="159" height="46" rx="4" fill="#202020"/>
<rect x="0.5" y="0.5" width="160" height="47" rx="4.5" stroke="black" stroke-opacity="0.1"/>
<g clip-path="url(#clip0_1049_9437)">
<g clip-path="url(#clip1_1049_9437)">
<path d="M10.3438 16.6667C10.3438 16.1604 10.7542 15.75 11.2604 15.75H30.7396C31.2458 15.75 31.6562 16.1604 31.6562 16.6667V30.5313C31.6562 32.6196 29.9633 34.3125 27.875 34.3125H14.125C12.0367 34.3125 10.3438 32.6196 10.3438 30.5313V16.6667Z" fill="url(#paint0_linear_1049_9437)"/>
<mask id="mask0_1049_9437" style="mask-type:alpha" maskUnits="userSpaceOnUse" x="10" y="15" width="22" height="20">
<path d="M10.3438 16.6667C10.3438 16.1604 10.7542 15.75 11.2604 15.75H30.7396C31.2458 15.75 31.6562 16.1604 31.6562 16.6667V30.5313C31.6562 32.6196 29.9633 34.3125 27.875 34.3125H14.125C12.0367 34.3125 10.3438 32.6196 10.3438 30.5313V16.6667Z" fill="url(#paint1_linear_1049_9437)"/>
</mask>
<g mask="url(#mask0_1049_9437)">
<g filter="url(#filter0_dd_1049_9437)">
<path d="M15.8438 16.4375V13.6875H26.1562V16.4375" stroke="url(#paint2_linear_1049_9437)" stroke-width="1.375" stroke-linecap="round"/>
</g>
</g>
<g filter="url(#filter1_dd_1049_9437)">
<path d="M20.6565 20.5625H16.5315V24.6875H20.6565V20.5625Z" fill="#F25022"/>
<path d="M25.4688 20.5625H21.3438V24.6875H25.4688V20.5625Z" fill="#7FBA00"/>
<path d="M25.4688 25.375H21.3438V29.5H25.4688V25.375Z" fill="#FFB900"/>
<path d="M20.6562 25.375H16.5312V29.5H20.6562V25.375Z" fill="#00A4EF"/>
</g>
<path d="M15.8438 16.4375V14.375C15.8438 13.9953 16.1516 13.6875 16.5313 13.6875H25.4688C25.8484 13.6875 26.1562 13.9953 26.1562 14.375V16.4375" stroke="url(#paint3_linear_1049_9437)" stroke-width="1.375" stroke-linecap="round"/>
<rect x="16.5312" y="13" width="8.9375" height="1.375" fill="url(#paint4_linear_1049_9437)"/>
<mask id="mask1_1049_9437" style="mask-type:alpha" maskUnits="userSpaceOnUse" x="16" y="13" width="10" height="2">
<rect x="16.5312" y="13" width="8.9375" height="1.375" fill="url(#paint5_linear_1049_9437)"/>
</mask>
<g mask="url(#mask1_1049_9437)">
<g filter="url(#filter2_dd_1049_9437)">
<rect x="14.5454" y="13.6877" width="1.98611" height="3.4375" fill="#C4C4C4"/>
</g>
</g>
</g>
</g>
<path d="M43.2539 11.5898C43.2539 11.2773 43.1318 11.043 42.8877 10.8867C42.6403 10.7305 42.2725 10.6523 41.7842 10.6523C41.2959 10.6523 40.9297 10.7305 40.6855 10.8867C40.4414 11.043 40.3193 11.2773 40.3193 11.5898V12.7275C40.3193 13.1084 40.4414 13.3949 40.6855 13.5869C40.9329 13.7757 41.3008 13.8701 41.7891 13.8701H42.0869C42.0869 13.6097 42.1829 13.4144 42.375 13.2842C42.5671 13.154 42.8535 13.0889 43.2344 13.0889C43.5241 13.0889 43.7406 13.1426 43.8838 13.25C44.0303 13.3542 44.1035 13.5104 44.1035 13.7188C44.1035 13.9336 44.0303 14.0931 43.8838 14.1973C43.7406 14.3047 43.5241 14.3584 43.2344 14.3584H42.9414V15.5254C42.9414 16.0169 42.8356 16.3864 42.624 16.6338C42.4092 16.8779 42.0885 17 41.6621 17C41.2161 17 40.8809 16.9284 40.6562 16.7852C40.4316 16.6452 40.3193 16.432 40.3193 16.1455V15.5303C40.3193 15.3675 40.1989 15.2861 39.958 15.2861C39.958 15.1234 40.0117 15.0013 40.1191 14.9199C40.2298 14.8385 40.3958 14.7979 40.6172 14.7979C40.8027 14.7979 40.9427 14.8597 41.0371 14.9834C41.1283 15.1038 41.1738 15.2861 41.1738 15.5303V16.1455C41.1738 16.266 41.2145 16.3571 41.2959 16.4189C41.3773 16.4775 41.4993 16.5068 41.6621 16.5068C41.8053 16.5068 41.9128 16.4255 41.9844 16.2627C42.0527 16.0999 42.0869 15.8558 42.0869 15.5303V14.3584H41.7891C41.0143 14.3584 40.4333 14.2233 40.0459 13.9531C39.6585 13.6797 39.4648 13.2712 39.4648 12.7275V11.5898C39.4648 11.1146 39.6585 10.7581 40.0459 10.5205C40.4333 10.2829 41.0127 10.1641 41.7842 10.1641C42.5557 10.1641 43.1351 10.2829 43.5225 10.5205C43.695 10.6279 43.8285 10.7581 43.9229 10.9111L45.5684 10.1641L47.8877 11.2139V17H47.0332V11.7656L45.1289 10.9014L44.0889 11.3701C44.0986 11.4385 44.1035 11.5117 44.1035 11.5898C44.1035 12.1042 43.765 12.3613 43.0879 12.3613C42.6289 12.3613 42.3994 12.2393 42.3994 11.9951C42.3994 11.751 42.5605 11.6289 42.8828 11.6289C42.8828 11.7884 42.9447 11.8682 43.0684 11.8682C43.1921 11.8682 43.2539 11.7754 43.2539 11.5898ZM43.2344 13.582C43.0391 13.582 42.9414 13.6781 42.9414 13.8701H43.2344C43.4883 13.8701 43.6152 13.8213 43.6152 13.7236C43.6152 13.6292 43.4883 13.582 43.2344 13.582ZM59.2451 18.4648C59.2451 18.9531 59.1003 19.3193 58.8105 19.5635C58.5208 19.8076 58.0846 19.9297 57.502 19.9297C56.9551 19.9297 56.4717 19.8678 56.0518 19.7441C55.6318 19.6237 55.277 19.4414 54.9873 19.1973C54.5999 18.8717 54.2044 18.6276 53.8008 18.4648C53.3971 18.3021 52.9854 18.2207 52.5654 18.2207C52.2269 18.2207 51.9128 18.2565 51.623 18.3281C51.3301 18.403 51.0632 18.5137 50.8223 18.6602V18.416C50.8223 18.2533 50.8825 18.1344 51.0029 18.0596C51.1234 17.988 51.3301 17.9147 51.623 17.8398C51.9128 17.7682 52.2269 17.7324 52.5654 17.7324C53.223 17.7324 53.8252 17.8236 54.3721 18.0059C54.9189 18.1882 55.4105 18.4632 55.8467 18.8311C56.0876 19.0361 56.3464 19.1891 56.623 19.29C56.8997 19.391 57.1927 19.4414 57.502 19.4414C57.7982 19.4414 58.0212 19.36 58.1709 19.1973C58.3206 19.0345 58.3955 18.7904 58.3955 18.4648C58.3955 18.3021 58.3434 18.18 58.2393 18.0986C58.1383 18.0173 57.987 17.9766 57.7852 17.9766C57.7852 17.8138 57.8356 17.6917 57.9365 17.6104C58.0374 17.529 58.1904 17.4883 58.3955 17.4883C58.6787 17.4883 58.8903 17.5697 59.0303 17.7324C59.1735 17.8952 59.2451 18.1393 59.2451 18.4648ZM51.6768 16.3115L51.999 15.9941C52.0934 15.8965 52.165 15.8005 52.2139 15.7061C52.2627 15.6084 52.2871 15.5107 52.2871 15.4131C52.2871 15.3317 52.2562 15.2715 52.1943 15.2324C52.1325 15.1901 52.0413 15.1689 51.9209 15.1689H51.6768V16.3115ZM59.2451 17H58.3906V11.9609L56.5596 10.9404L55.4609 11.5508V17H54.6064V11.3604L54.0303 10.8477L53.1465 11.7168L52.2578 10.8477L51.6768 11.3555V14.6807H51.9209C52.2041 14.6807 52.4173 14.7409 52.5605 14.8613C52.7038 14.985 52.7754 15.1689 52.7754 15.4131C52.7754 15.5791 52.7428 15.737 52.6777 15.8867C52.6126 16.0365 52.515 16.1748 52.3848 16.3018L51.6768 17H50.8223V11.4629L52.2725 10.1641L53.1465 11.0186L54.0156 10.1641L55.1289 11.1797L56.9258 10.1641L59.2451 11.4727V17ZM63.0342 16.3115L63.3564 15.9941C63.4508 15.8965 63.5225 15.8005 63.5713 15.7061C63.6201 15.6084 63.6445 15.5107 63.6445 15.4131C63.6445 15.3317 63.6136 15.2715 63.5518 15.2324C63.4899 15.1901 63.3988 15.1689 63.2783 15.1689H63.0342V16.3115ZM66.8184 17H65.9639V11.3604L65.3877 10.8477L64.5039 11.7168L63.6152 10.8477L63.0342 11.3555V14.6807H63.2783C63.5615 14.6807 63.7747 14.7409 63.918 14.8613C64.0612 14.985 64.1328 15.1689 64.1328 15.4131C64.1328 15.5791 64.1003 15.737 64.0352 15.8867C63.9701 16.0365 63.8724 16.1748 63.7422 16.3018L63.0342 17H62.1797V11.4629L63.6299 10.1641L64.5039 11.0186L65.373 10.1641L66.8184 11.4824V17ZM62.9121 8.43555C62.9121 8.01237 63.0277 7.69499 63.2588 7.4834C63.4932 7.27181 63.8431 7.16602 64.3086 7.16602C64.582 7.16602 64.8815 7.23763 65.207 7.38086C65.5293 7.52409 65.8809 7.73568 66.2617 8.01562V6.99023H66.8184V8.94336H63.7471C63.4704 8.94336 63.262 8.90104 63.1221 8.81641C62.9821 8.73177 62.9121 8.60482 62.9121 8.43555ZM64.3086 7.93262C64.123 7.93262 63.9831 7.97331 63.8887 8.05469C63.7943 8.14258 63.7471 8.26953 63.7471 8.43555H65.9248C65.7035 8.26953 65.4577 8.14258 65.1875 8.05469C64.9206 7.97331 64.6276 7.93262 64.3086 7.93262Z" fill="white"/>
<path d="M51.4219 38H49.5781V30.8516C49.5781 30.5286 49.5859 30.1771 49.6016 29.7969C49.6224 29.4115 49.6484 29.0026 49.6797 28.5703H49.6328C49.5703 28.8672 49.5104 29.1224 49.4531 29.3359C49.401 29.5443 49.349 29.7109 49.2969 29.8359L46.0078 38H44.7266L41.4219 29.9062C41.3802 29.7917 41.3281 29.6224 41.2656 29.3984C41.2083 29.1745 41.1458 28.8984 41.0781 28.5703H41.0312C41.0625 28.9453 41.0833 29.3438 41.0938 29.7656C41.1042 30.1823 41.1094 30.6224 41.1094 31.0859V38H39.3906V26.7969H42.0156L44.9297 34.0781C45.0443 34.3542 45.138 34.6094 45.2109 34.8438C45.2891 35.0729 45.349 35.2865 45.3906 35.4844H45.4375C45.5312 35.1875 45.6198 34.9193 45.7031 34.6797C45.7865 34.4401 45.8646 34.2318 45.9375 34.0547L48.8906 26.7969H51.4219V38ZM54.8984 28.4531C54.5651 28.4531 54.2891 28.3464 54.0703 28.1328C53.8516 27.9193 53.7422 27.6562 53.7422 27.3438C53.7422 27.0208 53.8516 26.7552 54.0703 26.5469C54.2891 26.3385 54.5651 26.2344 54.8984 26.2344C55.237 26.2344 55.5156 26.3385 55.7344 26.5469C55.9531 26.7552 56.0625 27.0208 56.0625 27.3438C56.0625 27.6615 55.9531 27.9271 55.7344 28.1406C55.5156 28.349 55.237 28.4531 54.8984 28.4531ZM55.7969 38H53.9766V30H55.7969V38ZM64.1562 37.5078C63.7604 37.7474 63.3672 37.9193 62.9766 38.0234C62.5859 38.1328 62.1615 38.1875 61.7031 38.1875C60.474 38.1875 59.4896 37.8281 58.75 37.1094C58.0156 36.3906 57.6484 35.4141 57.6484 34.1797C57.6484 32.8516 58.0286 31.7917 58.7891 31C59.5547 30.2083 60.5859 29.8125 61.8828 29.8125C62.3359 29.8125 62.7474 29.862 63.1172 29.9609C63.4922 30.0547 63.8724 30.2109 64.2578 30.4297L63.5469 31.6953C63.276 31.5443 63.0104 31.4349 62.75 31.3672C62.4896 31.2943 62.2057 31.2578 61.8984 31.2578C61.1328 31.2578 60.5417 31.5104 60.125 32.0156C59.7083 32.5208 59.5 33.1901 59.5 34.0234C59.5 34.8984 59.724 35.5703 60.1719 36.0391C60.625 36.5078 61.1927 36.7422 61.875 36.7422C62.0833 36.7422 62.3229 36.7057 62.5938 36.6328C62.8646 36.5547 63.138 36.4323 63.4141 36.2656L64.1562 37.5078ZM70.1484 31.5234C70.0495 31.4974 69.9531 31.4792 69.8594 31.4688C69.7708 31.4531 69.6667 31.4453 69.5469 31.4453C68.8958 31.4453 68.3958 31.6849 68.0469 32.1641C67.6979 32.6432 67.5234 33.2682 67.5234 34.0391V38H65.7031V30H67.5234V31.5391H67.5547C67.7422 30.987 68.0182 30.5703 68.3828 30.2891C68.7474 30.0026 69.1771 29.8594 69.6719 29.8594C69.8125 29.8594 69.9375 29.8672 70.0469 29.8828C70.1615 29.8984 70.2708 29.9219 70.375 29.9531L70.1484 31.5234ZM75.1719 38.1875C73.9219 38.1875 72.9297 37.8151 72.1953 37.0703C71.4661 36.3203 71.1016 35.3177 71.1016 34.0625C71.1068 32.7344 71.487 31.6953 72.2422 30.9453C72.9974 30.1901 74.026 29.8125 75.3281 29.8125C76.5833 29.8073 77.5625 30.1771 78.2656 30.9219C78.974 31.6615 79.3281 32.6641 79.3281 33.9297C79.3281 35.2318 78.9531 36.2682 78.2031 37.0391C77.4583 37.8047 76.4479 38.1875 75.1719 38.1875ZM75.2578 36.7422C75.9818 36.7422 76.5312 36.5052 76.9062 36.0312C77.2865 35.5573 77.4766 34.8724 77.4766 33.9766C77.4766 33.0911 77.2865 32.4167 76.9062 31.9531C76.526 31.4896 75.974 31.2578 75.25 31.2578C74.5365 31.2578 73.974 31.5026 73.5625 31.9922C73.1562 32.4818 72.9531 33.1589 72.9531 34.0234C72.9531 34.8932 73.1562 35.5651 73.5625 36.0391C73.9688 36.5078 74.5339 36.7422 75.2578 36.7422ZM80.4062 37.3594L81.1953 36.0781C81.5078 36.2969 81.8385 36.474 82.1875 36.6094C82.5417 36.7396 82.9245 36.8047 83.3359 36.8047C83.7839 36.8047 84.1302 36.724 84.375 36.5625C84.625 36.3958 84.75 36.1484 84.75 35.8203C84.75 35.5599 84.6458 35.3438 84.4375 35.1719C84.2344 34.9948 83.8854 34.849 83.3906 34.7344C82.3906 34.5 81.6875 34.1901 81.2812 33.8047C80.8802 33.4193 80.6797 32.9115 80.6797 32.2812C80.6797 31.5573 80.9609 30.9661 81.5234 30.5078C82.0859 30.0443 82.8229 29.8125 83.7344 29.8125C84.1875 29.8125 84.6198 29.8724 85.0312 29.9922C85.4427 30.1068 85.8438 30.2917 86.2344 30.5469L85.5 31.7969C85.1562 31.5781 84.8411 31.4219 84.5547 31.3281C84.2682 31.2344 83.974 31.1875 83.6719 31.1875C83.2448 31.1875 82.9115 31.2682 82.6719 31.4297C82.4375 31.5859 82.3203 31.8047 82.3203 32.0859C82.3203 32.3828 82.4401 32.6042 82.6797 32.75C82.9245 32.8906 83.3333 33.0286 83.9062 33.1641C84.7708 33.3724 85.4036 33.6745 85.8047 34.0703C86.2057 34.4609 86.4062 34.9844 86.4062 35.6406C86.4062 36.4167 86.1224 37.0365 85.5547 37.5C84.9922 37.9583 84.2292 38.1875 83.2656 38.1875C82.7448 38.1875 82.2448 38.1198 81.7656 37.9844C81.2917 37.8438 80.8385 37.6354 80.4062 37.3594ZM91.6406 38.1875C90.3906 38.1875 89.3984 37.8151 88.6641 37.0703C87.9349 36.3203 87.5703 35.3177 87.5703 34.0625C87.5755 32.7344 87.9557 31.6953 88.7109 30.9453C89.4661 30.1901 90.4948 29.8125 91.7969 29.8125C93.0521 29.8073 94.0312 30.1771 94.7344 30.9219C95.4427 31.6615 95.7969 32.6641 95.7969 33.9297C95.7969 35.2318 95.4219 36.2682 94.6719 37.0391C93.9271 37.8047 92.9167 38.1875 91.6406 38.1875ZM91.7266 36.7422C92.4505 36.7422 93 36.5052 93.375 36.0312C93.7552 35.5573 93.9453 34.8724 93.9453 33.9766C93.9453 33.0911 93.7552 32.4167 93.375 31.9531C92.9948 31.4896 92.4427 31.2578 91.7188 31.2578C91.0052 31.2578 90.4427 31.5026 90.0312 31.9922C89.625 32.4818 89.4219 33.1589 89.4219 34.0234C89.4219 34.8932 89.625 35.5651 90.0312 36.0391C90.4375 36.5078 91.0026 36.7422 91.7266 36.7422ZM101.977 27.5859C101.831 27.5286 101.698 27.4896 101.578 27.4688C101.458 27.4427 101.328 27.4297 101.188 27.4297C100.802 27.4297 100.51 27.5417 100.312 27.7656C100.12 27.9844 100.023 28.3021 100.023 28.7188V30H101.875V31.4219H100.023V38H98.2109V31.4219H96.8516V30H98.2109V28.625C98.2109 27.8125 98.4714 27.1693 98.9922 26.6953C99.5182 26.2161 100.214 25.9766 101.078 25.9766C101.349 25.9766 101.583 25.9948 101.781 26.0312C101.979 26.0677 102.185 26.1198 102.398 26.1875L101.977 27.5859ZM107.523 37.8906C107.289 37.9896 107.044 38.0625 106.789 38.1094C106.534 38.1562 106.26 38.1797 105.969 38.1797C105.229 38.1797 104.659 37.9844 104.258 37.5938C103.862 37.1979 103.664 36.6094 103.664 35.8281V31.4219H102.32V30H103.664V28.0547L105.477 27.5078V30H107.391V31.4219H105.477V35.6797C105.477 36.0703 105.547 36.3516 105.688 36.5234C105.833 36.6953 106.057 36.7812 106.359 36.7812C106.505 36.7812 106.643 36.7656 106.773 36.7344C106.909 36.6979 107.029 36.6536 107.133 36.6016L107.523 37.8906ZM112.609 37.1953L113.438 35.7656C113.943 36.0781 114.414 36.2995 114.852 36.4297C115.289 36.5547 115.779 36.6172 116.32 36.6172C116.966 36.6172 117.474 36.4792 117.844 36.2031C118.219 35.9219 118.406 35.5208 118.406 35C118.406 34.526 118.25 34.1536 117.938 33.8828C117.63 33.6068 117.107 33.3542 116.367 33.125C115.227 32.7865 114.388 32.3672 113.852 31.8672C113.315 31.3672 113.047 30.6901 113.047 29.8359C113.047 28.9089 113.393 28.1406 114.086 27.5312C114.779 26.9167 115.719 26.6094 116.906 26.6094C117.427 26.6094 117.94 26.6667 118.445 26.7812C118.951 26.8958 119.451 27.0729 119.945 27.3125L119.25 28.7969C118.818 28.5729 118.404 28.4141 118.008 28.3203C117.617 28.2266 117.219 28.1797 116.812 28.1797C116.219 28.1797 115.75 28.3099 115.406 28.5703C115.068 28.8307 114.898 29.1979 114.898 29.6719C114.898 30.0938 115.055 30.4271 115.367 30.6719C115.68 30.9115 116.216 31.1484 116.977 31.3828C118.143 31.7318 118.982 32.1667 119.492 32.6875C120.008 33.2083 120.266 33.9245 120.266 34.8359C120.266 35.8151 119.917 36.6198 119.219 37.25C118.521 37.875 117.526 38.1875 116.234 38.1875C115.589 38.1875 114.958 38.1068 114.344 37.9453C113.729 37.7786 113.151 37.5286 112.609 37.1953ZM125.914 37.8906C125.68 37.9896 125.435 38.0625 125.18 38.1094C124.924 38.1562 124.651 38.1797 124.359 38.1797C123.62 38.1797 123.049 37.9844 122.648 37.5938C122.253 37.1979 122.055 36.6094 122.055 35.8281V31.4219H120.711V30H122.055V28.0547L123.867 27.5078V30H125.781V31.4219H123.867V35.6797C123.867 36.0703 123.938 36.3516 124.078 36.5234C124.224 36.6953 124.448 36.7812 124.75 36.7812C124.896 36.7812 125.034 36.7656 125.164 36.7344C125.299 36.6979 125.419 36.6536 125.523 36.6016L125.914 37.8906ZM130.891 38.1875C129.641 38.1875 128.648 37.8151 127.914 37.0703C127.185 36.3203 126.82 35.3177 126.82 34.0625C126.826 32.7344 127.206 31.6953 127.961 30.9453C128.716 30.1901 129.745 29.8125 131.047 29.8125C132.302 29.8073 133.281 30.1771 133.984 30.9219C134.693 31.6615 135.047 32.6641 135.047 33.9297C135.047 35.2318 134.672 36.2682 133.922 37.0391C133.177 37.8047 132.167 38.1875 130.891 38.1875ZM130.977 36.7422C131.701 36.7422 132.25 36.5052 132.625 36.0312C133.005 35.5573 133.195 34.8724 133.195 33.9766C133.195 33.0911 133.005 32.4167 132.625 31.9531C132.245 31.4896 131.693 31.2578 130.969 31.2578C130.255 31.2578 129.693 31.5026 129.281 31.9922C128.875 32.4818 128.672 33.1589 128.672 34.0234C128.672 34.8932 128.875 35.5651 129.281 36.0391C129.688 36.5078 130.253 36.7422 130.977 36.7422ZM141.352 31.5234C141.253 31.4974 141.156 31.4792 141.062 31.4688C140.974 31.4531 140.87 31.4453 140.75 31.4453C140.099 31.4453 139.599 31.6849 139.25 32.1641C138.901 32.6432 138.727 33.2682 138.727 34.0391V38H136.906V30H138.727V31.5391H138.758C138.945 30.987 139.221 30.5703 139.586 30.2891C139.951 30.0026 140.38 29.8594 140.875 29.8594C141.016 29.8594 141.141 29.8672 141.25 29.8828C141.365 29.8984 141.474 29.9219 141.578 29.9531L141.352 31.5234ZM149.594 34.4766H144.133C144.164 35.2318 144.383 35.8073 144.789 36.2031C145.195 36.5938 145.763 36.7891 146.492 36.7891C146.789 36.7891 147.128 36.7292 147.508 36.6094C147.888 36.4896 148.263 36.2969 148.633 36.0312L149.453 37.1641C148.958 37.5234 148.456 37.7839 147.945 37.9453C147.435 38.1068 146.872 38.1875 146.258 38.1875C145.013 38.1875 144.044 37.8307 143.352 37.1172C142.659 36.3984 142.31 35.3958 142.305 34.1094C142.305 32.8281 142.661 31.7917 143.375 31C144.094 30.2083 145.013 29.8125 146.133 29.8125C147.206 29.8125 148.049 30.151 148.664 30.8281C149.284 31.5 149.594 32.4531 149.594 33.6875V34.4766ZM147.836 33.2188C147.836 32.5312 147.685 32.0156 147.383 31.6719C147.086 31.3229 146.664 31.1484 146.117 31.1484C145.602 31.1484 145.161 31.3359 144.797 31.7109C144.438 32.0807 144.216 32.5833 144.133 33.2188H147.836Z" fill="white"/>
<defs>
<filter id="filter0_dd_1049_9437" x="13.7812" y="12.0833" width="14.4375" height="6.875" filterUnits="userSpaceOnUse" color-interpolation-filters="sRGB">
<feFlood flood-opacity="0" result="BackgroundImageFix"/>
<feColorMatrix in="SourceAlpha" type="matrix" values="0 0 0 0 0 0 0 0 0 0 0 0 0 0 0 0 0 0 127 0" result="hardAlpha"/>
<feOffset dy="0.229167"/>
<feGaussianBlur stdDeviation="0.229167"/>
<feColorMatrix type="matrix" values="0 0 0 0 0 0 0 0 0 0 0 0 0 0 0 0 0 0 0.1 0"/>
<feBlend mode="normal" in2="BackgroundImageFix" result="effect1_dropShadow_1049_9437"/>
<feColorMatrix in="SourceAlpha" type="matrix" values="0 0 0 0 0 0 0 0 0 0 0 0 0 0 0 0 0 0 127 0" result="hardAlpha"/>
<feOffset dy="0.458333"/>
<feGaussianBlur stdDeviation="0.6875"/>
<feColorMatrix type="matrix" values="0 0 0 0 0 0 0 0 0 0 0 0 0 0 0 0 0 0 0.2 0"/>
<feBlend mode="normal" in2="effect1_dropShadow_1049_9437" result="effect2_dropShadow_1049_9437"/>
<feBlend mode="normal" in="SourceGraphic" in2="effect2_dropShadow_1049_9437" result="shape"/>
</filter>
<filter id="filter1_dd_1049_9437" x="15.1562" y="19.6458" width="11.6875" height="11.6875" filterUnits="userSpaceOnUse" color-interpolation-filters="sRGB">
<feFlood flood-opacity="0" result="BackgroundImageFix"/>
<feColorMatrix in="SourceAlpha" type="matrix" values="0 0 0 0 0 0 0 0 0 0 0 0 0 0 0 0 0 0 127 0" result="hardAlpha"/>
<feOffset dy="0.229167"/>
<feGaussianBlur stdDeviation="0.229167"/>
<feColorMatrix type="matrix" values="0 0 0 0 1 0 0 0 0 1 0 0 0 0 1 0 0 0 0.6 0"/>
<feBlend mode="normal" in2="BackgroundImageFix" result="effect1_dropShadow_1049_9437"/>
<feColorMatrix in="SourceAlpha" type="matrix" values="0 0 0 0 0 0 0 0 0 0 0 0 0 0 0 0 0 0 127 0" result="hardAlpha"/>
<feOffset dy="0.458333"/>
<feGaussianBlur stdDeviation="0.6875"/>
<feColorMatrix type="matrix" values="0 0 0 0 1 0 0 0 0 1 0 0 0 0 1 0 0 0 0.6 0"/>
<feBlend mode="normal" in2="effect1_dropShadow_1049_9437" result="effect2_dropShadow_1049_9437"/>
<feBlend mode="normal" in="SourceGraphic" in2="effect2_dropShadow_1049_9437" result="shape"/>
</filter>
<filter id="filter2_dd_1049_9437" x="13.1704" y="11.3958" width="15.6594" height="6.18774" filterUnits="userSpaceOnUse" color-interpolation-filters="sRGB">
<feFlood flood-opacity="0" result="BackgroundImageFix"/>
<feColorMatrix in="SourceAlpha" type="matrix" values="0 0 0 0 0 0 0 0 0 0 0 0 0 0 0 0 0 0 127 0" result="hardAlpha"/>
<feOffset dy="-0.916667"/>
<feGaussianBlur stdDeviation="0.229167"/>
<feColorMatrix type="matrix" values="0 0 0 0 0 0 0 0 0 0 0 0 0 0 0 0 0 0 0.1 0"/>
<feBlend mode="normal" in2="BackgroundImageFix" result="effect1_dropShadow_1049_9437"/>
<feColorMatrix in="SourceAlpha" type="matrix" values="0 0 0 0 0 0 0 0 0 0 0 0 0 0 0 0 0 0 127 0" result="hardAlpha"/>
<feOffset dy="-0.916667"/>
<feGaussianBlur stdDeviation="0.6875"/>
<feColorMatrix type="matrix" values="0 0 0 0 0 0 0 0 0 0 0 0 0 0 0 0 0 0 0.2 0"/>
<feBlend mode="normal" in2="effect1_dropShadow_1049_9437" result="effect2_dropShadow_1049_9437"/>
<feBlend mode="normal" in="SourceGraphic" in2="effect2_dropShadow_1049_9437" result="shape"/>
</filter>
<linearGradient id="paint0_linear_1049_9437" x1="15.1875" y1="13.0078" x2="19.6603" y2="33.5495" gradientUnits="userSpaceOnUse">
<stop offset="0.270833" stop-color="white"/>
<stop offset="1" stop-color="#DFDFDF"/>
</linearGradient>
<linearGradient id="paint1_linear_1049_9437" x1="21" y1="15.75" x2="25.0962" y2="34.9541" gradientUnits="userSpaceOnUse">
<stop stop-color="#0078D4"/>
<stop offset="1" stop-color="#114A8B"/>
</linearGradient>
<linearGradient id="paint2_linear_1049_9437" x1="21" y1="13.6875" x2="21.1934" y2="16.6494" gradientUnits="userSpaceOnUse">
<stop stop-color="#28AFEA"/>
<stop offset="1" stop-color="#0078D4"/>
</linearGradient>
<linearGradient id="paint3_linear_1049_9437" x1="21" y1="13.6875" x2="21.1934" y2="16.6494" gradientUnits="userSpaceOnUse">
<stop stop-color="#30DAFF"/>
<stop offset="1" stop-color="#0094D4"/>
</linearGradient>
<linearGradient id="paint4_linear_1049_9437" x1="20.5035" y1="13" x2="20.5035" y2="14.375" gradientUnits="userSpaceOnUse">
<stop stop-color="#22BCFF"/>
<stop offset="1" stop-color="#0088F0"/>
</linearGradient>
<linearGradient id="paint5_linear_1049_9437" x1="20.5035" y1="13" x2="20.5035" y2="14.375" gradientUnits="userSpaceOnUse">
<stop stop-color="#28AFEA"/>
<stop offset="1" stop-color="#3CCBF4"/>
</linearGradient>
<clipPath id="clip0_1049_9437">
<rect width="22" height="22" fill="white" transform="translate(10 13)"/>
</clipPath>
<clipPath id="clip1_1049_9437">
<rect width="22" height="22" fill="white" transform="translate(10 13)"/>
</clipPath>
</defs>
</svg>
