<svg width="161" height="44" viewBox="0 0 161 44" fill="none" xmlns="http://www.w3.org/2000/svg">
<rect x="1" y="1" width="159" height="42" rx="4" fill="#202020"/>
<rect x="0.5" y="0.5" width="160" height="43" rx="4.5" stroke="white" stroke-opacity="0.1"/>
<g clip-path="url(#clip0_1049_9463)">
<g clip-path="url(#clip1_1049_9463)">
<path d="M10.3438 14.6667C10.3438 14.1604 10.7542 13.75 11.2604 13.75H30.7396C31.2458 13.75 31.6562 14.1604 31.6562 14.6667V28.5313C31.6562 30.6196 29.9633 32.3125 27.875 32.3125H14.125C12.0367 32.3125 10.3438 30.6196 10.3438 28.5313V14.6667Z" fill="url(#paint0_linear_1049_9463)"/>
<mask id="mask0_1049_9463" style="mask-type:alpha" maskUnits="userSpaceOnUse" x="10" y="13" width="22" height="20">
<path d="M10.3438 14.6667C10.3438 14.1604 10.7542 13.75 11.2604 13.75H30.7396C31.2458 13.75 31.6562 14.1604 31.6562 14.6667V28.5313C31.6562 30.6196 29.9633 32.3125 27.875 32.3125H14.125C12.0367 32.3125 10.3438 30.6196 10.3438 28.5313V14.6667Z" fill="url(#paint1_linear_1049_9463)"/>
</mask>
<g mask="url(#mask0_1049_9463)">
<g filter="url(#filter0_dd_1049_9463)">
<path d="M15.8438 14.4375V11.6875H26.1562V14.4375" stroke="url(#paint2_linear_1049_9463)" stroke-width="1.375" stroke-linecap="round"/>
</g>
</g>
<g filter="url(#filter1_dd_1049_9463)">
<path d="M20.6565 18.5625H16.5315V22.6875H20.6565V18.5625Z" fill="#F25022"/>
<path d="M25.4688 18.5625H21.3438V22.6875H25.4688V18.5625Z" fill="#7FBA00"/>
<path d="M25.4688 23.375H21.3438V27.5H25.4688V23.375Z" fill="#FFB900"/>
<path d="M20.6562 23.375H16.5312V27.5H20.6562V23.375Z" fill="#00A4EF"/>
</g>
<path d="M15.8438 14.4375V12.375C15.8438 11.9953 16.1516 11.6875 16.5313 11.6875H25.4688C25.8484 11.6875 26.1562 11.9953 26.1562 12.375V14.4375" stroke="url(#paint3_linear_1049_9463)" stroke-width="1.375" stroke-linecap="round"/>
<rect x="16.5312" y="11" width="8.9375" height="1.375" fill="url(#paint4_linear_1049_9463)"/>
<mask id="mask1_1049_9463" style="mask-type:alpha" maskUnits="userSpaceOnUse" x="16" y="11" width="10" height="2">
<rect x="16.5312" y="11" width="8.9375" height="1.375" fill="url(#paint5_linear_1049_9463)"/>
</mask>
<g mask="url(#mask1_1049_9463)">
<g filter="url(#filter2_dd_1049_9463)">
<rect x="14.5454" y="11.6877" width="1.98611" height="3.4375" fill="#C4C4C4"/>
</g>
</g>
</g>
</g>
<path d="M42.5508 17H38.918V9.99805H39.7383V16.2578H42.5508V17ZM47.5361 14.6807H44.001C44.014 15.2438 44.1621 15.6784 44.4453 15.9844C44.7318 16.2871 45.1322 16.4385 45.6465 16.4385C45.8711 16.4385 46.0957 16.4059 46.3203 16.3408C46.5482 16.2725 46.7728 16.165 46.9941 16.0186L47.3652 16.5898C47.082 16.7721 46.7988 16.9056 46.5156 16.9902C46.2324 17.0749 45.9215 17.1172 45.583 17.1172C44.8278 17.1172 44.2386 16.8926 43.8154 16.4434C43.3923 15.9941 43.179 15.3675 43.1758 14.5635C43.1725 13.7594 43.3841 13.1117 43.8105 12.6201C44.2402 12.1286 44.7969 11.8828 45.4805 11.8828C46.1315 11.8828 46.6361 12.096 46.9941 12.5225C47.3555 12.9456 47.5361 13.5332 47.5361 14.2852V14.6807ZM46.7158 14.0264C46.7126 13.5641 46.6003 13.2044 46.3789 12.9473C46.1576 12.6868 45.8532 12.5566 45.4658 12.5566C45.085 12.5566 44.7611 12.6901 44.4941 12.957C44.2305 13.2207 44.0693 13.5771 44.0107 14.0264H46.7158ZM49.1621 10.8037C48.9993 10.8037 48.8626 10.75 48.752 10.6426C48.6413 10.5319 48.5859 10.3968 48.5859 10.2373C48.5859 10.0778 48.6413 9.94434 48.752 9.83691C48.8626 9.72624 48.9993 9.6709 49.1621 9.6709C49.3249 9.6709 49.4616 9.72624 49.5723 9.83691C49.6829 9.94434 49.7383 10.0778 49.7383 10.2373C49.7383 10.3968 49.6829 10.5319 49.5723 10.6426C49.4616 10.75 49.3249 10.8037 49.1621 10.8037ZM49.543 17.1416C49.543 17.9261 49.4014 18.4909 49.1182 18.8359C48.835 19.181 48.402 19.3535 47.8193 19.3535C47.6924 19.3535 47.5768 19.3454 47.4727 19.3291C47.3652 19.3128 47.2513 19.2868 47.1309 19.251L47.3018 18.5723C47.4027 18.6081 47.4938 18.6325 47.5752 18.6455C47.6566 18.6618 47.7396 18.6699 47.8242 18.6699C48.166 18.6699 48.4036 18.556 48.5371 18.3281C48.6738 18.1035 48.7422 17.7259 48.7422 17.1953V12H49.543V17.1416ZM55.2168 17H54.416V16.209H54.3965C54.2305 16.5117 54.0189 16.7396 53.7617 16.8926C53.5046 17.0423 53.2018 17.1172 52.8535 17.1172C52.2578 17.1172 51.8102 16.9398 51.5107 16.585C51.2145 16.2301 51.0664 15.6979 51.0664 14.9883V12H51.8623V14.8613C51.8623 15.3887 51.9632 15.7842 52.165 16.0479C52.3669 16.3115 52.6696 16.4434 53.0732 16.4434C53.4639 16.4434 53.7845 16.3001 54.0352 16.0137C54.2891 15.724 54.416 15.3464 54.416 14.8809V12H55.2168V17ZM57.6582 16.2773H57.6387V19.2998H56.8379V12H57.6387V12.8789H57.6582C57.8568 12.5469 58.0993 12.2979 58.3857 12.1318C58.6755 11.9658 59.0091 11.8828 59.3867 11.8828C60.0312 11.8828 60.5342 12.1074 60.8955 12.5566C61.2568 13.0026 61.4375 13.6016 61.4375 14.3535C61.4375 15.1901 61.234 15.8607 60.8271 16.3652C60.4202 16.8665 59.8636 17.1172 59.1572 17.1172C58.835 17.1172 58.5485 17.0472 58.2979 16.9072C58.0472 16.7673 57.834 16.5573 57.6582 16.2773ZM57.6387 14.2607V14.959C57.6387 15.3724 57.7721 15.724 58.0391 16.0137C58.3092 16.3001 58.651 16.4434 59.0645 16.4434C59.5495 16.4434 59.9287 16.2578 60.2021 15.8867C60.4788 15.5156 60.6172 14.9997 60.6172 14.3389C60.6172 13.7822 60.4886 13.346 60.2314 13.0303C59.9743 12.7145 59.626 12.5566 59.1865 12.5566C58.721 12.5566 58.3467 12.7194 58.0635 13.0449C57.7803 13.3672 57.6387 13.7725 57.6387 14.2607ZM63.127 10.8037C62.9642 10.8037 62.8275 10.75 62.7168 10.6426C62.6061 10.5319 62.5508 10.3968 62.5508 10.2373C62.5508 10.0778 62.6061 9.94434 62.7168 9.83691C62.8275 9.72624 62.9642 9.6709 63.127 9.6709C63.2897 9.6709 63.4264 9.72624 63.5371 9.83691C63.6478 9.94434 63.7031 10.0778 63.7031 10.2373C63.7031 10.3968 63.6478 10.5319 63.5371 10.6426C63.4264 10.75 63.2897 10.8037 63.127 10.8037ZM63.5176 17H62.7168V12H63.5176V17ZM69.1572 14.6807H65.6221C65.6351 15.2438 65.7832 15.6784 66.0664 15.9844C66.3529 16.2871 66.7533 16.4385 67.2676 16.4385C67.4922 16.4385 67.7168 16.4059 67.9414 16.3408C68.1693 16.2725 68.3939 16.165 68.6152 16.0186L68.9863 16.5898C68.7031 16.7721 68.4199 16.9056 68.1367 16.9902C67.8535 17.0749 67.5426 17.1172 67.2041 17.1172C66.4489 17.1172 65.8597 16.8926 65.4365 16.4434C65.0133 15.9941 64.8001 15.3675 64.7969 14.5635C64.7936 13.7594 65.0052 13.1117 65.4316 12.6201C65.8613 12.1286 66.418 11.8828 67.1016 11.8828C67.7526 11.8828 68.2572 12.096 68.6152 12.5225C68.9766 12.9456 69.1572 13.5332 69.1572 14.2852V14.6807ZM68.3369 14.0264C68.3337 13.5641 68.2214 13.2044 68 12.9473C67.7786 12.6868 67.4743 12.5566 67.0869 12.5566C66.7061 12.5566 66.3822 12.6901 66.1152 12.957C65.8516 13.2207 65.6904 13.5771 65.6318 14.0264H68.3369ZM70.373 17V9.59766H71.1738V17H70.373ZM76.335 17H75.5342V16.2188H75.5146C75.3421 16.5182 75.1289 16.7428 74.875 16.8926C74.6243 17.0423 74.3314 17.1172 73.9961 17.1172C73.5273 17.1172 73.1481 16.9805 72.8584 16.707C72.5687 16.4336 72.4238 16.0706 72.4238 15.6182C72.4238 15.1917 72.5703 14.8385 72.8633 14.5586C73.1562 14.2786 73.5713 14.0996 74.1084 14.0215L75.5342 13.8311V13.7188C75.5342 13.2988 75.4365 13.001 75.2412 12.8252C75.0459 12.6462 74.7855 12.5566 74.46 12.5566C74.1995 12.5566 73.9489 12.6055 73.708 12.7031C73.4671 12.8008 73.2409 12.9505 73.0293 13.1523L72.5605 12.6689C72.8405 12.3988 73.1383 12.2002 73.4541 12.0732C73.7699 11.9463 74.1214 11.8828 74.5088 11.8828C75.1143 11.8828 75.57 12.0391 75.876 12.3516C76.182 12.6608 76.335 13.1263 76.335 13.748V17ZM75.5342 14.9688V14.4707L74.3281 14.6367C73.9603 14.6888 73.6836 14.7816 73.498 14.915C73.3125 15.0485 73.2197 15.2585 73.2197 15.5449C73.2197 15.8444 73.306 16.0739 73.4785 16.2334C73.6543 16.3896 73.8675 16.4678 74.1182 16.4678C74.5511 16.4678 74.8945 16.3262 75.1484 16.043C75.4056 15.7598 75.5342 15.4017 75.5342 14.9688ZM75.7441 11.0527H73.3125V10.4668H75.7441V11.0527ZM81.3301 16.1504C81.1445 16.4727 80.9085 16.7152 80.6221 16.8779C80.3389 17.0374 80.002 17.1172 79.6113 17.1172C78.9831 17.1172 78.4801 16.8942 78.1025 16.4482C77.7282 15.999 77.541 15.3887 77.541 14.6172C77.541 13.7904 77.7493 13.1279 78.166 12.6299C78.5827 12.1318 79.1377 11.8828 79.8311 11.8828C80.1761 11.8828 80.4723 11.9512 80.7197 12.0879C80.9704 12.2214 81.1738 12.4232 81.3301 12.6934H81.3496V9.59766H82.1504V17H81.3496V16.1504H81.3301ZM78.3613 14.5781C78.3613 15.1543 78.4948 15.61 78.7617 15.9453C79.0319 16.2773 79.3932 16.4434 79.8457 16.4434C80.2949 16.4434 80.6579 16.2822 80.9346 15.96C81.2113 15.6377 81.3496 15.2308 81.3496 14.7393V14.002C81.3496 13.5983 81.2145 13.2565 80.9443 12.9766C80.6774 12.6966 80.3405 12.5566 79.9336 12.5566C79.4453 12.5566 79.0612 12.7357 78.7812 13.0938C78.5013 13.4518 78.3613 13.9466 78.3613 14.5781ZM87.79 14.6807H84.2549C84.2679 15.2438 84.416 15.6784 84.6992 15.9844C84.9857 16.2871 85.3861 16.4385 85.9004 16.4385C86.125 16.4385 86.3496 16.4059 86.5742 16.3408C86.8021 16.2725 87.0267 16.165 87.248 16.0186L87.6191 16.5898C87.3359 16.7721 87.0527 16.9056 86.7695 16.9902C86.4863 17.0749 86.1755 17.1172 85.8369 17.1172C85.0817 17.1172 84.4925 16.8926 84.0693 16.4434C83.6462 15.9941 83.4329 15.3675 83.4297 14.5635C83.4264 13.7594 83.638 13.1117 84.0645 12.6201C84.4941 12.1286 85.0508 11.8828 85.7344 11.8828C86.3854 11.8828 86.89 12.096 87.248 12.5225C87.6094 12.9456 87.79 13.5332 87.79 14.2852V14.6807ZM86.9697 14.0264C86.9665 13.5641 86.8542 13.2044 86.6328 12.9473C86.4115 12.6868 86.1071 12.5566 85.7197 12.5566C85.3389 12.5566 85.015 12.6901 84.748 12.957C84.4844 13.2207 84.3232 13.5771 84.2646 14.0264H86.9697ZM86.9307 11.0527H84.499V10.4668H86.9307V11.0527ZM91.3887 16.9414C91.252 16.9967 91.1169 17.0374 90.9834 17.0635C90.8532 17.0928 90.7051 17.1074 90.5391 17.1074C90.1419 17.1074 89.8294 16.9919 89.6016 16.7607C89.377 16.5264 89.2646 16.1813 89.2646 15.7256V12.6836H88.4053V12H89.2646V10.7793L90.0654 10.5205V12H91.3252V12.6836H90.0654V15.6328C90.0654 15.9193 90.1159 16.126 90.2168 16.2529C90.321 16.3799 90.4756 16.4434 90.6807 16.4434C90.7783 16.4434 90.8727 16.432 90.9639 16.4092C91.055 16.3864 91.1315 16.3604 91.1934 16.3311L91.3887 16.9414ZM99.2891 17H98.4883V14.1484C98.4883 13.6178 98.3906 13.2207 98.1953 12.957C98.0033 12.6901 97.7135 12.5566 97.3262 12.5566C96.9258 12.5566 96.5938 12.708 96.3301 13.0107C96.0697 13.3102 95.9395 13.6895 95.9395 14.1484V17H95.1387V12H95.9395V12.8301H95.959C96.1478 12.5143 96.3789 12.2783 96.6523 12.1221C96.9258 11.9626 97.2415 11.8828 97.5996 11.8828C98.1465 11.8828 98.5648 12.0602 98.8545 12.415C99.1442 12.7666 99.2891 13.276 99.2891 13.9434V17ZM102.893 17.1172C102.154 17.1172 101.563 16.8844 101.12 16.4189C100.681 15.9502 100.461 15.3301 100.461 14.5586C100.461 13.722 100.689 13.0677 101.145 12.5957C101.6 12.1237 102.222 11.8861 103.01 11.8828C103.755 11.8796 104.336 12.109 104.753 12.5713C105.173 13.0335 105.383 13.6699 105.383 14.4805C105.383 15.2812 105.157 15.9209 104.704 16.3994C104.255 16.8779 103.651 17.1172 102.893 17.1172ZM102.951 16.4434C103.469 16.4434 103.866 16.2757 104.143 15.9404C104.423 15.6019 104.562 15.125 104.562 14.5098C104.562 13.8815 104.423 13.3997 104.143 13.0645C103.863 12.7259 103.465 12.5566 102.951 12.5566C102.437 12.5566 102.03 12.7324 101.73 13.084C101.431 13.4355 101.281 13.9173 101.281 14.5293C101.281 15.1217 101.433 15.5889 101.735 15.9307C102.038 16.2725 102.443 16.4434 102.951 16.4434Z" fill="white"/>
<path d="M51.4219 34H49.5781V26.8516C49.5781 26.5286 49.5859 26.1771 49.6016 25.7969C49.6224 25.4115 49.6484 25.0026 49.6797 24.5703H49.6328C49.5703 24.8672 49.5104 25.1224 49.4531 25.3359C49.401 25.5443 49.349 25.7109 49.2969 25.8359L46.0078 34H44.7266L41.4219 25.9062C41.3802 25.7917 41.3281 25.6224 41.2656 25.3984C41.2083 25.1745 41.1458 24.8984 41.0781 24.5703H41.0312C41.0625 24.9453 41.0833 25.3438 41.0938 25.7656C41.1042 26.1823 41.1094 26.6224 41.1094 27.0859V34H39.3906V22.7969H42.0156L44.9297 30.0781C45.0443 30.3542 45.138 30.6094 45.2109 30.8438C45.2891 31.0729 45.349 31.2865 45.3906 31.4844H45.4375C45.5312 31.1875 45.6198 30.9193 45.7031 30.6797C45.7865 30.4401 45.8646 30.2318 45.9375 30.0547L48.8906 22.7969H51.4219V34ZM54.8984 24.4531C54.5651 24.4531 54.2891 24.3464 54.0703 24.1328C53.8516 23.9193 53.7422 23.6562 53.7422 23.3438C53.7422 23.0208 53.8516 22.7552 54.0703 22.5469C54.2891 22.3385 54.5651 22.2344 54.8984 22.2344C55.237 22.2344 55.5156 22.3385 55.7344 22.5469C55.9531 22.7552 56.0625 23.0208 56.0625 23.3438C56.0625 23.6615 55.9531 23.9271 55.7344 24.1406C55.5156 24.349 55.237 24.4531 54.8984 24.4531ZM55.7969 34H53.9766V26H55.7969V34ZM64.1562 33.5078C63.7604 33.7474 63.3672 33.9193 62.9766 34.0234C62.5859 34.1328 62.1615 34.1875 61.7031 34.1875C60.474 34.1875 59.4896 33.8281 58.75 33.1094C58.0156 32.3906 57.6484 31.4141 57.6484 30.1797C57.6484 28.8516 58.0286 27.7917 58.7891 27C59.5547 26.2083 60.5859 25.8125 61.8828 25.8125C62.3359 25.8125 62.7474 25.862 63.1172 25.9609C63.4922 26.0547 63.8724 26.2109 64.2578 26.4297L63.5469 27.6953C63.276 27.5443 63.0104 27.4349 62.75 27.3672C62.4896 27.2943 62.2057 27.2578 61.8984 27.2578C61.1328 27.2578 60.5417 27.5104 60.125 28.0156C59.7083 28.5208 59.5 29.1901 59.5 30.0234C59.5 30.8984 59.724 31.5703 60.1719 32.0391C60.625 32.5078 61.1927 32.7422 61.875 32.7422C62.0833 32.7422 62.3229 32.7057 62.5938 32.6328C62.8646 32.5547 63.138 32.4323 63.4141 32.2656L64.1562 33.5078ZM70.1484 27.5234C70.0495 27.4974 69.9531 27.4792 69.8594 27.4688C69.7708 27.4531 69.6667 27.4453 69.5469 27.4453C68.8958 27.4453 68.3958 27.6849 68.0469 28.1641C67.6979 28.6432 67.5234 29.2682 67.5234 30.0391V34H65.7031V26H67.5234V27.5391H67.5547C67.7422 26.987 68.0182 26.5703 68.3828 26.2891C68.7474 26.0026 69.1771 25.8594 69.6719 25.8594C69.8125 25.8594 69.9375 25.8672 70.0469 25.8828C70.1615 25.8984 70.2708 25.9219 70.375 25.9531L70.1484 27.5234ZM75.1719 34.1875C73.9219 34.1875 72.9297 33.8151 72.1953 33.0703C71.4661 32.3203 71.1016 31.3177 71.1016 30.0625C71.1068 28.7344 71.487 27.6953 72.2422 26.9453C72.9974 26.1901 74.026 25.8125 75.3281 25.8125C76.5833 25.8073 77.5625 26.1771 78.2656 26.9219C78.974 27.6615 79.3281 28.6641 79.3281 29.9297C79.3281 31.2318 78.9531 32.2682 78.2031 33.0391C77.4583 33.8047 76.4479 34.1875 75.1719 34.1875ZM75.2578 32.7422C75.9818 32.7422 76.5312 32.5052 76.9062 32.0312C77.2865 31.5573 77.4766 30.8724 77.4766 29.9766C77.4766 29.0911 77.2865 28.4167 76.9062 27.9531C76.526 27.4896 75.974 27.2578 75.25 27.2578C74.5365 27.2578 73.974 27.5026 73.5625 27.9922C73.1562 28.4818 72.9531 29.1589 72.9531 30.0234C72.9531 30.8932 73.1562 31.5651 73.5625 32.0391C73.9688 32.5078 74.5339 32.7422 75.2578 32.7422ZM80.4062 33.3594L81.1953 32.0781C81.5078 32.2969 81.8385 32.474 82.1875 32.6094C82.5417 32.7396 82.9245 32.8047 83.3359 32.8047C83.7839 32.8047 84.1302 32.724 84.375 32.5625C84.625 32.3958 84.75 32.1484 84.75 31.8203C84.75 31.5599 84.6458 31.3438 84.4375 31.1719C84.2344 30.9948 83.8854 30.849 83.3906 30.7344C82.3906 30.5 81.6875 30.1901 81.2812 29.8047C80.8802 29.4193 80.6797 28.9115 80.6797 28.2812C80.6797 27.5573 80.9609 26.9661 81.5234 26.5078C82.0859 26.0443 82.8229 25.8125 83.7344 25.8125C84.1875 25.8125 84.6198 25.8724 85.0312 25.9922C85.4427 26.1068 85.8438 26.2917 86.2344 26.5469L85.5 27.7969C85.1562 27.5781 84.8411 27.4219 84.5547 27.3281C84.2682 27.2344 83.974 27.1875 83.6719 27.1875C83.2448 27.1875 82.9115 27.2682 82.6719 27.4297C82.4375 27.5859 82.3203 27.8047 82.3203 28.0859C82.3203 28.3828 82.4401 28.6042 82.6797 28.75C82.9245 28.8906 83.3333 29.0286 83.9062 29.1641C84.7708 29.3724 85.4036 29.6745 85.8047 30.0703C86.2057 30.4609 86.4062 30.9844 86.4062 31.6406C86.4062 32.4167 86.1224 33.0365 85.5547 33.5C84.9922 33.9583 84.2292 34.1875 83.2656 34.1875C82.7448 34.1875 82.2448 34.1198 81.7656 33.9844C81.2917 33.8438 80.8385 33.6354 80.4062 33.3594ZM91.6406 34.1875C90.3906 34.1875 89.3984 33.8151 88.6641 33.0703C87.9349 32.3203 87.5703 31.3177 87.5703 30.0625C87.5755 28.7344 87.9557 27.6953 88.7109 26.9453C89.4661 26.1901 90.4948 25.8125 91.7969 25.8125C93.0521 25.8073 94.0312 26.1771 94.7344 26.9219C95.4427 27.6615 95.7969 28.6641 95.7969 29.9297C95.7969 31.2318 95.4219 32.2682 94.6719 33.0391C93.9271 33.8047 92.9167 34.1875 91.6406 34.1875ZM91.7266 32.7422C92.4505 32.7422 93 32.5052 93.375 32.0312C93.7552 31.5573 93.9453 30.8724 93.9453 29.9766C93.9453 29.0911 93.7552 28.4167 93.375 27.9531C92.9948 27.4896 92.4427 27.2578 91.7188 27.2578C91.0052 27.2578 90.4427 27.5026 90.0312 27.9922C89.625 28.4818 89.4219 29.1589 89.4219 30.0234C89.4219 30.8932 89.625 31.5651 90.0312 32.0391C90.4375 32.5078 91.0026 32.7422 91.7266 32.7422ZM101.977 23.5859C101.831 23.5286 101.698 23.4896 101.578 23.4688C101.458 23.4427 101.328 23.4297 101.188 23.4297C100.802 23.4297 100.51 23.5417 100.312 23.7656C100.12 23.9844 100.023 24.3021 100.023 24.7188V26H101.875V27.4219H100.023V34H98.2109V27.4219H96.8516V26H98.2109V24.625C98.2109 23.8125 98.4714 23.1693 98.9922 22.6953C99.5182 22.2161 100.214 21.9766 101.078 21.9766C101.349 21.9766 101.583 21.9948 101.781 22.0312C101.979 22.0677 102.185 22.1198 102.398 22.1875L101.977 23.5859ZM107.523 33.8906C107.289 33.9896 107.044 34.0625 106.789 34.1094C106.534 34.1562 106.26 34.1797 105.969 34.1797C105.229 34.1797 104.659 33.9844 104.258 33.5938C103.862 33.1979 103.664 32.6094 103.664 31.8281V27.4219H102.32V26H103.664V24.0547L105.477 23.5078V26H107.391V27.4219H105.477V31.6797C105.477 32.0703 105.547 32.3516 105.688 32.5234C105.833 32.6953 106.057 32.7812 106.359 32.7812C106.505 32.7812 106.643 32.7656 106.773 32.7344C106.909 32.6979 107.029 32.6536 107.133 32.6016L107.523 33.8906ZM112.609 33.1953L113.438 31.7656C113.943 32.0781 114.414 32.2995 114.852 32.4297C115.289 32.5547 115.779 32.6172 116.32 32.6172C116.966 32.6172 117.474 32.4792 117.844 32.2031C118.219 31.9219 118.406 31.5208 118.406 31C118.406 30.526 118.25 30.1536 117.938 29.8828C117.63 29.6068 117.107 29.3542 116.367 29.125C115.227 28.7865 114.388 28.3672 113.852 27.8672C113.315 27.3672 113.047 26.6901 113.047 25.8359C113.047 24.9089 113.393 24.1406 114.086 23.5312C114.779 22.9167 115.719 22.6094 116.906 22.6094C117.427 22.6094 117.94 22.6667 118.445 22.7812C118.951 22.8958 119.451 23.0729 119.945 23.3125L119.25 24.7969C118.818 24.5729 118.404 24.4141 118.008 24.3203C117.617 24.2266 117.219 24.1797 116.812 24.1797C116.219 24.1797 115.75 24.3099 115.406 24.5703C115.068 24.8307 114.898 25.1979 114.898 25.6719C114.898 26.0938 115.055 26.4271 115.367 26.6719C115.68 26.9115 116.216 27.1484 116.977 27.3828C118.143 27.7318 118.982 28.1667 119.492 28.6875C120.008 29.2083 120.266 29.9245 120.266 30.8359C120.266 31.8151 119.917 32.6198 119.219 33.25C118.521 33.875 117.526 34.1875 116.234 34.1875C115.589 34.1875 114.958 34.1068 114.344 33.9453C113.729 33.7786 113.151 33.5286 112.609 33.1953ZM125.914 33.8906C125.68 33.9896 125.435 34.0625 125.18 34.1094C124.924 34.1562 124.651 34.1797 124.359 34.1797C123.62 34.1797 123.049 33.9844 122.648 33.5938C122.253 33.1979 122.055 32.6094 122.055 31.8281V27.4219H120.711V26H122.055V24.0547L123.867 23.5078V26H125.781V27.4219H123.867V31.6797C123.867 32.0703 123.938 32.3516 124.078 32.5234C124.224 32.6953 124.448 32.7812 124.75 32.7812C124.896 32.7812 125.034 32.7656 125.164 32.7344C125.299 32.6979 125.419 32.6536 125.523 32.6016L125.914 33.8906ZM130.891 34.1875C129.641 34.1875 128.648 33.8151 127.914 33.0703C127.185 32.3203 126.82 31.3177 126.82 30.0625C126.826 28.7344 127.206 27.6953 127.961 26.9453C128.716 26.1901 129.745 25.8125 131.047 25.8125C132.302 25.8073 133.281 26.1771 133.984 26.9219C134.693 27.6615 135.047 28.6641 135.047 29.9297C135.047 31.2318 134.672 32.2682 133.922 33.0391C133.177 33.8047 132.167 34.1875 130.891 34.1875ZM130.977 32.7422C131.701 32.7422 132.25 32.5052 132.625 32.0312C133.005 31.5573 133.195 30.8724 133.195 29.9766C133.195 29.0911 133.005 28.4167 132.625 27.9531C132.245 27.4896 131.693 27.2578 130.969 27.2578C130.255 27.2578 129.693 27.5026 129.281 27.9922C128.875 28.4818 128.672 29.1589 128.672 30.0234C128.672 30.8932 128.875 31.5651 129.281 32.0391C129.688 32.5078 130.253 32.7422 130.977 32.7422ZM141.352 27.5234C141.253 27.4974 141.156 27.4792 141.062 27.4688C140.974 27.4531 140.87 27.4453 140.75 27.4453C140.099 27.4453 139.599 27.6849 139.25 28.1641C138.901 28.6432 138.727 29.2682 138.727 30.0391V34H136.906V26H138.727V27.5391H138.758C138.945 26.987 139.221 26.5703 139.586 26.2891C139.951 26.0026 140.38 25.8594 140.875 25.8594C141.016 25.8594 141.141 25.8672 141.25 25.8828C141.365 25.8984 141.474 25.9219 141.578 25.9531L141.352 27.5234ZM149.594 30.4766H144.133C144.164 31.2318 144.383 31.8073 144.789 32.2031C145.195 32.5938 145.763 32.7891 146.492 32.7891C146.789 32.7891 147.128 32.7292 147.508 32.6094C147.888 32.4896 148.263 32.2969 148.633 32.0312L149.453 33.1641C148.958 33.5234 148.456 33.7839 147.945 33.9453C147.435 34.1068 146.872 34.1875 146.258 34.1875C145.013 34.1875 144.044 33.8307 143.352 33.1172C142.659 32.3984 142.31 31.3958 142.305 30.1094C142.305 28.8281 142.661 27.7917 143.375 27C144.094 26.2083 145.013 25.8125 146.133 25.8125C147.206 25.8125 148.049 26.151 148.664 26.8281C149.284 27.5 149.594 28.4531 149.594 29.6875V30.4766ZM147.836 29.2188C147.836 28.5312 147.685 28.0156 147.383 27.6719C147.086 27.3229 146.664 27.1484 146.117 27.1484C145.602 27.1484 145.161 27.3359 144.797 27.7109C144.438 28.0807 144.216 28.5833 144.133 29.2188H147.836Z" fill="white"/>
<defs>
<filter id="filter0_dd_1049_9463" x="13.7812" y="10.0833" width="14.4375" height="6.875" filterUnits="userSpaceOnUse" color-interpolation-filters="sRGB">
<feFlood flood-opacity="0" result="BackgroundImageFix"/>
<feColorMatrix in="SourceAlpha" type="matrix" values="0 0 0 0 0 0 0 0 0 0 0 0 0 0 0 0 0 0 127 0" result="hardAlpha"/>
<feOffset dy="0.229167"/>
<feGaussianBlur stdDeviation="0.229167"/>
<feColorMatrix type="matrix" values="0 0 0 0 0 0 0 0 0 0 0 0 0 0 0 0 0 0 0.1 0"/>
<feBlend mode="normal" in2="BackgroundImageFix" result="effect1_dropShadow_1049_9463"/>
<feColorMatrix in="SourceAlpha" type="matrix" values="0 0 0 0 0 0 0 0 0 0 0 0 0 0 0 0 0 0 127 0" result="hardAlpha"/>
<feOffset dy="0.458333"/>
<feGaussianBlur stdDeviation="0.6875"/>
<feColorMatrix type="matrix" values="0 0 0 0 0 0 0 0 0 0 0 0 0 0 0 0 0 0 0.2 0"/>
<feBlend mode="normal" in2="effect1_dropShadow_1049_9463" result="effect2_dropShadow_1049_9463"/>
<feBlend mode="normal" in="SourceGraphic" in2="effect2_dropShadow_1049_9463" result="shape"/>
</filter>
<filter id="filter1_dd_1049_9463" x="15.1562" y="17.6458" width="11.6875" height="11.6875" filterUnits="userSpaceOnUse" color-interpolation-filters="sRGB">
<feFlood flood-opacity="0" result="BackgroundImageFix"/>
<feColorMatrix in="SourceAlpha" type="matrix" values="0 0 0 0 0 0 0 0 0 0 0 0 0 0 0 0 0 0 127 0" result="hardAlpha"/>
<feOffset dy="0.229167"/>
<feGaussianBlur stdDeviation="0.229167"/>
<feColorMatrix type="matrix" values="0 0 0 0 1 0 0 0 0 1 0 0 0 0 1 0 0 0 0.6 0"/>
<feBlend mode="normal" in2="BackgroundImageFix" result="effect1_dropShadow_1049_9463"/>
<feColorMatrix in="SourceAlpha" type="matrix" values="0 0 0 0 0 0 0 0 0 0 0 0 0 0 0 0 0 0 127 0" result="hardAlpha"/>
<feOffset dy="0.458333"/>
<feGaussianBlur stdDeviation="0.6875"/>
<feColorMatrix type="matrix" values="0 0 0 0 1 0 0 0 0 1 0 0 0 0 1 0 0 0 0.6 0"/>
<feBlend mode="normal" in2="effect1_dropShadow_1049_9463" result="effect2_dropShadow_1049_9463"/>
<feBlend mode="normal" in="SourceGraphic" in2="effect2_dropShadow_1049_9463" result="shape"/>
</filter>
<filter id="filter2_dd_1049_9463" x="13.1704" y="9.39583" width="15.6594" height="6.18774" filterUnits="userSpaceOnUse" color-interpolation-filters="sRGB">
<feFlood flood-opacity="0" result="BackgroundImageFix"/>
<feColorMatrix in="SourceAlpha" type="matrix" values="0 0 0 0 0 0 0 0 0 0 0 0 0 0 0 0 0 0 127 0" result="hardAlpha"/>
<feOffset dy="-0.916667"/>
<feGaussianBlur stdDeviation="0.229167"/>
<feColorMatrix type="matrix" values="0 0 0 0 0 0 0 0 0 0 0 0 0 0 0 0 0 0 0.1 0"/>
<feBlend mode="normal" in2="BackgroundImageFix" result="effect1_dropShadow_1049_9463"/>
<feColorMatrix in="SourceAlpha" type="matrix" values="0 0 0 0 0 0 0 0 0 0 0 0 0 0 0 0 0 0 127 0" result="hardAlpha"/>
<feOffset dy="-0.916667"/>
<feGaussianBlur stdDeviation="0.6875"/>
<feColorMatrix type="matrix" values="0 0 0 0 0 0 0 0 0 0 0 0 0 0 0 0 0 0 0.2 0"/>
<feBlend mode="normal" in2="effect1_dropShadow_1049_9463" result="effect2_dropShadow_1049_9463"/>
<feBlend mode="normal" in="SourceGraphic" in2="effect2_dropShadow_1049_9463" result="shape"/>
</filter>
<linearGradient id="paint0_linear_1049_9463" x1="15.1875" y1="11.0078" x2="19.6603" y2="31.5495" gradientUnits="userSpaceOnUse">
<stop offset="0.270833" stop-color="white"/>
<stop offset="1" stop-color="#DFDFDF"/>
</linearGradient>
<linearGradient id="paint1_linear_1049_9463" x1="21" y1="13.75" x2="25.0962" y2="32.9541" gradientUnits="userSpaceOnUse">
<stop stop-color="#0078D4"/>
<stop offset="1" stop-color="#114A8B"/>
</linearGradient>
<linearGradient id="paint2_linear_1049_9463" x1="21" y1="11.6875" x2="21.1934" y2="14.6494" gradientUnits="userSpaceOnUse">
<stop stop-color="#28AFEA"/>
<stop offset="1" stop-color="#0078D4"/>
</linearGradient>
<linearGradient id="paint3_linear_1049_9463" x1="21" y1="11.6875" x2="21.1934" y2="14.6494" gradientUnits="userSpaceOnUse">
<stop stop-color="#30DAFF"/>
<stop offset="1" stop-color="#0094D4"/>
</linearGradient>
<linearGradient id="paint4_linear_1049_9463" x1="20.5035" y1="11" x2="20.5035" y2="12.375" gradientUnits="userSpaceOnUse">
<stop stop-color="#22BCFF"/>
<stop offset="1" stop-color="#0088F0"/>
</linearGradient>
<linearGradient id="paint5_linear_1049_9463" x1="20.5035" y1="11" x2="20.5035" y2="12.375" gradientUnits="userSpaceOnUse">
<stop stop-color="#28AFEA"/>
<stop offset="1" stop-color="#3CCBF4"/>
</linearGradient>
<clipPath id="clip0_1049_9463">
<rect width="22" height="22" fill="white" transform="translate(10 11)"/>
</clipPath>
<clipPath id="clip1_1049_9463">
<rect width="22" height="22" fill="white" transform="translate(10 11)"/>
</clipPath>
</defs>
</svg>
