<svg width="161" height="44" viewBox="0 0 161 44" fill="none" xmlns="http://www.w3.org/2000/svg">
<rect x="1" y="1" width="159" height="42" rx="4" fill="#202020"/>
<rect x="0.5" y="0.5" width="160" height="43" rx="4.5" stroke="white" stroke-opacity="0.1"/>
<g clip-path="url(#clip0_1049_9449)">
<g clip-path="url(#clip1_1049_9449)">
<path d="M10.3438 14.6667C10.3438 14.1604 10.7542 13.75 11.2604 13.75H30.7396C31.2458 13.75 31.6562 14.1604 31.6562 14.6667V28.5313C31.6562 30.6196 29.9633 32.3125 27.875 32.3125H14.125C12.0367 32.3125 10.3438 30.6196 10.3438 28.5313V14.6667Z" fill="url(#paint0_linear_1049_9449)"/>
<mask id="mask0_1049_9449" style="mask-type:alpha" maskUnits="userSpaceOnUse" x="10" y="13" width="22" height="20">
<path d="M10.3438 14.6667C10.3438 14.1604 10.7542 13.75 11.2604 13.75H30.7396C31.2458 13.75 31.6562 14.1604 31.6562 14.6667V28.5313C31.6562 30.6196 29.9633 32.3125 27.875 32.3125H14.125C12.0367 32.3125 10.3438 30.6196 10.3438 28.5313V14.6667Z" fill="url(#paint1_linear_1049_9449)"/>
</mask>
<g mask="url(#mask0_1049_9449)">
<g filter="url(#filter0_dd_1049_9449)">
<path d="M15.8438 14.4375V11.6875H26.1562V14.4375" stroke="url(#paint2_linear_1049_9449)" stroke-width="1.375" stroke-linecap="round"/>
</g>
</g>
<g filter="url(#filter1_dd_1049_9449)">
<path d="M20.6565 18.5625H16.5315V22.6875H20.6565V18.5625Z" fill="#F25022"/>
<path d="M25.4688 18.5625H21.3438V22.6875H25.4688V18.5625Z" fill="#7FBA00"/>
<path d="M25.4688 23.375H21.3438V27.5H25.4688V23.375Z" fill="#FFB900"/>
<path d="M20.6562 23.375H16.5312V27.5H20.6562V23.375Z" fill="#00A4EF"/>
</g>
<path d="M15.8438 14.4375V12.375C15.8438 11.9953 16.1516 11.6875 16.5313 11.6875H25.4688C25.8484 11.6875 26.1562 11.9953 26.1562 12.375V14.4375" stroke="url(#paint3_linear_1049_9449)" stroke-width="1.375" stroke-linecap="round"/>
<rect x="16.5312" y="11" width="8.9375" height="1.375" fill="url(#paint4_linear_1049_9449)"/>
<mask id="mask1_1049_9449" style="mask-type:alpha" maskUnits="userSpaceOnUse" x="16" y="11" width="10" height="2">
<rect x="16.5312" y="11" width="8.9375" height="1.375" fill="url(#paint5_linear_1049_9449)"/>
</mask>
<g mask="url(#mask1_1049_9449)">
<g filter="url(#filter2_dd_1049_9449)">
<rect x="14.5454" y="11.6877" width="1.98611" height="3.4375" fill="#C4C4C4"/>
</g>
</g>
</g>
</g>
<path d="M43.0488 10.7402H41.0273V17H40.207V10.7402H38.1904V9.99805H43.0488V10.7402ZM44.2988 17V12H45.0996V17H44.2988ZM45.915 11.0527H43.4834V10.4668H45.915V11.0527ZM50.8711 17H49.748L47.541 14.5977H47.5215V17H46.7207V9.59766H47.5215V14.29H47.541L49.6406 12H50.6904L48.3711 14.4121L50.8711 17ZM52.1016 10.8037C51.9388 10.8037 51.8021 10.75 51.6914 10.6426C51.5807 10.5319 51.5254 10.3968 51.5254 10.2373C51.5254 10.0778 51.5807 9.94434 51.6914 9.83691C51.8021 9.72624 51.9388 9.6709 52.1016 9.6709C52.2643 9.6709 52.401 9.72624 52.5117 9.83691C52.6224 9.94434 52.6777 10.0778 52.6777 10.2373C52.6777 10.3968 52.6224 10.5319 52.5117 10.6426C52.401 10.75 52.2643 10.8037 52.1016 10.8037ZM52.4922 17H51.6914V12H52.4922V17ZM58.2637 17H57.4629V14.1484C57.4629 13.6178 57.3652 13.2207 57.1699 12.957C56.9779 12.6901 56.6882 12.5566 56.3008 12.5566C55.9004 12.5566 55.5684 12.708 55.3047 13.0107C55.0443 13.3102 54.9141 13.6895 54.9141 14.1484V17H54.1133V12H54.9141V12.8301H54.9336C55.1224 12.5143 55.3535 12.2783 55.627 12.1221C55.9004 11.9626 56.2161 11.8828 56.5742 11.8828C57.1211 11.8828 57.5394 12.0602 57.8291 12.415C58.1188 12.7666 58.2637 13.276 58.2637 13.9434V17ZM63.3174 17H62.5166V16.2188H62.4971C62.3245 16.5182 62.1113 16.7428 61.8574 16.8926C61.6068 17.0423 61.3138 17.1172 60.9785 17.1172C60.5098 17.1172 60.1305 16.9805 59.8408 16.707C59.5511 16.4336 59.4062 16.0706 59.4062 15.6182C59.4062 15.1917 59.5527 14.8385 59.8457 14.5586C60.1387 14.2786 60.5537 14.0996 61.0908 14.0215L62.5166 13.8311V13.7188C62.5166 13.2988 62.4189 13.001 62.2236 12.8252C62.0283 12.6462 61.7679 12.5566 61.4424 12.5566C61.182 12.5566 60.9313 12.6055 60.6904 12.7031C60.4495 12.8008 60.2233 12.9505 60.0117 13.1523L59.543 12.6689C59.8229 12.3988 60.1208 12.2002 60.4365 12.0732C60.7523 11.9463 61.1038 11.8828 61.4912 11.8828C62.0967 11.8828 62.5524 12.0391 62.8584 12.3516C63.1644 12.6608 63.3174 13.1263 63.3174 13.748V17ZM62.5166 14.9688V14.4707L61.3105 14.6367C60.9427 14.6888 60.666 14.7816 60.4805 14.915C60.2949 15.0485 60.2021 15.2585 60.2021 15.5449C60.2021 15.8444 60.2884 16.0739 60.4609 16.2334C60.6367 16.3896 60.8499 16.4678 61.1006 16.4678C61.5335 16.4678 61.877 16.3262 62.1309 16.043C62.388 15.7598 62.5166 15.4017 62.5166 14.9688ZM71.1494 17H70.3486V16.2188H70.3291C70.1566 16.5182 69.9434 16.7428 69.6895 16.8926C69.4388 17.0423 69.1458 17.1172 68.8105 17.1172C68.3418 17.1172 67.9626 16.9805 67.6729 16.707C67.3831 16.4336 67.2383 16.0706 67.2383 15.6182C67.2383 15.1917 67.3848 14.8385 67.6777 14.5586C67.9707 14.2786 68.3857 14.0996 68.9229 14.0215L70.3486 13.8311V13.7188C70.3486 13.2988 70.251 13.001 70.0557 12.8252C69.8604 12.6462 69.5999 12.5566 69.2744 12.5566C69.014 12.5566 68.7633 12.6055 68.5225 12.7031C68.2816 12.8008 68.0553 12.9505 67.8438 13.1523L67.375 12.6689C67.6549 12.3988 67.9528 12.2002 68.2686 12.0732C68.5843 11.9463 68.9359 11.8828 69.3232 11.8828C69.9287 11.8828 70.3844 12.0391 70.6904 12.3516C70.9964 12.6608 71.1494 13.1263 71.1494 13.748V17ZM70.3486 14.9688V14.4707L69.1426 14.6367C68.7747 14.6888 68.498 14.7816 68.3125 14.915C68.127 15.0485 68.0342 15.2585 68.0342 15.5449C68.0342 15.8444 68.1204 16.0739 68.293 16.2334C68.4688 16.3896 68.682 16.4678 68.9326 16.4678C69.3656 16.4678 69.709 16.3262 69.9629 16.043C70.2201 15.7598 70.3486 15.4017 70.3486 14.9688ZM76.8477 17H75.7246L73.5176 14.5977H73.498V17H72.6973V9.59766H73.498V14.29H73.5176L75.6172 12H76.667L74.3477 14.4121L76.8477 17ZM81.6865 14.6807H78.1514C78.1644 15.2438 78.3125 15.6784 78.5957 15.9844C78.8822 16.2871 79.2826 16.4385 79.7969 16.4385C80.0215 16.4385 80.2461 16.4059 80.4707 16.3408C80.6986 16.2725 80.9232 16.165 81.1445 16.0186L81.5156 16.5898C81.2324 16.7721 80.9492 16.9056 80.666 16.9902C80.3828 17.0749 80.0719 17.1172 79.7334 17.1172C78.9782 17.1172 78.389 16.8926 77.9658 16.4434C77.5426 15.9941 77.3294 15.3675 77.3262 14.5635C77.3229 13.7594 77.5345 13.1117 77.9609 12.6201C78.3906 12.1286 78.9473 11.8828 79.6309 11.8828C80.2819 11.8828 80.7865 12.096 81.1445 12.5225C81.5059 12.9456 81.6865 13.5332 81.6865 14.2852V14.6807ZM80.8662 14.0264C80.863 13.5641 80.7507 13.2044 80.5293 12.9473C80.3079 12.6868 80.0036 12.5566 79.6162 12.5566C79.2354 12.5566 78.9115 12.6901 78.6445 12.957C78.3809 13.2207 78.2197 13.5771 78.1611 14.0264H80.8662ZM92.7461 17H91.9453V14.1289C91.9453 13.5755 91.859 13.1751 91.6865 12.9277C91.5173 12.6803 91.2308 12.5566 90.8271 12.5566C90.4854 12.5566 90.194 12.7129 89.9531 13.0254C89.7155 13.3379 89.5967 13.7122 89.5967 14.1484V17H88.7959V14.0312C88.7959 13.5397 88.7015 13.1719 88.5127 12.9277C88.3239 12.6803 88.0391 12.5566 87.6582 12.5566C87.3066 12.5566 87.0169 12.7048 86.7891 13.001C86.5612 13.2939 86.4473 13.6764 86.4473 14.1484V17H85.6465V12H86.4473V12.791H86.4668C86.6458 12.4883 86.8639 12.262 87.1211 12.1123C87.3815 11.9593 87.681 11.8828 88.0195 11.8828C88.3613 11.8828 88.6592 11.9788 88.9131 12.1709C89.167 12.3597 89.3411 12.6087 89.4355 12.918C89.6211 12.5729 89.8522 12.3141 90.1289 12.1416C90.4056 11.9691 90.7279 11.8828 91.0957 11.8828C91.6458 11.8828 92.0576 12.0521 92.3311 12.3906C92.6077 12.7292 92.7461 13.2386 92.7461 13.9189V17ZM97.7998 17H96.999V16.2188H96.9795C96.807 16.5182 96.5938 16.7428 96.3398 16.8926C96.0892 17.0423 95.7962 17.1172 95.4609 17.1172C94.9922 17.1172 94.613 16.9805 94.3232 16.707C94.0335 16.4336 93.8887 16.0706 93.8887 15.6182C93.8887 15.1917 94.0352 14.8385 94.3281 14.5586C94.6211 14.2786 95.0361 14.0996 95.5732 14.0215L96.999 13.8311V13.7188C96.999 13.2988 96.9014 13.001 96.7061 12.8252C96.5107 12.6462 96.2503 12.5566 95.9248 12.5566C95.6644 12.5566 95.4137 12.6055 95.1729 12.7031C94.932 12.8008 94.7057 12.9505 94.4941 13.1523L94.0254 12.6689C94.3053 12.3988 94.6032 12.2002 94.9189 12.0732C95.2347 11.9463 95.5863 11.8828 95.9736 11.8828C96.5791 11.8828 97.0348 12.0391 97.3408 12.3516C97.6468 12.6608 97.7998 13.1263 97.7998 13.748V17ZM96.999 14.9688V14.4707L95.793 14.6367C95.4251 14.6888 95.1484 14.7816 94.9629 14.915C94.7773 15.0485 94.6846 15.2585 94.6846 15.5449C94.6846 15.8444 94.7708 16.0739 94.9434 16.2334C95.1191 16.3896 95.3324 16.4678 95.583 16.4678C96.016 16.4678 96.3594 16.3262 96.6133 16.043C96.8704 15.7598 96.999 15.4017 96.999 14.9688ZM99.7578 10.8037C99.5951 10.8037 99.4583 10.75 99.3477 10.6426C99.237 10.5319 99.1816 10.3968 99.1816 10.2373C99.1816 10.0778 99.237 9.94434 99.3477 9.83691C99.4583 9.72624 99.5951 9.6709 99.7578 9.6709C99.9206 9.6709 100.057 9.72624 100.168 9.83691C100.279 9.94434 100.334 10.0778 100.334 10.2373C100.334 10.3968 100.279 10.5319 100.168 10.6426C100.057 10.75 99.9206 10.8037 99.7578 10.8037ZM100.148 17H99.3477V12H100.148V17ZM104.924 10.8037C104.761 10.8037 104.624 10.75 104.514 10.6426C104.403 10.5319 104.348 10.3968 104.348 10.2373C104.348 10.0778 104.403 9.94434 104.514 9.83691C104.624 9.72624 104.761 9.6709 104.924 9.6709C105.087 9.6709 105.223 9.72624 105.334 9.83691C105.445 9.94434 105.5 10.0778 105.5 10.2373C105.5 10.3968 105.445 10.5319 105.334 10.6426C105.223 10.75 105.087 10.8037 104.924 10.8037ZM105.314 17H104.514V12H105.314V17ZM112.062 16.9414C111.926 16.9967 111.791 17.0374 111.657 17.0635C111.527 17.0928 111.379 17.1074 111.213 17.1074C110.816 17.1074 110.503 16.9919 110.275 16.7607C110.051 16.5264 109.938 16.1813 109.938 15.7256V12.6836H109.079V12H109.938V10.7793L110.739 10.5205V12H111.999V12.6836H110.739V15.6328C110.739 15.9193 110.79 16.126 110.891 16.2529C110.995 16.3799 111.149 16.4434 111.354 16.4434C111.452 16.4434 111.547 16.432 111.638 16.4092C111.729 16.3864 111.805 16.3604 111.867 16.3311L112.062 16.9414ZM117.087 14.6807H113.552C113.565 15.2438 113.713 15.6784 113.996 15.9844C114.283 16.2871 114.683 16.4385 115.197 16.4385C115.422 16.4385 115.646 16.4059 115.871 16.3408C116.099 16.2725 116.324 16.165 116.545 16.0186L116.916 16.5898C116.633 16.7721 116.35 16.9056 116.066 16.9902C115.783 17.0749 115.472 17.1172 115.134 17.1172C114.379 17.1172 113.789 16.8926 113.366 16.4434C112.943 15.9941 112.73 15.3675 112.727 14.5635C112.723 13.7594 112.935 13.1117 113.361 12.6201C113.791 12.1286 114.348 11.8828 115.031 11.8828C115.682 11.8828 116.187 12.096 116.545 12.5225C116.906 12.9456 117.087 13.5332 117.087 14.2852V14.6807ZM116.267 14.0264C116.263 13.5641 116.151 13.2044 115.93 12.9473C115.708 12.6868 115.404 12.5566 115.017 12.5566C114.636 12.5566 114.312 12.6901 114.045 12.957C113.781 13.2207 113.62 13.5771 113.562 14.0264H116.267Z" fill="white"/>
<path d="M51.4219 34H49.5781V26.8516C49.5781 26.5286 49.5859 26.1771 49.6016 25.7969C49.6224 25.4115 49.6484 25.0026 49.6797 24.5703H49.6328C49.5703 24.8672 49.5104 25.1224 49.4531 25.3359C49.401 25.5443 49.349 25.7109 49.2969 25.8359L46.0078 34H44.7266L41.4219 25.9062C41.3802 25.7917 41.3281 25.6224 41.2656 25.3984C41.2083 25.1745 41.1458 24.8984 41.0781 24.5703H41.0312C41.0625 24.9453 41.0833 25.3438 41.0938 25.7656C41.1042 26.1823 41.1094 26.6224 41.1094 27.0859V34H39.3906V22.7969H42.0156L44.9297 30.0781C45.0443 30.3542 45.138 30.6094 45.2109 30.8438C45.2891 31.0729 45.349 31.2865 45.3906 31.4844H45.4375C45.5312 31.1875 45.6198 30.9193 45.7031 30.6797C45.7865 30.4401 45.8646 30.2318 45.9375 30.0547L48.8906 22.7969H51.4219V34ZM54.8984 24.4531C54.5651 24.4531 54.2891 24.3464 54.0703 24.1328C53.8516 23.9193 53.7422 23.6562 53.7422 23.3438C53.7422 23.0208 53.8516 22.7552 54.0703 22.5469C54.2891 22.3385 54.5651 22.2344 54.8984 22.2344C55.237 22.2344 55.5156 22.3385 55.7344 22.5469C55.9531 22.7552 56.0625 23.0208 56.0625 23.3438C56.0625 23.6615 55.9531 23.9271 55.7344 24.1406C55.5156 24.349 55.237 24.4531 54.8984 24.4531ZM55.7969 34H53.9766V26H55.7969V34ZM64.1562 33.5078C63.7604 33.7474 63.3672 33.9193 62.9766 34.0234C62.5859 34.1328 62.1615 34.1875 61.7031 34.1875C60.474 34.1875 59.4896 33.8281 58.75 33.1094C58.0156 32.3906 57.6484 31.4141 57.6484 30.1797C57.6484 28.8516 58.0286 27.7917 58.7891 27C59.5547 26.2083 60.5859 25.8125 61.8828 25.8125C62.3359 25.8125 62.7474 25.862 63.1172 25.9609C63.4922 26.0547 63.8724 26.2109 64.2578 26.4297L63.5469 27.6953C63.276 27.5443 63.0104 27.4349 62.75 27.3672C62.4896 27.2943 62.2057 27.2578 61.8984 27.2578C61.1328 27.2578 60.5417 27.5104 60.125 28.0156C59.7083 28.5208 59.5 29.1901 59.5 30.0234C59.5 30.8984 59.724 31.5703 60.1719 32.0391C60.625 32.5078 61.1927 32.7422 61.875 32.7422C62.0833 32.7422 62.3229 32.7057 62.5938 32.6328C62.8646 32.5547 63.138 32.4323 63.4141 32.2656L64.1562 33.5078ZM70.1484 27.5234C70.0495 27.4974 69.9531 27.4792 69.8594 27.4688C69.7708 27.4531 69.6667 27.4453 69.5469 27.4453C68.8958 27.4453 68.3958 27.6849 68.0469 28.1641C67.6979 28.6432 67.5234 29.2682 67.5234 30.0391V34H65.7031V26H67.5234V27.5391H67.5547C67.7422 26.987 68.0182 26.5703 68.3828 26.2891C68.7474 26.0026 69.1771 25.8594 69.6719 25.8594C69.8125 25.8594 69.9375 25.8672 70.0469 25.8828C70.1615 25.8984 70.2708 25.9219 70.375 25.9531L70.1484 27.5234ZM75.1719 34.1875C73.9219 34.1875 72.9297 33.8151 72.1953 33.0703C71.4661 32.3203 71.1016 31.3177 71.1016 30.0625C71.1068 28.7344 71.487 27.6953 72.2422 26.9453C72.9974 26.1901 74.026 25.8125 75.3281 25.8125C76.5833 25.8073 77.5625 26.1771 78.2656 26.9219C78.974 27.6615 79.3281 28.6641 79.3281 29.9297C79.3281 31.2318 78.9531 32.2682 78.2031 33.0391C77.4583 33.8047 76.4479 34.1875 75.1719 34.1875ZM75.2578 32.7422C75.9818 32.7422 76.5312 32.5052 76.9062 32.0312C77.2865 31.5573 77.4766 30.8724 77.4766 29.9766C77.4766 29.0911 77.2865 28.4167 76.9062 27.9531C76.526 27.4896 75.974 27.2578 75.25 27.2578C74.5365 27.2578 73.974 27.5026 73.5625 27.9922C73.1562 28.4818 72.9531 29.1589 72.9531 30.0234C72.9531 30.8932 73.1562 31.5651 73.5625 32.0391C73.9688 32.5078 74.5339 32.7422 75.2578 32.7422ZM80.4062 33.3594L81.1953 32.0781C81.5078 32.2969 81.8385 32.474 82.1875 32.6094C82.5417 32.7396 82.9245 32.8047 83.3359 32.8047C83.7839 32.8047 84.1302 32.724 84.375 32.5625C84.625 32.3958 84.75 32.1484 84.75 31.8203C84.75 31.5599 84.6458 31.3438 84.4375 31.1719C84.2344 30.9948 83.8854 30.849 83.3906 30.7344C82.3906 30.5 81.6875 30.1901 81.2812 29.8047C80.8802 29.4193 80.6797 28.9115 80.6797 28.2812C80.6797 27.5573 80.9609 26.9661 81.5234 26.5078C82.0859 26.0443 82.8229 25.8125 83.7344 25.8125C84.1875 25.8125 84.6198 25.8724 85.0312 25.9922C85.4427 26.1068 85.8438 26.2917 86.2344 26.5469L85.5 27.7969C85.1562 27.5781 84.8411 27.4219 84.5547 27.3281C84.2682 27.2344 83.974 27.1875 83.6719 27.1875C83.2448 27.1875 82.9115 27.2682 82.6719 27.4297C82.4375 27.5859 82.3203 27.8047 82.3203 28.0859C82.3203 28.3828 82.4401 28.6042 82.6797 28.75C82.9245 28.8906 83.3333 29.0286 83.9062 29.1641C84.7708 29.3724 85.4036 29.6745 85.8047 30.0703C86.2057 30.4609 86.4062 30.9844 86.4062 31.6406C86.4062 32.4167 86.1224 33.0365 85.5547 33.5C84.9922 33.9583 84.2292 34.1875 83.2656 34.1875C82.7448 34.1875 82.2448 34.1198 81.7656 33.9844C81.2917 33.8438 80.8385 33.6354 80.4062 33.3594ZM91.6406 34.1875C90.3906 34.1875 89.3984 33.8151 88.6641 33.0703C87.9349 32.3203 87.5703 31.3177 87.5703 30.0625C87.5755 28.7344 87.9557 27.6953 88.7109 26.9453C89.4661 26.1901 90.4948 25.8125 91.7969 25.8125C93.0521 25.8073 94.0312 26.1771 94.7344 26.9219C95.4427 27.6615 95.7969 28.6641 95.7969 29.9297C95.7969 31.2318 95.4219 32.2682 94.6719 33.0391C93.9271 33.8047 92.9167 34.1875 91.6406 34.1875ZM91.7266 32.7422C92.4505 32.7422 93 32.5052 93.375 32.0312C93.7552 31.5573 93.9453 30.8724 93.9453 29.9766C93.9453 29.0911 93.7552 28.4167 93.375 27.9531C92.9948 27.4896 92.4427 27.2578 91.7188 27.2578C91.0052 27.2578 90.4427 27.5026 90.0312 27.9922C89.625 28.4818 89.4219 29.1589 89.4219 30.0234C89.4219 30.8932 89.625 31.5651 90.0312 32.0391C90.4375 32.5078 91.0026 32.7422 91.7266 32.7422ZM101.977 23.5859C101.831 23.5286 101.698 23.4896 101.578 23.4688C101.458 23.4427 101.328 23.4297 101.188 23.4297C100.802 23.4297 100.51 23.5417 100.312 23.7656C100.12 23.9844 100.023 24.3021 100.023 24.7188V26H101.875V27.4219H100.023V34H98.2109V27.4219H96.8516V26H98.2109V24.625C98.2109 23.8125 98.4714 23.1693 98.9922 22.6953C99.5182 22.2161 100.214 21.9766 101.078 21.9766C101.349 21.9766 101.583 21.9948 101.781 22.0312C101.979 22.0677 102.185 22.1198 102.398 22.1875L101.977 23.5859ZM107.523 33.8906C107.289 33.9896 107.044 34.0625 106.789 34.1094C106.534 34.1562 106.26 34.1797 105.969 34.1797C105.229 34.1797 104.659 33.9844 104.258 33.5938C103.862 33.1979 103.664 32.6094 103.664 31.8281V27.4219H102.32V26H103.664V24.0547L105.477 23.5078V26H107.391V27.4219H105.477V31.6797C105.477 32.0703 105.547 32.3516 105.688 32.5234C105.833 32.6953 106.057 32.7812 106.359 32.7812C106.505 32.7812 106.643 32.7656 106.773 32.7344C106.909 32.6979 107.029 32.6536 107.133 32.6016L107.523 33.8906ZM112.609 33.1953L113.438 31.7656C113.943 32.0781 114.414 32.2995 114.852 32.4297C115.289 32.5547 115.779 32.6172 116.32 32.6172C116.966 32.6172 117.474 32.4792 117.844 32.2031C118.219 31.9219 118.406 31.5208 118.406 31C118.406 30.526 118.25 30.1536 117.938 29.8828C117.63 29.6068 117.107 29.3542 116.367 29.125C115.227 28.7865 114.388 28.3672 113.852 27.8672C113.315 27.3672 113.047 26.6901 113.047 25.8359C113.047 24.9089 113.393 24.1406 114.086 23.5312C114.779 22.9167 115.719 22.6094 116.906 22.6094C117.427 22.6094 117.94 22.6667 118.445 22.7812C118.951 22.8958 119.451 23.0729 119.945 23.3125L119.25 24.7969C118.818 24.5729 118.404 24.4141 118.008 24.3203C117.617 24.2266 117.219 24.1797 116.812 24.1797C116.219 24.1797 115.75 24.3099 115.406 24.5703C115.068 24.8307 114.898 25.1979 114.898 25.6719C114.898 26.0938 115.055 26.4271 115.367 26.6719C115.68 26.9115 116.216 27.1484 116.977 27.3828C118.143 27.7318 118.982 28.1667 119.492 28.6875C120.008 29.2083 120.266 29.9245 120.266 30.8359C120.266 31.8151 119.917 32.6198 119.219 33.25C118.521 33.875 117.526 34.1875 116.234 34.1875C115.589 34.1875 114.958 34.1068 114.344 33.9453C113.729 33.7786 113.151 33.5286 112.609 33.1953ZM125.914 33.8906C125.68 33.9896 125.435 34.0625 125.18 34.1094C124.924 34.1562 124.651 34.1797 124.359 34.1797C123.62 34.1797 123.049 33.9844 122.648 33.5938C122.253 33.1979 122.055 32.6094 122.055 31.8281V27.4219H120.711V26H122.055V24.0547L123.867 23.5078V26H125.781V27.4219H123.867V31.6797C123.867 32.0703 123.938 32.3516 124.078 32.5234C124.224 32.6953 124.448 32.7812 124.75 32.7812C124.896 32.7812 125.034 32.7656 125.164 32.7344C125.299 32.6979 125.419 32.6536 125.523 32.6016L125.914 33.8906ZM130.891 34.1875C129.641 34.1875 128.648 33.8151 127.914 33.0703C127.185 32.3203 126.82 31.3177 126.82 30.0625C126.826 28.7344 127.206 27.6953 127.961 26.9453C128.716 26.1901 129.745 25.8125 131.047 25.8125C132.302 25.8073 133.281 26.1771 133.984 26.9219C134.693 27.6615 135.047 28.6641 135.047 29.9297C135.047 31.2318 134.672 32.2682 133.922 33.0391C133.177 33.8047 132.167 34.1875 130.891 34.1875ZM130.977 32.7422C131.701 32.7422 132.25 32.5052 132.625 32.0312C133.005 31.5573 133.195 30.8724 133.195 29.9766C133.195 29.0911 133.005 28.4167 132.625 27.9531C132.245 27.4896 131.693 27.2578 130.969 27.2578C130.255 27.2578 129.693 27.5026 129.281 27.9922C128.875 28.4818 128.672 29.1589 128.672 30.0234C128.672 30.8932 128.875 31.5651 129.281 32.0391C129.688 32.5078 130.253 32.7422 130.977 32.7422ZM141.352 27.5234C141.253 27.4974 141.156 27.4792 141.062 27.4688C140.974 27.4531 140.87 27.4453 140.75 27.4453C140.099 27.4453 139.599 27.6849 139.25 28.1641C138.901 28.6432 138.727 29.2682 138.727 30.0391V34H136.906V26H138.727V27.5391H138.758C138.945 26.987 139.221 26.5703 139.586 26.2891C139.951 26.0026 140.38 25.8594 140.875 25.8594C141.016 25.8594 141.141 25.8672 141.25 25.8828C141.365 25.8984 141.474 25.9219 141.578 25.9531L141.352 27.5234ZM149.594 30.4766H144.133C144.164 31.2318 144.383 31.8073 144.789 32.2031C145.195 32.5938 145.763 32.7891 146.492 32.7891C146.789 32.7891 147.128 32.7292 147.508 32.6094C147.888 32.4896 148.263 32.2969 148.633 32.0312L149.453 33.1641C148.958 33.5234 148.456 33.7839 147.945 33.9453C147.435 34.1068 146.872 34.1875 146.258 34.1875C145.013 34.1875 144.044 33.8307 143.352 33.1172C142.659 32.3984 142.31 31.3958 142.305 30.1094C142.305 28.8281 142.661 27.7917 143.375 27C144.094 26.2083 145.013 25.8125 146.133 25.8125C147.206 25.8125 148.049 26.151 148.664 26.8281C149.284 27.5 149.594 28.4531 149.594 29.6875V30.4766ZM147.836 29.2188C147.836 28.5312 147.685 28.0156 147.383 27.6719C147.086 27.3229 146.664 27.1484 146.117 27.1484C145.602 27.1484 145.161 27.3359 144.797 27.7109C144.438 28.0807 144.216 28.5833 144.133 29.2188H147.836Z" fill="white"/>
<defs>
<filter id="filter0_dd_1049_9449" x="13.7812" y="10.0833" width="14.4375" height="6.875" filterUnits="userSpaceOnUse" color-interpolation-filters="sRGB">
<feFlood flood-opacity="0" result="BackgroundImageFix"/>
<feColorMatrix in="SourceAlpha" type="matrix" values="0 0 0 0 0 0 0 0 0 0 0 0 0 0 0 0 0 0 127 0" result="hardAlpha"/>
<feOffset dy="0.229167"/>
<feGaussianBlur stdDeviation="0.229167"/>
<feColorMatrix type="matrix" values="0 0 0 0 0 0 0 0 0 0 0 0 0 0 0 0 0 0 0.1 0"/>
<feBlend mode="normal" in2="BackgroundImageFix" result="effect1_dropShadow_1049_9449"/>
<feColorMatrix in="SourceAlpha" type="matrix" values="0 0 0 0 0 0 0 0 0 0 0 0 0 0 0 0 0 0 127 0" result="hardAlpha"/>
<feOffset dy="0.458333"/>
<feGaussianBlur stdDeviation="0.6875"/>
<feColorMatrix type="matrix" values="0 0 0 0 0 0 0 0 0 0 0 0 0 0 0 0 0 0 0.2 0"/>
<feBlend mode="normal" in2="effect1_dropShadow_1049_9449" result="effect2_dropShadow_1049_9449"/>
<feBlend mode="normal" in="SourceGraphic" in2="effect2_dropShadow_1049_9449" result="shape"/>
</filter>
<filter id="filter1_dd_1049_9449" x="15.1562" y="17.6458" width="11.6875" height="11.6875" filterUnits="userSpaceOnUse" color-interpolation-filters="sRGB">
<feFlood flood-opacity="0" result="BackgroundImageFix"/>
<feColorMatrix in="SourceAlpha" type="matrix" values="0 0 0 0 0 0 0 0 0 0 0 0 0 0 0 0 0 0 127 0" result="hardAlpha"/>
<feOffset dy="0.229167"/>
<feGaussianBlur stdDeviation="0.229167"/>
<feColorMatrix type="matrix" values="0 0 0 0 1 0 0 0 0 1 0 0 0 0 1 0 0 0 0.6 0"/>
<feBlend mode="normal" in2="BackgroundImageFix" result="effect1_dropShadow_1049_9449"/>
<feColorMatrix in="SourceAlpha" type="matrix" values="0 0 0 0 0 0 0 0 0 0 0 0 0 0 0 0 0 0 127 0" result="hardAlpha"/>
<feOffset dy="0.458333"/>
<feGaussianBlur stdDeviation="0.6875"/>
<feColorMatrix type="matrix" values="0 0 0 0 1 0 0 0 0 1 0 0 0 0 1 0 0 0 0.6 0"/>
<feBlend mode="normal" in2="effect1_dropShadow_1049_9449" result="effect2_dropShadow_1049_9449"/>
<feBlend mode="normal" in="SourceGraphic" in2="effect2_dropShadow_1049_9449" result="shape"/>
</filter>
<filter id="filter2_dd_1049_9449" x="13.1704" y="9.39583" width="15.6594" height="6.18774" filterUnits="userSpaceOnUse" color-interpolation-filters="sRGB">
<feFlood flood-opacity="0" result="BackgroundImageFix"/>
<feColorMatrix in="SourceAlpha" type="matrix" values="0 0 0 0 0 0 0 0 0 0 0 0 0 0 0 0 0 0 127 0" result="hardAlpha"/>
<feOffset dy="-0.916667"/>
<feGaussianBlur stdDeviation="0.229167"/>
<feColorMatrix type="matrix" values="0 0 0 0 0 0 0 0 0 0 0 0 0 0 0 0 0 0 0.1 0"/>
<feBlend mode="normal" in2="BackgroundImageFix" result="effect1_dropShadow_1049_9449"/>
<feColorMatrix in="SourceAlpha" type="matrix" values="0 0 0 0 0 0 0 0 0 0 0 0 0 0 0 0 0 0 127 0" result="hardAlpha"/>
<feOffset dy="-0.916667"/>
<feGaussianBlur stdDeviation="0.6875"/>
<feColorMatrix type="matrix" values="0 0 0 0 0 0 0 0 0 0 0 0 0 0 0 0 0 0 0.2 0"/>
<feBlend mode="normal" in2="effect1_dropShadow_1049_9449" result="effect2_dropShadow_1049_9449"/>
<feBlend mode="normal" in="SourceGraphic" in2="effect2_dropShadow_1049_9449" result="shape"/>
</filter>
<linearGradient id="paint0_linear_1049_9449" x1="15.1875" y1="11.0078" x2="19.6603" y2="31.5495" gradientUnits="userSpaceOnUse">
<stop offset="0.270833" stop-color="white"/>
<stop offset="1" stop-color="#DFDFDF"/>
</linearGradient>
<linearGradient id="paint1_linear_1049_9449" x1="21" y1="13.75" x2="25.0962" y2="32.9541" gradientUnits="userSpaceOnUse">
<stop stop-color="#0078D4"/>
<stop offset="1" stop-color="#114A8B"/>
</linearGradient>
<linearGradient id="paint2_linear_1049_9449" x1="21" y1="11.6875" x2="21.1934" y2="14.6494" gradientUnits="userSpaceOnUse">
<stop stop-color="#28AFEA"/>
<stop offset="1" stop-color="#0078D4"/>
</linearGradient>
<linearGradient id="paint3_linear_1049_9449" x1="21" y1="11.6875" x2="21.1934" y2="14.6494" gradientUnits="userSpaceOnUse">
<stop stop-color="#30DAFF"/>
<stop offset="1" stop-color="#0094D4"/>
</linearGradient>
<linearGradient id="paint4_linear_1049_9449" x1="20.5035" y1="11" x2="20.5035" y2="12.375" gradientUnits="userSpaceOnUse">
<stop stop-color="#22BCFF"/>
<stop offset="1" stop-color="#0088F0"/>
</linearGradient>
<linearGradient id="paint5_linear_1049_9449" x1="20.5035" y1="11" x2="20.5035" y2="12.375" gradientUnits="userSpaceOnUse">
<stop stop-color="#28AFEA"/>
<stop offset="1" stop-color="#3CCBF4"/>
</linearGradient>
<clipPath id="clip0_1049_9449">
<rect width="22" height="22" fill="white" transform="translate(10 11)"/>
</clipPath>
<clipPath id="clip1_1049_9449">
<rect width="22" height="22" fill="white" transform="translate(10 11)"/>
</clipPath>
</defs>
</svg>
