<svg width="161" height="44" viewBox="0 0 161 44" fill="none" xmlns="http://www.w3.org/2000/svg">
<rect x="1" y="1" width="159" height="42" rx="4" fill="#202020"/>
<rect x="0.5" y="0.5" width="160" height="43" rx="4.5" stroke="white" stroke-opacity="0.1"/>
<g clip-path="url(#clip0_1049_9473)">
<g clip-path="url(#clip1_1049_9473)">
<path d="M10.3438 14.6667C10.3438 14.1604 10.7542 13.75 11.2604 13.75H30.7396C31.2458 13.75 31.6562 14.1604 31.6562 14.6667V28.5313C31.6562 30.6196 29.9633 32.3125 27.875 32.3125H14.125C12.0367 32.3125 10.3438 30.6196 10.3438 28.5313V14.6667Z" fill="url(#paint0_linear_1049_9473)"/>
<mask id="mask0_1049_9473" style="mask-type:alpha" maskUnits="userSpaceOnUse" x="10" y="13" width="22" height="20">
<path d="M10.3438 14.6667C10.3438 14.1604 10.7542 13.75 11.2604 13.75H30.7396C31.2458 13.75 31.6562 14.1604 31.6562 14.6667V28.5313C31.6562 30.6196 29.9633 32.3125 27.875 32.3125H14.125C12.0367 32.3125 10.3438 30.6196 10.3438 28.5313V14.6667Z" fill="url(#paint1_linear_1049_9473)"/>
</mask>
<g mask="url(#mask0_1049_9473)">
<g filter="url(#filter0_dd_1049_9473)">
<path d="M15.8438 14.4375V11.6875H26.1562V14.4375" stroke="url(#paint2_linear_1049_9473)" stroke-width="1.375" stroke-linecap="round"/>
</g>
</g>
<g filter="url(#filter1_dd_1049_9473)">
<path d="M20.6565 18.5625H16.5315V22.6875H20.6565V18.5625Z" fill="#F25022"/>
<path d="M25.4688 18.5625H21.3438V22.6875H25.4688V18.5625Z" fill="#7FBA00"/>
<path d="M25.4688 23.375H21.3438V27.5H25.4688V23.375Z" fill="#FFB900"/>
<path d="M20.6562 23.375H16.5312V27.5H20.6562V23.375Z" fill="#00A4EF"/>
</g>
<path d="M15.8438 14.4375V12.375C15.8438 11.9953 16.1516 11.6875 16.5313 11.6875H25.4688C25.8484 11.6875 26.1562 11.9953 26.1562 12.375V14.4375" stroke="url(#paint3_linear_1049_9473)" stroke-width="1.375" stroke-linecap="round"/>
<rect x="16.5312" y="11" width="8.9375" height="1.375" fill="url(#paint4_linear_1049_9473)"/>
<mask id="mask1_1049_9473" style="mask-type:alpha" maskUnits="userSpaceOnUse" x="16" y="11" width="10" height="2">
<rect x="16.5312" y="11" width="8.9375" height="1.375" fill="url(#paint5_linear_1049_9473)"/>
</mask>
<g mask="url(#mask1_1049_9473)">
<g filter="url(#filter2_dd_1049_9473)">
<rect x="14.5454" y="11.6877" width="1.98611" height="3.4375" fill="#C4C4C4"/>
</g>
</g>
</g>
</g>
<path d="M42.5508 17H38.918V9.99805H39.7383V16.2578H42.5508V17ZM47.0576 17H46.2568V16.2188H46.2373C46.0648 16.5182 45.8516 16.7428 45.5977 16.8926C45.347 17.0423 45.054 17.1172 44.7188 17.1172C44.25 17.1172 43.8708 16.9805 43.5811 16.707C43.2913 16.4336 43.1465 16.0706 43.1465 15.6182C43.1465 15.1917 43.293 14.8385 43.5859 14.5586C43.8789 14.2786 44.2939 14.0996 44.8311 14.0215L46.2568 13.8311V13.7188C46.2568 13.2988 46.1592 13.001 45.9639 12.8252C45.7686 12.6462 45.5081 12.5566 45.1826 12.5566C44.9222 12.5566 44.6715 12.6055 44.4307 12.7031C44.1898 12.8008 43.9635 12.9505 43.752 13.1523L43.2832 12.6689C43.5632 12.3988 43.861 12.2002 44.1768 12.0732C44.4925 11.9463 44.8441 11.8828 45.2314 11.8828C45.8369 11.8828 46.2926 12.0391 46.5986 12.3516C46.9046 12.6608 47.0576 13.1263 47.0576 13.748V17ZM46.2568 14.9688V14.4707L45.0508 14.6367C44.6829 14.6888 44.4062 14.7816 44.2207 14.915C44.0352 15.0485 43.9424 15.2585 43.9424 15.5449C43.9424 15.8444 44.0286 16.0739 44.2012 16.2334C44.377 16.3896 44.5902 16.4678 44.8408 16.4678C45.2738 16.4678 45.6172 16.3262 45.8711 16.043C46.1283 15.7598 46.2568 15.4017 46.2568 14.9688ZM48.1367 16.624L48.5176 16.0088C48.7357 16.152 48.9489 16.2611 49.1572 16.3359C49.3656 16.4076 49.5902 16.4434 49.8311 16.4434C50.1729 16.4434 50.4316 16.3799 50.6074 16.2529C50.7865 16.126 50.876 15.9355 50.876 15.6816C50.876 15.4766 50.7962 15.304 50.6367 15.1641C50.4805 15.0208 50.2347 14.9069 49.8994 14.8223C49.2744 14.6628 48.8464 14.4626 48.6152 14.2217C48.3841 13.9775 48.2686 13.6781 48.2686 13.3232C48.2686 12.9131 48.4232 12.5713 48.7324 12.2979C49.0417 12.0212 49.473 11.8828 50.0264 11.8828C50.2933 11.8828 50.5472 11.917 50.7881 11.9854C51.029 12.0537 51.2747 12.1709 51.5254 12.3369L51.1689 12.9424C50.9411 12.7992 50.736 12.6999 50.5537 12.6445C50.3747 12.5859 50.1924 12.5566 50.0068 12.5566C49.6846 12.5566 49.4388 12.6169 49.2695 12.7373C49.1003 12.8545 49.0156 13.0254 49.0156 13.25C49.0156 13.4746 49.1019 13.6439 49.2744 13.7578C49.4502 13.8717 49.7318 13.9792 50.1191 14.0801C50.627 14.2168 51.0062 14.4089 51.2568 14.6562C51.5107 14.9004 51.6377 15.221 51.6377 15.6182C51.6377 16.0804 51.4733 16.4466 51.1445 16.7168C50.819 16.9837 50.3714 17.1172 49.8018 17.1172C49.4958 17.1172 49.2012 17.0749 48.918 16.9902C48.638 16.9056 48.3776 16.7835 48.1367 16.624ZM55.2363 16.9414C55.0996 16.9967 54.9645 17.0374 54.8311 17.0635C54.7008 17.0928 54.5527 17.1074 54.3867 17.1074C53.9896 17.1074 53.6771 16.9919 53.4492 16.7607C53.2246 16.5264 53.1123 16.1813 53.1123 15.7256V12.6836H52.2529V12H53.1123V10.7793L53.9131 10.5205V12H55.1729V12.6836H53.9131V15.6328C53.9131 15.9193 53.9635 16.126 54.0645 16.2529C54.1686 16.3799 54.3232 16.4434 54.5283 16.4434C54.626 16.4434 54.7204 16.432 54.8115 16.4092C54.9027 16.3864 54.9792 16.3604 55.041 16.3311L55.2363 16.9414ZM63.1367 17H62.3359V14.1484C62.3359 13.6178 62.2383 13.2207 62.043 12.957C61.8509 12.6901 61.5612 12.5566 61.1738 12.5566C60.7734 12.5566 60.4414 12.708 60.1777 13.0107C59.9173 13.3102 59.7871 13.6895 59.7871 14.1484V17H58.9863V12H59.7871V12.8301H59.8066C59.9954 12.5143 60.2266 12.2783 60.5 12.1221C60.7734 11.9626 61.0892 11.8828 61.4473 11.8828C61.9941 11.8828 62.4124 12.0602 62.7021 12.415C62.9919 12.7666 63.1367 13.276 63.1367 13.9434V17ZM68.6689 14.6807H65.1338C65.1468 15.2438 65.2949 15.6784 65.5781 15.9844C65.8646 16.2871 66.265 16.4385 66.7793 16.4385C67.0039 16.4385 67.2285 16.4059 67.4531 16.3408C67.681 16.2725 67.9056 16.165 68.127 16.0186L68.498 16.5898C68.2148 16.7721 67.9316 16.9056 67.6484 16.9902C67.3652 17.0749 67.0544 17.1172 66.7158 17.1172C65.9606 17.1172 65.3714 16.8926 64.9482 16.4434C64.5251 15.9941 64.3118 15.3675 64.3086 14.5635C64.3053 13.7594 64.5169 13.1117 64.9434 12.6201C65.373 12.1286 65.9297 11.8828 66.6133 11.8828C67.2643 11.8828 67.7689 12.096 68.127 12.5225C68.4883 12.9456 68.6689 13.5332 68.6689 14.2852V14.6807ZM67.8486 14.0264C67.8454 13.5641 67.7331 13.2044 67.5117 12.9473C67.2904 12.6868 66.986 12.5566 66.5986 12.5566C66.2178 12.5566 65.8939 12.6901 65.627 12.957C65.3633 13.2207 65.2021 13.5771 65.1436 14.0264H67.8486ZM73.332 16.1504C73.1465 16.4727 72.9105 16.7152 72.624 16.8779C72.3408 17.0374 72.0039 17.1172 71.6133 17.1172C70.985 17.1172 70.4821 16.8942 70.1045 16.4482C69.7301 15.999 69.543 15.3887 69.543 14.6172C69.543 13.7904 69.7513 13.1279 70.168 12.6299C70.5846 12.1318 71.1396 11.8828 71.833 11.8828C72.1781 11.8828 72.4743 11.9512 72.7217 12.0879C72.9723 12.2214 73.1758 12.4232 73.332 12.6934H73.3516V9.59766H74.1523V17H73.3516V16.1504H73.332ZM70.3633 14.5781C70.3633 15.1543 70.4967 15.61 70.7637 15.9453C71.0339 16.2773 71.3952 16.4434 71.8477 16.4434C72.2969 16.4434 72.6598 16.2822 72.9365 15.96C73.2132 15.6377 73.3516 15.2308 73.3516 14.7393V14.002C73.3516 13.5983 73.2165 13.2565 72.9463 12.9766C72.6794 12.6966 72.3424 12.5566 71.9355 12.5566C71.4473 12.5566 71.0632 12.7357 70.7832 13.0938C70.5033 13.4518 70.3633 13.9466 70.3633 14.5781ZM80.9053 10.252C80.8141 10.2227 80.7311 10.2015 80.6562 10.1885C80.5846 10.1755 80.5081 10.1689 80.4268 10.1689C80.1533 10.1689 79.9499 10.2422 79.8164 10.3887C79.6829 10.5352 79.6162 10.75 79.6162 11.0332V12H80.7881V12.6836H79.6162V17H78.8203V12.6836H77.9658V12H78.8203V10.9941C78.8203 10.5221 78.9652 10.1543 79.2549 9.89062C79.5446 9.6237 79.9417 9.49023 80.4463 9.49023C80.57 9.49023 80.6823 9.5 80.7832 9.51953C80.8841 9.53581 80.9883 9.56185 81.0957 9.59766L80.9053 10.252ZM84.1182 12.6836C84.0563 12.6641 84.001 12.651 83.9521 12.6445C83.9033 12.6348 83.8415 12.6299 83.7666 12.6299C83.3597 12.6299 83.0391 12.804 82.8047 13.1523C82.5703 13.4974 82.4531 13.9303 82.4531 14.4512V17H81.6523V12H82.4531V12.9912H82.4727C82.5866 12.6396 82.7607 12.3727 82.9951 12.1904C83.2295 12.0049 83.4997 11.9121 83.8057 11.9121C83.9066 11.9121 83.9912 11.917 84.0596 11.9268C84.1312 11.9365 84.1947 11.9512 84.25 11.9707L84.1182 12.6836ZM88.6689 17H87.8682V16.2188H87.8486C87.6761 16.5182 87.4629 16.7428 87.209 16.8926C86.9583 17.0423 86.6654 17.1172 86.3301 17.1172C85.8613 17.1172 85.4821 16.9805 85.1924 16.707C84.9027 16.4336 84.7578 16.0706 84.7578 15.6182C84.7578 15.1917 84.9043 14.8385 85.1973 14.5586C85.4902 14.2786 85.9053 14.0996 86.4424 14.0215L87.8682 13.8311V13.7188C87.8682 13.2988 87.7705 13.001 87.5752 12.8252C87.3799 12.6462 87.1195 12.5566 86.7939 12.5566C86.5335 12.5566 86.2829 12.6055 86.042 12.7031C85.8011 12.8008 85.5749 12.9505 85.3633 13.1523L84.8945 12.6689C85.1745 12.3988 85.4723 12.2002 85.7881 12.0732C86.1038 11.9463 86.4554 11.8828 86.8428 11.8828C87.4482 11.8828 87.904 12.0391 88.21 12.3516C88.516 12.6608 88.6689 13.1263 88.6689 13.748V17ZM87.8682 14.9688V14.4707L86.6621 14.6367C86.2943 14.6888 86.0176 14.7816 85.832 14.915C85.6465 15.0485 85.5537 15.2585 85.5537 15.5449C85.5537 15.8444 85.64 16.0739 85.8125 16.2334C85.9883 16.3896 86.2015 16.4678 86.4521 16.4678C86.8851 16.4678 87.2285 16.3262 87.4824 16.043C87.7396 15.7598 87.8682 15.4017 87.8682 14.9688ZM86.877 11.4922C86.5742 11.4922 86.3301 11.4076 86.1445 11.2383C85.9622 11.0658 85.8711 10.8411 85.8711 10.5645C85.8711 10.2747 85.9622 10.042 86.1445 9.86621C86.3301 9.68717 86.5742 9.59766 86.877 9.59766C87.1797 9.59766 87.4222 9.68392 87.6045 9.85645C87.79 10.029 87.8828 10.2552 87.8828 10.5352C87.8828 10.8216 87.79 11.0527 87.6045 11.2285C87.4222 11.4043 87.1797 11.4922 86.877 11.4922ZM86.877 9.99316C86.7109 9.99316 86.5758 10.0436 86.4717 10.1445C86.3708 10.2454 86.3203 10.3789 86.3203 10.5449C86.3203 10.7077 86.3708 10.8395 86.4717 10.9404C86.5758 11.0413 86.7109 11.0918 86.877 11.0918C87.043 11.0918 87.1764 11.0413 87.2773 10.9404C87.3815 10.8395 87.4336 10.7077 87.4336 10.5449C87.4336 10.3789 87.3815 10.2454 87.2773 10.1445C87.1764 10.0436 87.043 9.99316 86.877 9.99316Z" fill="white"/>
<path d="M51.4219 34H49.5781V26.8516C49.5781 26.5286 49.5859 26.1771 49.6016 25.7969C49.6224 25.4115 49.6484 25.0026 49.6797 24.5703H49.6328C49.5703 24.8672 49.5104 25.1224 49.4531 25.3359C49.401 25.5443 49.349 25.7109 49.2969 25.8359L46.0078 34H44.7266L41.4219 25.9062C41.3802 25.7917 41.3281 25.6224 41.2656 25.3984C41.2083 25.1745 41.1458 24.8984 41.0781 24.5703H41.0312C41.0625 24.9453 41.0833 25.3438 41.0938 25.7656C41.1042 26.1823 41.1094 26.6224 41.1094 27.0859V34H39.3906V22.7969H42.0156L44.9297 30.0781C45.0443 30.3542 45.138 30.6094 45.2109 30.8438C45.2891 31.0729 45.349 31.2865 45.3906 31.4844H45.4375C45.5312 31.1875 45.6198 30.9193 45.7031 30.6797C45.7865 30.4401 45.8646 30.2318 45.9375 30.0547L48.8906 22.7969H51.4219V34ZM54.8984 24.4531C54.5651 24.4531 54.2891 24.3464 54.0703 24.1328C53.8516 23.9193 53.7422 23.6562 53.7422 23.3438C53.7422 23.0208 53.8516 22.7552 54.0703 22.5469C54.2891 22.3385 54.5651 22.2344 54.8984 22.2344C55.237 22.2344 55.5156 22.3385 55.7344 22.5469C55.9531 22.7552 56.0625 23.0208 56.0625 23.3438C56.0625 23.6615 55.9531 23.9271 55.7344 24.1406C55.5156 24.349 55.237 24.4531 54.8984 24.4531ZM55.7969 34H53.9766V26H55.7969V34ZM64.1562 33.5078C63.7604 33.7474 63.3672 33.9193 62.9766 34.0234C62.5859 34.1328 62.1615 34.1875 61.7031 34.1875C60.474 34.1875 59.4896 33.8281 58.75 33.1094C58.0156 32.3906 57.6484 31.4141 57.6484 30.1797C57.6484 28.8516 58.0286 27.7917 58.7891 27C59.5547 26.2083 60.5859 25.8125 61.8828 25.8125C62.3359 25.8125 62.7474 25.862 63.1172 25.9609C63.4922 26.0547 63.8724 26.2109 64.2578 26.4297L63.5469 27.6953C63.276 27.5443 63.0104 27.4349 62.75 27.3672C62.4896 27.2943 62.2057 27.2578 61.8984 27.2578C61.1328 27.2578 60.5417 27.5104 60.125 28.0156C59.7083 28.5208 59.5 29.1901 59.5 30.0234C59.5 30.8984 59.724 31.5703 60.1719 32.0391C60.625 32.5078 61.1927 32.7422 61.875 32.7422C62.0833 32.7422 62.3229 32.7057 62.5938 32.6328C62.8646 32.5547 63.138 32.4323 63.4141 32.2656L64.1562 33.5078ZM70.1484 27.5234C70.0495 27.4974 69.9531 27.4792 69.8594 27.4688C69.7708 27.4531 69.6667 27.4453 69.5469 27.4453C68.8958 27.4453 68.3958 27.6849 68.0469 28.1641C67.6979 28.6432 67.5234 29.2682 67.5234 30.0391V34H65.7031V26H67.5234V27.5391H67.5547C67.7422 26.987 68.0182 26.5703 68.3828 26.2891C68.7474 26.0026 69.1771 25.8594 69.6719 25.8594C69.8125 25.8594 69.9375 25.8672 70.0469 25.8828C70.1615 25.8984 70.2708 25.9219 70.375 25.9531L70.1484 27.5234ZM75.1719 34.1875C73.9219 34.1875 72.9297 33.8151 72.1953 33.0703C71.4661 32.3203 71.1016 31.3177 71.1016 30.0625C71.1068 28.7344 71.487 27.6953 72.2422 26.9453C72.9974 26.1901 74.026 25.8125 75.3281 25.8125C76.5833 25.8073 77.5625 26.1771 78.2656 26.9219C78.974 27.6615 79.3281 28.6641 79.3281 29.9297C79.3281 31.2318 78.9531 32.2682 78.2031 33.0391C77.4583 33.8047 76.4479 34.1875 75.1719 34.1875ZM75.2578 32.7422C75.9818 32.7422 76.5312 32.5052 76.9062 32.0312C77.2865 31.5573 77.4766 30.8724 77.4766 29.9766C77.4766 29.0911 77.2865 28.4167 76.9062 27.9531C76.526 27.4896 75.974 27.2578 75.25 27.2578C74.5365 27.2578 73.974 27.5026 73.5625 27.9922C73.1562 28.4818 72.9531 29.1589 72.9531 30.0234C72.9531 30.8932 73.1562 31.5651 73.5625 32.0391C73.9688 32.5078 74.5339 32.7422 75.2578 32.7422ZM80.4062 33.3594L81.1953 32.0781C81.5078 32.2969 81.8385 32.474 82.1875 32.6094C82.5417 32.7396 82.9245 32.8047 83.3359 32.8047C83.7839 32.8047 84.1302 32.724 84.375 32.5625C84.625 32.3958 84.75 32.1484 84.75 31.8203C84.75 31.5599 84.6458 31.3438 84.4375 31.1719C84.2344 30.9948 83.8854 30.849 83.3906 30.7344C82.3906 30.5 81.6875 30.1901 81.2812 29.8047C80.8802 29.4193 80.6797 28.9115 80.6797 28.2812C80.6797 27.5573 80.9609 26.9661 81.5234 26.5078C82.0859 26.0443 82.8229 25.8125 83.7344 25.8125C84.1875 25.8125 84.6198 25.8724 85.0312 25.9922C85.4427 26.1068 85.8438 26.2917 86.2344 26.5469L85.5 27.7969C85.1562 27.5781 84.8411 27.4219 84.5547 27.3281C84.2682 27.2344 83.974 27.1875 83.6719 27.1875C83.2448 27.1875 82.9115 27.2682 82.6719 27.4297C82.4375 27.5859 82.3203 27.8047 82.3203 28.0859C82.3203 28.3828 82.4401 28.6042 82.6797 28.75C82.9245 28.8906 83.3333 29.0286 83.9062 29.1641C84.7708 29.3724 85.4036 29.6745 85.8047 30.0703C86.2057 30.4609 86.4062 30.9844 86.4062 31.6406C86.4062 32.4167 86.1224 33.0365 85.5547 33.5C84.9922 33.9583 84.2292 34.1875 83.2656 34.1875C82.7448 34.1875 82.2448 34.1198 81.7656 33.9844C81.2917 33.8438 80.8385 33.6354 80.4062 33.3594ZM91.6406 34.1875C90.3906 34.1875 89.3984 33.8151 88.6641 33.0703C87.9349 32.3203 87.5703 31.3177 87.5703 30.0625C87.5755 28.7344 87.9557 27.6953 88.7109 26.9453C89.4661 26.1901 90.4948 25.8125 91.7969 25.8125C93.0521 25.8073 94.0312 26.1771 94.7344 26.9219C95.4427 27.6615 95.7969 28.6641 95.7969 29.9297C95.7969 31.2318 95.4219 32.2682 94.6719 33.0391C93.9271 33.8047 92.9167 34.1875 91.6406 34.1875ZM91.7266 32.7422C92.4505 32.7422 93 32.5052 93.375 32.0312C93.7552 31.5573 93.9453 30.8724 93.9453 29.9766C93.9453 29.0911 93.7552 28.4167 93.375 27.9531C92.9948 27.4896 92.4427 27.2578 91.7188 27.2578C91.0052 27.2578 90.4427 27.5026 90.0312 27.9922C89.625 28.4818 89.4219 29.1589 89.4219 30.0234C89.4219 30.8932 89.625 31.5651 90.0312 32.0391C90.4375 32.5078 91.0026 32.7422 91.7266 32.7422ZM101.977 23.5859C101.831 23.5286 101.698 23.4896 101.578 23.4688C101.458 23.4427 101.328 23.4297 101.188 23.4297C100.802 23.4297 100.51 23.5417 100.312 23.7656C100.12 23.9844 100.023 24.3021 100.023 24.7188V26H101.875V27.4219H100.023V34H98.2109V27.4219H96.8516V26H98.2109V24.625C98.2109 23.8125 98.4714 23.1693 98.9922 22.6953C99.5182 22.2161 100.214 21.9766 101.078 21.9766C101.349 21.9766 101.583 21.9948 101.781 22.0312C101.979 22.0677 102.185 22.1198 102.398 22.1875L101.977 23.5859ZM107.523 33.8906C107.289 33.9896 107.044 34.0625 106.789 34.1094C106.534 34.1562 106.26 34.1797 105.969 34.1797C105.229 34.1797 104.659 33.9844 104.258 33.5938C103.862 33.1979 103.664 32.6094 103.664 31.8281V27.4219H102.32V26H103.664V24.0547L105.477 23.5078V26H107.391V27.4219H105.477V31.6797C105.477 32.0703 105.547 32.3516 105.688 32.5234C105.833 32.6953 106.057 32.7812 106.359 32.7812C106.505 32.7812 106.643 32.7656 106.773 32.7344C106.909 32.6979 107.029 32.6536 107.133 32.6016L107.523 33.8906ZM112.609 33.1953L113.438 31.7656C113.943 32.0781 114.414 32.2995 114.852 32.4297C115.289 32.5547 115.779 32.6172 116.32 32.6172C116.966 32.6172 117.474 32.4792 117.844 32.2031C118.219 31.9219 118.406 31.5208 118.406 31C118.406 30.526 118.25 30.1536 117.938 29.8828C117.63 29.6068 117.107 29.3542 116.367 29.125C115.227 28.7865 114.388 28.3672 113.852 27.8672C113.315 27.3672 113.047 26.6901 113.047 25.8359C113.047 24.9089 113.393 24.1406 114.086 23.5312C114.779 22.9167 115.719 22.6094 116.906 22.6094C117.427 22.6094 117.94 22.6667 118.445 22.7812C118.951 22.8958 119.451 23.0729 119.945 23.3125L119.25 24.7969C118.818 24.5729 118.404 24.4141 118.008 24.3203C117.617 24.2266 117.219 24.1797 116.812 24.1797C116.219 24.1797 115.75 24.3099 115.406 24.5703C115.068 24.8307 114.898 25.1979 114.898 25.6719C114.898 26.0938 115.055 26.4271 115.367 26.6719C115.68 26.9115 116.216 27.1484 116.977 27.3828C118.143 27.7318 118.982 28.1667 119.492 28.6875C120.008 29.2083 120.266 29.9245 120.266 30.8359C120.266 31.8151 119.917 32.6198 119.219 33.25C118.521 33.875 117.526 34.1875 116.234 34.1875C115.589 34.1875 114.958 34.1068 114.344 33.9453C113.729 33.7786 113.151 33.5286 112.609 33.1953ZM125.914 33.8906C125.68 33.9896 125.435 34.0625 125.18 34.1094C124.924 34.1562 124.651 34.1797 124.359 34.1797C123.62 34.1797 123.049 33.9844 122.648 33.5938C122.253 33.1979 122.055 32.6094 122.055 31.8281V27.4219H120.711V26H122.055V24.0547L123.867 23.5078V26H125.781V27.4219H123.867V31.6797C123.867 32.0703 123.938 32.3516 124.078 32.5234C124.224 32.6953 124.448 32.7812 124.75 32.7812C124.896 32.7812 125.034 32.7656 125.164 32.7344C125.299 32.6979 125.419 32.6536 125.523 32.6016L125.914 33.8906ZM130.891 34.1875C129.641 34.1875 128.648 33.8151 127.914 33.0703C127.185 32.3203 126.82 31.3177 126.82 30.0625C126.826 28.7344 127.206 27.6953 127.961 26.9453C128.716 26.1901 129.745 25.8125 131.047 25.8125C132.302 25.8073 133.281 26.1771 133.984 26.9219C134.693 27.6615 135.047 28.6641 135.047 29.9297C135.047 31.2318 134.672 32.2682 133.922 33.0391C133.177 33.8047 132.167 34.1875 130.891 34.1875ZM130.977 32.7422C131.701 32.7422 132.25 32.5052 132.625 32.0312C133.005 31.5573 133.195 30.8724 133.195 29.9766C133.195 29.0911 133.005 28.4167 132.625 27.9531C132.245 27.4896 131.693 27.2578 130.969 27.2578C130.255 27.2578 129.693 27.5026 129.281 27.9922C128.875 28.4818 128.672 29.1589 128.672 30.0234C128.672 30.8932 128.875 31.5651 129.281 32.0391C129.688 32.5078 130.253 32.7422 130.977 32.7422ZM141.352 27.5234C141.253 27.4974 141.156 27.4792 141.062 27.4688C140.974 27.4531 140.87 27.4453 140.75 27.4453C140.099 27.4453 139.599 27.6849 139.25 28.1641C138.901 28.6432 138.727 29.2682 138.727 30.0391V34H136.906V26H138.727V27.5391H138.758C138.945 26.987 139.221 26.5703 139.586 26.2891C139.951 26.0026 140.38 25.8594 140.875 25.8594C141.016 25.8594 141.141 25.8672 141.25 25.8828C141.365 25.8984 141.474 25.9219 141.578 25.9531L141.352 27.5234ZM149.594 30.4766H144.133C144.164 31.2318 144.383 31.8073 144.789 32.2031C145.195 32.5938 145.763 32.7891 146.492 32.7891C146.789 32.7891 147.128 32.7292 147.508 32.6094C147.888 32.4896 148.263 32.2969 148.633 32.0312L149.453 33.1641C148.958 33.5234 148.456 33.7839 147.945 33.9453C147.435 34.1068 146.872 34.1875 146.258 34.1875C145.013 34.1875 144.044 33.8307 143.352 33.1172C142.659 32.3984 142.31 31.3958 142.305 30.1094C142.305 28.8281 142.661 27.7917 143.375 27C144.094 26.2083 145.013 25.8125 146.133 25.8125C147.206 25.8125 148.049 26.151 148.664 26.8281C149.284 27.5 149.594 28.4531 149.594 29.6875V30.4766ZM147.836 29.2188C147.836 28.5312 147.685 28.0156 147.383 27.6719C147.086 27.3229 146.664 27.1484 146.117 27.1484C145.602 27.1484 145.161 27.3359 144.797 27.7109C144.438 28.0807 144.216 28.5833 144.133 29.2188H147.836Z" fill="white"/>
<defs>
<filter id="filter0_dd_1049_9473" x="13.7812" y="10.0833" width="14.4375" height="6.875" filterUnits="userSpaceOnUse" color-interpolation-filters="sRGB">
<feFlood flood-opacity="0" result="BackgroundImageFix"/>
<feColorMatrix in="SourceAlpha" type="matrix" values="0 0 0 0 0 0 0 0 0 0 0 0 0 0 0 0 0 0 127 0" result="hardAlpha"/>
<feOffset dy="0.229167"/>
<feGaussianBlur stdDeviation="0.229167"/>
<feColorMatrix type="matrix" values="0 0 0 0 0 0 0 0 0 0 0 0 0 0 0 0 0 0 0.1 0"/>
<feBlend mode="normal" in2="BackgroundImageFix" result="effect1_dropShadow_1049_9473"/>
<feColorMatrix in="SourceAlpha" type="matrix" values="0 0 0 0 0 0 0 0 0 0 0 0 0 0 0 0 0 0 127 0" result="hardAlpha"/>
<feOffset dy="0.458333"/>
<feGaussianBlur stdDeviation="0.6875"/>
<feColorMatrix type="matrix" values="0 0 0 0 0 0 0 0 0 0 0 0 0 0 0 0 0 0 0.2 0"/>
<feBlend mode="normal" in2="effect1_dropShadow_1049_9473" result="effect2_dropShadow_1049_9473"/>
<feBlend mode="normal" in="SourceGraphic" in2="effect2_dropShadow_1049_9473" result="shape"/>
</filter>
<filter id="filter1_dd_1049_9473" x="15.1562" y="17.6458" width="11.6875" height="11.6875" filterUnits="userSpaceOnUse" color-interpolation-filters="sRGB">
<feFlood flood-opacity="0" result="BackgroundImageFix"/>
<feColorMatrix in="SourceAlpha" type="matrix" values="0 0 0 0 0 0 0 0 0 0 0 0 0 0 0 0 0 0 127 0" result="hardAlpha"/>
<feOffset dy="0.229167"/>
<feGaussianBlur stdDeviation="0.229167"/>
<feColorMatrix type="matrix" values="0 0 0 0 1 0 0 0 0 1 0 0 0 0 1 0 0 0 0.6 0"/>
<feBlend mode="normal" in2="BackgroundImageFix" result="effect1_dropShadow_1049_9473"/>
<feColorMatrix in="SourceAlpha" type="matrix" values="0 0 0 0 0 0 0 0 0 0 0 0 0 0 0 0 0 0 127 0" result="hardAlpha"/>
<feOffset dy="0.458333"/>
<feGaussianBlur stdDeviation="0.6875"/>
<feColorMatrix type="matrix" values="0 0 0 0 1 0 0 0 0 1 0 0 0 0 1 0 0 0 0.6 0"/>
<feBlend mode="normal" in2="effect1_dropShadow_1049_9473" result="effect2_dropShadow_1049_9473"/>
<feBlend mode="normal" in="SourceGraphic" in2="effect2_dropShadow_1049_9473" result="shape"/>
</filter>
<filter id="filter2_dd_1049_9473" x="13.1704" y="9.39583" width="15.6594" height="6.18774" filterUnits="userSpaceOnUse" color-interpolation-filters="sRGB">
<feFlood flood-opacity="0" result="BackgroundImageFix"/>
<feColorMatrix in="SourceAlpha" type="matrix" values="0 0 0 0 0 0 0 0 0 0 0 0 0 0 0 0 0 0 127 0" result="hardAlpha"/>
<feOffset dy="-0.916667"/>
<feGaussianBlur stdDeviation="0.229167"/>
<feColorMatrix type="matrix" values="0 0 0 0 0 0 0 0 0 0 0 0 0 0 0 0 0 0 0.1 0"/>
<feBlend mode="normal" in2="BackgroundImageFix" result="effect1_dropShadow_1049_9473"/>
<feColorMatrix in="SourceAlpha" type="matrix" values="0 0 0 0 0 0 0 0 0 0 0 0 0 0 0 0 0 0 127 0" result="hardAlpha"/>
<feOffset dy="-0.916667"/>
<feGaussianBlur stdDeviation="0.6875"/>
<feColorMatrix type="matrix" values="0 0 0 0 0 0 0 0 0 0 0 0 0 0 0 0 0 0 0.2 0"/>
<feBlend mode="normal" in2="effect1_dropShadow_1049_9473" result="effect2_dropShadow_1049_9473"/>
<feBlend mode="normal" in="SourceGraphic" in2="effect2_dropShadow_1049_9473" result="shape"/>
</filter>
<linearGradient id="paint0_linear_1049_9473" x1="15.1875" y1="11.0078" x2="19.6603" y2="31.5495" gradientUnits="userSpaceOnUse">
<stop offset="0.270833" stop-color="white"/>
<stop offset="1" stop-color="#DFDFDF"/>
</linearGradient>
<linearGradient id="paint1_linear_1049_9473" x1="21" y1="13.75" x2="25.0962" y2="32.9541" gradientUnits="userSpaceOnUse">
<stop stop-color="#0078D4"/>
<stop offset="1" stop-color="#114A8B"/>
</linearGradient>
<linearGradient id="paint2_linear_1049_9473" x1="21" y1="11.6875" x2="21.1934" y2="14.6494" gradientUnits="userSpaceOnUse">
<stop stop-color="#28AFEA"/>
<stop offset="1" stop-color="#0078D4"/>
</linearGradient>
<linearGradient id="paint3_linear_1049_9473" x1="21" y1="11.6875" x2="21.1934" y2="14.6494" gradientUnits="userSpaceOnUse">
<stop stop-color="#30DAFF"/>
<stop offset="1" stop-color="#0094D4"/>
</linearGradient>
<linearGradient id="paint4_linear_1049_9473" x1="20.5035" y1="11" x2="20.5035" y2="12.375" gradientUnits="userSpaceOnUse">
<stop stop-color="#22BCFF"/>
<stop offset="1" stop-color="#0088F0"/>
</linearGradient>
<linearGradient id="paint5_linear_1049_9473" x1="20.5035" y1="11" x2="20.5035" y2="12.375" gradientUnits="userSpaceOnUse">
<stop stop-color="#28AFEA"/>
<stop offset="1" stop-color="#3CCBF4"/>
</linearGradient>
<clipPath id="clip0_1049_9473">
<rect width="22" height="22" fill="white" transform="translate(10 11)"/>
</clipPath>
<clipPath id="clip1_1049_9473">
<rect width="22" height="22" fill="white" transform="translate(10 11)"/>
</clipPath>
</defs>
</svg>
