<svg width="161" height="44" viewBox="0 0 161 44" fill="none" xmlns="http://www.w3.org/2000/svg">
<rect x="1" y="1" width="159" height="42" rx="4" fill="#FDFDFD"/>
<rect x="0.5" y="0.5" width="160" height="43" rx="4.5" stroke="black" stroke-opacity="0.0578"/>
<g clip-path="url(#clip0_1049_9230)">
<g clip-path="url(#clip1_1049_9230)">
<path d="M10.3438 14.6667C10.3438 14.1604 10.7542 13.75 11.2604 13.75H30.7396C31.2458 13.75 31.6562 14.1604 31.6562 14.6667V28.5313C31.6562 30.6196 29.9633 32.3125 27.875 32.3125H14.125C12.0367 32.3125 10.3438 30.6196 10.3438 28.5313V14.6667Z" fill="url(#paint0_linear_1049_9230)"/>
<mask id="mask0_1049_9230" style="mask-type:alpha" maskUnits="userSpaceOnUse" x="10" y="13" width="22" height="20">
<path d="M10.3438 14.6667C10.3438 14.1604 10.7542 13.75 11.2604 13.75H30.7396C31.2458 13.75 31.6562 14.1604 31.6562 14.6667V28.5313C31.6562 30.6196 29.9633 32.3125 27.875 32.3125H14.125C12.0367 32.3125 10.3438 30.6196 10.3438 28.5313V14.6667Z" fill="url(#paint1_linear_1049_9230)"/>
</mask>
<g mask="url(#mask0_1049_9230)">
<g filter="url(#filter0_dd_1049_9230)">
<path d="M15.8438 14.4375V11.6875H26.1562V14.4375" stroke="url(#paint2_linear_1049_9230)" stroke-width="1.375" stroke-linecap="round"/>
</g>
</g>
<g filter="url(#filter1_dd_1049_9230)">
<path d="M20.6565 18.5625H16.5315V22.6875H20.6565V18.5625Z" fill="#F25022"/>
<path d="M25.4688 18.5625H21.3438V22.6875H25.4688V18.5625Z" fill="#7FBA00"/>
<path d="M25.4688 23.375H21.3438V27.5H25.4688V23.375Z" fill="#FFB900"/>
<path d="M20.6562 23.375H16.5312V27.5H20.6562V23.375Z" fill="#00A4EF"/>
</g>
<path d="M15.8438 14.4375V12.375C15.8438 11.9953 16.1516 11.6875 16.5313 11.6875H25.4688C25.8484 11.6875 26.1562 11.9953 26.1562 12.375V14.4375" stroke="url(#paint3_linear_1049_9230)" stroke-width="1.375" stroke-linecap="round"/>
<rect x="16.5312" y="11" width="8.9375" height="1.375" fill="url(#paint4_linear_1049_9230)"/>
<mask id="mask1_1049_9230" style="mask-type:alpha" maskUnits="userSpaceOnUse" x="16" y="11" width="10" height="2">
<rect x="16.5312" y="11" width="8.9375" height="1.375" fill="url(#paint5_linear_1049_9230)"/>
</mask>
<g mask="url(#mask1_1049_9230)">
<g filter="url(#filter2_dd_1049_9230)">
<rect x="14.5454" y="11.6877" width="1.98611" height="3.4375" fill="#C4C4C4"/>
</g>
</g>
</g>
</g>
<path d="M43.0488 10.7402H41.0273V17H40.207V10.7402H38.1904V9.99805H43.0488V10.7402ZM45.6514 12.6836C45.5895 12.6641 45.5342 12.651 45.4854 12.6445C45.4365 12.6348 45.3747 12.6299 45.2998 12.6299C44.8929 12.6299 44.5723 12.804 44.3379 13.1523C44.1035 13.4974 43.9863 13.9303 43.9863 14.4512V17H43.1855V12H43.9863V12.9912H44.0059C44.1198 12.6396 44.2939 12.3727 44.5283 12.1904C44.7627 12.0049 45.0329 11.9121 45.3389 11.9121C45.4398 11.9121 45.5244 11.917 45.5928 11.9268C45.6644 11.9365 45.7279 11.9512 45.7832 11.9707L45.6514 12.6836ZM50.2021 17H49.4014V16.2188H49.3818C49.2093 16.5182 48.9961 16.7428 48.7422 16.8926C48.4915 17.0423 48.1986 17.1172 47.8633 17.1172C47.3945 17.1172 47.0153 16.9805 46.7256 16.707C46.4359 16.4336 46.291 16.0706 46.291 15.6182C46.291 15.1917 46.4375 14.8385 46.7305 14.5586C47.0234 14.2786 47.4385 14.0996 47.9756 14.0215L49.4014 13.8311V13.7188C49.4014 13.2988 49.3037 13.001 49.1084 12.8252C48.9131 12.6462 48.6527 12.5566 48.3271 12.5566C48.0667 12.5566 47.8161 12.6055 47.5752 12.7031C47.3343 12.8008 47.1081 12.9505 46.8965 13.1523L46.4277 12.6689C46.7077 12.3988 47.0055 12.2002 47.3213 12.0732C47.637 11.9463 47.9886 11.8828 48.376 11.8828C48.9814 11.8828 49.4372 12.0391 49.7432 12.3516C50.0492 12.6608 50.2021 13.1263 50.2021 13.748V17ZM49.4014 14.9688V14.4707L48.1953 14.6367C47.8275 14.6888 47.5508 14.7816 47.3652 14.915C47.1797 15.0485 47.0869 15.2585 47.0869 15.5449C47.0869 15.8444 47.1732 16.0739 47.3457 16.2334C47.5215 16.3896 47.7347 16.4678 47.9854 16.4678C48.4183 16.4678 48.7617 16.3262 49.0156 16.043C49.2728 15.7598 49.4014 15.4017 49.4014 14.9688ZM55.9004 17H55.0996V14.1484C55.0996 13.6178 55.002 13.2207 54.8066 12.957C54.6146 12.6901 54.3249 12.5566 53.9375 12.5566C53.5371 12.5566 53.2051 12.708 52.9414 13.0107C52.681 13.3102 52.5508 13.6895 52.5508 14.1484V17H51.75V12H52.5508V12.8301H52.5703C52.7591 12.5143 52.9902 12.2783 53.2637 12.1221C53.5371 11.9626 53.8529 11.8828 54.2109 11.8828C54.7578 11.8828 55.1761 12.0602 55.4658 12.415C55.7555 12.7666 55.9004 13.276 55.9004 13.9434V17ZM56.9453 16.624L57.3262 16.0088C57.5443 16.152 57.7575 16.2611 57.9658 16.3359C58.1742 16.4076 58.3988 16.4434 58.6396 16.4434C58.9814 16.4434 59.2402 16.3799 59.416 16.2529C59.5951 16.126 59.6846 15.9355 59.6846 15.6816C59.6846 15.4766 59.6048 15.304 59.4453 15.1641C59.2891 15.0208 59.0433 14.9069 58.708 14.8223C58.083 14.6628 57.6549 14.4626 57.4238 14.2217C57.1927 13.9775 57.0771 13.6781 57.0771 13.3232C57.0771 12.9131 57.2318 12.5713 57.541 12.2979C57.8503 12.0212 58.2816 11.8828 58.835 11.8828C59.1019 11.8828 59.3558 11.917 59.5967 11.9854C59.8376 12.0537 60.0833 12.1709 60.334 12.3369L59.9775 12.9424C59.7497 12.7992 59.5446 12.6999 59.3623 12.6445C59.1833 12.5859 59.001 12.5566 58.8154 12.5566C58.4932 12.5566 58.2474 12.6169 58.0781 12.7373C57.9089 12.8545 57.8242 13.0254 57.8242 13.25C57.8242 13.4746 57.9105 13.6439 58.083 13.7578C58.2588 13.8717 58.5404 13.9792 58.9277 14.0801C59.4355 14.2168 59.8148 14.4089 60.0654 14.6562C60.3193 14.9004 60.4463 15.221 60.4463 15.6182C60.4463 16.0804 60.2819 16.4466 59.9531 16.7168C59.6276 16.9837 59.18 17.1172 58.6104 17.1172C58.3044 17.1172 58.0098 17.0749 57.7266 16.9902C57.4466 16.9056 57.1862 16.7835 56.9453 16.624ZM64.0498 10.252C63.9587 10.2227 63.8757 10.2015 63.8008 10.1885C63.7292 10.1755 63.6527 10.1689 63.5713 10.1689C63.2979 10.1689 63.0944 10.2422 62.9609 10.3887C62.8275 10.5352 62.7607 10.75 62.7607 11.0332V12H63.9326V12.6836H62.7607V17H61.9648V12.6836H61.1104V12H61.9648V10.9941C61.9648 10.5221 62.1097 10.1543 62.3994 9.89062C62.6891 9.6237 63.0863 9.49023 63.5908 9.49023C63.7145 9.49023 63.8268 9.5 63.9277 9.51953C64.0286 9.53581 64.1328 9.56185 64.2402 9.59766L64.0498 10.252ZM68.8154 14.6807H65.2803C65.2933 15.2438 65.4414 15.6784 65.7246 15.9844C66.0111 16.2871 66.4115 16.4385 66.9258 16.4385C67.1504 16.4385 67.375 16.4059 67.5996 16.3408C67.8275 16.2725 68.0521 16.165 68.2734 16.0186L68.6445 16.5898C68.3613 16.7721 68.0781 16.9056 67.7949 16.9902C67.5117 17.0749 67.2008 17.1172 66.8623 17.1172C66.1071 17.1172 65.5179 16.8926 65.0947 16.4434C64.6715 15.9941 64.4583 15.3675 64.4551 14.5635C64.4518 13.7594 64.6634 13.1117 65.0898 12.6201C65.5195 12.1286 66.0762 11.8828 66.7598 11.8828C67.4108 11.8828 67.9154 12.096 68.2734 12.5225C68.6348 12.9456 68.8154 13.5332 68.8154 14.2852V14.6807ZM67.9951 14.0264C67.9919 13.5641 67.8796 13.2044 67.6582 12.9473C67.4368 12.6868 67.1325 12.5566 66.7451 12.5566C66.3643 12.5566 66.0404 12.6901 65.7734 12.957C65.5098 13.2207 65.3486 13.5771 65.29 14.0264H67.9951ZM72.4971 12.6836C72.4352 12.6641 72.3799 12.651 72.3311 12.6445C72.2822 12.6348 72.2204 12.6299 72.1455 12.6299C71.7386 12.6299 71.418 12.804 71.1836 13.1523C70.9492 13.4974 70.832 13.9303 70.832 14.4512V17H70.0312V12H70.832V12.9912H70.8516C70.9655 12.6396 71.1396 12.3727 71.374 12.1904C71.6084 12.0049 71.8786 11.9121 72.1846 11.9121C72.2855 11.9121 72.3701 11.917 72.4385 11.9268C72.5101 11.9365 72.5736 11.9512 72.6289 11.9707L72.4971 12.6836ZM73.918 10.8037C73.7552 10.8037 73.6185 10.75 73.5078 10.6426C73.3971 10.5319 73.3418 10.3968 73.3418 10.2373C73.3418 10.0778 73.3971 9.94434 73.5078 9.83691C73.6185 9.72624 73.7552 9.6709 73.918 9.6709C74.0807 9.6709 74.2174 9.72624 74.3281 9.83691C74.4388 9.94434 74.4941 10.0778 74.4941 10.2373C74.4941 10.3968 74.4388 10.5319 74.3281 10.6426C74.2174 10.75 74.0807 10.8037 73.918 10.8037ZM74.3086 17H73.5078V12H74.3086V17ZM78.3955 12.6836C78.3337 12.6641 78.2783 12.651 78.2295 12.6445C78.1807 12.6348 78.1188 12.6299 78.0439 12.6299C77.637 12.6299 77.3164 12.804 77.082 13.1523C76.8477 13.4974 76.7305 13.9303 76.7305 14.4512V17H75.9297V12H76.7305V12.9912H76.75C76.8639 12.6396 77.0381 12.3727 77.2725 12.1904C77.5068 12.0049 77.777 11.9121 78.083 11.9121C78.1839 11.9121 78.2686 11.917 78.3369 11.9268C78.4085 11.9365 78.472 11.9512 78.5273 11.9707L78.3955 12.6836ZM85.6904 17H84.8896V16.2188H84.8701C84.6976 16.5182 84.4844 16.7428 84.2305 16.8926C83.9798 17.0423 83.6868 17.1172 83.3516 17.1172C82.8828 17.1172 82.5036 16.9805 82.2139 16.707C81.9242 16.4336 81.7793 16.0706 81.7793 15.6182C81.7793 15.1917 81.9258 14.8385 82.2188 14.5586C82.5117 14.2786 82.9268 14.0996 83.4639 14.0215L84.8896 13.8311V13.7188C84.8896 13.2988 84.792 13.001 84.5967 12.8252C84.4014 12.6462 84.141 12.5566 83.8154 12.5566C83.555 12.5566 83.3044 12.6055 83.0635 12.7031C82.8226 12.8008 82.5964 12.9505 82.3848 13.1523L81.916 12.6689C82.196 12.3988 82.4938 12.2002 82.8096 12.0732C83.1253 11.9463 83.4769 11.8828 83.8643 11.8828C84.4697 11.8828 84.9255 12.0391 85.2314 12.3516C85.5374 12.6608 85.6904 13.1263 85.6904 13.748V17ZM84.8896 14.9688V14.4707L83.6836 14.6367C83.3158 14.6888 83.0391 14.7816 82.8535 14.915C82.668 15.0485 82.5752 15.2585 82.5752 15.5449C82.5752 15.8444 82.6615 16.0739 82.834 16.2334C83.0098 16.3896 83.223 16.4678 83.4736 16.4678C83.9066 16.4678 84.25 16.3262 84.5039 16.043C84.7611 15.7598 84.8896 15.4017 84.8896 14.9688ZM90.8027 16.2773H90.7832V19.2998H89.9824V12H90.7832V12.8789H90.8027C91.0013 12.5469 91.2438 12.2979 91.5303 12.1318C91.82 11.9658 92.1536 11.8828 92.5312 11.8828C93.1758 11.8828 93.6787 12.1074 94.04 12.5566C94.4014 13.0026 94.582 13.6016 94.582 14.3535C94.582 15.1901 94.3786 15.8607 93.9717 16.3652C93.5648 16.8665 93.0081 17.1172 92.3018 17.1172C91.9795 17.1172 91.693 17.0472 91.4424 16.9072C91.1917 16.7673 90.9785 16.5573 90.8027 16.2773ZM90.7832 14.2607V14.959C90.7832 15.3724 90.9167 15.724 91.1836 16.0137C91.4538 16.3001 91.7956 16.4434 92.209 16.4434C92.694 16.4434 93.0732 16.2578 93.3467 15.8867C93.6234 15.5156 93.7617 14.9997 93.7617 14.3389C93.7617 13.7822 93.6331 13.346 93.376 13.0303C93.1188 12.7145 92.7705 12.5566 92.3311 12.5566C91.8656 12.5566 91.4912 12.7194 91.208 13.0449C90.9248 13.3672 90.7832 13.7725 90.7832 14.2607ZM99.4014 17H98.6006V16.2188H98.5811C98.4085 16.5182 98.1953 16.7428 97.9414 16.8926C97.6908 17.0423 97.3978 17.1172 97.0625 17.1172C96.5938 17.1172 96.2145 16.9805 95.9248 16.707C95.6351 16.4336 95.4902 16.0706 95.4902 15.6182C95.4902 15.1917 95.6367 14.8385 95.9297 14.5586C96.2227 14.2786 96.6377 14.0996 97.1748 14.0215L98.6006 13.8311V13.7188C98.6006 13.2988 98.5029 13.001 98.3076 12.8252C98.1123 12.6462 97.8519 12.5566 97.5264 12.5566C97.266 12.5566 97.0153 12.6055 96.7744 12.7031C96.5335 12.8008 96.3073 12.9505 96.0957 13.1523L95.627 12.6689C95.9069 12.3988 96.2048 12.2002 96.5205 12.0732C96.8363 11.9463 97.1878 11.8828 97.5752 11.8828C98.1807 11.8828 98.6364 12.0391 98.9424 12.3516C99.2484 12.6608 99.4014 13.1263 99.4014 13.748V17ZM98.6006 14.9688V14.4707L97.3945 14.6367C97.0267 14.6888 96.75 14.7816 96.5645 14.915C96.3789 15.0485 96.2861 15.2585 96.2861 15.5449C96.2861 15.8444 96.3724 16.0739 96.5449 16.2334C96.7207 16.3896 96.9339 16.4678 97.1846 16.4678C97.6175 16.4678 97.9609 16.3262 98.2148 16.043C98.472 15.7598 98.6006 15.4017 98.6006 14.9688ZM103.415 12.6836C103.353 12.6641 103.298 12.651 103.249 12.6445C103.2 12.6348 103.138 12.6299 103.063 12.6299C102.657 12.6299 102.336 12.804 102.102 13.1523C101.867 13.4974 101.75 13.9303 101.75 14.4512V17H100.949V12H101.75V12.9912H101.77C101.883 12.6396 102.058 12.3727 102.292 12.1904C102.526 12.0049 102.797 11.9121 103.103 11.9121C103.203 11.9121 103.288 11.917 103.356 11.9268C103.428 11.9365 103.492 11.9512 103.547 11.9707L103.415 12.6836ZM106.809 16.9414C106.672 16.9967 106.537 17.0374 106.403 17.0635C106.273 17.0928 106.125 17.1074 105.959 17.1074C105.562 17.1074 105.249 16.9919 105.021 16.7607C104.797 16.5264 104.685 16.1813 104.685 15.7256V12.6836H103.825V12H104.685V10.7793L105.485 10.5205V12H106.745V12.6836H105.485V15.6328C105.485 15.9193 105.536 16.126 105.637 16.2529C105.741 16.3799 105.896 16.4434 106.101 16.4434C106.198 16.4434 106.293 16.432 106.384 16.4092C106.475 16.3864 106.551 16.3604 106.613 16.3311L106.809 16.9414ZM108.225 10.8037C108.062 10.8037 107.925 10.75 107.814 10.6426C107.704 10.5319 107.648 10.3968 107.648 10.2373C107.648 10.0778 107.704 9.94434 107.814 9.83691C107.925 9.72624 108.062 9.6709 108.225 9.6709C108.387 9.6709 108.524 9.72624 108.635 9.83691C108.745 9.94434 108.801 10.0778 108.801 10.2373C108.801 10.3968 108.745 10.5319 108.635 10.6426C108.524 10.75 108.387 10.8037 108.225 10.8037ZM108.615 17H107.814V12H108.615V17ZM112.702 12.6836C112.64 12.6641 112.585 12.651 112.536 12.6445C112.487 12.6348 112.425 12.6299 112.351 12.6299C111.944 12.6299 111.623 12.804 111.389 13.1523C111.154 13.4974 111.037 13.9303 111.037 14.4512V17H110.236V12H111.037V12.9912H111.057C111.171 12.6396 111.345 12.3727 111.579 12.1904C111.813 12.0049 112.084 11.9121 112.39 11.9121C112.491 11.9121 112.575 11.917 112.644 11.9268C112.715 11.9365 112.779 11.9512 112.834 11.9707L112.702 12.6836ZM119.904 16.1504C119.719 16.4727 119.483 16.7152 119.196 16.8779C118.913 17.0374 118.576 17.1172 118.186 17.1172C117.557 17.1172 117.054 16.8942 116.677 16.4482C116.302 15.999 116.115 15.3887 116.115 14.6172C116.115 13.7904 116.324 13.1279 116.74 12.6299C117.157 12.1318 117.712 11.8828 118.405 11.8828C118.75 11.8828 119.047 11.9512 119.294 12.0879C119.545 12.2214 119.748 12.4232 119.904 12.6934H119.924V9.59766H120.725V17H119.924V16.1504H119.904ZM116.936 14.5781C116.936 15.1543 117.069 15.61 117.336 15.9453C117.606 16.2773 117.967 16.4434 118.42 16.4434C118.869 16.4434 119.232 16.2822 119.509 15.96C119.785 15.6377 119.924 15.2308 119.924 14.7393V14.002C119.924 13.5983 119.789 13.2565 119.519 12.9766C119.252 12.6966 118.915 12.5566 118.508 12.5566C118.02 12.5566 117.635 12.7357 117.355 13.0938C117.076 13.4518 116.936 13.9466 116.936 14.5781ZM125.886 17H125.085V16.2188H125.065C124.893 16.5182 124.68 16.7428 124.426 16.8926C124.175 17.0423 123.882 17.1172 123.547 17.1172C123.078 17.1172 122.699 16.9805 122.409 16.707C122.119 16.4336 121.975 16.0706 121.975 15.6182C121.975 15.1917 122.121 14.8385 122.414 14.5586C122.707 14.2786 123.122 14.0996 123.659 14.0215L125.085 13.8311V13.7188C125.085 13.2988 124.987 13.001 124.792 12.8252C124.597 12.6462 124.336 12.5566 124.011 12.5566C123.75 12.5566 123.5 12.6055 123.259 12.7031C123.018 12.8008 122.792 12.9505 122.58 13.1523L122.111 12.6689C122.391 12.3988 122.689 12.2002 123.005 12.0732C123.321 11.9463 123.672 11.8828 124.06 11.8828C124.665 11.8828 125.121 12.0391 125.427 12.3516C125.733 12.6608 125.886 13.1263 125.886 13.748V17ZM125.085 14.9688V14.4707L123.879 14.6367C123.511 14.6888 123.234 14.7816 123.049 14.915C122.863 15.0485 122.771 15.2585 122.771 15.5449C122.771 15.8444 122.857 16.0739 123.029 16.2334C123.205 16.3896 123.418 16.4678 123.669 16.4678C124.102 16.4678 124.445 16.3262 124.699 16.043C124.956 15.7598 125.085 15.4017 125.085 14.9688Z" fill="black" fill-opacity="0.8956"/>
<path d="M51.4219 34H49.5781V26.8516C49.5781 26.5286 49.5859 26.1771 49.6016 25.7969C49.6224 25.4115 49.6484 25.0026 49.6797 24.5703H49.6328C49.5703 24.8672 49.5104 25.1224 49.4531 25.3359C49.401 25.5443 49.349 25.7109 49.2969 25.8359L46.0078 34H44.7266L41.4219 25.9062C41.3802 25.7917 41.3281 25.6224 41.2656 25.3984C41.2083 25.1745 41.1458 24.8984 41.0781 24.5703H41.0312C41.0625 24.9453 41.0833 25.3438 41.0938 25.7656C41.1042 26.1823 41.1094 26.6224 41.1094 27.0859V34H39.3906V22.7969H42.0156L44.9297 30.0781C45.0443 30.3542 45.138 30.6094 45.2109 30.8438C45.2891 31.0729 45.349 31.2865 45.3906 31.4844H45.4375C45.5312 31.1875 45.6198 30.9193 45.7031 30.6797C45.7865 30.4401 45.8646 30.2318 45.9375 30.0547L48.8906 22.7969H51.4219V34ZM54.8984 24.4531C54.5651 24.4531 54.2891 24.3464 54.0703 24.1328C53.8516 23.9193 53.7422 23.6562 53.7422 23.3438C53.7422 23.0208 53.8516 22.7552 54.0703 22.5469C54.2891 22.3385 54.5651 22.2344 54.8984 22.2344C55.237 22.2344 55.5156 22.3385 55.7344 22.5469C55.9531 22.7552 56.0625 23.0208 56.0625 23.3438C56.0625 23.6615 55.9531 23.9271 55.7344 24.1406C55.5156 24.349 55.237 24.4531 54.8984 24.4531ZM55.7969 34H53.9766V26H55.7969V34ZM64.1562 33.5078C63.7604 33.7474 63.3672 33.9193 62.9766 34.0234C62.5859 34.1328 62.1615 34.1875 61.7031 34.1875C60.474 34.1875 59.4896 33.8281 58.75 33.1094C58.0156 32.3906 57.6484 31.4141 57.6484 30.1797C57.6484 28.8516 58.0286 27.7917 58.7891 27C59.5547 26.2083 60.5859 25.8125 61.8828 25.8125C62.3359 25.8125 62.7474 25.862 63.1172 25.9609C63.4922 26.0547 63.8724 26.2109 64.2578 26.4297L63.5469 27.6953C63.276 27.5443 63.0104 27.4349 62.75 27.3672C62.4896 27.2943 62.2057 27.2578 61.8984 27.2578C61.1328 27.2578 60.5417 27.5104 60.125 28.0156C59.7083 28.5208 59.5 29.1901 59.5 30.0234C59.5 30.8984 59.724 31.5703 60.1719 32.0391C60.625 32.5078 61.1927 32.7422 61.875 32.7422C62.0833 32.7422 62.3229 32.7057 62.5938 32.6328C62.8646 32.5547 63.138 32.4323 63.4141 32.2656L64.1562 33.5078ZM70.1484 27.5234C70.0495 27.4974 69.9531 27.4792 69.8594 27.4688C69.7708 27.4531 69.6667 27.4453 69.5469 27.4453C68.8958 27.4453 68.3958 27.6849 68.0469 28.1641C67.6979 28.6432 67.5234 29.2682 67.5234 30.0391V34H65.7031V26H67.5234V27.5391H67.5547C67.7422 26.987 68.0182 26.5703 68.3828 26.2891C68.7474 26.0026 69.1771 25.8594 69.6719 25.8594C69.8125 25.8594 69.9375 25.8672 70.0469 25.8828C70.1615 25.8984 70.2708 25.9219 70.375 25.9531L70.1484 27.5234ZM75.1719 34.1875C73.9219 34.1875 72.9297 33.8151 72.1953 33.0703C71.4661 32.3203 71.1016 31.3177 71.1016 30.0625C71.1068 28.7344 71.487 27.6953 72.2422 26.9453C72.9974 26.1901 74.026 25.8125 75.3281 25.8125C76.5833 25.8073 77.5625 26.1771 78.2656 26.9219C78.974 27.6615 79.3281 28.6641 79.3281 29.9297C79.3281 31.2318 78.9531 32.2682 78.2031 33.0391C77.4583 33.8047 76.4479 34.1875 75.1719 34.1875ZM75.2578 32.7422C75.9818 32.7422 76.5312 32.5052 76.9062 32.0312C77.2865 31.5573 77.4766 30.8724 77.4766 29.9766C77.4766 29.0911 77.2865 28.4167 76.9062 27.9531C76.526 27.4896 75.974 27.2578 75.25 27.2578C74.5365 27.2578 73.974 27.5026 73.5625 27.9922C73.1562 28.4818 72.9531 29.1589 72.9531 30.0234C72.9531 30.8932 73.1562 31.5651 73.5625 32.0391C73.9688 32.5078 74.5339 32.7422 75.2578 32.7422ZM80.4062 33.3594L81.1953 32.0781C81.5078 32.2969 81.8385 32.474 82.1875 32.6094C82.5417 32.7396 82.9245 32.8047 83.3359 32.8047C83.7839 32.8047 84.1302 32.724 84.375 32.5625C84.625 32.3958 84.75 32.1484 84.75 31.8203C84.75 31.5599 84.6458 31.3438 84.4375 31.1719C84.2344 30.9948 83.8854 30.849 83.3906 30.7344C82.3906 30.5 81.6875 30.1901 81.2812 29.8047C80.8802 29.4193 80.6797 28.9115 80.6797 28.2812C80.6797 27.5573 80.9609 26.9661 81.5234 26.5078C82.0859 26.0443 82.8229 25.8125 83.7344 25.8125C84.1875 25.8125 84.6198 25.8724 85.0312 25.9922C85.4427 26.1068 85.8438 26.2917 86.2344 26.5469L85.5 27.7969C85.1562 27.5781 84.8411 27.4219 84.5547 27.3281C84.2682 27.2344 83.974 27.1875 83.6719 27.1875C83.2448 27.1875 82.9115 27.2682 82.6719 27.4297C82.4375 27.5859 82.3203 27.8047 82.3203 28.0859C82.3203 28.3828 82.4401 28.6042 82.6797 28.75C82.9245 28.8906 83.3333 29.0286 83.9062 29.1641C84.7708 29.3724 85.4036 29.6745 85.8047 30.0703C86.2057 30.4609 86.4062 30.9844 86.4062 31.6406C86.4062 32.4167 86.1224 33.0365 85.5547 33.5C84.9922 33.9583 84.2292 34.1875 83.2656 34.1875C82.7448 34.1875 82.2448 34.1198 81.7656 33.9844C81.2917 33.8438 80.8385 33.6354 80.4062 33.3594ZM91.6406 34.1875C90.3906 34.1875 89.3984 33.8151 88.6641 33.0703C87.9349 32.3203 87.5703 31.3177 87.5703 30.0625C87.5755 28.7344 87.9557 27.6953 88.7109 26.9453C89.4661 26.1901 90.4948 25.8125 91.7969 25.8125C93.0521 25.8073 94.0312 26.1771 94.7344 26.9219C95.4427 27.6615 95.7969 28.6641 95.7969 29.9297C95.7969 31.2318 95.4219 32.2682 94.6719 33.0391C93.9271 33.8047 92.9167 34.1875 91.6406 34.1875ZM91.7266 32.7422C92.4505 32.7422 93 32.5052 93.375 32.0312C93.7552 31.5573 93.9453 30.8724 93.9453 29.9766C93.9453 29.0911 93.7552 28.4167 93.375 27.9531C92.9948 27.4896 92.4427 27.2578 91.7188 27.2578C91.0052 27.2578 90.4427 27.5026 90.0312 27.9922C89.625 28.4818 89.4219 29.1589 89.4219 30.0234C89.4219 30.8932 89.625 31.5651 90.0312 32.0391C90.4375 32.5078 91.0026 32.7422 91.7266 32.7422ZM101.977 23.5859C101.831 23.5286 101.698 23.4896 101.578 23.4688C101.458 23.4427 101.328 23.4297 101.188 23.4297C100.802 23.4297 100.51 23.5417 100.312 23.7656C100.12 23.9844 100.023 24.3021 100.023 24.7188V26H101.875V27.4219H100.023V34H98.2109V27.4219H96.8516V26H98.2109V24.625C98.2109 23.8125 98.4714 23.1693 98.9922 22.6953C99.5182 22.2161 100.214 21.9766 101.078 21.9766C101.349 21.9766 101.583 21.9948 101.781 22.0312C101.979 22.0677 102.185 22.1198 102.398 22.1875L101.977 23.5859ZM107.523 33.8906C107.289 33.9896 107.044 34.0625 106.789 34.1094C106.534 34.1562 106.26 34.1797 105.969 34.1797C105.229 34.1797 104.659 33.9844 104.258 33.5938C103.862 33.1979 103.664 32.6094 103.664 31.8281V27.4219H102.32V26H103.664V24.0547L105.477 23.5078V26H107.391V27.4219H105.477V31.6797C105.477 32.0703 105.547 32.3516 105.688 32.5234C105.833 32.6953 106.057 32.7812 106.359 32.7812C106.505 32.7812 106.643 32.7656 106.773 32.7344C106.909 32.6979 107.029 32.6536 107.133 32.6016L107.523 33.8906ZM112.609 33.1953L113.438 31.7656C113.943 32.0781 114.414 32.2995 114.852 32.4297C115.289 32.5547 115.779 32.6172 116.32 32.6172C116.966 32.6172 117.474 32.4792 117.844 32.2031C118.219 31.9219 118.406 31.5208 118.406 31C118.406 30.526 118.25 30.1536 117.938 29.8828C117.63 29.6068 117.107 29.3542 116.367 29.125C115.227 28.7865 114.388 28.3672 113.852 27.8672C113.315 27.3672 113.047 26.6901 113.047 25.8359C113.047 24.9089 113.393 24.1406 114.086 23.5312C114.779 22.9167 115.719 22.6094 116.906 22.6094C117.427 22.6094 117.94 22.6667 118.445 22.7812C118.951 22.8958 119.451 23.0729 119.945 23.3125L119.25 24.7969C118.818 24.5729 118.404 24.4141 118.008 24.3203C117.617 24.2266 117.219 24.1797 116.812 24.1797C116.219 24.1797 115.75 24.3099 115.406 24.5703C115.068 24.8307 114.898 25.1979 114.898 25.6719C114.898 26.0938 115.055 26.4271 115.367 26.6719C115.68 26.9115 116.216 27.1484 116.977 27.3828C118.143 27.7318 118.982 28.1667 119.492 28.6875C120.008 29.2083 120.266 29.9245 120.266 30.8359C120.266 31.8151 119.917 32.6198 119.219 33.25C118.521 33.875 117.526 34.1875 116.234 34.1875C115.589 34.1875 114.958 34.1068 114.344 33.9453C113.729 33.7786 113.151 33.5286 112.609 33.1953ZM125.914 33.8906C125.68 33.9896 125.435 34.0625 125.18 34.1094C124.924 34.1562 124.651 34.1797 124.359 34.1797C123.62 34.1797 123.049 33.9844 122.648 33.5938C122.253 33.1979 122.055 32.6094 122.055 31.8281V27.4219H120.711V26H122.055V24.0547L123.867 23.5078V26H125.781V27.4219H123.867V31.6797C123.867 32.0703 123.938 32.3516 124.078 32.5234C124.224 32.6953 124.448 32.7812 124.75 32.7812C124.896 32.7812 125.034 32.7656 125.164 32.7344C125.299 32.6979 125.419 32.6536 125.523 32.6016L125.914 33.8906ZM130.891 34.1875C129.641 34.1875 128.648 33.8151 127.914 33.0703C127.185 32.3203 126.82 31.3177 126.82 30.0625C126.826 28.7344 127.206 27.6953 127.961 26.9453C128.716 26.1901 129.745 25.8125 131.047 25.8125C132.302 25.8073 133.281 26.1771 133.984 26.9219C134.693 27.6615 135.047 28.6641 135.047 29.9297C135.047 31.2318 134.672 32.2682 133.922 33.0391C133.177 33.8047 132.167 34.1875 130.891 34.1875ZM130.977 32.7422C131.701 32.7422 132.25 32.5052 132.625 32.0312C133.005 31.5573 133.195 30.8724 133.195 29.9766C133.195 29.0911 133.005 28.4167 132.625 27.9531C132.245 27.4896 131.693 27.2578 130.969 27.2578C130.255 27.2578 129.693 27.5026 129.281 27.9922C128.875 28.4818 128.672 29.1589 128.672 30.0234C128.672 30.8932 128.875 31.5651 129.281 32.0391C129.688 32.5078 130.253 32.7422 130.977 32.7422ZM141.352 27.5234C141.253 27.4974 141.156 27.4792 141.062 27.4688C140.974 27.4531 140.87 27.4453 140.75 27.4453C140.099 27.4453 139.599 27.6849 139.25 28.1641C138.901 28.6432 138.727 29.2682 138.727 30.0391V34H136.906V26H138.727V27.5391H138.758C138.945 26.987 139.221 26.5703 139.586 26.2891C139.951 26.0026 140.38 25.8594 140.875 25.8594C141.016 25.8594 141.141 25.8672 141.25 25.8828C141.365 25.8984 141.474 25.9219 141.578 25.9531L141.352 27.5234ZM149.594 30.4766H144.133C144.164 31.2318 144.383 31.8073 144.789 32.2031C145.195 32.5938 145.763 32.7891 146.492 32.7891C146.789 32.7891 147.128 32.7292 147.508 32.6094C147.888 32.4896 148.263 32.2969 148.633 32.0312L149.453 33.1641C148.958 33.5234 148.456 33.7839 147.945 33.9453C147.435 34.1068 146.872 34.1875 146.258 34.1875C145.013 34.1875 144.044 33.8307 143.352 33.1172C142.659 32.3984 142.31 31.3958 142.305 30.1094C142.305 28.8281 142.661 27.7917 143.375 27C144.094 26.2083 145.013 25.8125 146.133 25.8125C147.206 25.8125 148.049 26.151 148.664 26.8281C149.284 27.5 149.594 28.4531 149.594 29.6875V30.4766ZM147.836 29.2188C147.836 28.5312 147.685 28.0156 147.383 27.6719C147.086 27.3229 146.664 27.1484 146.117 27.1484C145.602 27.1484 145.161 27.3359 144.797 27.7109C144.438 28.0807 144.216 28.5833 144.133 29.2188H147.836Z" fill="black" fill-opacity="0.8956"/>
<defs>
<filter id="filter0_dd_1049_9230" x="13.7812" y="10.0833" width="14.4375" height="6.875" filterUnits="userSpaceOnUse" color-interpolation-filters="sRGB">
<feFlood flood-opacity="0" result="BackgroundImageFix"/>
<feColorMatrix in="SourceAlpha" type="matrix" values="0 0 0 0 0 0 0 0 0 0 0 0 0 0 0 0 0 0 127 0" result="hardAlpha"/>
<feOffset dy="0.229167"/>
<feGaussianBlur stdDeviation="0.229167"/>
<feColorMatrix type="matrix" values="0 0 0 0 0 0 0 0 0 0 0 0 0 0 0 0 0 0 0.1 0"/>
<feBlend mode="normal" in2="BackgroundImageFix" result="effect1_dropShadow_1049_9230"/>
<feColorMatrix in="SourceAlpha" type="matrix" values="0 0 0 0 0 0 0 0 0 0 0 0 0 0 0 0 0 0 127 0" result="hardAlpha"/>
<feOffset dy="0.458333"/>
<feGaussianBlur stdDeviation="0.6875"/>
<feColorMatrix type="matrix" values="0 0 0 0 0 0 0 0 0 0 0 0 0 0 0 0 0 0 0.2 0"/>
<feBlend mode="normal" in2="effect1_dropShadow_1049_9230" result="effect2_dropShadow_1049_9230"/>
<feBlend mode="normal" in="SourceGraphic" in2="effect2_dropShadow_1049_9230" result="shape"/>
</filter>
<filter id="filter1_dd_1049_9230" x="15.1562" y="17.6458" width="11.6875" height="11.6875" filterUnits="userSpaceOnUse" color-interpolation-filters="sRGB">
<feFlood flood-opacity="0" result="BackgroundImageFix"/>
<feColorMatrix in="SourceAlpha" type="matrix" values="0 0 0 0 0 0 0 0 0 0 0 0 0 0 0 0 0 0 127 0" result="hardAlpha"/>
<feOffset dy="0.229167"/>
<feGaussianBlur stdDeviation="0.229167"/>
<feColorMatrix type="matrix" values="0 0 0 0 0 0 0 0 0 0 0 0 0 0 0 0 0 0 0.1 0"/>
<feBlend mode="normal" in2="BackgroundImageFix" result="effect1_dropShadow_1049_9230"/>
<feColorMatrix in="SourceAlpha" type="matrix" values="0 0 0 0 0 0 0 0 0 0 0 0 0 0 0 0 0 0 127 0" result="hardAlpha"/>
<feOffset dy="0.458333"/>
<feGaussianBlur stdDeviation="0.6875"/>
<feColorMatrix type="matrix" values="0 0 0 0 0 0 0 0 0 0 0 0 0 0 0 0 0 0 0.2 0"/>
<feBlend mode="normal" in2="effect1_dropShadow_1049_9230" result="effect2_dropShadow_1049_9230"/>
<feBlend mode="normal" in="SourceGraphic" in2="effect2_dropShadow_1049_9230" result="shape"/>
</filter>
<filter id="filter2_dd_1049_9230" x="13.1704" y="9.39583" width="15.6594" height="6.18774" filterUnits="userSpaceOnUse" color-interpolation-filters="sRGB">
<feFlood flood-opacity="0" result="BackgroundImageFix"/>
<feColorMatrix in="SourceAlpha" type="matrix" values="0 0 0 0 0 0 0 0 0 0 0 0 0 0 0 0 0 0 127 0" result="hardAlpha"/>
<feOffset dy="-0.916667"/>
<feGaussianBlur stdDeviation="0.229167"/>
<feColorMatrix type="matrix" values="0 0 0 0 0 0 0 0 0 0 0 0 0 0 0 0 0 0 0.1 0"/>
<feBlend mode="normal" in2="BackgroundImageFix" result="effect1_dropShadow_1049_9230"/>
<feColorMatrix in="SourceAlpha" type="matrix" values="0 0 0 0 0 0 0 0 0 0 0 0 0 0 0 0 0 0 127 0" result="hardAlpha"/>
<feOffset dy="-0.916667"/>
<feGaussianBlur stdDeviation="0.6875"/>
<feColorMatrix type="matrix" values="0 0 0 0 0 0 0 0 0 0 0 0 0 0 0 0 0 0 0.2 0"/>
<feBlend mode="normal" in2="effect1_dropShadow_1049_9230" result="effect2_dropShadow_1049_9230"/>
<feBlend mode="normal" in="SourceGraphic" in2="effect2_dropShadow_1049_9230" result="shape"/>
</filter>
<linearGradient id="paint0_linear_1049_9230" x1="21" y1="13.75" x2="25.0962" y2="32.9541" gradientUnits="userSpaceOnUse">
<stop stop-color="#0669BC"/>
<stop offset="1" stop-color="#243A5F"/>
</linearGradient>
<linearGradient id="paint1_linear_1049_9230" x1="21" y1="13.75" x2="25.0962" y2="32.9541" gradientUnits="userSpaceOnUse">
<stop stop-color="#0078D4"/>
<stop offset="1" stop-color="#114A8B"/>
</linearGradient>
<linearGradient id="paint2_linear_1049_9230" x1="21" y1="11.6875" x2="21.1934" y2="14.6494" gradientUnits="userSpaceOnUse">
<stop stop-color="#28AFEA"/>
<stop offset="1" stop-color="#0078D4"/>
</linearGradient>
<linearGradient id="paint3_linear_1049_9230" x1="21" y1="11.6875" x2="21.1934" y2="14.6494" gradientUnits="userSpaceOnUse">
<stop stop-color="#30DAFF"/>
<stop offset="1" stop-color="#0094D4"/>
</linearGradient>
<linearGradient id="paint4_linear_1049_9230" x1="20.5035" y1="11" x2="20.5035" y2="12.375" gradientUnits="userSpaceOnUse">
<stop stop-color="#22BCFF"/>
<stop offset="1" stop-color="#0088F0"/>
</linearGradient>
<linearGradient id="paint5_linear_1049_9230" x1="20.5035" y1="11" x2="20.5035" y2="12.375" gradientUnits="userSpaceOnUse">
<stop stop-color="#28AFEA"/>
<stop offset="1" stop-color="#3CCBF4"/>
</linearGradient>
<clipPath id="clip0_1049_9230">
<rect width="22" height="22" fill="white" transform="translate(10 11)"/>
</clipPath>
<clipPath id="clip1_1049_9230">
<rect width="22" height="22" fill="white" transform="translate(10 11)"/>
</clipPath>
</defs>
</svg>
