<svg width="185" height="44" viewBox="0 0 185 44" fill="none" xmlns="http://www.w3.org/2000/svg">
<rect x="1" y="1" width="183" height="42" rx="4" fill="#202020"/>
<rect x="0.5" y="0.5" width="184" height="43" rx="4.5" stroke="white" stroke-opacity="0.1"/>
<g clip-path="url(#clip0_1049_9522)">
<g clip-path="url(#clip1_1049_9522)">
<path d="M10.3438 14.1667C10.3438 13.6604 10.7542 13.25 11.2604 13.25H30.7396C31.2458 13.25 31.6562 13.6604 31.6562 14.1667V28.0313C31.6562 30.1196 29.9633 31.8125 27.875 31.8125H14.125C12.0367 31.8125 10.3438 30.1196 10.3438 28.0313V14.1667Z" fill="url(#paint0_linear_1049_9522)"/>
<mask id="mask0_1049_9522" style="mask-type:alpha" maskUnits="userSpaceOnUse" x="10" y="13" width="22" height="19">
<path d="M10.3438 14.1667C10.3438 13.6604 10.7542 13.25 11.2604 13.25H30.7396C31.2458 13.25 31.6562 13.6604 31.6562 14.1667V28.0313C31.6562 30.1196 29.9633 31.8125 27.875 31.8125H14.125C12.0367 31.8125 10.3438 30.1196 10.3438 28.0313V14.1667Z" fill="url(#paint1_linear_1049_9522)"/>
</mask>
<g mask="url(#mask0_1049_9522)">
<g filter="url(#filter0_dd_1049_9522)">
<path d="M15.8438 13.9375V11.1875H26.1562V13.9375" stroke="url(#paint2_linear_1049_9522)" stroke-width="1.375" stroke-linecap="round"/>
</g>
</g>
<g filter="url(#filter1_dd_1049_9522)">
<path d="M20.6565 18.0625H16.5315V22.1875H20.6565V18.0625Z" fill="#F25022"/>
<path d="M25.4688 18.0625H21.3438V22.1875H25.4688V18.0625Z" fill="#7FBA00"/>
<path d="M25.4688 22.875H21.3438V27H25.4688V22.875Z" fill="#FFB900"/>
<path d="M20.6562 22.875H16.5312V27H20.6562V22.875Z" fill="#00A4EF"/>
</g>
<path d="M15.8438 13.9375V11.875C15.8438 11.4953 16.1516 11.1875 16.5313 11.1875H25.4688C25.8484 11.1875 26.1562 11.4953 26.1562 11.875V13.9375" stroke="url(#paint3_linear_1049_9522)" stroke-width="1.375" stroke-linecap="round"/>
<rect x="16.5312" y="10.5" width="8.9375" height="1.375" fill="url(#paint4_linear_1049_9522)"/>
<mask id="mask1_1049_9522" style="mask-type:alpha" maskUnits="userSpaceOnUse" x="16" y="10" width="10" height="2">
<rect x="16.5312" y="10.5" width="8.9375" height="1.375" fill="url(#paint5_linear_1049_9522)"/>
</mask>
<g mask="url(#mask1_1049_9522)">
<g filter="url(#filter2_dd_1049_9522)">
<rect x="14.5454" y="11.1877" width="1.98611" height="3.4375" fill="#C4C4C4"/>
</g>
</g>
</g>
</g>
<path d="M51.4219 21H49.5781V13.8516C49.5781 13.5286 49.5859 13.1771 49.6016 12.7969C49.6224 12.4115 49.6484 12.0026 49.6797 11.5703H49.6328C49.5703 11.8672 49.5104 12.1224 49.4531 12.3359C49.401 12.5443 49.349 12.7109 49.2969 12.8359L46.0078 21H44.7266L41.4219 12.9062C41.3802 12.7917 41.3281 12.6224 41.2656 12.3984C41.2083 12.1745 41.1458 11.8984 41.0781 11.5703H41.0312C41.0625 11.9453 41.0833 12.3438 41.0938 12.7656C41.1042 13.1823 41.1094 13.6224 41.1094 14.0859V21H39.3906V9.79688H42.0156L44.9297 17.0781C45.0443 17.3542 45.138 17.6094 45.2109 17.8438C45.2891 18.0729 45.349 18.2865 45.3906 18.4844H45.4375C45.5312 18.1875 45.6198 17.9193 45.7031 17.6797C45.7865 17.4401 45.8646 17.2318 45.9375 17.0547L48.8906 9.79688H51.4219V21ZM54.8984 11.4531C54.5651 11.4531 54.2891 11.3464 54.0703 11.1328C53.8516 10.9193 53.7422 10.6562 53.7422 10.3438C53.7422 10.0208 53.8516 9.75521 54.0703 9.54688C54.2891 9.33854 54.5651 9.23438 54.8984 9.23438C55.237 9.23438 55.5156 9.33854 55.7344 9.54688C55.9531 9.75521 56.0625 10.0208 56.0625 10.3438C56.0625 10.6615 55.9531 10.9271 55.7344 11.1406C55.5156 11.349 55.237 11.4531 54.8984 11.4531ZM55.7969 21H53.9766V13H55.7969V21ZM64.1562 20.5078C63.7604 20.7474 63.3672 20.9193 62.9766 21.0234C62.5859 21.1328 62.1615 21.1875 61.7031 21.1875C60.474 21.1875 59.4896 20.8281 58.75 20.1094C58.0156 19.3906 57.6484 18.4141 57.6484 17.1797C57.6484 15.8516 58.0286 14.7917 58.7891 14C59.5547 13.2083 60.5859 12.8125 61.8828 12.8125C62.3359 12.8125 62.7474 12.862 63.1172 12.9609C63.4922 13.0547 63.8724 13.2109 64.2578 13.4297L63.5469 14.6953C63.276 14.5443 63.0104 14.4349 62.75 14.3672C62.4896 14.2943 62.2057 14.2578 61.8984 14.2578C61.1328 14.2578 60.5417 14.5104 60.125 15.0156C59.7083 15.5208 59.5 16.1901 59.5 17.0234C59.5 17.8984 59.724 18.5703 60.1719 19.0391C60.625 19.5078 61.1927 19.7422 61.875 19.7422C62.0833 19.7422 62.3229 19.7057 62.5938 19.6328C62.8646 19.5547 63.138 19.4323 63.4141 19.2656L64.1562 20.5078ZM70.1484 14.5234C70.0495 14.4974 69.9531 14.4792 69.8594 14.4688C69.7708 14.4531 69.6667 14.4453 69.5469 14.4453C68.8958 14.4453 68.3958 14.6849 68.0469 15.1641C67.6979 15.6432 67.5234 16.2682 67.5234 17.0391V21H65.7031V13H67.5234V14.5391H67.5547C67.7422 13.987 68.0182 13.5703 68.3828 13.2891C68.7474 13.0026 69.1771 12.8594 69.6719 12.8594C69.8125 12.8594 69.9375 12.8672 70.0469 12.8828C70.1615 12.8984 70.2708 12.9219 70.375 12.9531L70.1484 14.5234ZM75.1719 21.1875C73.9219 21.1875 72.9297 20.8151 72.1953 20.0703C71.4661 19.3203 71.1016 18.3177 71.1016 17.0625C71.1068 15.7344 71.487 14.6953 72.2422 13.9453C72.9974 13.1901 74.026 12.8125 75.3281 12.8125C76.5833 12.8073 77.5625 13.1771 78.2656 13.9219C78.974 14.6615 79.3281 15.6641 79.3281 16.9297C79.3281 18.2318 78.9531 19.2682 78.2031 20.0391C77.4583 20.8047 76.4479 21.1875 75.1719 21.1875ZM75.2578 19.7422C75.9818 19.7422 76.5312 19.5052 76.9062 19.0312C77.2865 18.5573 77.4766 17.8724 77.4766 16.9766C77.4766 16.0911 77.2865 15.4167 76.9062 14.9531C76.526 14.4896 75.974 14.2578 75.25 14.2578C74.5365 14.2578 73.974 14.5026 73.5625 14.9922C73.1562 15.4818 72.9531 16.1589 72.9531 17.0234C72.9531 17.8932 73.1562 18.5651 73.5625 19.0391C73.9688 19.5078 74.5339 19.7422 75.2578 19.7422ZM80.4062 20.3594L81.1953 19.0781C81.5078 19.2969 81.8385 19.474 82.1875 19.6094C82.5417 19.7396 82.9245 19.8047 83.3359 19.8047C83.7839 19.8047 84.1302 19.724 84.375 19.5625C84.625 19.3958 84.75 19.1484 84.75 18.8203C84.75 18.5599 84.6458 18.3438 84.4375 18.1719C84.2344 17.9948 83.8854 17.849 83.3906 17.7344C82.3906 17.5 81.6875 17.1901 81.2812 16.8047C80.8802 16.4193 80.6797 15.9115 80.6797 15.2812C80.6797 14.5573 80.9609 13.9661 81.5234 13.5078C82.0859 13.0443 82.8229 12.8125 83.7344 12.8125C84.1875 12.8125 84.6198 12.8724 85.0312 12.9922C85.4427 13.1068 85.8438 13.2917 86.2344 13.5469L85.5 14.7969C85.1562 14.5781 84.8411 14.4219 84.5547 14.3281C84.2682 14.2344 83.974 14.1875 83.6719 14.1875C83.2448 14.1875 82.9115 14.2682 82.6719 14.4297C82.4375 14.5859 82.3203 14.8047 82.3203 15.0859C82.3203 15.3828 82.4401 15.6042 82.6797 15.75C82.9245 15.8906 83.3333 16.0286 83.9062 16.1641C84.7708 16.3724 85.4036 16.6745 85.8047 17.0703C86.2057 17.4609 86.4062 17.9844 86.4062 18.6406C86.4062 19.4167 86.1224 20.0365 85.5547 20.5C84.9922 20.9583 84.2292 21.1875 83.2656 21.1875C82.7448 21.1875 82.2448 21.1198 81.7656 20.9844C81.2917 20.8438 80.8385 20.6354 80.4062 20.3594ZM91.6406 21.1875C90.3906 21.1875 89.3984 20.8151 88.6641 20.0703C87.9349 19.3203 87.5703 18.3177 87.5703 17.0625C87.5755 15.7344 87.9557 14.6953 88.7109 13.9453C89.4661 13.1901 90.4948 12.8125 91.7969 12.8125C93.0521 12.8073 94.0312 13.1771 94.7344 13.9219C95.4427 14.6615 95.7969 15.6641 95.7969 16.9297C95.7969 18.2318 95.4219 19.2682 94.6719 20.0391C93.9271 20.8047 92.9167 21.1875 91.6406 21.1875ZM91.7266 19.7422C92.4505 19.7422 93 19.5052 93.375 19.0312C93.7552 18.5573 93.9453 17.8724 93.9453 16.9766C93.9453 16.0911 93.7552 15.4167 93.375 14.9531C92.9948 14.4896 92.4427 14.2578 91.7188 14.2578C91.0052 14.2578 90.4427 14.5026 90.0312 14.9922C89.625 15.4818 89.4219 16.1589 89.4219 17.0234C89.4219 17.8932 89.625 18.5651 90.0312 19.0391C90.4375 19.5078 91.0026 19.7422 91.7266 19.7422ZM101.977 10.5859C101.831 10.5286 101.698 10.4896 101.578 10.4688C101.458 10.4427 101.328 10.4297 101.188 10.4297C100.802 10.4297 100.51 10.5417 100.312 10.7656C100.12 10.9844 100.023 11.3021 100.023 11.7188V13H101.875V14.4219H100.023V21H98.2109V14.4219H96.8516V13H98.2109V11.625C98.2109 10.8125 98.4714 10.1693 98.9922 9.69531C99.5182 9.21615 100.214 8.97656 101.078 8.97656C101.349 8.97656 101.583 8.99479 101.781 9.03125C101.979 9.06771 102.185 9.11979 102.398 9.1875L101.977 10.5859ZM107.523 20.8906C107.289 20.9896 107.044 21.0625 106.789 21.1094C106.534 21.1562 106.26 21.1797 105.969 21.1797C105.229 21.1797 104.659 20.9844 104.258 20.5938C103.862 20.1979 103.664 19.6094 103.664 18.8281V14.4219H102.32V13H103.664V11.0547L105.477 10.5078V13H107.391V14.4219H105.477V18.6797C105.477 19.0703 105.547 19.3516 105.688 19.5234C105.833 19.6953 106.057 19.7812 106.359 19.7812C106.505 19.7812 106.643 19.7656 106.773 19.7344C106.909 19.6979 107.029 19.6536 107.133 19.6016L107.523 20.8906ZM112.609 20.1953L113.438 18.7656C113.943 19.0781 114.414 19.2995 114.852 19.4297C115.289 19.5547 115.779 19.6172 116.32 19.6172C116.966 19.6172 117.474 19.4792 117.844 19.2031C118.219 18.9219 118.406 18.5208 118.406 18C118.406 17.526 118.25 17.1536 117.938 16.8828C117.63 16.6068 117.107 16.3542 116.367 16.125C115.227 15.7865 114.388 15.3672 113.852 14.8672C113.315 14.3672 113.047 13.6901 113.047 12.8359C113.047 11.9089 113.393 11.1406 114.086 10.5312C114.779 9.91667 115.719 9.60938 116.906 9.60938C117.427 9.60938 117.94 9.66667 118.445 9.78125C118.951 9.89583 119.451 10.0729 119.945 10.3125L119.25 11.7969C118.818 11.5729 118.404 11.4141 118.008 11.3203C117.617 11.2266 117.219 11.1797 116.812 11.1797C116.219 11.1797 115.75 11.3099 115.406 11.5703C115.068 11.8307 114.898 12.1979 114.898 12.6719C114.898 13.0938 115.055 13.4271 115.367 13.6719C115.68 13.9115 116.216 14.1484 116.977 14.3828C118.143 14.7318 118.982 15.1667 119.492 15.6875C120.008 16.2083 120.266 16.9245 120.266 17.8359C120.266 18.8151 119.917 19.6198 119.219 20.25C118.521 20.875 117.526 21.1875 116.234 21.1875C115.589 21.1875 114.958 21.1068 114.344 20.9453C113.729 20.7786 113.151 20.5286 112.609 20.1953ZM125.914 20.8906C125.68 20.9896 125.435 21.0625 125.18 21.1094C124.924 21.1562 124.651 21.1797 124.359 21.1797C123.62 21.1797 123.049 20.9844 122.648 20.5938C122.253 20.1979 122.055 19.6094 122.055 18.8281V14.4219H120.711V13H122.055V11.0547L123.867 10.5078V13H125.781V14.4219H123.867V18.6797C123.867 19.0703 123.938 19.3516 124.078 19.5234C124.224 19.6953 124.448 19.7812 124.75 19.7812C124.896 19.7812 125.034 19.7656 125.164 19.7344C125.299 19.6979 125.419 19.6536 125.523 19.6016L125.914 20.8906ZM130.891 21.1875C129.641 21.1875 128.648 20.8151 127.914 20.0703C127.185 19.3203 126.82 18.3177 126.82 17.0625C126.826 15.7344 127.206 14.6953 127.961 13.9453C128.716 13.1901 129.745 12.8125 131.047 12.8125C132.302 12.8073 133.281 13.1771 133.984 13.9219C134.693 14.6615 135.047 15.6641 135.047 16.9297C135.047 18.2318 134.672 19.2682 133.922 20.0391C133.177 20.8047 132.167 21.1875 130.891 21.1875ZM130.977 19.7422C131.701 19.7422 132.25 19.5052 132.625 19.0312C133.005 18.5573 133.195 17.8724 133.195 16.9766C133.195 16.0911 133.005 15.4167 132.625 14.9531C132.245 14.4896 131.693 14.2578 130.969 14.2578C130.255 14.2578 129.693 14.5026 129.281 14.9922C128.875 15.4818 128.672 16.1589 128.672 17.0234C128.672 17.8932 128.875 18.5651 129.281 19.0391C129.688 19.5078 130.253 19.7422 130.977 19.7422ZM141.352 14.5234C141.253 14.4974 141.156 14.4792 141.062 14.4688C140.974 14.4531 140.87 14.4453 140.75 14.4453C140.099 14.4453 139.599 14.6849 139.25 15.1641C138.901 15.6432 138.727 16.2682 138.727 17.0391V21H136.906V13H138.727V14.5391H138.758C138.945 13.987 139.221 13.5703 139.586 13.2891C139.951 13.0026 140.38 12.8594 140.875 12.8594C141.016 12.8594 141.141 12.8672 141.25 12.8828C141.365 12.8984 141.474 12.9219 141.578 12.9531L141.352 14.5234ZM149.594 17.4766H144.133C144.164 18.2318 144.383 18.8073 144.789 19.2031C145.195 19.5938 145.763 19.7891 146.492 19.7891C146.789 19.7891 147.128 19.7292 147.508 19.6094C147.888 19.4896 148.263 19.2969 148.633 19.0312L149.453 20.1641C148.958 20.5234 148.456 20.7839 147.945 20.9453C147.435 21.1068 146.872 21.1875 146.258 21.1875C145.013 21.1875 144.044 20.8307 143.352 20.1172C142.659 19.3984 142.31 18.3958 142.305 17.1094C142.305 15.8281 142.661 14.7917 143.375 14C144.094 13.2083 145.013 12.8125 146.133 12.8125C147.206 12.8125 148.049 13.151 148.664 13.8281C149.284 14.5 149.594 15.4531 149.594 16.6875V17.4766ZM147.836 16.2188C147.836 15.5312 147.685 15.0156 147.383 14.6719C147.086 14.3229 146.664 14.1484 146.117 14.1484C145.602 14.1484 145.161 14.3359 144.797 14.7109C144.438 15.0807 144.216 15.5833 144.133 16.2188H147.836Z" fill="white"/>
<path d="M41.3691 31.5293H38.7031V30.8994H41.3691V31.5293ZM51.6279 32.6279C51.6279 32.999 51.6263 33.3148 51.623 33.5752C51.6198 33.8324 51.6165 34.0667 51.6133 34.2783L51.5938 35.9727H50.793L50.8223 34.3271C50.8288 34.1188 50.832 33.8779 50.832 33.6045C50.8353 33.3311 50.8369 33.0511 50.8369 32.7646C50.8369 32.2536 50.8304 31.7913 50.8174 31.3779C50.8044 30.9613 50.7718 30.5804 50.7197 30.2354C50.6676 29.8903 50.5879 29.5745 50.4805 29.2881C50.373 29.0016 50.2266 28.7331 50.041 28.4824C49.9043 28.3001 49.7448 28.1357 49.5625 27.9893C49.3835 27.8395 49.1784 27.7126 48.9473 27.6084C48.7161 27.5042 48.459 27.4245 48.1758 27.3691C47.8958 27.3105 47.5882 27.2812 47.2529 27.2812C46.068 27.2812 45.1517 27.5807 44.5039 28.1797C44.2012 28.4629 43.9717 28.7884 43.8154 29.1562C43.6592 29.5241 43.5811 29.9538 43.5811 30.4453C43.5811 30.9108 43.6527 31.3633 43.7959 31.8027C43.9391 32.2389 44.1393 32.6523 44.3965 33.043C44.7643 32.929 45.1468 32.846 45.5439 32.7939C45.9411 32.7386 46.3138 32.7109 46.6621 32.7109C46.9486 32.7109 47.2318 32.7272 47.5117 32.7598C47.7917 32.7891 48.0651 32.8379 48.332 32.9062C48.4264 32.6719 48.4997 32.4342 48.5518 32.1934C48.6038 31.9525 48.6299 31.7051 48.6299 31.4512C48.6299 31.1549 48.5957 30.8783 48.5273 30.6211C48.459 30.3607 48.3597 30.1361 48.2295 29.9473C48.1025 29.7552 47.9463 29.6055 47.7607 29.498C47.5752 29.3874 47.3636 29.3337 47.126 29.3369V29.3564C47.2269 29.389 47.3229 29.4395 47.4141 29.5078C47.5052 29.5729 47.585 29.6527 47.6533 29.7471C47.7217 29.8382 47.7754 29.9424 47.8145 30.0596C47.8568 30.1735 47.8779 30.2956 47.8779 30.4258C47.8779 30.6341 47.8405 30.8245 47.7656 30.9971C47.694 31.1663 47.5931 31.3128 47.4629 31.4365C47.3327 31.557 47.1781 31.6514 46.999 31.7197C46.8232 31.7848 46.6312 31.8174 46.4229 31.8174C46.195 31.8174 45.9883 31.7816 45.8027 31.71C45.6172 31.6351 45.4577 31.5342 45.3242 31.4072C45.194 31.277 45.0915 31.1257 45.0166 30.9531C44.945 30.7773 44.9092 30.5885 44.9092 30.3867C44.9092 30.1328 44.9661 29.9017 45.0801 29.6934C45.194 29.485 45.347 29.3076 45.5391 29.1611C45.7311 29.0146 45.9525 28.9007 46.2031 28.8193C46.457 28.738 46.7223 28.6973 46.999 28.6973C47.3864 28.6973 47.7282 28.764 48.0244 28.8975C48.3239 29.0309 48.5745 29.2165 48.7764 29.4541C48.9782 29.6917 49.1312 29.9766 49.2354 30.3086C49.3395 30.6374 49.3916 30.9987 49.3916 31.3926C49.3916 31.7116 49.3607 32.0176 49.2988 32.3105C49.2402 32.6035 49.1523 32.8883 49.0352 33.165C49.2044 33.2432 49.359 33.3359 49.499 33.4434C49.639 33.5475 49.7594 33.6663 49.8604 33.7998C49.9613 33.93 50.0394 34.0732 50.0947 34.2295C50.1501 34.389 50.1777 34.5632 50.1777 34.752C50.1777 34.9538 50.1387 35.1361 50.0605 35.2988C49.9857 35.4648 49.8766 35.6064 49.7334 35.7236C49.5902 35.8408 49.4144 35.932 49.2061 35.9971C49.001 36.0622 48.7682 36.0947 48.5078 36.0947C48.1758 36.0947 47.8438 36.0589 47.5117 35.9873C47.1797 35.9157 46.8558 35.8115 46.54 35.6748C46.2536 35.8115 45.946 35.9157 45.6172 35.9873C45.2917 36.0589 44.958 36.0947 44.6162 36.0947C44.2842 36.0947 43.9912 36.0622 43.7373 35.9971C43.4834 35.9352 43.2686 35.8457 43.0928 35.7285C42.9202 35.6146 42.7884 35.4762 42.6973 35.3135C42.6094 35.1507 42.5654 34.9701 42.5654 34.7715C42.5654 34.6185 42.5931 34.472 42.6484 34.332C42.707 34.1953 42.7868 34.0667 42.8877 33.9463C42.9919 33.8258 43.1123 33.7152 43.249 33.6143C43.3857 33.5101 43.5355 33.4157 43.6982 33.3311C43.4085 32.8949 43.1823 32.4359 43.0195 31.9541C42.86 31.4723 42.7803 30.9759 42.7803 30.4648C42.7803 29.8691 42.8844 29.332 43.0928 28.8535C43.3044 28.3717 43.5973 27.9632 43.9717 27.6279C44.3883 27.2601 44.875 26.9883 45.4316 26.8125C45.9915 26.6367 46.6019 26.5488 47.2627 26.5488C47.6729 26.5488 48.0505 26.583 48.3955 26.6514C48.7438 26.7197 49.0596 26.8158 49.3428 26.9395C49.6292 27.0599 49.8831 27.2064 50.1045 27.3789C50.3291 27.5482 50.5228 27.737 50.6855 27.9453C50.9069 28.2253 51.0794 28.528 51.2031 28.8535C51.3301 29.1758 51.4245 29.5273 51.4863 29.9082C51.5514 30.2891 51.5905 30.7041 51.6035 31.1533C51.6198 31.6025 51.6279 32.0941 51.6279 32.6279ZM48.0049 33.5361C47.7803 33.484 47.5508 33.4482 47.3164 33.4287C47.082 33.4059 46.8542 33.3945 46.6328 33.3945C46.4961 33.3945 46.3512 33.3994 46.1982 33.4092C46.0452 33.4189 45.8906 33.4336 45.7344 33.4531C45.5781 33.4694 45.4219 33.4922 45.2656 33.5215C45.1126 33.5475 44.9661 33.5801 44.8262 33.6191C45.0638 33.8958 45.3226 34.1481 45.6025 34.376C45.8825 34.6038 46.1803 34.7975 46.4961 34.957C46.8118 34.7845 47.0951 34.5762 47.3457 34.332C47.5996 34.0911 47.8193 33.8258 48.0049 33.5361ZM45.7051 35.2549C45.3991 35.0693 45.1126 34.8626 44.8457 34.6348C44.582 34.4069 44.3379 34.1579 44.1133 33.8877C44.0026 33.9398 43.9001 33.9967 43.8057 34.0586C43.7145 34.1204 43.6348 34.1872 43.5664 34.2588C43.498 34.3304 43.4443 34.4053 43.4053 34.4834C43.3695 34.5615 43.3516 34.6445 43.3516 34.7324C43.3516 34.8496 43.3825 34.9505 43.4443 35.0352C43.5062 35.123 43.5908 35.1947 43.6982 35.25C43.8089 35.3086 43.9391 35.3509 44.0889 35.377C44.2419 35.403 44.4079 35.416 44.5869 35.416C44.7855 35.416 44.9759 35.4014 45.1582 35.3721C45.3438 35.346 45.526 35.307 45.7051 35.2549ZM49.416 34.6543C49.416 34.4557 49.3525 34.2848 49.2256 34.1416C49.0986 33.9984 48.9326 33.8779 48.7275 33.7803C48.3662 34.3695 47.8975 34.8594 47.3213 35.25C47.5036 35.3053 47.6891 35.346 47.8779 35.3721C48.07 35.4014 48.2637 35.416 48.459 35.416C48.7747 35.416 49.0124 35.3477 49.1719 35.2109C49.3346 35.0742 49.416 34.8887 49.416 34.6543ZM47.1455 30.3574C47.1455 30.2337 47.1243 30.1198 47.082 30.0156C47.043 29.9082 46.9876 29.8154 46.916 29.7373C46.8444 29.6559 46.7598 29.5908 46.6621 29.542C46.5645 29.4932 46.4603 29.4639 46.3496 29.4541C46.2552 29.4736 46.1673 29.5094 46.0859 29.5615C46.0046 29.6104 45.9329 29.6722 45.8711 29.7471C45.8092 29.8219 45.7604 29.9098 45.7246 30.0107C45.6921 30.1084 45.6758 30.2174 45.6758 30.3379C45.6758 30.4551 45.6937 30.5609 45.7295 30.6553C45.7653 30.7497 45.8158 30.8311 45.8809 30.8994C45.9492 30.9678 46.029 31.0199 46.1201 31.0557C46.2113 31.0915 46.3122 31.1094 46.4229 31.1094C46.6442 31.1094 46.82 31.0443 46.9502 30.9141C47.0804 30.7839 47.1455 30.5983 47.1455 30.3574ZM62.7412 34V28.3896C62.7412 27.999 62.7135 27.6458 62.6582 27.3301C62.6029 27.0143 62.5085 26.7458 62.375 26.5244C62.2415 26.3031 62.0625 26.1338 61.8379 26.0166C61.6165 25.8962 61.3382 25.8359 61.0029 25.8359C60.7523 25.8359 60.5195 25.8766 60.3047 25.958C60.0931 26.0394 59.9092 26.1566 59.7529 26.3096C59.5967 26.4593 59.473 26.6449 59.3818 26.8662C59.2939 27.0843 59.25 27.3301 59.25 27.6035C59.25 27.8151 59.2728 28.0088 59.3184 28.1846C59.3672 28.3604 59.4355 28.5117 59.5234 28.6387C59.6146 28.7656 59.7236 28.8649 59.8506 28.9365C59.9808 29.0049 60.1257 29.0391 60.2852 29.0391C60.3275 29.0391 60.3714 29.0374 60.417 29.0342C60.4626 29.0277 60.5016 29.0195 60.5342 29.0098C60.4756 28.8926 60.4121 28.7754 60.3438 28.6582C60.2754 28.5378 60.2021 28.4189 60.124 28.3018L60.9004 28.0527C61.0729 28.3034 61.221 28.5622 61.3447 28.8291C61.4717 29.096 61.5742 29.363 61.6523 29.6299C61.7337 29.8968 61.7939 30.1605 61.833 30.4209C61.8721 30.6781 61.8916 30.9238 61.8916 31.1582C61.8916 31.5618 61.8379 31.9427 61.7305 32.3008C61.6263 32.6556 61.4766 32.9681 61.2812 33.2383C61.0859 33.5052 60.8483 33.7168 60.5684 33.873C60.2884 34.0293 59.9743 34.1074 59.626 34.1074C59.0368 34.1074 58.5924 33.9365 58.293 33.5947C57.9967 33.2529 57.8324 32.7337 57.7998 32.0371C57.7965 31.9557 57.7917 31.8564 57.7852 31.7393C57.7819 31.6221 57.777 31.5049 57.7705 31.3877C57.764 31.2705 57.7575 31.1598 57.751 31.0557C57.7445 30.9482 57.7396 30.8636 57.7363 30.8018C57.7266 30.613 57.7103 30.4372 57.6875 30.2744C57.6647 30.1084 57.6322 29.957 57.5898 29.8203C57.5508 29.6836 57.4987 29.5599 57.4336 29.4492C57.3685 29.3353 57.2887 29.2344 57.1943 29.1465C57.0674 29.0326 56.916 28.9447 56.7402 28.8828C56.5677 28.8177 56.3594 28.7852 56.1152 28.7852C55.8125 28.7852 55.5309 28.8438 55.2705 28.9609C55.0101 29.0781 54.7839 29.2458 54.5918 29.4639C54.3997 29.682 54.2484 29.944 54.1377 30.25C54.027 30.556 53.9717 30.8962 53.9717 31.2705C53.9717 31.3291 53.9733 31.3942 53.9766 31.4658C53.9798 31.5374 53.9896 31.609 54.0059 31.6807H54.0352C54.0807 31.5537 54.1458 31.4382 54.2305 31.334C54.3184 31.2266 54.4209 31.137 54.5381 31.0654C54.6553 30.9906 54.7839 30.9336 54.9238 30.8945C55.0671 30.8522 55.2184 30.8311 55.3779 30.8311C55.5993 30.8311 55.8044 30.8701 55.9932 30.9482C56.182 31.0231 56.3447 31.1289 56.4814 31.2656C56.6182 31.4023 56.7256 31.5684 56.8037 31.7637C56.8818 31.9557 56.9209 32.1689 56.9209 32.4033C56.9209 32.6475 56.8818 32.8737 56.8037 33.082C56.7256 33.2871 56.6133 33.4661 56.4668 33.6191C56.3203 33.7721 56.1429 33.8926 55.9346 33.9805C55.7295 34.0651 55.5 34.1074 55.2461 34.1074C54.9206 34.1074 54.6309 34.0342 54.377 33.8877C54.123 33.7412 53.9082 33.5426 53.7324 33.292C53.5566 33.0413 53.4215 32.75 53.3271 32.418C53.236 32.0859 53.1904 31.7344 53.1904 31.3633C53.1904 30.8392 53.2669 30.3721 53.4199 29.9619C53.5762 29.5518 53.7878 29.2051 54.0547 28.9219C54.3249 28.6387 54.6406 28.4238 55.002 28.2773C55.3633 28.1276 55.749 28.0527 56.1592 28.0527C56.488 28.0527 56.7809 28.0951 57.0381 28.1797C57.2985 28.2643 57.5215 28.3848 57.707 28.541C57.974 28.7689 58.1693 29.0602 58.293 29.415C58.4199 29.7699 58.5013 30.1963 58.5371 30.6943C58.5404 30.7562 58.5452 30.8408 58.5518 30.9482C58.5583 31.0524 58.5632 31.1631 58.5664 31.2803C58.5729 31.3975 58.5778 31.513 58.5811 31.627C58.5843 31.7409 58.5859 31.8369 58.5859 31.915C58.5957 32.2015 58.6234 32.4359 58.6689 32.6182C58.7178 32.8005 58.7959 32.9518 58.9033 33.0723C58.9912 33.1764 59.0986 33.2529 59.2256 33.3018C59.3525 33.3506 59.4974 33.375 59.6602 33.375C59.875 33.375 60.0687 33.3213 60.2412 33.2139C60.4137 33.1064 60.5602 32.9567 60.6807 32.7646C60.8044 32.5726 60.8988 32.3447 60.9639 32.0811C61.0322 31.8141 61.0664 31.5228 61.0664 31.207C61.0664 30.9629 61.0452 30.7122 61.0029 30.4551C60.9606 30.1979 60.8923 29.9375 60.7979 29.6738C60.7425 29.6901 60.6676 29.7031 60.5732 29.7129C60.4821 29.7227 60.3877 29.7275 60.29 29.7275C59.9678 29.7275 59.6911 29.6657 59.46 29.542C59.2321 29.415 59.0449 29.2523 58.8984 29.0537C58.752 28.8519 58.6429 28.6257 58.5713 28.375C58.5029 28.1243 58.4688 27.8737 58.4688 27.623C58.4688 27.2324 58.5339 26.8825 58.6641 26.5732C58.7975 26.264 58.9798 26.002 59.2109 25.7871C59.4421 25.569 59.7139 25.403 60.0264 25.2891C60.3421 25.1719 60.6839 25.1133 61.0518 25.1133C61.4652 25.1133 61.8249 25.1768 62.1309 25.3037C62.4368 25.4274 62.6908 25.6081 62.8926 25.8457C63.1302 26.1289 63.2979 26.4658 63.3955 26.8564C63.4932 27.2471 63.542 27.7109 63.542 28.248V34H62.7412ZM56.1201 32.4521C56.1201 32.3219 56.1006 32.1999 56.0615 32.0859C56.0225 31.972 55.9655 31.8727 55.8906 31.7881C55.8158 31.7035 55.723 31.6367 55.6123 31.5879C55.5016 31.5391 55.3747 31.5146 55.2314 31.5146C55.0947 31.5146 54.9694 31.5391 54.8555 31.5879C54.7415 31.6367 54.6423 31.7035 54.5576 31.7881C54.4762 31.8727 54.4128 31.972 54.3672 32.0859C54.3216 32.1999 54.2988 32.3219 54.2988 32.4521C54.2988 32.5986 54.3216 32.7321 54.3672 32.8525C54.4128 32.973 54.4762 33.0771 54.5576 33.165C54.6423 33.2497 54.7399 33.3164 54.8506 33.3652C54.9645 33.4141 55.0882 33.4385 55.2217 33.4385C55.3421 33.4385 55.4561 33.4189 55.5635 33.3799C55.6742 33.3376 55.7702 33.2757 55.8516 33.1943C55.9329 33.113 55.998 33.0104 56.0469 32.8867C56.0957 32.763 56.1201 32.6182 56.1201 32.4521ZM74.2891 32.2129C74.2891 32.8184 74.1882 33.3587 73.9863 33.834C73.7878 34.306 73.5111 34.7048 73.1562 35.0303C72.7721 35.3851 72.3099 35.6504 71.7695 35.8262C71.2324 36.0052 70.6188 36.0947 69.9287 36.0947C69.2321 36.0947 68.5941 35.9906 68.0146 35.7822C67.4352 35.5739 66.9372 35.276 66.5205 34.8887C66.1038 34.5013 65.7799 34.0309 65.5488 33.4775C65.3177 32.9242 65.2021 32.3024 65.2021 31.6123C65.2021 31.2575 65.2363 30.9157 65.3047 30.5869C65.3763 30.2581 65.474 29.9473 65.5977 29.6543C65.7246 29.3613 65.876 29.0895 66.0518 28.8389C66.2275 28.5882 66.4229 28.362 66.6377 28.1602L67.4824 28.3945C67.0104 28.7721 66.6458 29.2279 66.3887 29.7617C66.1315 30.2956 66.0029 30.8962 66.0029 31.5635C66.0029 32.1917 66.1006 32.7435 66.2959 33.2188C66.4945 33.6908 66.7679 34.0846 67.1162 34.4004C67.4678 34.7194 67.8828 34.9587 68.3613 35.1182C68.8431 35.2809 69.3672 35.3623 69.9336 35.3623C70.5033 35.3623 71.0062 35.2972 71.4424 35.167C71.8818 35.0368 72.2513 34.8398 72.5508 34.5762C72.8503 34.3158 73.0765 33.9902 73.2295 33.5996C73.3857 33.209 73.4639 32.7516 73.4639 32.2275C73.4639 32.016 73.4492 31.8125 73.4199 31.6172C73.3939 31.4186 73.3418 31.2428 73.2637 31.0898C73.1888 30.9368 73.083 30.8148 72.9463 30.7236C72.8128 30.6325 72.6387 30.5869 72.4238 30.5869C72.0397 30.5869 71.7467 30.7204 71.5449 30.9873C71.3431 31.2542 71.2422 31.6514 71.2422 32.1787V34H70.4414V28.873H68.8057V34H68.0049V28.1553H73.2148V28.873H71.2422V30.499H71.2568C71.3903 30.2972 71.5677 30.1393 71.7891 30.0254C72.0104 29.9082 72.266 29.8496 72.5557 29.8496C72.8649 29.8496 73.1286 29.9098 73.3467 30.0303C73.568 30.1475 73.7471 30.3118 73.8838 30.5234C74.0238 30.735 74.1263 30.9857 74.1914 31.2754C74.2565 31.5618 74.2891 31.8743 74.2891 32.2129ZM82.3213 32.2324C82.3213 32.8639 82.2334 33.3831 82.0576 33.79C81.8818 34.1937 81.6165 34.5176 81.2617 34.7617C81.0892 34.8822 80.9004 34.9798 80.6953 35.0547C80.4902 35.1328 80.2705 35.193 80.0361 35.2354C79.8018 35.2777 79.5527 35.307 79.2891 35.3232C79.0286 35.3395 78.7568 35.3477 78.4736 35.3477C78.3337 35.3477 78.1888 35.346 78.0391 35.3428C77.8893 35.3428 77.7428 35.3411 77.5996 35.3379C77.4564 35.3379 77.3213 35.3363 77.1943 35.333C77.0674 35.333 76.9551 35.333 76.8574 35.333C76.6686 35.333 76.5335 35.3558 76.4521 35.4014C76.374 35.4502 76.335 35.5365 76.335 35.6602C76.335 35.735 76.3431 35.8083 76.3594 35.8799C76.3789 35.9515 76.4049 36.0231 76.4375 36.0947H75.7148C75.6823 36.0199 75.6514 35.932 75.6221 35.8311C75.596 35.7334 75.583 35.6341 75.583 35.5332C75.583 35.2272 75.6839 34.9993 75.8857 34.8496C76.0876 34.7031 76.3805 34.6299 76.7646 34.6299C76.8883 34.6299 77.0299 34.6299 77.1895 34.6299C77.3522 34.6331 77.5182 34.6348 77.6875 34.6348C77.8568 34.638 78.0244 34.6396 78.1904 34.6396C78.3597 34.6429 78.5127 34.6445 78.6494 34.6445C79.0889 34.6445 79.4893 34.6136 79.8506 34.5518C80.2119 34.4932 80.5195 34.3711 80.7734 34.1855C81.0208 34.0065 81.2031 33.7673 81.3203 33.4678C81.4375 33.1683 81.4961 32.7891 81.4961 32.3301C81.4961 32.0241 81.4733 31.7555 81.4277 31.5244C81.3854 31.29 81.3008 31.1029 81.1738 30.9629C81.099 30.875 81.0062 30.8066 80.8955 30.7578C80.7848 30.7057 80.6465 30.6797 80.4805 30.6797C80.0736 30.6797 79.766 30.8066 79.5576 31.0605C79.3525 31.3145 79.25 31.6888 79.25 32.1836V34H78.4492V28.873H76.7744V34H75.9736V28.1553H81.7207V28.873H79.25V30.6113H79.2646C79.4111 30.3835 79.6016 30.2158 79.8359 30.1084C80.0736 30.001 80.3421 29.9473 80.6416 29.9473C80.9183 29.9473 81.1576 29.9977 81.3594 30.0986C81.5612 30.1963 81.7321 30.3346 81.8721 30.5137C82.0283 30.7122 82.1423 30.958 82.2139 31.251C82.2855 31.5407 82.3213 31.8678 82.3213 32.2324ZM79.5723 26.29C79.5723 26.391 79.5544 26.4854 79.5186 26.5732C79.4795 26.6611 79.4274 26.7376 79.3623 26.8027C79.2972 26.8678 79.2207 26.9199 79.1328 26.959C79.0449 26.9948 78.9505 27.0127 78.8496 27.0127C78.7487 27.0127 78.6543 26.9948 78.5664 26.959C78.4785 26.9199 78.402 26.8678 78.3369 26.8027C78.2718 26.7376 78.2214 26.6611 78.1855 26.5732C78.1465 26.4854 78.127 26.391 78.127 26.29C78.127 26.1891 78.1465 26.0947 78.1855 26.0068C78.2214 25.9157 78.2718 25.8376 78.3369 25.7725C78.402 25.7074 78.4785 25.6553 78.5664 25.6162C78.6543 25.5771 78.7487 25.5576 78.8496 25.5576C78.9505 25.5576 79.0449 25.5771 79.1328 25.6162C79.2207 25.6553 79.2972 25.7074 79.3623 25.7725C79.4274 25.8376 79.4795 25.9157 79.5186 26.0068C79.5544 26.0947 79.5723 26.1891 79.5723 26.29ZM90.5098 34.2393C90.3535 34.5583 90.1533 34.8333 89.9092 35.0645C89.665 35.2988 89.3802 35.4925 89.0547 35.6455C88.7324 35.7985 88.3727 35.9108 87.9756 35.9824C87.5785 36.0573 87.1504 36.0947 86.6914 36.0947C86.2194 36.0947 85.7783 36.0524 85.3682 35.9678C84.958 35.8864 84.5999 35.7692 84.2939 35.6162C83.9912 35.4632 83.752 35.2777 83.5762 35.0596C83.4004 34.8415 83.3125 34.5973 83.3125 34.3271C83.3125 34.0537 83.4118 33.8535 83.6104 33.7266C83.8122 33.5996 84.1084 33.5361 84.499 33.5361H89.9238C89.9661 33.3896 89.9971 33.235 90.0166 33.0723C90.0394 32.9062 90.0508 32.7305 90.0508 32.5449C90.0508 32.2878 90.0264 32.0599 89.9775 31.8613C89.932 31.6595 89.8587 31.4902 89.7578 31.3535C89.6569 31.2135 89.5267 31.1077 89.3672 31.0361C89.2077 30.9645 89.0156 30.9287 88.791 30.9287H88.3516V31.1143C88.3516 31.4691 88.3011 31.7702 88.2002 32.0176C88.1025 32.265 87.9382 32.4798 87.707 32.6621C87.515 32.8151 87.2887 32.9274 87.0283 32.999C86.7679 33.0706 86.4733 33.1064 86.1445 33.1064C85.7962 33.1064 85.4854 33.069 85.2119 32.9941C84.9417 32.916 84.7139 32.8086 84.5283 32.6719C84.3428 32.5319 84.2012 32.3659 84.1035 32.1738C84.0059 31.9785 83.957 31.7637 83.957 31.5293C83.957 31.1419 84.0596 30.8473 84.2646 30.6455C84.473 30.4404 84.7562 30.3086 85.1143 30.25V28.1553H90.1973V28.873H88.3516V30.2207H88.7373C89.0954 30.2207 89.3997 30.2646 89.6504 30.3525C89.9043 30.4372 90.1289 30.582 90.3242 30.7871C90.5098 30.9824 90.6465 31.2217 90.7344 31.5049C90.8223 31.7881 90.8662 32.1152 90.8662 32.4863C90.8662 32.6784 90.8564 32.8607 90.8369 33.0332C90.8174 33.2057 90.7897 33.3734 90.7539 33.5361H91.9746V28.1553H92.7754V34.2393H90.5098ZM84.4893 34.2393C84.3525 34.2393 84.2565 34.2507 84.2012 34.2734C84.1458 34.2962 84.1182 34.3467 84.1182 34.4248C84.1182 34.5225 84.18 34.6266 84.3037 34.7373C84.4307 34.848 84.6081 34.9489 84.8359 35.04C85.0671 35.1344 85.3421 35.2126 85.6611 35.2744C85.9801 35.3363 86.3333 35.3672 86.7207 35.3672C87.0104 35.3672 87.2952 35.3493 87.5752 35.3135C87.8584 35.2777 88.1253 35.2158 88.376 35.1279C88.6266 35.0433 88.8561 34.9277 89.0645 34.7812C89.276 34.638 89.4551 34.4574 89.6016 34.2393H84.4893ZM87.5508 30.9287H85.8809C85.7376 30.9287 85.6009 30.9352 85.4707 30.9482C85.3405 30.9613 85.2233 30.9906 85.1191 31.0361C85.0182 31.0785 84.9368 31.1403 84.875 31.2217C84.8164 31.3031 84.7871 31.4137 84.7871 31.5537C84.7871 31.6969 84.818 31.8206 84.8799 31.9248C84.945 32.029 85.0361 32.1152 85.1533 32.1836C85.2738 32.252 85.417 32.304 85.583 32.3398C85.749 32.3724 85.9346 32.3887 86.1396 32.3887C86.3708 32.3887 86.571 32.3626 86.7402 32.3105C86.9128 32.2585 87.0609 32.1852 87.1846 32.0908C87.3083 31.9932 87.3994 31.8695 87.458 31.7197C87.5199 31.5667 87.5508 31.3779 87.5508 31.1533V30.9287ZM87.5508 28.873H85.915V30.2207H87.5508V28.873ZM97.5264 34V28.1553H98.3271V33.2822H103.229V28.1553H104.03V34H97.5264ZM114.846 29.8887C114.846 30.0742 114.846 30.2598 114.846 30.4453C114.846 30.6309 114.844 30.8132 114.841 30.9922L114.807 34H114.011L114.045 31.0459C114.048 30.8636 114.048 30.6862 114.045 30.5137C114.045 30.3379 114.045 30.1621 114.045 29.9863C114.045 29.2799 113.981 28.6777 113.854 28.1797C113.731 27.6816 113.522 27.2633 113.229 26.9248C113.09 26.762 112.915 26.6172 112.707 26.4902C112.502 26.36 112.266 26.2493 111.999 26.1582C111.735 26.0671 111.444 25.9987 111.125 25.9531C110.809 25.9043 110.471 25.8799 110.109 25.8799C109.53 25.8799 109.012 25.9466 108.557 26.0801C108.101 26.2103 107.715 26.3942 107.399 26.6318C107.087 26.8695 106.848 27.1543 106.682 27.4863C106.519 27.8151 106.438 28.1764 106.438 28.5703C106.438 28.9219 106.486 29.2327 106.584 29.5029C106.682 29.7699 106.812 29.9961 106.975 30.1816V28.1553H112.531V28.873H110.305V30.665H110.856C111.205 30.665 111.521 30.7041 111.804 30.7822C112.09 30.8604 112.334 30.9824 112.536 31.1484C112.738 31.3145 112.894 31.5277 113.005 31.7881C113.116 32.0485 113.171 32.361 113.171 32.7256C113.171 33.152 113.093 33.528 112.937 33.8535C112.784 34.179 112.562 34.4508 112.272 34.6689C111.983 34.8903 111.63 35.0563 111.213 35.167C110.799 35.2809 110.332 35.3379 109.812 35.3379C109.317 35.3379 108.835 35.3363 108.366 35.333C107.901 35.333 107.447 35.333 107.004 35.333C106.809 35.333 106.67 35.3558 106.589 35.4014C106.511 35.4502 106.472 35.5365 106.472 35.6602C106.472 35.735 106.48 35.8083 106.496 35.8799C106.516 35.9515 106.543 36.0231 106.579 36.0947H105.861C105.826 36.0133 105.793 35.9238 105.764 35.8262C105.738 35.7318 105.725 35.6341 105.725 35.5332C105.725 35.224 105.826 34.9961 106.027 34.8496C106.232 34.7031 106.529 34.6299 106.916 34.6299C107.105 34.6299 107.316 34.6299 107.551 34.6299C107.788 34.6299 108.037 34.6299 108.298 34.6299C108.562 34.6331 108.832 34.6348 109.108 34.6348C109.388 34.6348 109.663 34.6348 109.934 34.6348C110.275 34.6348 110.593 34.5973 110.886 34.5225C111.179 34.4476 111.433 34.332 111.647 34.1758C111.862 34.0228 112.032 33.8307 112.155 33.5996C112.279 33.3652 112.341 33.0902 112.341 32.7744C112.341 32.5107 112.303 32.291 112.229 32.1152C112.157 31.9362 112.056 31.793 111.926 31.6855C111.799 31.5749 111.646 31.4967 111.467 31.4512C111.291 31.4023 111.099 31.3779 110.891 31.3779H110.305V31.8711C110.305 32.2747 110.253 32.6133 110.148 32.8867C110.044 33.1602 109.888 33.3913 109.68 33.5801C109.283 33.9316 108.721 34.1074 107.995 34.1074C107.627 34.1074 107.303 34.0602 107.023 33.9658C106.747 33.8682 106.514 33.7363 106.325 33.5703C106.14 33.4043 106 33.2106 105.905 32.9893C105.811 32.7679 105.764 32.5319 105.764 32.2812C105.764 31.9167 105.843 31.6172 106.003 31.3828C106.166 31.1452 106.4 30.9645 106.706 30.8408C106.547 30.7171 106.4 30.5755 106.267 30.416C106.136 30.2565 106.024 30.0807 105.93 29.8887C105.839 29.6966 105.767 29.4899 105.715 29.2686C105.666 29.0472 105.642 28.8145 105.642 28.5703C105.642 28.0853 105.744 27.6344 105.949 27.2178C106.158 26.8011 106.454 26.4398 106.838 26.1338C107.225 25.8245 107.696 25.582 108.249 25.4062C108.802 25.2305 109.426 25.1426 110.119 25.1426C110.982 25.1426 111.724 25.2516 112.346 25.4697C112.971 25.6878 113.464 26.002 113.825 26.4121C114.001 26.6074 114.152 26.8239 114.279 27.0615C114.406 27.2992 114.512 27.5612 114.597 27.8477C114.681 28.1309 114.743 28.4417 114.782 28.7803C114.825 29.1188 114.846 29.4883 114.846 29.8887ZM109.504 31.3779H107.741C107.367 31.3779 107.082 31.4463 106.887 31.583C106.691 31.7197 106.594 31.946 106.594 32.2617C106.594 32.4245 106.623 32.5742 106.682 32.7109C106.743 32.8477 106.833 32.9648 106.95 33.0625C107.071 33.1602 107.22 33.2367 107.399 33.292C107.578 33.3473 107.787 33.375 108.024 33.375C108.526 33.375 108.897 33.2562 109.138 33.0186C109.382 32.7777 109.504 32.3936 109.504 31.8662V31.3779ZM109.504 28.873H107.775V30.665H109.504V28.873ZM126.462 34V28.0527C126.462 27.7207 126.438 27.4196 126.389 27.1494C126.343 26.876 126.26 26.6416 126.14 26.4463C126.022 26.251 125.861 26.1012 125.656 25.9971C125.454 25.8896 125.197 25.8359 124.885 25.8359C124.654 25.8359 124.442 25.8701 124.25 25.9385C124.058 26.0068 123.892 26.1061 123.752 26.2363C123.612 26.3633 123.503 26.5179 123.425 26.7002C123.35 26.8825 123.312 27.0876 123.312 27.3154C123.312 27.7158 123.4 28.0495 123.576 28.3164C123.755 28.5833 124.009 28.7542 124.338 28.8291V28.1553H125.139V34H120.876V33.4531C121.026 33.2806 121.158 33.0983 121.271 32.9062C121.385 32.7142 121.48 32.5156 121.555 32.3105C121.63 32.1055 121.685 31.8971 121.721 31.6855C121.76 31.474 121.779 31.264 121.779 31.0557C121.779 30.7171 121.727 30.4095 121.623 30.1328C121.522 29.8529 121.377 29.6136 121.188 29.415C121 29.2132 120.772 29.0586 120.505 28.9512C120.238 28.8405 119.942 28.7852 119.616 28.7852C119.291 28.7852 118.985 28.8454 118.698 28.9658C118.415 29.083 118.166 29.2507 117.951 29.4688C117.74 29.6868 117.572 29.9489 117.448 30.2549C117.328 30.5576 117.268 30.8962 117.268 31.2705C117.268 31.3291 117.269 31.3958 117.272 31.4707C117.279 31.5423 117.29 31.6123 117.307 31.6807H117.336C117.382 31.5537 117.447 31.4382 117.531 31.334C117.619 31.2266 117.722 31.137 117.839 31.0654C117.956 30.9906 118.086 30.9336 118.229 30.8945C118.373 30.8522 118.524 30.8311 118.684 30.8311C118.902 30.8311 119.105 30.8685 119.294 30.9434C119.483 31.0182 119.646 31.1257 119.782 31.2656C119.922 31.4023 120.031 31.5684 120.109 31.7637C120.188 31.9557 120.227 32.1689 120.227 32.4033C120.227 32.6475 120.188 32.8737 120.109 33.082C120.031 33.2871 119.919 33.4661 119.772 33.6191C119.626 33.7721 119.449 33.8926 119.24 33.9805C119.035 34.0651 118.804 34.1074 118.547 34.1074C118.316 34.1074 118.104 34.07 117.912 33.9951C117.72 33.9202 117.548 33.8177 117.395 33.6875C117.245 33.554 117.113 33.3994 116.999 33.2236C116.885 33.0446 116.791 32.8525 116.716 32.6475C116.641 32.4424 116.584 32.2292 116.545 32.0078C116.509 31.7865 116.491 31.5667 116.491 31.3486C116.491 30.818 116.574 30.3493 116.74 29.9424C116.91 29.5322 117.137 29.1872 117.424 28.9072C117.714 28.6273 118.05 28.4157 118.435 28.2725C118.819 28.126 119.227 28.0527 119.66 28.0527C120.067 28.0527 120.45 28.1178 120.808 28.248C121.166 28.375 121.477 28.5638 121.74 28.8145C122.007 29.0618 122.217 29.3678 122.37 29.7324C122.526 30.097 122.604 30.5169 122.604 30.9922C122.604 31.1973 122.588 31.4023 122.556 31.6074C122.526 31.8125 122.482 32.0143 122.424 32.2129C122.365 32.4082 122.292 32.597 122.204 32.7793C122.119 32.9616 122.023 33.1292 121.916 33.2822H124.338V29.5615C124.048 29.5225 123.791 29.4362 123.566 29.3027C123.345 29.1693 123.156 29.0033 123 28.8047C122.847 28.6061 122.73 28.3799 122.648 28.126C122.57 27.8721 122.531 27.6035 122.531 27.3203C122.531 26.9785 122.591 26.6709 122.712 26.3975C122.836 26.124 123.003 25.8929 123.215 25.7041C123.43 25.512 123.68 25.3656 123.967 25.2646C124.257 25.1605 124.567 25.1084 124.899 25.1084C125.303 25.1084 125.653 25.1686 125.949 25.2891C126.249 25.4095 126.494 25.5869 126.687 25.8213C126.882 26.0557 127.027 26.3454 127.121 26.6904C127.215 27.0322 127.263 27.4261 127.263 27.8721V34H126.462ZM119.421 32.4521C119.421 32.3219 119.401 32.1999 119.362 32.0859C119.323 31.972 119.266 31.8727 119.191 31.7881C119.117 31.7035 119.024 31.6367 118.913 31.5879C118.806 31.5391 118.68 31.5146 118.537 31.5146C118.4 31.5146 118.273 31.5391 118.156 31.5879C118.042 31.6367 117.943 31.7035 117.858 31.7881C117.777 31.8727 117.714 31.972 117.668 32.0859C117.622 32.1999 117.6 32.3219 117.6 32.4521C117.6 32.5986 117.622 32.7321 117.668 32.8525C117.714 32.973 117.777 33.0771 117.858 33.165C117.943 33.2497 118.042 33.3164 118.156 33.3652C118.27 33.4141 118.394 33.4385 118.527 33.4385C118.648 33.4385 118.762 33.4189 118.869 33.3799C118.98 33.3376 119.076 33.2757 119.157 33.1943C119.239 33.1097 119.302 33.0072 119.348 32.8867C119.396 32.763 119.421 32.6182 119.421 32.4521ZM136.613 31.4414C136.613 32.0632 136.532 32.6263 136.369 33.1309C136.21 33.6322 135.959 34.0553 135.617 34.4004C135.311 34.7129 134.935 34.9489 134.489 35.1084C134.043 35.2679 133.521 35.3477 132.922 35.3477C132.72 35.3477 132.505 35.346 132.277 35.3428C132.049 35.3428 131.817 35.3428 131.579 35.3428C131.345 35.3428 131.109 35.3411 130.871 35.3379C130.637 35.3379 130.41 35.3379 130.192 35.3379C130.004 35.3379 129.87 35.3607 129.792 35.4062C129.717 35.4518 129.68 35.5365 129.68 35.6602C129.68 35.8099 129.714 35.9548 129.782 36.0947H129.06C129.027 36.0199 128.996 35.932 128.967 35.8311C128.941 35.7334 128.928 35.6341 128.928 35.5332C128.928 34.931 129.322 34.6299 130.109 34.6299C130.227 34.6299 130.36 34.6299 130.51 34.6299C130.663 34.6299 130.824 34.6299 130.993 34.6299C131.166 34.6299 131.34 34.6299 131.516 34.6299C131.691 34.6331 131.862 34.6348 132.028 34.6348C132.194 34.6348 132.349 34.6348 132.492 34.6348C132.635 34.6348 132.759 34.6348 132.863 34.6348C133.339 34.6348 133.758 34.5729 134.123 34.4492C134.491 34.3255 134.799 34.1318 135.046 33.8682C135.293 33.6012 135.477 33.2692 135.598 32.8721C135.721 32.4717 135.783 32.0078 135.783 31.4805C135.783 31.0508 135.754 30.6699 135.695 30.3379C135.637 30.0026 135.547 29.721 135.427 29.4932C135.31 29.262 135.163 29.0863 134.987 28.9658C134.812 28.8454 134.606 28.7852 134.372 28.7852C134.183 28.7852 134.007 28.8193 133.845 28.8877C133.685 28.9528 133.545 29.0618 133.425 29.2148C133.308 29.3646 133.215 29.5615 133.146 29.8057C133.078 30.0465 133.044 30.3428 133.044 30.6943V34H132.243V30.665C132.243 30.0075 132.15 29.5306 131.965 29.2344C131.779 28.9349 131.509 28.7852 131.154 28.7852C130.904 28.7852 130.703 28.834 130.554 28.9316C130.404 29.026 130.288 29.1693 130.207 29.3613C130.129 29.5534 130.077 29.7943 130.051 30.084C130.025 30.3737 130.012 30.7106 130.012 31.0947C130.012 31.251 130.012 31.4121 130.012 31.5781C130.015 31.7409 130.017 31.9313 130.017 32.1494C130.02 32.3675 130.023 32.6263 130.026 32.9258C130.033 33.222 130.041 33.5801 130.051 34H129.25C129.24 33.5443 129.232 33.1618 129.226 32.8525C129.222 32.54 129.219 32.2747 129.216 32.0566C129.216 31.8353 129.214 31.6481 129.211 31.4951C129.211 31.3421 129.211 31.1973 129.211 31.0605C129.211 30.7383 129.221 30.4518 129.24 30.2012C129.26 29.9473 129.289 29.7227 129.328 29.5273C129.37 29.3288 129.426 29.1562 129.494 29.0098C129.562 28.86 129.647 28.7266 129.748 28.6094C129.917 28.4141 130.114 28.2725 130.339 28.1846C130.567 28.0967 130.834 28.0527 131.14 28.0527C131.521 28.0527 131.841 28.1536 132.102 28.3555C132.365 28.554 132.554 28.821 132.668 29.1562H132.697C132.759 28.9902 132.845 28.8405 132.956 28.707C133.07 28.5703 133.2 28.4531 133.347 28.3555C133.493 28.2578 133.654 28.1829 133.83 28.1309C134.009 28.0788 134.195 28.0527 134.387 28.0527C134.702 28.0527 134.995 28.1162 135.266 28.2432C135.536 28.3669 135.77 28.5654 135.969 28.8389C136.171 29.1123 136.328 29.4639 136.442 29.8936C136.556 30.32 136.613 30.8359 136.613 31.4414ZM145.544 32.3789C145.544 32.6426 145.505 32.8802 145.427 33.0918C145.352 33.3034 145.243 33.4857 145.1 33.6387C144.956 33.7884 144.779 33.904 144.567 33.9854C144.359 34.0667 144.123 34.1074 143.859 34.1074C143.693 34.1074 143.529 34.096 143.366 34.0732C143.203 34.0505 143.059 34.0228 142.932 33.9902V33.2188C143.049 33.2741 143.184 33.3197 143.337 33.3555C143.49 33.3913 143.649 33.4092 143.815 33.4092C144.108 33.4092 144.331 33.3229 144.484 33.1504C144.637 32.9746 144.714 32.7337 144.714 32.4277C144.714 32.2357 144.685 32.0729 144.626 31.9395C144.571 31.806 144.486 31.6986 144.372 31.6172C144.261 31.5326 144.123 31.4723 143.957 31.4365C143.794 31.3975 143.605 31.3779 143.391 31.3779H142.478V31.8711C142.478 32.278 142.425 32.6198 142.321 32.8965C142.217 33.1699 142.058 33.401 141.843 33.5898C141.647 33.7591 141.408 33.8877 141.125 33.9756C140.845 34.0635 140.526 34.1074 140.168 34.1074C139.8 34.1074 139.476 34.0602 139.196 33.9658C138.92 33.8682 138.687 33.7363 138.498 33.5703C138.312 33.4043 138.173 33.2106 138.078 32.9893C137.984 32.7679 137.937 32.5319 137.937 32.2812C137.937 31.959 137.998 31.6888 138.122 31.4707C138.246 31.2493 138.418 31.0736 138.64 30.9434C138.715 30.8978 138.794 30.8571 138.879 30.8213C138.964 30.7855 139.055 30.7562 139.152 30.7334V28.1553H144.704V28.873H142.478V30.665H143.4C143.732 30.665 144.027 30.696 144.284 30.7578C144.541 30.8164 144.759 30.9076 144.938 31.0312C145.134 31.1745 145.284 31.3568 145.388 31.5781C145.492 31.7995 145.544 32.0664 145.544 32.3789ZM141.677 31.3779H139.914C139.54 31.3779 139.255 31.4463 139.06 31.583C138.864 31.7197 138.767 31.946 138.767 32.2617C138.767 32.4245 138.796 32.5742 138.854 32.7109C138.916 32.8477 139.007 32.9648 139.128 33.0625C139.248 33.1602 139.398 33.2367 139.577 33.292C139.756 33.3473 139.963 33.375 140.197 33.375C140.699 33.375 141.07 33.2562 141.311 33.0186C141.555 32.7777 141.677 32.3936 141.677 31.8662V31.3779ZM141.677 28.873H139.948V30.665H141.677V28.873ZM142.805 26.29C142.805 26.391 142.787 26.4854 142.751 26.5732C142.712 26.6611 142.66 26.7376 142.595 26.8027C142.53 26.8678 142.453 26.9199 142.365 26.959C142.277 26.9948 142.183 27.0127 142.082 27.0127C141.981 27.0127 141.887 26.9948 141.799 26.959C141.711 26.9199 141.634 26.8678 141.569 26.8027C141.504 26.7376 141.454 26.6611 141.418 26.5732C141.379 26.4854 141.359 26.391 141.359 26.29C141.359 26.1891 141.379 26.0947 141.418 26.0068C141.454 25.9157 141.504 25.8376 141.569 25.7725C141.634 25.7074 141.711 25.6553 141.799 25.6162C141.887 25.5771 141.981 25.5576 142.082 25.5576C142.183 25.5576 142.277 25.5771 142.365 25.6162C142.453 25.6553 142.53 25.7074 142.595 25.7725C142.66 25.8376 142.712 25.9157 142.751 26.0068C142.787 26.0947 142.805 26.1891 142.805 26.29ZM154.401 32.3789C154.401 32.6426 154.362 32.8802 154.284 33.0918C154.209 33.3034 154.1 33.4857 153.957 33.6387C153.814 33.7884 153.636 33.904 153.425 33.9854C153.216 34.0667 152.98 34.1074 152.717 34.1074C152.551 34.1074 152.386 34.096 152.224 34.0732C152.061 34.0505 151.916 34.0228 151.789 33.9902V33.2188C151.906 33.2741 152.041 33.3197 152.194 33.3555C152.347 33.3913 152.507 33.4092 152.673 33.4092C152.966 33.4092 153.189 33.3229 153.342 33.1504C153.495 32.9746 153.571 32.7337 153.571 32.4277C153.571 32.2357 153.542 32.0729 153.483 31.9395C153.428 31.806 153.343 31.6986 153.229 31.6172C153.119 31.5326 152.98 31.4723 152.814 31.4365C152.652 31.3975 152.463 31.3779 152.248 31.3779H151.335V31.8711C151.335 32.278 151.283 32.6198 151.179 32.8965C151.075 33.1699 150.915 33.401 150.7 33.5898C150.505 33.7591 150.266 33.8877 149.982 33.9756C149.702 34.0635 149.383 34.1074 149.025 34.1074C148.658 34.1074 148.334 34.0602 148.054 33.9658C147.777 33.8682 147.544 33.7363 147.355 33.5703C147.17 33.4043 147.03 33.2106 146.936 32.9893C146.841 32.7679 146.794 32.5319 146.794 32.2812C146.794 31.959 146.856 31.6888 146.979 31.4707C147.103 31.2493 147.276 31.0736 147.497 30.9434C147.572 30.8978 147.652 30.8571 147.736 30.8213C147.821 30.7855 147.912 30.7562 148.01 30.7334V28.1553H153.562V28.873H151.335V30.665H152.258C152.59 30.665 152.884 30.696 153.142 30.7578C153.399 30.8164 153.617 30.9076 153.796 31.0312C153.991 31.1745 154.141 31.3568 154.245 31.5781C154.349 31.7995 154.401 32.0664 154.401 32.3789ZM150.534 31.3779H148.771C148.397 31.3779 148.112 31.4463 147.917 31.583C147.722 31.7197 147.624 31.946 147.624 32.2617C147.624 32.4245 147.653 32.5742 147.712 32.7109C147.774 32.8477 147.865 32.9648 147.985 33.0625C148.106 33.1602 148.256 33.2367 148.435 33.292C148.614 33.3473 148.82 33.375 149.055 33.375C149.556 33.375 149.927 33.2562 150.168 33.0186C150.412 32.7777 150.534 32.3936 150.534 31.8662V31.3779ZM150.534 28.873H148.806V30.665H150.534V28.873ZM163.547 36.0947V34H160.085V33.4531C160.235 33.2806 160.367 33.0983 160.48 32.9062C160.594 32.7142 160.689 32.5156 160.764 32.3105C160.839 32.1055 160.894 31.8971 160.93 31.6855C160.969 31.474 160.988 31.264 160.988 31.0557C160.988 30.7171 160.936 30.4095 160.832 30.1328C160.731 29.8529 160.586 29.6136 160.397 29.415C160.209 29.2132 159.981 29.0586 159.714 28.9512C159.447 28.8405 159.151 28.7852 158.825 28.7852C158.5 28.7852 158.194 28.8454 157.907 28.9658C157.624 29.0863 157.375 29.2555 157.16 29.4736C156.949 29.6917 156.781 29.9538 156.657 30.2598C156.537 30.5658 156.477 30.9059 156.477 31.2803C156.477 31.3389 156.478 31.404 156.481 31.4756C156.488 31.5439 156.499 31.6123 156.516 31.6807H156.545C156.59 31.5537 156.656 31.4382 156.74 31.334C156.828 31.2266 156.931 31.137 157.048 31.0654C157.165 30.9906 157.295 30.9336 157.438 30.8945C157.582 30.8522 157.733 30.8311 157.893 30.8311C158.111 30.8311 158.314 30.8685 158.503 30.9434C158.692 31.0182 158.854 31.1257 158.991 31.2656C159.131 31.4023 159.24 31.5684 159.318 31.7637C159.396 31.9557 159.436 32.1689 159.436 32.4033C159.436 32.6475 159.396 32.8737 159.318 33.082C159.24 33.2871 159.128 33.4661 158.981 33.6191C158.835 33.7721 158.658 33.8926 158.449 33.9805C158.244 34.0651 158.013 34.1074 157.756 34.1074C157.525 34.1074 157.313 34.07 157.121 33.9951C156.929 33.9202 156.757 33.8177 156.604 33.6875C156.454 33.554 156.322 33.3994 156.208 33.2236C156.094 33.0446 156 32.8525 155.925 32.6475C155.85 32.4424 155.793 32.2292 155.754 32.0078C155.718 31.7865 155.7 31.5667 155.7 31.3486C155.7 30.818 155.783 30.3493 155.949 29.9424C156.118 29.5322 156.346 29.1872 156.633 28.9072C156.923 28.6273 157.259 28.4157 157.644 28.2725C158.028 28.126 158.436 28.0527 158.869 28.0527C159.276 28.0527 159.659 28.1178 160.017 28.248C160.375 28.375 160.686 28.5638 160.949 28.8145C161.216 29.0618 161.426 29.3678 161.579 29.7324C161.735 30.097 161.813 30.5169 161.813 30.9922C161.813 31.1973 161.797 31.4023 161.765 31.6074C161.735 31.8125 161.691 32.0143 161.633 32.2129C161.574 32.4082 161.501 32.597 161.413 32.7793C161.328 32.9616 161.232 33.1292 161.125 33.2822H163.547V28.1553H164.348V36.0947H163.547ZM158.63 32.4521C158.63 32.3219 158.61 32.1999 158.571 32.0859C158.532 31.972 158.475 31.8727 158.4 31.7881C158.326 31.7035 158.233 31.6367 158.122 31.5879C158.015 31.5391 157.889 31.5146 157.746 31.5146C157.609 31.5146 157.482 31.5391 157.365 31.5879C157.251 31.6367 157.152 31.7035 157.067 31.7881C156.986 31.8727 156.923 31.972 156.877 32.0859C156.831 32.1999 156.809 32.3219 156.809 32.4521C156.809 32.5986 156.831 32.7321 156.877 32.8525C156.923 32.973 156.986 33.0771 157.067 33.165C157.152 33.2497 157.251 33.3164 157.365 33.3652C157.479 33.4141 157.603 33.4385 157.736 33.4385C157.857 33.4385 157.971 33.4189 158.078 33.3799C158.189 33.3376 158.285 33.2757 158.366 33.1943C158.448 33.1097 158.511 33.0072 158.557 32.8867C158.605 32.763 158.63 32.6182 158.63 32.4521ZM174.143 31.6221C174.143 32.0485 174.115 32.457 174.06 32.8477C174.004 33.2383 173.923 33.6224 173.815 34H166.354V28.1553H167.155V33.2822H169.572V30.0547C169.572 29.6706 169.615 29.3548 169.699 29.1074C169.784 28.86 169.919 28.6549 170.104 28.4922C170.264 28.349 170.456 28.2399 170.681 28.165C170.905 28.0902 171.166 28.0527 171.462 28.0527C171.787 28.0527 172.079 28.0967 172.336 28.1846C172.596 28.2692 172.826 28.3913 173.024 28.5508C173.223 28.707 173.392 28.8958 173.532 29.1172C173.675 29.3353 173.791 29.5762 173.879 29.8398C173.97 30.1035 174.037 30.3867 174.079 30.6895C174.121 30.9889 174.143 31.2998 174.143 31.6221ZM173.322 31.6807C173.322 31.2575 173.288 30.8701 173.22 30.5186C173.155 30.1637 173.049 29.8577 172.902 29.6006C172.756 29.3434 172.565 29.1432 172.331 29C172.1 28.8568 171.818 28.7852 171.486 28.7852C171.281 28.7852 171.107 28.8128 170.964 28.8682C170.824 28.9202 170.71 29.0016 170.622 29.1123C170.534 29.223 170.471 29.3613 170.432 29.5273C170.393 29.6934 170.373 29.8903 170.373 30.1182V33.2822H173.117C173.179 33.0479 173.228 32.7972 173.264 32.5303C173.303 32.2601 173.322 31.9769 173.322 31.6807ZM170.744 26.29C170.744 26.391 170.726 26.4854 170.69 26.5732C170.651 26.6611 170.599 26.7376 170.534 26.8027C170.469 26.8678 170.393 26.9199 170.305 26.959C170.217 26.9948 170.122 27.0127 170.021 27.0127C169.921 27.0127 169.826 26.9948 169.738 26.959C169.65 26.9199 169.574 26.8678 169.509 26.8027C169.444 26.7376 169.393 26.6611 169.357 26.5732C169.318 26.4854 169.299 26.391 169.299 26.29C169.299 26.1891 169.318 26.0947 169.357 26.0068C169.393 25.9157 169.444 25.8376 169.509 25.7725C169.574 25.7074 169.65 25.6553 169.738 25.6162C169.826 25.5771 169.921 25.5576 170.021 25.5576C170.122 25.5576 170.217 25.5771 170.305 25.6162C170.393 25.6553 170.469 25.7074 170.534 25.7725C170.599 25.8376 170.651 25.9157 170.69 26.0068C170.726 26.0947 170.744 26.1891 170.744 26.29Z" fill="white"/>
<defs>
<filter id="filter0_dd_1049_9522" x="13.7812" y="9.58333" width="14.4375" height="6.875" filterUnits="userSpaceOnUse" color-interpolation-filters="sRGB">
<feFlood flood-opacity="0" result="BackgroundImageFix"/>
<feColorMatrix in="SourceAlpha" type="matrix" values="0 0 0 0 0 0 0 0 0 0 0 0 0 0 0 0 0 0 127 0" result="hardAlpha"/>
<feOffset dy="0.229167"/>
<feGaussianBlur stdDeviation="0.229167"/>
<feColorMatrix type="matrix" values="0 0 0 0 0 0 0 0 0 0 0 0 0 0 0 0 0 0 0.1 0"/>
<feBlend mode="normal" in2="BackgroundImageFix" result="effect1_dropShadow_1049_9522"/>
<feColorMatrix in="SourceAlpha" type="matrix" values="0 0 0 0 0 0 0 0 0 0 0 0 0 0 0 0 0 0 127 0" result="hardAlpha"/>
<feOffset dy="0.458333"/>
<feGaussianBlur stdDeviation="0.6875"/>
<feColorMatrix type="matrix" values="0 0 0 0 0 0 0 0 0 0 0 0 0 0 0 0 0 0 0.2 0"/>
<feBlend mode="normal" in2="effect1_dropShadow_1049_9522" result="effect2_dropShadow_1049_9522"/>
<feBlend mode="normal" in="SourceGraphic" in2="effect2_dropShadow_1049_9522" result="shape"/>
</filter>
<filter id="filter1_dd_1049_9522" x="15.1562" y="17.1458" width="11.6875" height="11.6875" filterUnits="userSpaceOnUse" color-interpolation-filters="sRGB">
<feFlood flood-opacity="0" result="BackgroundImageFix"/>
<feColorMatrix in="SourceAlpha" type="matrix" values="0 0 0 0 0 0 0 0 0 0 0 0 0 0 0 0 0 0 127 0" result="hardAlpha"/>
<feOffset dy="0.229167"/>
<feGaussianBlur stdDeviation="0.229167"/>
<feColorMatrix type="matrix" values="0 0 0 0 1 0 0 0 0 1 0 0 0 0 1 0 0 0 0.6 0"/>
<feBlend mode="normal" in2="BackgroundImageFix" result="effect1_dropShadow_1049_9522"/>
<feColorMatrix in="SourceAlpha" type="matrix" values="0 0 0 0 0 0 0 0 0 0 0 0 0 0 0 0 0 0 127 0" result="hardAlpha"/>
<feOffset dy="0.458333"/>
<feGaussianBlur stdDeviation="0.6875"/>
<feColorMatrix type="matrix" values="0 0 0 0 1 0 0 0 0 1 0 0 0 0 1 0 0 0 0.6 0"/>
<feBlend mode="normal" in2="effect1_dropShadow_1049_9522" result="effect2_dropShadow_1049_9522"/>
<feBlend mode="normal" in="SourceGraphic" in2="effect2_dropShadow_1049_9522" result="shape"/>
</filter>
<filter id="filter2_dd_1049_9522" x="13.1704" y="8.89583" width="15.6594" height="6.18774" filterUnits="userSpaceOnUse" color-interpolation-filters="sRGB">
<feFlood flood-opacity="0" result="BackgroundImageFix"/>
<feColorMatrix in="SourceAlpha" type="matrix" values="0 0 0 0 0 0 0 0 0 0 0 0 0 0 0 0 0 0 127 0" result="hardAlpha"/>
<feOffset dy="-0.916667"/>
<feGaussianBlur stdDeviation="0.229167"/>
<feColorMatrix type="matrix" values="0 0 0 0 0 0 0 0 0 0 0 0 0 0 0 0 0 0 0.1 0"/>
<feBlend mode="normal" in2="BackgroundImageFix" result="effect1_dropShadow_1049_9522"/>
<feColorMatrix in="SourceAlpha" type="matrix" values="0 0 0 0 0 0 0 0 0 0 0 0 0 0 0 0 0 0 127 0" result="hardAlpha"/>
<feOffset dy="-0.916667"/>
<feGaussianBlur stdDeviation="0.6875"/>
<feColorMatrix type="matrix" values="0 0 0 0 0 0 0 0 0 0 0 0 0 0 0 0 0 0 0.2 0"/>
<feBlend mode="normal" in2="effect1_dropShadow_1049_9522" result="effect2_dropShadow_1049_9522"/>
<feBlend mode="normal" in="SourceGraphic" in2="effect2_dropShadow_1049_9522" result="shape"/>
</filter>
<linearGradient id="paint0_linear_1049_9522" x1="15.1875" y1="10.5078" x2="19.6603" y2="31.0495" gradientUnits="userSpaceOnUse">
<stop offset="0.270833" stop-color="white"/>
<stop offset="1" stop-color="#DFDFDF"/>
</linearGradient>
<linearGradient id="paint1_linear_1049_9522" x1="21" y1="13.25" x2="25.0962" y2="32.4541" gradientUnits="userSpaceOnUse">
<stop stop-color="#0078D4"/>
<stop offset="1" stop-color="#114A8B"/>
</linearGradient>
<linearGradient id="paint2_linear_1049_9522" x1="21" y1="11.1875" x2="21.1934" y2="14.1494" gradientUnits="userSpaceOnUse">
<stop stop-color="#28AFEA"/>
<stop offset="1" stop-color="#0078D4"/>
</linearGradient>
<linearGradient id="paint3_linear_1049_9522" x1="21" y1="11.1875" x2="21.1934" y2="14.1494" gradientUnits="userSpaceOnUse">
<stop stop-color="#30DAFF"/>
<stop offset="1" stop-color="#0094D4"/>
</linearGradient>
<linearGradient id="paint4_linear_1049_9522" x1="20.5035" y1="10.5" x2="20.5035" y2="11.875" gradientUnits="userSpaceOnUse">
<stop stop-color="#22BCFF"/>
<stop offset="1" stop-color="#0088F0"/>
</linearGradient>
<linearGradient id="paint5_linear_1049_9522" x1="20.5035" y1="10.5" x2="20.5035" y2="11.875" gradientUnits="userSpaceOnUse">
<stop stop-color="#28AFEA"/>
<stop offset="1" stop-color="#3CCBF4"/>
</linearGradient>
<clipPath id="clip0_1049_9522">
<rect width="22" height="22" fill="white" transform="translate(10 10.5)"/>
</clipPath>
<clipPath id="clip1_1049_9522">
<rect width="22" height="22" fill="white" transform="translate(10 10.5)"/>
</clipPath>
</defs>
</svg>
