<svg width="161" height="44" viewBox="0 0 161 44" fill="none" xmlns="http://www.w3.org/2000/svg">
<rect x="1" y="1" width="159" height="42" rx="4" fill="#202020"/>
<rect x="0.5" y="0.5" width="160" height="43" rx="4.5" stroke="white" stroke-opacity="0.1"/>
<g clip-path="url(#clip0_1049_9534)">
<g clip-path="url(#clip1_1049_9534)">
<path d="M10.3438 14.1667C10.3438 13.6604 10.7542 13.25 11.2604 13.25H30.7396C31.2458 13.25 31.6562 13.6604 31.6562 14.1667V28.0313C31.6562 30.1196 29.9633 31.8125 27.875 31.8125H14.125C12.0367 31.8125 10.3438 30.1196 10.3438 28.0313V14.1667Z" fill="url(#paint0_linear_1049_9534)"/>
<mask id="mask0_1049_9534" style="mask-type:alpha" maskUnits="userSpaceOnUse" x="10" y="13" width="22" height="19">
<path d="M10.3438 14.1667C10.3438 13.6604 10.7542 13.25 11.2604 13.25H30.7396C31.2458 13.25 31.6562 13.6604 31.6562 14.1667V28.0313C31.6562 30.1196 29.9633 31.8125 27.875 31.8125H14.125C12.0367 31.8125 10.3438 30.1196 10.3438 28.0313V14.1667Z" fill="url(#paint1_linear_1049_9534)"/>
</mask>
<g mask="url(#mask0_1049_9534)">
<g filter="url(#filter0_dd_1049_9534)">
<path d="M15.8438 13.9375V11.1875H26.1562V13.9375" stroke="url(#paint2_linear_1049_9534)" stroke-width="1.375" stroke-linecap="round"/>
</g>
</g>
<g filter="url(#filter1_dd_1049_9534)">
<path d="M20.6565 18.0625H16.5315V22.1875H20.6565V18.0625Z" fill="#F25022"/>
<path d="M25.4688 18.0625H21.3438V22.1875H25.4688V18.0625Z" fill="#7FBA00"/>
<path d="M25.4688 22.875H21.3438V27H25.4688V22.875Z" fill="#FFB900"/>
<path d="M20.6562 22.875H16.5312V27H20.6562V22.875Z" fill="#00A4EF"/>
</g>
<path d="M15.8438 13.9375V11.875C15.8438 11.4953 16.1516 11.1875 16.5313 11.1875H25.4688C25.8484 11.1875 26.1562 11.4953 26.1562 11.875V13.9375" stroke="url(#paint3_linear_1049_9534)" stroke-width="1.375" stroke-linecap="round"/>
<rect x="16.5312" y="10.5" width="8.9375" height="1.375" fill="url(#paint4_linear_1049_9534)"/>
<mask id="mask1_1049_9534" style="mask-type:alpha" maskUnits="userSpaceOnUse" x="16" y="10" width="10" height="2">
<rect x="16.5312" y="10.5" width="8.9375" height="1.375" fill="url(#paint5_linear_1049_9534)"/>
</mask>
<g mask="url(#mask1_1049_9534)">
<g filter="url(#filter2_dd_1049_9534)">
<rect x="14.5454" y="11.1877" width="1.98611" height="3.4375" fill="#C4C4C4"/>
</g>
</g>
</g>
</g>
<path d="M51.4219 21H49.5781V13.8516C49.5781 13.5286 49.5859 13.1771 49.6016 12.7969C49.6224 12.4115 49.6484 12.0026 49.6797 11.5703H49.6328C49.5703 11.8672 49.5104 12.1224 49.4531 12.3359C49.401 12.5443 49.349 12.7109 49.2969 12.8359L46.0078 21H44.7266L41.4219 12.9062C41.3802 12.7917 41.3281 12.6224 41.2656 12.3984C41.2083 12.1745 41.1458 11.8984 41.0781 11.5703H41.0312C41.0625 11.9453 41.0833 12.3438 41.0938 12.7656C41.1042 13.1823 41.1094 13.6224 41.1094 14.0859V21H39.3906V9.79688H42.0156L44.9297 17.0781C45.0443 17.3542 45.138 17.6094 45.2109 17.8438C45.2891 18.0729 45.349 18.2865 45.3906 18.4844H45.4375C45.5312 18.1875 45.6198 17.9193 45.7031 17.6797C45.7865 17.4401 45.8646 17.2318 45.9375 17.0547L48.8906 9.79688H51.4219V21ZM54.8984 11.4531C54.5651 11.4531 54.2891 11.3464 54.0703 11.1328C53.8516 10.9193 53.7422 10.6562 53.7422 10.3438C53.7422 10.0208 53.8516 9.75521 54.0703 9.54688C54.2891 9.33854 54.5651 9.23438 54.8984 9.23438C55.237 9.23438 55.5156 9.33854 55.7344 9.54688C55.9531 9.75521 56.0625 10.0208 56.0625 10.3438C56.0625 10.6615 55.9531 10.9271 55.7344 11.1406C55.5156 11.349 55.237 11.4531 54.8984 11.4531ZM55.7969 21H53.9766V13H55.7969V21ZM64.1562 20.5078C63.7604 20.7474 63.3672 20.9193 62.9766 21.0234C62.5859 21.1328 62.1615 21.1875 61.7031 21.1875C60.474 21.1875 59.4896 20.8281 58.75 20.1094C58.0156 19.3906 57.6484 18.4141 57.6484 17.1797C57.6484 15.8516 58.0286 14.7917 58.7891 14C59.5547 13.2083 60.5859 12.8125 61.8828 12.8125C62.3359 12.8125 62.7474 12.862 63.1172 12.9609C63.4922 13.0547 63.8724 13.2109 64.2578 13.4297L63.5469 14.6953C63.276 14.5443 63.0104 14.4349 62.75 14.3672C62.4896 14.2943 62.2057 14.2578 61.8984 14.2578C61.1328 14.2578 60.5417 14.5104 60.125 15.0156C59.7083 15.5208 59.5 16.1901 59.5 17.0234C59.5 17.8984 59.724 18.5703 60.1719 19.0391C60.625 19.5078 61.1927 19.7422 61.875 19.7422C62.0833 19.7422 62.3229 19.7057 62.5938 19.6328C62.8646 19.5547 63.138 19.4323 63.4141 19.2656L64.1562 20.5078ZM70.1484 14.5234C70.0495 14.4974 69.9531 14.4792 69.8594 14.4688C69.7708 14.4531 69.6667 14.4453 69.5469 14.4453C68.8958 14.4453 68.3958 14.6849 68.0469 15.1641C67.6979 15.6432 67.5234 16.2682 67.5234 17.0391V21H65.7031V13H67.5234V14.5391H67.5547C67.7422 13.987 68.0182 13.5703 68.3828 13.2891C68.7474 13.0026 69.1771 12.8594 69.6719 12.8594C69.8125 12.8594 69.9375 12.8672 70.0469 12.8828C70.1615 12.8984 70.2708 12.9219 70.375 12.9531L70.1484 14.5234ZM75.1719 21.1875C73.9219 21.1875 72.9297 20.8151 72.1953 20.0703C71.4661 19.3203 71.1016 18.3177 71.1016 17.0625C71.1068 15.7344 71.487 14.6953 72.2422 13.9453C72.9974 13.1901 74.026 12.8125 75.3281 12.8125C76.5833 12.8073 77.5625 13.1771 78.2656 13.9219C78.974 14.6615 79.3281 15.6641 79.3281 16.9297C79.3281 18.2318 78.9531 19.2682 78.2031 20.0391C77.4583 20.8047 76.4479 21.1875 75.1719 21.1875ZM75.2578 19.7422C75.9818 19.7422 76.5312 19.5052 76.9062 19.0312C77.2865 18.5573 77.4766 17.8724 77.4766 16.9766C77.4766 16.0911 77.2865 15.4167 76.9062 14.9531C76.526 14.4896 75.974 14.2578 75.25 14.2578C74.5365 14.2578 73.974 14.5026 73.5625 14.9922C73.1562 15.4818 72.9531 16.1589 72.9531 17.0234C72.9531 17.8932 73.1562 18.5651 73.5625 19.0391C73.9688 19.5078 74.5339 19.7422 75.2578 19.7422ZM80.4062 20.3594L81.1953 19.0781C81.5078 19.2969 81.8385 19.474 82.1875 19.6094C82.5417 19.7396 82.9245 19.8047 83.3359 19.8047C83.7839 19.8047 84.1302 19.724 84.375 19.5625C84.625 19.3958 84.75 19.1484 84.75 18.8203C84.75 18.5599 84.6458 18.3438 84.4375 18.1719C84.2344 17.9948 83.8854 17.849 83.3906 17.7344C82.3906 17.5 81.6875 17.1901 81.2812 16.8047C80.8802 16.4193 80.6797 15.9115 80.6797 15.2812C80.6797 14.5573 80.9609 13.9661 81.5234 13.5078C82.0859 13.0443 82.8229 12.8125 83.7344 12.8125C84.1875 12.8125 84.6198 12.8724 85.0312 12.9922C85.4427 13.1068 85.8438 13.2917 86.2344 13.5469L85.5 14.7969C85.1562 14.5781 84.8411 14.4219 84.5547 14.3281C84.2682 14.2344 83.974 14.1875 83.6719 14.1875C83.2448 14.1875 82.9115 14.2682 82.6719 14.4297C82.4375 14.5859 82.3203 14.8047 82.3203 15.0859C82.3203 15.3828 82.4401 15.6042 82.6797 15.75C82.9245 15.8906 83.3333 16.0286 83.9062 16.1641C84.7708 16.3724 85.4036 16.6745 85.8047 17.0703C86.2057 17.4609 86.4062 17.9844 86.4062 18.6406C86.4062 19.4167 86.1224 20.0365 85.5547 20.5C84.9922 20.9583 84.2292 21.1875 83.2656 21.1875C82.7448 21.1875 82.2448 21.1198 81.7656 20.9844C81.2917 20.8438 80.8385 20.6354 80.4062 20.3594ZM91.6406 21.1875C90.3906 21.1875 89.3984 20.8151 88.6641 20.0703C87.9349 19.3203 87.5703 18.3177 87.5703 17.0625C87.5755 15.7344 87.9557 14.6953 88.7109 13.9453C89.4661 13.1901 90.4948 12.8125 91.7969 12.8125C93.0521 12.8073 94.0312 13.1771 94.7344 13.9219C95.4427 14.6615 95.7969 15.6641 95.7969 16.9297C95.7969 18.2318 95.4219 19.2682 94.6719 20.0391C93.9271 20.8047 92.9167 21.1875 91.6406 21.1875ZM91.7266 19.7422C92.4505 19.7422 93 19.5052 93.375 19.0312C93.7552 18.5573 93.9453 17.8724 93.9453 16.9766C93.9453 16.0911 93.7552 15.4167 93.375 14.9531C92.9948 14.4896 92.4427 14.2578 91.7188 14.2578C91.0052 14.2578 90.4427 14.5026 90.0312 14.9922C89.625 15.4818 89.4219 16.1589 89.4219 17.0234C89.4219 17.8932 89.625 18.5651 90.0312 19.0391C90.4375 19.5078 91.0026 19.7422 91.7266 19.7422ZM101.977 10.5859C101.831 10.5286 101.698 10.4896 101.578 10.4688C101.458 10.4427 101.328 10.4297 101.188 10.4297C100.802 10.4297 100.51 10.5417 100.312 10.7656C100.12 10.9844 100.023 11.3021 100.023 11.7188V13H101.875V14.4219H100.023V21H98.2109V14.4219H96.8516V13H98.2109V11.625C98.2109 10.8125 98.4714 10.1693 98.9922 9.69531C99.5182 9.21615 100.214 8.97656 101.078 8.97656C101.349 8.97656 101.583 8.99479 101.781 9.03125C101.979 9.06771 102.185 9.11979 102.398 9.1875L101.977 10.5859ZM107.523 20.8906C107.289 20.9896 107.044 21.0625 106.789 21.1094C106.534 21.1562 106.26 21.1797 105.969 21.1797C105.229 21.1797 104.659 20.9844 104.258 20.5938C103.862 20.1979 103.664 19.6094 103.664 18.8281V14.4219H102.32V13H103.664V11.0547L105.477 10.5078V13H107.391V14.4219H105.477V18.6797C105.477 19.0703 105.547 19.3516 105.688 19.5234C105.833 19.6953 106.057 19.7812 106.359 19.7812C106.505 19.7812 106.643 19.7656 106.773 19.7344C106.909 19.6979 107.029 19.6536 107.133 19.6016L107.523 20.8906ZM112.609 20.1953L113.438 18.7656C113.943 19.0781 114.414 19.2995 114.852 19.4297C115.289 19.5547 115.779 19.6172 116.32 19.6172C116.966 19.6172 117.474 19.4792 117.844 19.2031C118.219 18.9219 118.406 18.5208 118.406 18C118.406 17.526 118.25 17.1536 117.938 16.8828C117.63 16.6068 117.107 16.3542 116.367 16.125C115.227 15.7865 114.388 15.3672 113.852 14.8672C113.315 14.3672 113.047 13.6901 113.047 12.8359C113.047 11.9089 113.393 11.1406 114.086 10.5312C114.779 9.91667 115.719 9.60938 116.906 9.60938C117.427 9.60938 117.94 9.66667 118.445 9.78125C118.951 9.89583 119.451 10.0729 119.945 10.3125L119.25 11.7969C118.818 11.5729 118.404 11.4141 118.008 11.3203C117.617 11.2266 117.219 11.1797 116.812 11.1797C116.219 11.1797 115.75 11.3099 115.406 11.5703C115.068 11.8307 114.898 12.1979 114.898 12.6719C114.898 13.0938 115.055 13.4271 115.367 13.6719C115.68 13.9115 116.216 14.1484 116.977 14.3828C118.143 14.7318 118.982 15.1667 119.492 15.6875C120.008 16.2083 120.266 16.9245 120.266 17.8359C120.266 18.8151 119.917 19.6198 119.219 20.25C118.521 20.875 117.526 21.1875 116.234 21.1875C115.589 21.1875 114.958 21.1068 114.344 20.9453C113.729 20.7786 113.151 20.5286 112.609 20.1953ZM125.914 20.8906C125.68 20.9896 125.435 21.0625 125.18 21.1094C124.924 21.1562 124.651 21.1797 124.359 21.1797C123.62 21.1797 123.049 20.9844 122.648 20.5938C122.253 20.1979 122.055 19.6094 122.055 18.8281V14.4219H120.711V13H122.055V11.0547L123.867 10.5078V13H125.781V14.4219H123.867V18.6797C123.867 19.0703 123.938 19.3516 124.078 19.5234C124.224 19.6953 124.448 19.7812 124.75 19.7812C124.896 19.7812 125.034 19.7656 125.164 19.7344C125.299 19.6979 125.419 19.6536 125.523 19.6016L125.914 20.8906ZM130.891 21.1875C129.641 21.1875 128.648 20.8151 127.914 20.0703C127.185 19.3203 126.82 18.3177 126.82 17.0625C126.826 15.7344 127.206 14.6953 127.961 13.9453C128.716 13.1901 129.745 12.8125 131.047 12.8125C132.302 12.8073 133.281 13.1771 133.984 13.9219C134.693 14.6615 135.047 15.6641 135.047 16.9297C135.047 18.2318 134.672 19.2682 133.922 20.0391C133.177 20.8047 132.167 21.1875 130.891 21.1875ZM130.977 19.7422C131.701 19.7422 132.25 19.5052 132.625 19.0312C133.005 18.5573 133.195 17.8724 133.195 16.9766C133.195 16.0911 133.005 15.4167 132.625 14.9531C132.245 14.4896 131.693 14.2578 130.969 14.2578C130.255 14.2578 129.693 14.5026 129.281 14.9922C128.875 15.4818 128.672 16.1589 128.672 17.0234C128.672 17.8932 128.875 18.5651 129.281 19.0391C129.688 19.5078 130.253 19.7422 130.977 19.7422ZM141.352 14.5234C141.253 14.4974 141.156 14.4792 141.062 14.4688C140.974 14.4531 140.87 14.4453 140.75 14.4453C140.099 14.4453 139.599 14.6849 139.25 15.1641C138.901 15.6432 138.727 16.2682 138.727 17.0391V21H136.906V13H138.727V14.5391H138.758C138.945 13.987 139.221 13.5703 139.586 13.2891C139.951 13.0026 140.38 12.8594 140.875 12.8594C141.016 12.8594 141.141 12.8672 141.25 12.8828C141.365 12.8984 141.474 12.9219 141.578 12.9531L141.352 14.5234ZM149.594 17.4766H144.133C144.164 18.2318 144.383 18.8073 144.789 19.2031C145.195 19.5938 145.763 19.7891 146.492 19.7891C146.789 19.7891 147.128 19.7292 147.508 19.6094C147.888 19.4896 148.263 19.2969 148.633 19.0312L149.453 20.1641C148.958 20.5234 148.456 20.7839 147.945 20.9453C147.435 21.1068 146.872 21.1875 146.258 21.1875C145.013 21.1875 144.044 20.8307 143.352 20.1172C142.659 19.3984 142.31 18.3958 142.305 17.1094C142.305 15.8281 142.661 14.7917 143.375 14C144.094 13.2083 145.013 12.8125 146.133 12.8125C147.206 12.8125 148.049 13.151 148.664 13.8281C149.284 14.5 149.594 15.4531 149.594 16.6875V17.4766ZM147.836 16.2188C147.836 15.5312 147.685 15.0156 147.383 14.6719C147.086 14.3229 146.664 14.1484 146.117 14.1484C145.602 14.1484 145.161 14.3359 144.797 14.7109C144.438 15.0807 144.216 15.5833 144.133 16.2188H147.836Z" fill="white"/>
<path d="M38.3 34.01C38.3 33.77 38.3333 33.5033 38.4 33.21C38.4667 32.9167 38.5733 32.5933 38.72 32.24L39.44 32.52C39.3333 32.8 39.2533 33.0567 39.2 33.29C39.1467 33.5233 39.12 33.74 39.12 33.94C39.12 34.3067 39.21 34.6033 39.39 34.83C39.5767 35.0633 39.8233 35.2333 40.13 35.34C40.4433 35.4467 40.7867 35.5 41.16 35.5C41.6133 35.5 41.9933 35.45 42.3 35.35C42.6067 35.2567 42.85 35.1267 43.03 34.96C43.21 34.7933 43.3367 34.6033 43.41 34.39C43.49 34.1833 43.53 33.9667 43.53 33.74C43.53 33.4467 43.5067 33.17 43.46 32.91C43.42 32.65 43.3633 32.3967 43.29 32.15C43.2233 31.8967 43.15 31.64 43.07 31.38L43.88 31.16C43.9533 31.4133 44.01 31.62 44.05 31.78C44.09 31.9333 44.12 32.0567 44.14 32.15C44.1667 32.2433 44.19 32.3267 44.21 32.4C44.2833 32.6467 44.38 32.83 44.5 32.95C44.62 33.0633 44.7567 33.14 44.91 33.18C45.07 33.2133 45.2333 33.23 45.4 33.23C45.54 33.23 45.64 33.27 45.7 33.35C45.7667 33.4233 45.8 33.5133 45.8 33.62C45.8 33.7267 45.7533 33.8267 45.66 33.92C45.5667 34.0067 45.4467 34.05 45.3 34.05C45.02 34.05 44.7867 34.0033 44.6 33.91C44.4133 33.81 44.2667 33.6867 44.16 33.54C44.06 33.3933 43.9933 33.24 43.96 33.08L44.37 33.59C44.35 33.93 44.2833 34.26 44.17 34.58C44.0633 34.9067 43.89 35.2 43.65 35.46C43.41 35.7267 43.0833 35.9367 42.67 36.09C42.2633 36.2433 41.75 36.32 41.13 36.32C40.75 36.32 40.39 36.2733 40.05 36.18C39.71 36.0867 39.4067 35.9433 39.14 35.75C38.88 35.5633 38.6733 35.3233 38.52 35.03C38.3733 34.7433 38.3 34.4033 38.3 34.01ZM45.3047 34.05L45.4047 33.23C45.798 33.23 46.1047 33.2167 46.3247 33.19C46.5447 33.1567 46.7014 33.08 46.7947 32.96C46.888 32.8333 46.9347 32.6367 46.9347 32.37C46.9347 32.2033 46.908 32.0067 46.8547 31.78C46.8014 31.5467 46.7314 31.3 46.6447 31.04C46.558 30.78 46.4647 30.5233 46.3647 30.27L47.1747 29.97C47.2614 30.1833 47.3414 30.4267 47.4147 30.7C47.4947 30.9733 47.5614 31.2433 47.6147 31.51C47.668 31.7767 47.6947 32.01 47.6947 32.21C47.6947 32.5433 47.648 32.8267 47.5547 33.06C47.468 33.2933 47.328 33.4833 47.1347 33.63C46.9414 33.7767 46.6914 33.8833 46.3847 33.95C46.0847 34.0167 45.7247 34.05 45.3047 34.05ZM47.1547 35.94C47.0147 35.94 46.8947 35.89 46.7947 35.79C46.7014 35.6967 46.6547 35.5833 46.6547 35.45C46.6547 35.3167 46.7014 35.2 46.7947 35.1C46.8947 35 47.0147 34.95 47.1547 34.95C47.288 34.95 47.4014 35 47.4947 35.1C47.5947 35.2 47.6447 35.3167 47.6447 35.45C47.6447 35.5833 47.5947 35.6967 47.4947 35.79C47.4014 35.89 47.288 35.94 47.1547 35.94ZM45.7847 35.94C45.6447 35.94 45.5247 35.89 45.4247 35.79C45.3314 35.6967 45.2847 35.5833 45.2847 35.45C45.2847 35.3167 45.3314 35.2 45.4247 35.1C45.5247 35 45.6447 34.95 45.7847 34.95C45.918 34.95 46.0314 35 46.1247 35.1C46.2247 35.2 46.2747 35.3167 46.2747 35.45C46.2747 35.5833 46.2247 35.6967 46.1247 35.79C46.0314 35.89 45.918 35.94 45.7847 35.94ZM48.333 36.32L48.043 35.56C48.5296 35.4 48.933 35.2167 49.253 35.01C49.5796 34.8033 49.8363 34.5833 50.023 34.35C50.2163 34.1167 50.353 33.88 50.433 33.64C50.513 33.3933 50.553 33.1567 50.553 32.93C50.553 32.6033 50.4796 32.2733 50.333 31.94C50.193 31.6 50.0363 31.28 49.863 30.98L50.593 30.61C50.7196 30.8433 50.8296 31.0733 50.923 31.3C51.023 31.5267 51.1096 31.74 51.183 31.94C51.263 32.14 51.3263 32.3233 51.373 32.49C51.4663 32.7767 51.5863 32.9733 51.733 33.08C51.8863 33.18 52.093 33.23 52.353 33.23C52.493 33.23 52.593 33.27 52.653 33.35C52.7196 33.4233 52.753 33.5133 52.753 33.62C52.753 33.7267 52.7063 33.8267 52.613 33.92C52.5196 34.0067 52.3996 34.05 52.253 34.05C51.9596 34.05 51.7196 34 51.533 33.9C51.353 33.7933 51.2163 33.6567 51.123 33.49C51.0296 33.3167 50.9663 33.1367 50.933 32.95L51.253 33.13C51.253 33.57 51.153 33.97 50.953 34.33C50.7596 34.6967 50.5096 35.0133 50.203 35.28C49.8963 35.5533 49.5763 35.7767 49.243 35.95C48.9096 36.1233 48.6063 36.2467 48.333 36.32ZM52.2578 34.05L52.3578 33.23H53.2978C53.6911 33.23 54.0011 33.21 54.2278 33.17C54.4611 33.1233 54.6311 33.0667 54.7378 33C54.8511 32.9267 54.9245 32.85 54.9578 32.77C54.9978 32.6833 55.0178 32.5967 55.0178 32.51C55.0178 32.3567 54.9578 32.1667 54.8378 31.94C54.7245 31.7133 54.4878 31.42 54.1278 31.06C53.9411 30.8733 53.7545 30.7033 53.5678 30.55C53.3811 30.39 53.2078 30.25 53.0478 30.13C52.8945 30.0033 52.7711 29.8967 52.6778 29.81C52.5845 29.7233 52.5378 29.6567 52.5378 29.61C52.5378 29.51 52.5445 29.4133 52.5578 29.32C52.5778 29.2267 52.6011 29.14 52.6278 29.06C52.6611 28.98 52.7011 28.9167 52.7478 28.87C52.8811 28.73 53.0511 28.59 53.2578 28.45C53.4711 28.31 53.7178 28.1633 53.9978 28.01C54.2845 27.8567 54.6045 27.6933 54.9578 27.52C55.3178 27.34 55.7111 27.1433 56.1378 26.93L56.4778 27.67C55.9445 27.9233 55.4978 28.14 55.1378 28.32C54.7845 28.4933 54.4845 28.65 54.2378 28.79C53.9911 28.9233 53.7745 29.05 53.5878 29.17C53.4011 29.29 53.2111 29.4233 53.0178 29.57L53.1678 29.19C53.5878 29.5233 53.9578 29.8367 54.2778 30.13C54.6045 30.4233 54.8778 30.7067 55.0978 30.98C55.3178 31.2467 55.4845 31.51 55.5978 31.77C55.7111 32.03 55.7678 32.2933 55.7678 32.56C55.7678 32.7067 55.7411 32.8667 55.6878 33.04C55.6345 33.2133 55.5211 33.3767 55.3478 33.53C55.1745 33.6833 54.9145 33.81 54.5678 33.91C54.2211 34.0033 53.7545 34.05 53.1678 34.05H52.2578ZM59.473 33.55L59.873 32.86C60.0064 32.9467 60.193 33.03 60.433 33.11C60.673 33.19 60.953 33.23 61.273 33.23C61.6064 33.23 61.8697 33.1967 62.063 33.13C62.263 33.0633 62.4064 32.9667 62.493 32.84C62.5864 32.7067 62.633 32.5533 62.633 32.38C62.633 32.2467 62.603 32.0833 62.543 31.89C62.4897 31.69 62.3697 31.4233 62.183 31.09C61.9964 30.75 61.7097 30.3067 61.323 29.76L62.013 29.31C62.3664 29.7967 62.6464 30.2367 62.853 30.63C63.0664 31.0233 63.2164 31.37 63.303 31.67C63.3964 31.9633 63.443 32.2167 63.443 32.43C63.443 32.6967 63.3764 32.9567 63.243 33.21C63.1097 33.4567 62.8864 33.66 62.573 33.82C62.2597 33.98 61.8264 34.06 61.273 34.06C61.033 34.06 60.7997 34.04 60.573 34C60.353 33.96 60.1497 33.9033 59.963 33.83C59.7764 33.75 59.613 33.6567 59.473 33.55ZM61.313 26.12C61.193 26.12 61.0497 26.1167 60.883 26.11C60.723 26.0967 60.5697 26.0833 60.423 26.07C60.2764 26.0567 60.1664 26.0467 60.093 26.04L60.113 25.46C60.2464 25.4733 60.4197 25.49 60.633 25.51C60.853 25.53 61.0564 25.54 61.243 25.54C61.463 25.54 61.6397 25.5267 61.773 25.5C61.913 25.4667 62.013 25.42 62.073 25.36C62.1397 25.3 62.173 25.2333 62.173 25.16C62.173 25.0667 62.143 25 62.083 24.96C62.023 24.92 61.9464 24.9 61.853 24.9C61.7197 24.9 61.5897 24.9467 61.463 25.04C61.3364 25.1267 61.223 25.2267 61.123 25.34C61.0297 25.4467 60.9597 25.5333 60.913 25.6L60.353 25.56C60.4664 25.34 60.6064 25.1367 60.773 24.95C60.9397 24.7567 61.123 24.6033 61.323 24.49C61.523 24.37 61.7264 24.31 61.933 24.31C62.1864 24.31 62.3864 24.3867 62.533 24.54C62.6797 24.6933 62.753 24.8833 62.753 25.11C62.753 25.2433 62.713 25.39 62.633 25.55C62.5597 25.7033 62.4197 25.8367 62.213 25.95C62.0064 26.0633 61.7064 26.12 61.313 26.12ZM60.623 25.46L60.563 23.53H61.113L61.193 25.2L60.623 25.46ZM64.4687 36.3L64.2887 35.48C64.6887 35.4267 65.0553 35.35 65.3887 35.25C65.7287 35.1567 66.0187 35.02 66.2587 34.84C66.5053 34.66 66.6953 34.4233 66.8287 34.13C66.962 33.8367 67.0287 33.47 67.0287 33.03C67.0287 32.5767 66.9453 32.2 66.7787 31.9C66.612 31.6 66.3953 31.45 66.1287 31.45C65.9887 31.45 65.8587 31.5033 65.7387 31.61C65.6187 31.7167 65.5187 31.86 65.4387 32.04C65.3653 32.22 65.3287 32.4167 65.3287 32.63C65.3287 32.75 65.3553 32.85 65.4087 32.93C65.462 33.0033 65.5387 33.0633 65.6387 33.11C65.7453 33.15 65.8787 33.18 66.0387 33.2C66.1987 33.22 66.3853 33.23 66.5987 33.23H68.7087C68.8487 33.23 68.9487 33.27 69.0087 33.35C69.0753 33.4233 69.1087 33.5133 69.1087 33.62C69.1087 33.7267 69.062 33.8267 68.9687 33.92C68.8753 34.0067 68.7553 34.05 68.6087 34.05H66.2187C65.9187 34.05 65.6387 34.0067 65.3787 33.92C65.1253 33.8333 64.9187 33.7 64.7587 33.52C64.6053 33.3333 64.5287 33.09 64.5287 32.79C64.5287 32.51 64.572 32.2433 64.6587 31.99C64.7453 31.73 64.862 31.5 65.0087 31.3C65.162 31.0933 65.3387 30.93 65.5387 30.81C65.7453 30.69 65.9687 30.63 66.2087 30.63C66.5153 30.63 66.7887 30.72 67.0287 30.9C67.2687 31.08 67.4587 31.3533 67.5987 31.72C67.7387 32.08 67.8087 32.5367 67.8087 33.09C67.8087 33.71 67.682 34.2433 67.4287 34.69C67.182 35.1433 66.8087 35.5033 66.3087 35.77C65.8153 36.0367 65.202 36.2133 64.4687 36.3ZM68.6055 34.05L68.6955 33.23C69.0755 33.23 69.3421 33.1933 69.4955 33.12C69.6488 33.0467 69.7355 32.9167 69.7555 32.73C69.7821 32.5433 69.7888 32.2833 69.7755 31.95L69.5855 26.86H70.3955L70.5955 31.86C70.6088 32.2133 70.5955 32.5267 70.5555 32.8C70.5221 33.0733 70.4355 33.3033 70.2955 33.49C70.1621 33.6767 69.9588 33.8167 69.6855 33.91C69.4188 34.0033 69.0588 34.05 68.6055 34.05ZM74.2473 34.01C74.2473 33.85 74.2606 33.68 74.2873 33.5C74.3206 33.3133 74.3673 33.1167 74.4273 32.91C74.4939 32.6967 74.5739 32.4733 74.6673 32.24L75.3873 32.52C75.3206 32.7067 75.2606 32.8833 75.2073 33.05C75.1606 33.2167 75.1239 33.3733 75.0973 33.52C75.0773 33.6667 75.0673 33.8067 75.0673 33.94C75.0673 34.2867 75.1573 34.5733 75.3373 34.8C75.5173 35.0267 75.7639 35.1967 76.0773 35.31C76.3906 35.4233 76.7439 35.48 77.1373 35.48C77.5839 35.48 77.9573 35.42 78.2573 35.3C78.5639 35.18 78.8073 35.02 78.9873 34.82C79.1673 34.6267 79.2939 34.41 79.3673 34.17C79.4473 33.93 79.4873 33.6933 79.4873 33.46C79.4873 33.2067 79.4373 32.9 79.3373 32.54C79.2439 32.18 79.0673 31.7333 78.8073 31.2L79.5573 30.82C79.6906 31.0733 79.8106 31.34 79.9173 31.62C80.0306 31.8933 80.1206 32.1767 80.1873 32.47C80.2606 32.7567 80.2973 33.05 80.2973 33.35C80.2973 33.61 80.2639 33.8767 80.1973 34.15C80.1373 34.4233 80.0339 34.6867 79.8873 34.94C79.7406 35.2 79.5439 35.43 79.2973 35.63C79.0573 35.8367 78.7573 36 78.3973 36.12C78.0439 36.24 77.6206 36.3 77.1273 36.3C76.7406 36.3 76.3706 36.2533 76.0173 36.16C75.6706 36.0733 75.3639 35.9367 75.0973 35.75C74.8373 35.5633 74.6306 35.3267 74.4773 35.04C74.3239 34.7533 74.2473 34.41 74.2473 34.01ZM77.2673 30.02C77.1273 30.02 77.0073 29.9733 76.9073 29.88C76.8139 29.78 76.7673 29.6633 76.7673 29.53C76.7673 29.3967 76.8139 29.28 76.9073 29.18C77.0073 29.08 77.1273 29.03 77.2673 29.03C77.4006 29.03 77.5139 29.08 77.6073 29.18C77.7073 29.28 77.7573 29.3967 77.7573 29.53C77.7573 29.6633 77.7073 29.78 77.6073 29.88C77.5139 29.9733 77.4006 30.02 77.2673 30.02ZM81.373 36.3L81.193 35.48C81.593 35.4267 81.9596 35.35 82.293 35.25C82.633 35.1567 82.923 35.02 83.163 34.84C83.4096 34.66 83.5996 34.4233 83.733 34.13C83.8663 33.8367 83.933 33.47 83.933 33.03C83.933 32.8233 83.913 32.6267 83.873 32.44C83.833 32.2467 83.773 32.0767 83.693 31.93C83.613 31.7833 83.5163 31.6667 83.403 31.58C83.2963 31.4933 83.173 31.45 83.033 31.45C82.8796 31.45 82.7396 31.51 82.613 31.63C82.493 31.7433 82.3963 31.89 82.323 32.07C82.2563 32.25 82.223 32.43 82.223 32.61C82.223 32.75 82.2496 32.8733 82.303 32.98C82.363 33.08 82.4596 33.1567 82.593 33.21C82.7263 33.2633 82.8996 33.29 83.113 33.29C83.3063 33.29 83.4996 33.27 83.693 33.23C83.893 33.19 84.063 33.1367 84.203 33.07L84.243 33.77C84.083 33.8833 83.893 33.9633 83.673 34.01C83.4596 34.0567 83.243 34.08 83.023 34.08C82.7696 34.08 82.543 34.0533 82.343 34C82.1496 33.9467 81.983 33.87 81.843 33.77C81.7096 33.6633 81.6063 33.53 81.533 33.37C81.4663 33.21 81.433 33.0233 81.433 32.81C81.433 32.5567 81.473 32.3033 81.553 32.05C81.633 31.79 81.7463 31.5533 81.893 31.34C82.0396 31.1267 82.2163 30.9567 82.423 30.83C82.6296 30.6967 82.8596 30.63 83.113 30.63C83.3796 30.63 83.613 30.7 83.813 30.84C84.013 30.9733 84.1796 31.1567 84.313 31.39C84.4463 31.6233 84.5463 31.8867 84.613 32.18C84.6796 32.4733 84.713 32.7767 84.713 33.09C84.713 33.71 84.5863 34.2433 84.333 34.69C84.0863 35.1433 83.713 35.5033 83.213 35.77C82.7196 36.0367 82.1063 36.2133 81.373 36.3ZM82.213 29.53L82.093 28.99C82.2663 28.95 82.4063 28.9167 82.513 28.89C82.6196 28.8633 82.7396 28.8333 82.873 28.8L82.823 29.01C82.6496 28.9567 82.483 28.8433 82.323 28.67C82.1696 28.4967 82.093 28.3 82.093 28.08C82.093 27.88 82.1396 27.7133 82.233 27.58C82.333 27.44 82.4596 27.3367 82.613 27.27C82.773 27.2033 82.943 27.17 83.123 27.17C83.1963 27.17 83.273 27.1767 83.353 27.19C83.4396 27.2033 83.5196 27.2233 83.593 27.25L83.513 27.75C83.4463 27.7367 83.383 27.7233 83.323 27.71C83.263 27.6967 83.1963 27.69 83.123 27.69C82.9696 27.69 82.8496 27.7233 82.763 27.79C82.6763 27.85 82.633 27.9367 82.633 28.05C82.633 28.19 82.6763 28.31 82.763 28.41C82.8563 28.51 82.9596 28.59 83.073 28.65C83.193 28.7033 83.2896 28.73 83.363 28.73L82.953 28.77C83.133 28.7233 83.2996 28.6767 83.453 28.63C83.613 28.5767 83.7563 28.5267 83.883 28.48L84.043 28.99C83.883 29.05 83.693 29.1133 83.473 29.18C83.2596 29.2467 83.043 29.31 82.823 29.37C82.603 29.43 82.3996 29.4833 82.213 29.53ZM86.1856 34L85.9856 26.86H86.7956L86.9956 34H86.1856ZM87.9984 33.55L88.3984 32.86C88.5318 32.9467 88.7184 33.03 88.9584 33.11C89.1984 33.19 89.4784 33.23 89.7984 33.23C90.1318 33.23 90.3951 33.1967 90.5884 33.13C90.7884 33.0633 90.9318 32.9667 91.0184 32.84C91.1118 32.7067 91.1584 32.5533 91.1584 32.38C91.1584 32.2467 91.1284 32.0833 91.0684 31.89C91.0151 31.69 90.8951 31.4233 90.7084 31.09C90.5218 30.75 90.2351 30.3067 89.8484 29.76L90.5384 29.31C90.8918 29.7967 91.1718 30.2367 91.3784 30.63C91.5918 31.0233 91.7418 31.37 91.8284 31.67C91.9218 31.9633 91.9684 32.2167 91.9684 32.43C91.9684 32.6967 91.9018 32.9567 91.7684 33.21C91.6351 33.4567 91.4118 33.66 91.0984 33.82C90.7851 33.98 90.3518 34.06 89.7984 34.06C89.5584 34.06 89.3251 34.04 89.0984 34C88.8784 33.96 88.6751 33.9033 88.4884 33.83C88.3018 33.75 88.1384 33.6567 87.9984 33.55ZM89.8384 26.12C89.7184 26.12 89.5751 26.1167 89.4084 26.11C89.2484 26.0967 89.0951 26.0833 88.9484 26.07C88.8018 26.0567 88.6918 26.0467 88.6184 26.04L88.6384 25.46C88.7718 25.4733 88.9451 25.49 89.1584 25.51C89.3784 25.53 89.5818 25.54 89.7684 25.54C89.9884 25.54 90.1651 25.5267 90.2984 25.5C90.4384 25.4667 90.5384 25.42 90.5984 25.36C90.6651 25.3 90.6984 25.2333 90.6984 25.16C90.6984 25.0667 90.6684 25 90.6084 24.96C90.5484 24.92 90.4718 24.9 90.3784 24.9C90.2451 24.9 90.1151 24.9467 89.9884 25.04C89.8618 25.1267 89.7484 25.2267 89.6484 25.34C89.5551 25.4467 89.4851 25.5333 89.4384 25.6L88.8784 25.56C88.9918 25.34 89.1318 25.1367 89.2984 24.95C89.4651 24.7567 89.6484 24.6033 89.8484 24.49C90.0484 24.37 90.2518 24.31 90.4584 24.31C90.7118 24.31 90.9118 24.3867 91.0584 24.54C91.2051 24.6933 91.2784 24.8833 91.2784 25.11C91.2784 25.2433 91.2384 25.39 91.1584 25.55C91.0851 25.7033 90.9451 25.8367 90.7384 25.95C90.5318 26.0633 90.2318 26.12 89.8384 26.12ZM89.1484 25.46L89.0884 23.53H89.6384L89.7184 25.2L89.1484 25.46ZM99.5482 36.76C98.9415 36.76 98.3715 36.7233 97.8382 36.65C97.3115 36.5833 96.8449 36.4767 96.4382 36.33C96.0382 36.19 95.7249 36.0167 95.4982 35.81C95.2715 35.61 95.1582 35.38 95.1582 35.12C95.1582 34.8467 95.2715 34.5933 95.4982 34.36C95.7315 34.1333 96.0782 33.9367 96.5382 33.77C97.0049 33.6033 97.5882 33.4767 98.2882 33.39C98.9882 33.2967 99.8082 33.25 100.748 33.25C100.888 33.25 100.988 33.29 101.048 33.37C101.115 33.4433 101.148 33.5333 101.148 33.64C101.148 33.7467 101.102 33.8467 101.008 33.94C100.915 34.0267 100.795 34.07 100.648 34.07C99.9815 34.07 99.3649 34.09 98.7982 34.13C98.2315 34.1767 97.7349 34.24 97.3082 34.32C96.8882 34.4 96.5582 34.5 96.3182 34.62C96.0849 34.74 95.9682 34.88 95.9682 35.04C95.9682 35.16 96.0415 35.28 96.1882 35.4C96.3349 35.52 96.5549 35.6267 96.8482 35.72C97.1415 35.82 97.5149 35.9 97.9682 35.96C98.4215 36.02 98.9515 36.05 99.5582 36.05C99.8782 36.05 100.122 36.0467 100.288 36.04C100.462 36.04 100.605 36.0367 100.718 36.03C100.832 36.0233 100.962 36.0167 101.108 36.01L101.008 36.7C100.928 36.7067 100.848 36.7133 100.768 36.72C100.688 36.7333 100.595 36.74 100.488 36.74C100.388 36.7467 100.262 36.75 100.108 36.75C99.9615 36.7567 99.7749 36.76 99.5482 36.76ZM100.646 34.05L100.746 33.23C100.96 33.23 101.133 33.2167 101.266 33.19C101.4 33.1567 101.51 33.08 101.596 32.96C101.69 32.8333 101.776 32.6367 101.856 32.37C101.936 32.1033 102.03 31.73 102.136 31.25L102.886 31.46C102.86 31.5733 102.83 31.7033 102.796 31.85C102.763 31.99 102.733 32.1367 102.706 32.29C102.68 32.4367 102.666 32.5733 102.666 32.7C102.666 32.8667 102.73 32.9967 102.856 33.09C102.983 33.1833 103.213 33.23 103.546 33.23C103.746 33.23 103.91 33.2133 104.036 33.18C104.163 33.1467 104.266 33.0667 104.346 32.94C104.433 32.8133 104.51 32.61 104.576 32.33C104.643 32.05 104.713 31.6667 104.786 31.18L105.546 31.32C105.526 31.44 105.503 31.5867 105.476 31.76C105.45 31.9333 105.423 32.1067 105.396 32.28C105.376 32.4467 105.366 32.5867 105.366 32.7C105.366 32.7933 105.386 32.8833 105.426 32.97C105.473 33.05 105.56 33.1133 105.686 33.16C105.82 33.2067 106.016 33.23 106.276 33.23C106.47 33.23 106.636 33.2067 106.776 33.16C106.923 33.1133 107.033 33.0267 107.106 32.9C107.186 32.7733 107.226 32.5967 107.226 32.37C107.226 32.1167 107.166 31.8 107.046 31.42C106.933 31.0333 106.803 30.65 106.656 30.27L107.466 29.97C107.553 30.1833 107.633 30.4267 107.706 30.7C107.786 30.9733 107.853 31.2433 107.906 31.51C107.96 31.7767 107.986 32.01 107.986 32.21C107.986 32.5167 107.946 32.7867 107.866 33.02C107.786 33.2533 107.673 33.4467 107.526 33.6C107.38 33.7467 107.2 33.86 106.986 33.94C106.773 34.0133 106.533 34.05 106.266 34.05C105.953 34.05 105.696 34.0133 105.496 33.94C105.296 33.8667 105.143 33.7567 105.036 33.61C104.93 33.4567 104.86 33.2633 104.826 33.03H105.166C105.04 33.3167 104.906 33.5333 104.766 33.68C104.626 33.8267 104.453 33.9267 104.246 33.98C104.04 34.0267 103.766 34.05 103.426 34.05C103.26 34.05 103.08 34.0233 102.886 33.97C102.7 33.9167 102.536 33.8133 102.396 33.66C102.256 33.5 102.173 33.2633 102.146 32.95L102.446 32.89C102.333 33.23 102.193 33.4833 102.026 33.65C101.866 33.81 101.673 33.9167 101.446 33.97C101.22 34.0233 100.953 34.05 100.646 34.05Z" fill="white"/>
<defs>
<filter id="filter0_dd_1049_9534" x="13.7812" y="9.58333" width="14.4375" height="6.875" filterUnits="userSpaceOnUse" color-interpolation-filters="sRGB">
<feFlood flood-opacity="0" result="BackgroundImageFix"/>
<feColorMatrix in="SourceAlpha" type="matrix" values="0 0 0 0 0 0 0 0 0 0 0 0 0 0 0 0 0 0 127 0" result="hardAlpha"/>
<feOffset dy="0.229167"/>
<feGaussianBlur stdDeviation="0.229167"/>
<feColorMatrix type="matrix" values="0 0 0 0 0 0 0 0 0 0 0 0 0 0 0 0 0 0 0.1 0"/>
<feBlend mode="normal" in2="BackgroundImageFix" result="effect1_dropShadow_1049_9534"/>
<feColorMatrix in="SourceAlpha" type="matrix" values="0 0 0 0 0 0 0 0 0 0 0 0 0 0 0 0 0 0 127 0" result="hardAlpha"/>
<feOffset dy="0.458333"/>
<feGaussianBlur stdDeviation="0.6875"/>
<feColorMatrix type="matrix" values="0 0 0 0 0 0 0 0 0 0 0 0 0 0 0 0 0 0 0.2 0"/>
<feBlend mode="normal" in2="effect1_dropShadow_1049_9534" result="effect2_dropShadow_1049_9534"/>
<feBlend mode="normal" in="SourceGraphic" in2="effect2_dropShadow_1049_9534" result="shape"/>
</filter>
<filter id="filter1_dd_1049_9534" x="15.1562" y="17.1458" width="11.6875" height="11.6875" filterUnits="userSpaceOnUse" color-interpolation-filters="sRGB">
<feFlood flood-opacity="0" result="BackgroundImageFix"/>
<feColorMatrix in="SourceAlpha" type="matrix" values="0 0 0 0 0 0 0 0 0 0 0 0 0 0 0 0 0 0 127 0" result="hardAlpha"/>
<feOffset dy="0.229167"/>
<feGaussianBlur stdDeviation="0.229167"/>
<feColorMatrix type="matrix" values="0 0 0 0 1 0 0 0 0 1 0 0 0 0 1 0 0 0 0.6 0"/>
<feBlend mode="normal" in2="BackgroundImageFix" result="effect1_dropShadow_1049_9534"/>
<feColorMatrix in="SourceAlpha" type="matrix" values="0 0 0 0 0 0 0 0 0 0 0 0 0 0 0 0 0 0 127 0" result="hardAlpha"/>
<feOffset dy="0.458333"/>
<feGaussianBlur stdDeviation="0.6875"/>
<feColorMatrix type="matrix" values="0 0 0 0 1 0 0 0 0 1 0 0 0 0 1 0 0 0 0.6 0"/>
<feBlend mode="normal" in2="effect1_dropShadow_1049_9534" result="effect2_dropShadow_1049_9534"/>
<feBlend mode="normal" in="SourceGraphic" in2="effect2_dropShadow_1049_9534" result="shape"/>
</filter>
<filter id="filter2_dd_1049_9534" x="13.1704" y="8.89583" width="15.6594" height="6.18774" filterUnits="userSpaceOnUse" color-interpolation-filters="sRGB">
<feFlood flood-opacity="0" result="BackgroundImageFix"/>
<feColorMatrix in="SourceAlpha" type="matrix" values="0 0 0 0 0 0 0 0 0 0 0 0 0 0 0 0 0 0 127 0" result="hardAlpha"/>
<feOffset dy="-0.916667"/>
<feGaussianBlur stdDeviation="0.229167"/>
<feColorMatrix type="matrix" values="0 0 0 0 0 0 0 0 0 0 0 0 0 0 0 0 0 0 0.1 0"/>
<feBlend mode="normal" in2="BackgroundImageFix" result="effect1_dropShadow_1049_9534"/>
<feColorMatrix in="SourceAlpha" type="matrix" values="0 0 0 0 0 0 0 0 0 0 0 0 0 0 0 0 0 0 127 0" result="hardAlpha"/>
<feOffset dy="-0.916667"/>
<feGaussianBlur stdDeviation="0.6875"/>
<feColorMatrix type="matrix" values="0 0 0 0 0 0 0 0 0 0 0 0 0 0 0 0 0 0 0.2 0"/>
<feBlend mode="normal" in2="effect1_dropShadow_1049_9534" result="effect2_dropShadow_1049_9534"/>
<feBlend mode="normal" in="SourceGraphic" in2="effect2_dropShadow_1049_9534" result="shape"/>
</filter>
<linearGradient id="paint0_linear_1049_9534" x1="15.1875" y1="10.5078" x2="19.6603" y2="31.0495" gradientUnits="userSpaceOnUse">
<stop offset="0.270833" stop-color="white"/>
<stop offset="1" stop-color="#DFDFDF"/>
</linearGradient>
<linearGradient id="paint1_linear_1049_9534" x1="21" y1="13.25" x2="25.0962" y2="32.4541" gradientUnits="userSpaceOnUse">
<stop stop-color="#0078D4"/>
<stop offset="1" stop-color="#114A8B"/>
</linearGradient>
<linearGradient id="paint2_linear_1049_9534" x1="21" y1="11.1875" x2="21.1934" y2="14.1494" gradientUnits="userSpaceOnUse">
<stop stop-color="#28AFEA"/>
<stop offset="1" stop-color="#0078D4"/>
</linearGradient>
<linearGradient id="paint3_linear_1049_9534" x1="21" y1="11.1875" x2="21.1934" y2="14.1494" gradientUnits="userSpaceOnUse">
<stop stop-color="#30DAFF"/>
<stop offset="1" stop-color="#0094D4"/>
</linearGradient>
<linearGradient id="paint4_linear_1049_9534" x1="20.5035" y1="10.5" x2="20.5035" y2="11.875" gradientUnits="userSpaceOnUse">
<stop stop-color="#22BCFF"/>
<stop offset="1" stop-color="#0088F0"/>
</linearGradient>
<linearGradient id="paint5_linear_1049_9534" x1="20.5035" y1="10.5" x2="20.5035" y2="11.875" gradientUnits="userSpaceOnUse">
<stop stop-color="#28AFEA"/>
<stop offset="1" stop-color="#3CCBF4"/>
</linearGradient>
<clipPath id="clip0_1049_9534">
<rect width="22" height="22" fill="white" transform="translate(10 10.5)"/>
</clipPath>
<clipPath id="clip1_1049_9534">
<rect width="22" height="22" fill="white" transform="translate(10 10.5)"/>
</clipPath>
</defs>
</svg>
