<svg width="161" height="44" viewBox="0 0 161 44" fill="none" xmlns="http://www.w3.org/2000/svg">
<rect x="1" y="1" width="159" height="42" rx="4" fill="#202020"/>
<rect x="0.5" y="0.5" width="160" height="43" rx="4.5" stroke="white" stroke-opacity="0.1"/>
<g clip-path="url(#clip0_1049_9536)">
<g clip-path="url(#clip1_1049_9536)">
<path d="M10.3438 14.1667C10.3438 13.6604 10.7542 13.25 11.2604 13.25H30.7396C31.2458 13.25 31.6562 13.6604 31.6562 14.1667V28.0313C31.6562 30.1196 29.9633 31.8125 27.875 31.8125H14.125C12.0367 31.8125 10.3438 30.1196 10.3438 28.0313V14.1667Z" fill="url(#paint0_linear_1049_9536)"/>
<mask id="mask0_1049_9536" style="mask-type:alpha" maskUnits="userSpaceOnUse" x="10" y="13" width="22" height="19">
<path d="M10.3438 14.1667C10.3438 13.6604 10.7542 13.25 11.2604 13.25H30.7396C31.2458 13.25 31.6562 13.6604 31.6562 14.1667V28.0313C31.6562 30.1196 29.9633 31.8125 27.875 31.8125H14.125C12.0367 31.8125 10.3438 30.1196 10.3438 28.0313V14.1667Z" fill="url(#paint1_linear_1049_9536)"/>
</mask>
<g mask="url(#mask0_1049_9536)">
<g filter="url(#filter0_dd_1049_9536)">
<path d="M15.8438 13.9375V11.1875H26.1562V13.9375" stroke="url(#paint2_linear_1049_9536)" stroke-width="1.375" stroke-linecap="round"/>
</g>
</g>
<g filter="url(#filter1_dd_1049_9536)">
<path d="M20.6565 18.0625H16.5315V22.1875H20.6565V18.0625Z" fill="#F25022"/>
<path d="M25.4688 18.0625H21.3438V22.1875H25.4688V18.0625Z" fill="#7FBA00"/>
<path d="M25.4688 22.875H21.3438V27H25.4688V22.875Z" fill="#FFB900"/>
<path d="M20.6562 22.875H16.5312V27H20.6562V22.875Z" fill="#00A4EF"/>
</g>
<path d="M15.8438 13.9375V11.875C15.8438 11.4953 16.1516 11.1875 16.5313 11.1875H25.4688C25.8484 11.1875 26.1562 11.4953 26.1562 11.875V13.9375" stroke="url(#paint3_linear_1049_9536)" stroke-width="1.375" stroke-linecap="round"/>
<rect x="16.5312" y="10.5" width="8.9375" height="1.375" fill="url(#paint4_linear_1049_9536)"/>
<mask id="mask1_1049_9536" style="mask-type:alpha" maskUnits="userSpaceOnUse" x="16" y="10" width="10" height="2">
<rect x="16.5312" y="10.5" width="8.9375" height="1.375" fill="url(#paint5_linear_1049_9536)"/>
</mask>
<g mask="url(#mask1_1049_9536)">
<g filter="url(#filter2_dd_1049_9536)">
<rect x="14.5454" y="11.1877" width="1.98611" height="3.4375" fill="#C4C4C4"/>
</g>
</g>
</g>
</g>
<path d="M51.4219 21H49.5781V13.8516C49.5781 13.5286 49.5859 13.1771 49.6016 12.7969C49.6224 12.4115 49.6484 12.0026 49.6797 11.5703H49.6328C49.5703 11.8672 49.5104 12.1224 49.4531 12.3359C49.401 12.5443 49.349 12.7109 49.2969 12.8359L46.0078 21H44.7266L41.4219 12.9062C41.3802 12.7917 41.3281 12.6224 41.2656 12.3984C41.2083 12.1745 41.1458 11.8984 41.0781 11.5703H41.0312C41.0625 11.9453 41.0833 12.3438 41.0938 12.7656C41.1042 13.1823 41.1094 13.6224 41.1094 14.0859V21H39.3906V9.79688H42.0156L44.9297 17.0781C45.0443 17.3542 45.138 17.6094 45.2109 17.8438C45.2891 18.0729 45.349 18.2865 45.3906 18.4844H45.4375C45.5312 18.1875 45.6198 17.9193 45.7031 17.6797C45.7865 17.4401 45.8646 17.2318 45.9375 17.0547L48.8906 9.79688H51.4219V21ZM54.8984 11.4531C54.5651 11.4531 54.2891 11.3464 54.0703 11.1328C53.8516 10.9193 53.7422 10.6562 53.7422 10.3438C53.7422 10.0208 53.8516 9.75521 54.0703 9.54688C54.2891 9.33854 54.5651 9.23438 54.8984 9.23438C55.237 9.23438 55.5156 9.33854 55.7344 9.54688C55.9531 9.75521 56.0625 10.0208 56.0625 10.3438C56.0625 10.6615 55.9531 10.9271 55.7344 11.1406C55.5156 11.349 55.237 11.4531 54.8984 11.4531ZM55.7969 21H53.9766V13H55.7969V21ZM64.1562 20.5078C63.7604 20.7474 63.3672 20.9193 62.9766 21.0234C62.5859 21.1328 62.1615 21.1875 61.7031 21.1875C60.474 21.1875 59.4896 20.8281 58.75 20.1094C58.0156 19.3906 57.6484 18.4141 57.6484 17.1797C57.6484 15.8516 58.0286 14.7917 58.7891 14C59.5547 13.2083 60.5859 12.8125 61.8828 12.8125C62.3359 12.8125 62.7474 12.862 63.1172 12.9609C63.4922 13.0547 63.8724 13.2109 64.2578 13.4297L63.5469 14.6953C63.276 14.5443 63.0104 14.4349 62.75 14.3672C62.4896 14.2943 62.2057 14.2578 61.8984 14.2578C61.1328 14.2578 60.5417 14.5104 60.125 15.0156C59.7083 15.5208 59.5 16.1901 59.5 17.0234C59.5 17.8984 59.724 18.5703 60.1719 19.0391C60.625 19.5078 61.1927 19.7422 61.875 19.7422C62.0833 19.7422 62.3229 19.7057 62.5938 19.6328C62.8646 19.5547 63.138 19.4323 63.4141 19.2656L64.1562 20.5078ZM70.1484 14.5234C70.0495 14.4974 69.9531 14.4792 69.8594 14.4688C69.7708 14.4531 69.6667 14.4453 69.5469 14.4453C68.8958 14.4453 68.3958 14.6849 68.0469 15.1641C67.6979 15.6432 67.5234 16.2682 67.5234 17.0391V21H65.7031V13H67.5234V14.5391H67.5547C67.7422 13.987 68.0182 13.5703 68.3828 13.2891C68.7474 13.0026 69.1771 12.8594 69.6719 12.8594C69.8125 12.8594 69.9375 12.8672 70.0469 12.8828C70.1615 12.8984 70.2708 12.9219 70.375 12.9531L70.1484 14.5234ZM75.1719 21.1875C73.9219 21.1875 72.9297 20.8151 72.1953 20.0703C71.4661 19.3203 71.1016 18.3177 71.1016 17.0625C71.1068 15.7344 71.487 14.6953 72.2422 13.9453C72.9974 13.1901 74.026 12.8125 75.3281 12.8125C76.5833 12.8073 77.5625 13.1771 78.2656 13.9219C78.974 14.6615 79.3281 15.6641 79.3281 16.9297C79.3281 18.2318 78.9531 19.2682 78.2031 20.0391C77.4583 20.8047 76.4479 21.1875 75.1719 21.1875ZM75.2578 19.7422C75.9818 19.7422 76.5312 19.5052 76.9062 19.0312C77.2865 18.5573 77.4766 17.8724 77.4766 16.9766C77.4766 16.0911 77.2865 15.4167 76.9062 14.9531C76.526 14.4896 75.974 14.2578 75.25 14.2578C74.5365 14.2578 73.974 14.5026 73.5625 14.9922C73.1562 15.4818 72.9531 16.1589 72.9531 17.0234C72.9531 17.8932 73.1562 18.5651 73.5625 19.0391C73.9688 19.5078 74.5339 19.7422 75.2578 19.7422ZM80.4062 20.3594L81.1953 19.0781C81.5078 19.2969 81.8385 19.474 82.1875 19.6094C82.5417 19.7396 82.9245 19.8047 83.3359 19.8047C83.7839 19.8047 84.1302 19.724 84.375 19.5625C84.625 19.3958 84.75 19.1484 84.75 18.8203C84.75 18.5599 84.6458 18.3438 84.4375 18.1719C84.2344 17.9948 83.8854 17.849 83.3906 17.7344C82.3906 17.5 81.6875 17.1901 81.2812 16.8047C80.8802 16.4193 80.6797 15.9115 80.6797 15.2812C80.6797 14.5573 80.9609 13.9661 81.5234 13.5078C82.0859 13.0443 82.8229 12.8125 83.7344 12.8125C84.1875 12.8125 84.6198 12.8724 85.0312 12.9922C85.4427 13.1068 85.8438 13.2917 86.2344 13.5469L85.5 14.7969C85.1562 14.5781 84.8411 14.4219 84.5547 14.3281C84.2682 14.2344 83.974 14.1875 83.6719 14.1875C83.2448 14.1875 82.9115 14.2682 82.6719 14.4297C82.4375 14.5859 82.3203 14.8047 82.3203 15.0859C82.3203 15.3828 82.4401 15.6042 82.6797 15.75C82.9245 15.8906 83.3333 16.0286 83.9062 16.1641C84.7708 16.3724 85.4036 16.6745 85.8047 17.0703C86.2057 17.4609 86.4062 17.9844 86.4062 18.6406C86.4062 19.4167 86.1224 20.0365 85.5547 20.5C84.9922 20.9583 84.2292 21.1875 83.2656 21.1875C82.7448 21.1875 82.2448 21.1198 81.7656 20.9844C81.2917 20.8438 80.8385 20.6354 80.4062 20.3594ZM91.6406 21.1875C90.3906 21.1875 89.3984 20.8151 88.6641 20.0703C87.9349 19.3203 87.5703 18.3177 87.5703 17.0625C87.5755 15.7344 87.9557 14.6953 88.7109 13.9453C89.4661 13.1901 90.4948 12.8125 91.7969 12.8125C93.0521 12.8073 94.0312 13.1771 94.7344 13.9219C95.4427 14.6615 95.7969 15.6641 95.7969 16.9297C95.7969 18.2318 95.4219 19.2682 94.6719 20.0391C93.9271 20.8047 92.9167 21.1875 91.6406 21.1875ZM91.7266 19.7422C92.4505 19.7422 93 19.5052 93.375 19.0312C93.7552 18.5573 93.9453 17.8724 93.9453 16.9766C93.9453 16.0911 93.7552 15.4167 93.375 14.9531C92.9948 14.4896 92.4427 14.2578 91.7188 14.2578C91.0052 14.2578 90.4427 14.5026 90.0312 14.9922C89.625 15.4818 89.4219 16.1589 89.4219 17.0234C89.4219 17.8932 89.625 18.5651 90.0312 19.0391C90.4375 19.5078 91.0026 19.7422 91.7266 19.7422ZM101.977 10.5859C101.831 10.5286 101.698 10.4896 101.578 10.4688C101.458 10.4427 101.328 10.4297 101.188 10.4297C100.802 10.4297 100.51 10.5417 100.312 10.7656C100.12 10.9844 100.023 11.3021 100.023 11.7188V13H101.875V14.4219H100.023V21H98.2109V14.4219H96.8516V13H98.2109V11.625C98.2109 10.8125 98.4714 10.1693 98.9922 9.69531C99.5182 9.21615 100.214 8.97656 101.078 8.97656C101.349 8.97656 101.583 8.99479 101.781 9.03125C101.979 9.06771 102.185 9.11979 102.398 9.1875L101.977 10.5859ZM107.523 20.8906C107.289 20.9896 107.044 21.0625 106.789 21.1094C106.534 21.1562 106.26 21.1797 105.969 21.1797C105.229 21.1797 104.659 20.9844 104.258 20.5938C103.862 20.1979 103.664 19.6094 103.664 18.8281V14.4219H102.32V13H103.664V11.0547L105.477 10.5078V13H107.391V14.4219H105.477V18.6797C105.477 19.0703 105.547 19.3516 105.688 19.5234C105.833 19.6953 106.057 19.7812 106.359 19.7812C106.505 19.7812 106.643 19.7656 106.773 19.7344C106.909 19.6979 107.029 19.6536 107.133 19.6016L107.523 20.8906ZM112.609 20.1953L113.438 18.7656C113.943 19.0781 114.414 19.2995 114.852 19.4297C115.289 19.5547 115.779 19.6172 116.32 19.6172C116.966 19.6172 117.474 19.4792 117.844 19.2031C118.219 18.9219 118.406 18.5208 118.406 18C118.406 17.526 118.25 17.1536 117.938 16.8828C117.63 16.6068 117.107 16.3542 116.367 16.125C115.227 15.7865 114.388 15.3672 113.852 14.8672C113.315 14.3672 113.047 13.6901 113.047 12.8359C113.047 11.9089 113.393 11.1406 114.086 10.5312C114.779 9.91667 115.719 9.60938 116.906 9.60938C117.427 9.60938 117.94 9.66667 118.445 9.78125C118.951 9.89583 119.451 10.0729 119.945 10.3125L119.25 11.7969C118.818 11.5729 118.404 11.4141 118.008 11.3203C117.617 11.2266 117.219 11.1797 116.812 11.1797C116.219 11.1797 115.75 11.3099 115.406 11.5703C115.068 11.8307 114.898 12.1979 114.898 12.6719C114.898 13.0938 115.055 13.4271 115.367 13.6719C115.68 13.9115 116.216 14.1484 116.977 14.3828C118.143 14.7318 118.982 15.1667 119.492 15.6875C120.008 16.2083 120.266 16.9245 120.266 17.8359C120.266 18.8151 119.917 19.6198 119.219 20.25C118.521 20.875 117.526 21.1875 116.234 21.1875C115.589 21.1875 114.958 21.1068 114.344 20.9453C113.729 20.7786 113.151 20.5286 112.609 20.1953ZM125.914 20.8906C125.68 20.9896 125.435 21.0625 125.18 21.1094C124.924 21.1562 124.651 21.1797 124.359 21.1797C123.62 21.1797 123.049 20.9844 122.648 20.5938C122.253 20.1979 122.055 19.6094 122.055 18.8281V14.4219H120.711V13H122.055V11.0547L123.867 10.5078V13H125.781V14.4219H123.867V18.6797C123.867 19.0703 123.938 19.3516 124.078 19.5234C124.224 19.6953 124.448 19.7812 124.75 19.7812C124.896 19.7812 125.034 19.7656 125.164 19.7344C125.299 19.6979 125.419 19.6536 125.523 19.6016L125.914 20.8906ZM130.891 21.1875C129.641 21.1875 128.648 20.8151 127.914 20.0703C127.185 19.3203 126.82 18.3177 126.82 17.0625C126.826 15.7344 127.206 14.6953 127.961 13.9453C128.716 13.1901 129.745 12.8125 131.047 12.8125C132.302 12.8073 133.281 13.1771 133.984 13.9219C134.693 14.6615 135.047 15.6641 135.047 16.9297C135.047 18.2318 134.672 19.2682 133.922 20.0391C133.177 20.8047 132.167 21.1875 130.891 21.1875ZM130.977 19.7422C131.701 19.7422 132.25 19.5052 132.625 19.0312C133.005 18.5573 133.195 17.8724 133.195 16.9766C133.195 16.0911 133.005 15.4167 132.625 14.9531C132.245 14.4896 131.693 14.2578 130.969 14.2578C130.255 14.2578 129.693 14.5026 129.281 14.9922C128.875 15.4818 128.672 16.1589 128.672 17.0234C128.672 17.8932 128.875 18.5651 129.281 19.0391C129.688 19.5078 130.253 19.7422 130.977 19.7422ZM141.352 14.5234C141.253 14.4974 141.156 14.4792 141.062 14.4688C140.974 14.4531 140.87 14.4453 140.75 14.4453C140.099 14.4453 139.599 14.6849 139.25 15.1641C138.901 15.6432 138.727 16.2682 138.727 17.0391V21H136.906V13H138.727V14.5391H138.758C138.945 13.987 139.221 13.5703 139.586 13.2891C139.951 13.0026 140.38 12.8594 140.875 12.8594C141.016 12.8594 141.141 12.8672 141.25 12.8828C141.365 12.8984 141.474 12.9219 141.578 12.9531L141.352 14.5234ZM149.594 17.4766H144.133C144.164 18.2318 144.383 18.8073 144.789 19.2031C145.195 19.5938 145.763 19.7891 146.492 19.7891C146.789 19.7891 147.128 19.7292 147.508 19.6094C147.888 19.4896 148.263 19.2969 148.633 19.0312L149.453 20.1641C148.958 20.5234 148.456 20.7839 147.945 20.9453C147.435 21.1068 146.872 21.1875 146.258 21.1875C145.013 21.1875 144.044 20.8307 143.352 20.1172C142.659 19.3984 142.31 18.3958 142.305 17.1094C142.305 15.8281 142.661 14.7917 143.375 14C144.094 13.2083 145.013 12.8125 146.133 12.8125C147.206 12.8125 148.049 13.151 148.664 13.8281C149.284 14.5 149.594 15.4531 149.594 16.6875V17.4766ZM147.836 16.2188C147.836 15.5312 147.685 15.0156 147.383 14.6719C147.086 14.3229 146.664 14.1484 146.117 14.1484C145.602 14.1484 145.161 14.3359 144.797 14.7109C144.438 15.0807 144.216 15.5833 144.133 16.2188H147.836Z" fill="white"/>
<path d="M40.9004 34.1172C40.1615 34.1172 39.5706 33.8844 39.1279 33.4189C38.6885 32.9502 38.4688 32.3301 38.4688 31.5586C38.4688 30.722 38.6966 30.0677 39.1523 29.5957C39.6081 29.1237 40.2298 28.8861 41.0176 28.8828C41.763 28.8796 42.3441 29.109 42.7607 29.5713C43.1807 30.0335 43.3906 30.6699 43.3906 31.4805C43.3906 32.2812 43.1644 32.9209 42.7119 33.3994C42.2627 33.8779 41.6589 34.1172 40.9004 34.1172ZM40.959 33.4434C41.4766 33.4434 41.8737 33.2757 42.1504 32.9404C42.4303 32.6019 42.5703 32.125 42.5703 31.5098C42.5703 30.8815 42.4303 30.3997 42.1504 30.0645C41.8704 29.7259 41.4733 29.5566 40.959 29.5566C40.4447 29.5566 40.0378 29.7324 39.7383 30.084C39.4388 30.4355 39.2891 30.9173 39.2891 31.5293C39.2891 32.1217 39.4404 32.5889 39.7432 32.9307C40.0459 33.2725 40.4512 33.4434 40.959 33.4434ZM47.1357 29.6836C47.0739 29.6641 47.0186 29.651 46.9697 29.6445C46.9209 29.6348 46.859 29.6299 46.7842 29.6299C46.3773 29.6299 46.0566 29.804 45.8223 30.1523C45.5879 30.4974 45.4707 30.9303 45.4707 31.4512V34H44.6699V29H45.4707V29.9912H45.4902C45.6042 29.6396 45.7783 29.3727 46.0127 29.1904C46.2471 29.0049 46.5173 28.9121 46.8232 28.9121C46.9242 28.9121 47.0088 28.917 47.0771 28.9268C47.1488 28.9365 47.2122 28.9512 47.2676 28.9707L47.1357 29.6836ZM52.585 36.2998H51.7842V33.1406H51.7646C51.5921 33.4661 51.3626 33.7103 51.0762 33.873C50.793 34.0358 50.4528 34.1172 50.0557 34.1172C49.4274 34.1172 48.9229 33.8942 48.542 33.4482C48.1644 32.999 47.9756 32.3887 47.9756 31.6172C47.9756 30.7871 48.1839 30.1247 48.6006 29.6299C49.0173 29.1318 49.5771 28.8828 50.2803 28.8828C50.6221 28.8828 50.9167 28.9512 51.1641 29.0879C51.4115 29.2214 51.6117 29.4232 51.7646 29.6934H51.7842V29H52.585V36.2998ZM51.7842 31.749V31.0215C51.7842 30.6113 51.6491 30.2646 51.3789 29.9814C51.112 29.6982 50.7718 29.5566 50.3584 29.5566C49.8766 29.5566 49.4958 29.7357 49.2158 30.0938C48.9359 30.4486 48.7959 30.9499 48.7959 31.5977C48.7959 32.1738 48.931 32.6263 49.2012 32.9551C49.4714 33.2806 49.8197 33.4434 50.2461 33.4434C50.7148 33.4434 51.0876 33.2839 51.3643 32.9648C51.6442 32.6426 51.7842 32.2373 51.7842 31.749ZM57.5752 34H56.7744V33.2188H56.7549C56.5824 33.5182 56.3691 33.7428 56.1152 33.8926C55.8646 34.0423 55.5716 34.1172 55.2363 34.1172C54.7676 34.1172 54.3883 33.9805 54.0986 33.707C53.8089 33.4336 53.6641 33.0706 53.6641 32.6182C53.6641 32.1917 53.8105 31.8385 54.1035 31.5586C54.3965 31.2786 54.8115 31.0996 55.3486 31.0215L56.7744 30.8311V30.7188C56.7744 30.2988 56.6768 30.001 56.4814 29.8252C56.2861 29.6462 56.0257 29.5566 55.7002 29.5566C55.4398 29.5566 55.1891 29.6055 54.9482 29.7031C54.7074 29.8008 54.4811 29.9505 54.2695 30.1523L53.8008 29.6689C54.0807 29.3988 54.3786 29.2002 54.6943 29.0732C55.0101 28.9463 55.3617 28.8828 55.749 28.8828C56.3545 28.8828 56.8102 29.0391 57.1162 29.3516C57.4222 29.6608 57.5752 30.1263 57.5752 30.748V34ZM56.7744 31.9688V31.4707L55.5684 31.6367C55.2005 31.6888 54.9238 31.7816 54.7383 31.915C54.5527 32.0485 54.46 32.2585 54.46 32.5449C54.46 32.8444 54.5462 33.0739 54.7188 33.2334C54.8945 33.3896 55.1077 33.4678 55.3584 33.4678C55.7913 33.4678 56.1348 33.3262 56.3887 33.043C56.6458 32.7598 56.7744 32.4017 56.7744 31.9688ZM59.123 34V26.5977H59.9238V34H59.123ZM61.9551 27.8037C61.7923 27.8037 61.6556 27.75 61.5449 27.6426C61.4342 27.5319 61.3789 27.3968 61.3789 27.2373C61.3789 27.0778 61.4342 26.9443 61.5449 26.8369C61.6556 26.7262 61.7923 26.6709 61.9551 26.6709C62.1178 26.6709 62.2546 26.7262 62.3652 26.8369C62.4759 26.9443 62.5312 27.0778 62.5312 27.2373C62.5312 27.3968 62.4759 27.5319 62.3652 27.6426C62.2546 27.75 62.1178 27.8037 61.9551 27.8037ZM62.3457 34H61.5449V29H62.3457V34ZM70.6904 29L68.332 34.9521C68.1465 35.4209 67.9137 35.7708 67.6338 36.002C67.3538 36.2363 67.0251 36.3535 66.6475 36.3535C66.5498 36.3535 66.4603 36.347 66.3789 36.334C66.2975 36.3242 66.2194 36.3096 66.1445 36.29L66.3008 35.6064C66.3594 35.626 66.4131 35.639 66.4619 35.6455C66.514 35.6553 66.5645 35.6602 66.6133 35.6602C66.8281 35.6602 67.0055 35.6048 67.1455 35.4941C67.2887 35.3835 67.4027 35.2272 67.4873 35.0254L67.9219 33.9902L65.9688 29H66.8574L68.21 32.8477C68.2165 32.8704 68.2279 32.9144 68.2441 32.9795C68.2637 33.0446 68.2865 33.1276 68.3125 33.2285H68.3418C68.3516 33.1895 68.363 33.139 68.376 33.0771C68.3923 33.0153 68.4134 32.9421 68.4395 32.8574L69.8604 29H70.6904ZM75.5977 34H74.7969V33.209H74.7773C74.6113 33.5117 74.3997 33.7396 74.1426 33.8926C73.8854 34.0423 73.5827 34.1172 73.2344 34.1172C72.6387 34.1172 72.1911 33.9398 71.8916 33.585C71.5954 33.2301 71.4473 32.6979 71.4473 31.9883V29H72.2432V31.8613C72.2432 32.3887 72.3441 32.7842 72.5459 33.0479C72.7477 33.3115 73.0505 33.4434 73.4541 33.4434C73.8447 33.4434 74.1654 33.3001 74.416 33.0137C74.6699 32.724 74.7969 32.3464 74.7969 31.8809V29H75.5977V34ZM81.3691 34H80.2461L78.0391 31.5977H78.0195V34H77.2188V26.5977H78.0195V31.29H78.0391L80.1387 29H81.1885L78.8691 31.4121L81.3691 34ZM82.1895 34V26.5977H82.9902V34H82.1895ZM88.1514 34H87.3506V33.2188H87.3311C87.1585 33.5182 86.9453 33.7428 86.6914 33.8926C86.4408 34.0423 86.1478 34.1172 85.8125 34.1172C85.3438 34.1172 84.9645 33.9805 84.6748 33.707C84.3851 33.4336 84.2402 33.0706 84.2402 32.6182C84.2402 32.1917 84.3867 31.8385 84.6797 31.5586C84.9727 31.2786 85.3877 31.0996 85.9248 31.0215L87.3506 30.8311V30.7188C87.3506 30.2988 87.2529 30.001 87.0576 29.8252C86.8623 29.6462 86.6019 29.5566 86.2764 29.5566C86.016 29.5566 85.7653 29.6055 85.5244 29.7031C85.2835 29.8008 85.0573 29.9505 84.8457 30.1523L84.377 29.6689C84.6569 29.3988 84.9548 29.2002 85.2705 29.0732C85.5863 28.9463 85.9378 28.8828 86.3252 28.8828C86.9307 28.8828 87.3864 29.0391 87.6924 29.3516C87.9984 29.6608 88.1514 30.1263 88.1514 30.748V34ZM87.3506 31.9688V31.4707L86.1445 31.6367C85.7767 31.6888 85.5 31.7816 85.3145 31.915C85.1289 32.0485 85.0361 32.2585 85.0361 32.5449C85.0361 32.8444 85.1224 33.0739 85.2949 33.2334C85.4707 33.3896 85.6839 33.4678 85.9346 33.4678C86.3675 33.4678 86.7109 33.3262 86.9648 33.043C87.222 32.7598 87.3506 32.4017 87.3506 31.9688ZM90.5195 33.3555H90.5V34H89.6992V26.5977H90.5V29.8789H90.5195C90.7181 29.5469 90.9606 29.2979 91.2471 29.1318C91.5368 28.9658 91.8704 28.8828 92.248 28.8828C92.8893 28.8828 93.3906 29.1074 93.752 29.5566C94.1165 30.0026 94.2988 30.6016 94.2988 31.3535C94.2988 32.1901 94.0954 32.8607 93.6885 33.3652C93.2816 33.8665 92.7249 34.1172 92.0186 34.1172C91.6898 34.1172 91.4001 34.0537 91.1494 33.9268C90.8988 33.7998 90.6888 33.6094 90.5195 33.3555ZM90.5 31.2607V31.959C90.5 32.3724 90.6335 32.724 90.9004 33.0137C91.1706 33.3001 91.5124 33.4434 91.9258 33.4434C92.4108 33.4434 92.79 33.2578 93.0635 32.8867C93.3402 32.5156 93.4785 31.9997 93.4785 31.3389C93.4785 30.7822 93.3499 30.346 93.0928 30.0303C92.8356 29.7145 92.4873 29.5566 92.0479 29.5566C91.5824 29.5566 91.208 29.7194 90.9248 30.0449C90.6416 30.3672 90.5 30.7725 90.5 31.2607ZM100.412 34.1172C99.6732 34.1172 99.0824 33.8844 98.6396 33.4189C98.2002 32.9502 97.9805 32.3301 97.9805 31.5586C97.9805 30.722 98.2083 30.0677 98.6641 29.5957C99.1198 29.1237 99.7415 28.8861 100.529 28.8828C101.275 28.8796 101.856 29.109 102.272 29.5713C102.692 30.0335 102.902 30.6699 102.902 31.4805C102.902 32.2812 102.676 32.9209 102.224 33.3994C101.774 33.8779 101.171 34.1172 100.412 34.1172ZM100.471 33.4434C100.988 33.4434 101.385 33.2757 101.662 32.9404C101.942 32.6019 102.082 32.125 102.082 31.5098C102.082 30.8815 101.942 30.3997 101.662 30.0645C101.382 29.7259 100.985 29.5566 100.471 29.5566C99.9564 29.5566 99.5495 29.7324 99.25 30.084C98.9505 30.4355 98.8008 30.9173 98.8008 31.5293C98.8008 32.1217 98.9521 32.5889 99.2549 32.9307C99.5576 33.2725 99.9629 33.4434 100.471 33.4434ZM104.182 34V26.5977H104.982V34H104.182ZM107.014 27.8037C106.851 27.8037 106.714 27.75 106.604 27.6426C106.493 27.5319 106.438 27.3968 106.438 27.2373C106.438 27.0778 106.493 26.9443 106.604 26.8369C106.714 26.7262 106.851 26.6709 107.014 26.6709C107.176 26.6709 107.313 26.7262 107.424 26.8369C107.535 26.9443 107.59 27.0778 107.59 27.2373C107.59 27.3968 107.535 27.5319 107.424 27.6426C107.313 27.75 107.176 27.8037 107.014 27.8037ZM107.404 34H106.604V29H107.404V34ZM113.176 34H112.375V31.1484C112.375 30.6178 112.277 30.2207 112.082 29.957C111.89 29.6901 111.6 29.5566 111.213 29.5566C110.812 29.5566 110.48 29.708 110.217 30.0107C109.956 30.3102 109.826 30.6895 109.826 31.1484V34H109.025V29H109.826V29.8301H109.846C110.035 29.5143 110.266 29.2783 110.539 29.1221C110.812 28.9626 111.128 28.8828 111.486 28.8828C112.033 28.8828 112.451 29.0602 112.741 29.415C113.031 29.7666 113.176 30.276 113.176 30.9434V34ZM118.957 33.7314C118.957 34.6071 118.732 35.263 118.283 35.6992C117.837 36.1354 117.225 36.3535 116.447 36.3535C116.105 36.3535 115.786 36.321 115.49 36.2559C115.197 36.1908 114.895 36.085 114.582 35.9385L114.875 35.3232C115.135 35.4437 115.389 35.5316 115.637 35.5869C115.887 35.6423 116.154 35.6699 116.438 35.6699C116.971 35.6699 117.391 35.5186 117.697 35.2158C118.003 34.9131 118.156 34.4541 118.156 33.8389V33.1602H118.137C117.948 33.4792 117.71 33.7184 117.424 33.8779C117.137 34.0374 116.802 34.1172 116.418 34.1172C115.796 34.1172 115.295 33.8958 114.914 33.4531C114.536 33.0072 114.348 32.4098 114.348 31.6611C114.348 30.8408 114.556 30.1735 114.973 29.6592C115.393 29.1416 115.948 28.8828 116.638 28.8828C116.976 28.8828 117.269 28.9512 117.517 29.0879C117.767 29.2214 117.974 29.4232 118.137 29.6934H118.156V29H118.957V33.7314ZM118.156 31.7393V31.002C118.156 30.6048 118.021 30.2646 117.751 29.9814C117.484 29.6982 117.15 29.5566 116.75 29.5566C116.258 29.5566 115.871 29.7259 115.588 30.0645C115.308 30.403 115.168 30.9173 115.168 31.6074C115.168 32.1999 115.298 32.654 115.559 32.9697C115.819 33.2855 116.179 33.4434 116.638 33.4434C117.087 33.4434 117.451 33.2839 117.731 32.9648C118.015 32.6458 118.156 32.2373 118.156 31.7393Z" fill="white"/>
<defs>
<filter id="filter0_dd_1049_9536" x="13.7812" y="9.58333" width="14.4375" height="6.875" filterUnits="userSpaceOnUse" color-interpolation-filters="sRGB">
<feFlood flood-opacity="0" result="BackgroundImageFix"/>
<feColorMatrix in="SourceAlpha" type="matrix" values="0 0 0 0 0 0 0 0 0 0 0 0 0 0 0 0 0 0 127 0" result="hardAlpha"/>
<feOffset dy="0.229167"/>
<feGaussianBlur stdDeviation="0.229167"/>
<feColorMatrix type="matrix" values="0 0 0 0 0 0 0 0 0 0 0 0 0 0 0 0 0 0 0.1 0"/>
<feBlend mode="normal" in2="BackgroundImageFix" result="effect1_dropShadow_1049_9536"/>
<feColorMatrix in="SourceAlpha" type="matrix" values="0 0 0 0 0 0 0 0 0 0 0 0 0 0 0 0 0 0 127 0" result="hardAlpha"/>
<feOffset dy="0.458333"/>
<feGaussianBlur stdDeviation="0.6875"/>
<feColorMatrix type="matrix" values="0 0 0 0 0 0 0 0 0 0 0 0 0 0 0 0 0 0 0.2 0"/>
<feBlend mode="normal" in2="effect1_dropShadow_1049_9536" result="effect2_dropShadow_1049_9536"/>
<feBlend mode="normal" in="SourceGraphic" in2="effect2_dropShadow_1049_9536" result="shape"/>
</filter>
<filter id="filter1_dd_1049_9536" x="15.1562" y="17.1458" width="11.6875" height="11.6875" filterUnits="userSpaceOnUse" color-interpolation-filters="sRGB">
<feFlood flood-opacity="0" result="BackgroundImageFix"/>
<feColorMatrix in="SourceAlpha" type="matrix" values="0 0 0 0 0 0 0 0 0 0 0 0 0 0 0 0 0 0 127 0" result="hardAlpha"/>
<feOffset dy="0.229167"/>
<feGaussianBlur stdDeviation="0.229167"/>
<feColorMatrix type="matrix" values="0 0 0 0 1 0 0 0 0 1 0 0 0 0 1 0 0 0 0.6 0"/>
<feBlend mode="normal" in2="BackgroundImageFix" result="effect1_dropShadow_1049_9536"/>
<feColorMatrix in="SourceAlpha" type="matrix" values="0 0 0 0 0 0 0 0 0 0 0 0 0 0 0 0 0 0 127 0" result="hardAlpha"/>
<feOffset dy="0.458333"/>
<feGaussianBlur stdDeviation="0.6875"/>
<feColorMatrix type="matrix" values="0 0 0 0 1 0 0 0 0 1 0 0 0 0 1 0 0 0 0.6 0"/>
<feBlend mode="normal" in2="effect1_dropShadow_1049_9536" result="effect2_dropShadow_1049_9536"/>
<feBlend mode="normal" in="SourceGraphic" in2="effect2_dropShadow_1049_9536" result="shape"/>
</filter>
<filter id="filter2_dd_1049_9536" x="13.1704" y="8.89583" width="15.6594" height="6.18774" filterUnits="userSpaceOnUse" color-interpolation-filters="sRGB">
<feFlood flood-opacity="0" result="BackgroundImageFix"/>
<feColorMatrix in="SourceAlpha" type="matrix" values="0 0 0 0 0 0 0 0 0 0 0 0 0 0 0 0 0 0 127 0" result="hardAlpha"/>
<feOffset dy="-0.916667"/>
<feGaussianBlur stdDeviation="0.229167"/>
<feColorMatrix type="matrix" values="0 0 0 0 0 0 0 0 0 0 0 0 0 0 0 0 0 0 0.1 0"/>
<feBlend mode="normal" in2="BackgroundImageFix" result="effect1_dropShadow_1049_9536"/>
<feColorMatrix in="SourceAlpha" type="matrix" values="0 0 0 0 0 0 0 0 0 0 0 0 0 0 0 0 0 0 127 0" result="hardAlpha"/>
<feOffset dy="-0.916667"/>
<feGaussianBlur stdDeviation="0.6875"/>
<feColorMatrix type="matrix" values="0 0 0 0 0 0 0 0 0 0 0 0 0 0 0 0 0 0 0.2 0"/>
<feBlend mode="normal" in2="effect1_dropShadow_1049_9536" result="effect2_dropShadow_1049_9536"/>
<feBlend mode="normal" in="SourceGraphic" in2="effect2_dropShadow_1049_9536" result="shape"/>
</filter>
<linearGradient id="paint0_linear_1049_9536" x1="15.1875" y1="10.5078" x2="19.6603" y2="31.0495" gradientUnits="userSpaceOnUse">
<stop offset="0.270833" stop-color="white"/>
<stop offset="1" stop-color="#DFDFDF"/>
</linearGradient>
<linearGradient id="paint1_linear_1049_9536" x1="21" y1="13.25" x2="25.0962" y2="32.4541" gradientUnits="userSpaceOnUse">
<stop stop-color="#0078D4"/>
<stop offset="1" stop-color="#114A8B"/>
</linearGradient>
<linearGradient id="paint2_linear_1049_9536" x1="21" y1="11.1875" x2="21.1934" y2="14.1494" gradientUnits="userSpaceOnUse">
<stop stop-color="#28AFEA"/>
<stop offset="1" stop-color="#0078D4"/>
</linearGradient>
<linearGradient id="paint3_linear_1049_9536" x1="21" y1="11.1875" x2="21.1934" y2="14.1494" gradientUnits="userSpaceOnUse">
<stop stop-color="#30DAFF"/>
<stop offset="1" stop-color="#0094D4"/>
</linearGradient>
<linearGradient id="paint4_linear_1049_9536" x1="20.5035" y1="10.5" x2="20.5035" y2="11.875" gradientUnits="userSpaceOnUse">
<stop stop-color="#22BCFF"/>
<stop offset="1" stop-color="#0088F0"/>
</linearGradient>
<linearGradient id="paint5_linear_1049_9536" x1="20.5035" y1="10.5" x2="20.5035" y2="11.875" gradientUnits="userSpaceOnUse">
<stop stop-color="#28AFEA"/>
<stop offset="1" stop-color="#3CCBF4"/>
</linearGradient>
<clipPath id="clip0_1049_9536">
<rect width="22" height="22" fill="white" transform="translate(10 10.5)"/>
</clipPath>
<clipPath id="clip1_1049_9536">
<rect width="22" height="22" fill="white" transform="translate(10 10.5)"/>
</clipPath>
</defs>
</svg>
